<svg width="464" height="338" viewBox="0 0 464 338" fill="none" xmlns="http://www.w3.org/2000/svg">
<path d="M447.163 300.569H16.8366C7.53857 300.569 0 293.049 0 283.773V17.529C0 8.25336 7.53857 0.73291 16.8366 0.73291H447.163C456.461 0.73291 464 8.25336 464 17.529V283.776C463.997 293.052 456.461 300.569 447.163 300.569Z" fill="url(#paint0_linear_1397_997)"/>
<path d="M423.977 39.9247H14.4284V281.34H423.977V39.9247Z" fill="url(#paint1_linear_1397_997)"/>
<path d="M280.098 207.981L210.084 236L243.996 300.572H451.822C458.548 300.572 463.997 295.133 463.997 288.425V207.984H280.098V207.981Z" fill="url(#paint2_linear_1397_997)"/>
<path d="M449.585 0.73291H14.4154C6.45385 0.73291 0 7.17124 0 15.1136V30.24H463.997V15.1136C463.997 7.17124 457.544 0.73291 449.585 0.73291Z" fill="url(#paint3_linear_1397_997)"/>
<path d="M18.3702 19.4216C20.5487 19.4216 22.3147 17.6598 22.3147 15.4866C22.3147 13.3134 20.5487 11.5516 18.3702 11.5516C16.1918 11.5516 14.4258 13.3134 14.4258 15.4866C14.4258 17.6598 16.1918 19.4216 18.3702 19.4216Z" fill="white"/>
<path d="M34.4829 19.4217C36.6614 19.4217 38.4273 17.6599 38.4273 15.4867C38.4273 13.3135 36.6614 11.5517 34.4829 11.5517C32.3044 11.5517 30.5384 13.3135 30.5384 15.4867C30.5384 17.6599 32.3044 19.4217 34.4829 19.4217Z" fill="white"/>
<path d="M50.5928 19.4217C52.7713 19.4217 54.5373 17.6599 54.5373 15.4867C54.5373 13.3135 52.7713 11.5517 50.5928 11.5517C48.4143 11.5517 46.6484 13.3135 46.6484 15.4867C46.6484 17.6599 48.4143 19.4217 50.5928 19.4217Z" fill="white"/>
<path d="M448.547 39.3991H261.377V281.063H448.547V39.3991Z" fill="url(#paint4_linear_1397_997)"/>
<path d="M30.9095 116.654C31.5271 113.959 33.5824 111.808 36.2164 111.039" stroke="white" stroke-width="1.5" stroke-miterlimit="10" stroke-linecap="round" stroke-linejoin="round"/>
<path d="M442.633 22.1008C446.35 22.1008 449.364 19.0943 449.364 15.3855C449.364 11.6767 446.35 8.6702 442.633 8.6702C438.915 8.6702 435.901 11.6767 435.901 15.3855C435.901 19.0943 438.915 22.1008 442.633 22.1008Z" fill="url(#paint5_linear_1397_997)"/>
<path d="M124.058 21.9248C127.678 21.9248 130.613 18.997 130.613 15.3855C130.613 11.7739 127.678 8.84618 124.058 8.84618C120.438 8.84618 117.503 11.7739 117.503 15.3855C117.503 18.997 120.438 21.9248 124.058 21.9248Z" fill="url(#paint6_linear_1397_997)"/>
<path d="M439.957 14.1818H130.616V16.5894H439.957V14.1818Z" fill="url(#paint7_linear_1397_997)"/>
<path d="M102.951 80.6387H94.5376V89.0318H102.951V80.6387Z" fill="url(#paint8_linear_1397_997)"/>
<path d="M102.951 96.6154H94.5376V105.008H102.951V96.6154Z" fill="url(#paint9_linear_1397_997)"/>
<path d="M102.951 128.565H94.5376V136.959H102.951V128.565Z" fill="url(#paint10_linear_1397_997)"/>
<path d="M102.951 144.543H94.5376V152.936H102.951V144.543Z" fill="url(#paint11_linear_1397_997)"/>
<path d="M102.951 160.516H94.5376V168.909H102.951V160.516Z" fill="url(#paint12_linear_1397_997)"/>
<path d="M102.951 176.493H94.5376V184.886H102.951V176.493Z" fill="url(#paint13_linear_1397_997)"/>
<path d="M118.966 96.6154H110.553V105.008H118.966V96.6154Z" fill="url(#paint14_linear_1397_997)"/>
<path d="M118.966 112.592H110.553V120.985H118.966V112.592Z" fill="url(#paint15_linear_1397_997)"/>
<path d="M118.966 128.565H110.553V136.959H118.966V128.565Z" fill="url(#paint16_linear_1397_997)"/>
<path d="M118.966 160.516H110.553V168.909H118.966V160.516Z" fill="url(#paint17_linear_1397_997)"/>
<path d="M118.966 176.493H110.553V184.886H118.966V176.493Z" fill="url(#paint18_linear_1397_997)"/>
<path d="M134.978 80.6387H126.564V89.0318H134.978V80.6387Z" fill="url(#paint19_linear_1397_997)"/>
<path d="M134.978 96.6154H126.564V105.008H134.978V96.6154Z" fill="url(#paint20_linear_1397_997)"/>
<path d="M134.978 112.592H126.564V120.985H134.978V112.592Z" fill="url(#paint21_linear_1397_997)"/>
<path d="M134.978 128.565H126.564V136.959H134.978V128.565Z" fill="url(#paint22_linear_1397_997)"/>
<path d="M134.978 144.543H126.564V152.936H134.978V144.543Z" fill="url(#paint23_linear_1397_997)"/>
<path d="M134.978 160.516H126.564V168.909H134.978V160.516Z" fill="url(#paint24_linear_1397_997)"/>
<path d="M134.978 176.493H126.564V184.886H134.978V176.493Z" fill="url(#paint25_linear_1397_997)"/>
<path d="M150.993 96.6154H142.58V105.008H150.993V96.6154Z" fill="url(#paint26_linear_1397_997)"/>
<path d="M150.993 112.592H142.58V120.985H150.993V112.592Z" fill="url(#paint27_linear_1397_997)"/>
<path d="M150.993 144.543H142.58V152.936H150.993V144.543Z" fill="url(#paint28_linear_1397_997)"/>
<path d="M150.993 160.516H142.58V168.909H150.993V160.516Z" fill="url(#paint29_linear_1397_997)"/>
<path d="M167.005 80.6387H158.592V89.0318H167.005V80.6387Z" fill="url(#paint30_linear_1397_997)"/>
<path d="M167.005 96.6154H158.592V105.008H167.005V96.6154Z" fill="url(#paint31_linear_1397_997)"/>
<path d="M167.005 112.592H158.592V120.985H167.005V112.592Z" fill="url(#paint32_linear_1397_997)"/>
<path d="M167.005 128.565H158.592V136.959H167.005V128.565Z" fill="url(#paint33_linear_1397_997)"/>
<path d="M167.005 144.543H158.592V152.936H167.005V144.543Z" fill="url(#paint34_linear_1397_997)"/>
<path d="M167.005 160.516H158.592V168.909H167.005V160.516Z" fill="url(#paint35_linear_1397_997)"/>
<path d="M167.005 176.493H158.592V184.886H167.005V176.493Z" fill="url(#paint36_linear_1397_997)"/>
<path d="M183.02 96.6154H174.607V105.008H183.02V96.6154Z" fill="url(#paint37_linear_1397_997)"/>
<path d="M183.02 112.592H174.607V120.985H183.02V112.592Z" fill="url(#paint38_linear_1397_997)"/>
<path d="M183.02 144.543H174.607V152.936H183.02V144.543Z" fill="url(#paint39_linear_1397_997)"/>
<path d="M183.02 160.516H174.607V168.909H183.02V160.516Z" fill="url(#paint40_linear_1397_997)"/>
<path d="M183.02 176.493H174.607V184.886H183.02V176.493Z" fill="url(#paint41_linear_1397_997)"/>
<path d="M199.032 80.6387H190.619V89.0318H199.032V80.6387Z" fill="url(#paint42_linear_1397_997)"/>
<path d="M199.032 96.6154H190.619V105.008H199.032V96.6154Z" fill="url(#paint43_linear_1397_997)"/>
<path d="M199.032 112.592H190.619V120.985H199.032V112.592Z" fill="url(#paint44_linear_1397_997)"/>
<path d="M199.032 128.565H190.619V136.959H199.032V128.565Z" fill="url(#paint45_linear_1397_997)"/>
<path d="M199.032 144.543H190.619V152.936H199.032V144.543Z" fill="url(#paint46_linear_1397_997)"/>
<path d="M199.032 160.516H190.619V168.909H199.032V160.516Z" fill="url(#paint47_linear_1397_997)"/>
<path d="M215.048 80.6387H206.634V89.0318H215.048V80.6387Z" fill="url(#paint48_linear_1397_997)"/>
<path d="M215.048 96.6154H206.634V105.008H215.048V96.6154Z" fill="url(#paint49_linear_1397_997)"/>
<path d="M215.048 128.565H206.634V136.959H215.048V128.565Z" fill="url(#paint50_linear_1397_997)"/>
<path d="M215.048 144.543H206.634V152.936H215.048V144.543Z" fill="url(#paint51_linear_1397_997)"/>
<path d="M215.048 160.516H206.634V168.909H215.048V160.516Z" fill="url(#paint52_linear_1397_997)"/>
<path d="M215.048 176.493H206.634V184.886H215.048V176.493Z" fill="url(#paint53_linear_1397_997)"/>
<path d="M231.06 80.6387H222.646V89.0318H231.06V80.6387Z" fill="url(#paint54_linear_1397_997)"/>
<path d="M231.06 96.6154H222.646V105.008H231.06V96.6154Z" fill="url(#paint55_linear_1397_997)"/>
<path d="M231.06 112.592H222.646V120.985H231.06V112.592Z" fill="url(#paint56_linear_1397_997)"/>
<path d="M231.06 128.565H222.646V136.959H231.06V128.565Z" fill="url(#paint57_linear_1397_997)"/>
<path d="M231.06 144.543H222.646V152.936H231.06V144.543Z" fill="url(#paint58_linear_1397_997)"/>
<path d="M231.06 176.493H222.646V184.886H231.06V176.493Z" fill="url(#paint59_linear_1397_997)"/>
<path d="M280.334 65.6573H276.402V69.5793H280.334V65.6573Z" fill="white"/>
<path d="M280.334 73.1209H276.402V77.0429H280.334V73.1209Z" fill="white"/>
<path d="M280.334 88.0529H276.402V91.9749H280.334V88.0529Z" fill="white"/>
<path d="M280.334 95.5164H276.402V99.4384H280.334V95.5164Z" fill="white"/>
<path d="M280.334 102.983H276.402V106.905H280.334V102.983Z" fill="white"/>
<path d="M280.334 110.449H276.402V114.371H280.334V110.449Z" fill="white"/>
<path d="M287.818 73.1209H283.886V77.0429H287.818V73.1209Z" fill="white"/>
<path d="M287.818 80.5868H283.886V84.5088H287.818V80.5868Z" fill="white"/>
<path d="M287.818 88.0529H283.886V91.9749H287.818V88.0529Z" fill="white"/>
<path d="M287.818 102.983H283.886V106.905H287.818V102.983Z" fill="white"/>
<path d="M287.818 110.449H283.886V114.371H287.818V110.449Z" fill="white"/>
<path d="M295.299 65.6574H291.368V69.5794H295.299V65.6574Z" fill="white"/>
<path d="M295.299 80.5868H291.368V84.5088H295.299V80.5868Z" fill="white"/>
<path d="M295.299 88.0529H291.368V91.9749H295.299V88.0529Z" fill="white"/>
<path d="M295.299 95.5164H291.368V99.4384H295.299V95.5164Z" fill="white"/>
<path d="M295.299 102.983H291.368V106.905H295.299V102.983Z" fill="white"/>
<path d="M295.299 110.449H291.368V114.371H295.299V110.449Z" fill="white"/>
<path d="M302.783 73.1209H298.852V77.0429H302.783V73.1209Z" fill="white"/>
<path d="M302.783 80.5868H298.852V84.5088H302.783V80.5868Z" fill="white"/>
<path d="M302.783 95.5164H298.852V99.4384H302.783V95.5164Z" fill="white"/>
<path d="M302.783 102.983H298.852V106.905H302.783V102.983Z" fill="white"/>
<path d="M310.267 65.6574H306.336V69.5794H310.267V65.6574Z" fill="white"/>
<path d="M310.267 73.1209H306.336V77.0429H310.267V73.1209Z" fill="white"/>
<path d="M310.267 80.5868H306.336V84.5088H310.267V80.5868Z" fill="white"/>
<path d="M310.267 88.0529H306.336V91.9749H310.267V88.0529Z" fill="white"/>
<path d="M310.267 95.5164H306.336V99.4384H310.267V95.5164Z" fill="white"/>
<path d="M310.267 102.983H306.336V106.905H310.267V102.983Z" fill="white"/>
<path d="M310.267 110.449H306.336V114.371H310.267V110.449Z" fill="white"/>
<path d="M317.749 73.1209H313.817V77.0429H317.749V73.1209Z" fill="white"/>
<path d="M317.749 80.5868H313.817V84.5088H317.749V80.5868Z" fill="white"/>
<path d="M317.749 95.5164H313.817V99.4384H317.749V95.5164Z" fill="white"/>
<path d="M317.749 102.983H313.817V106.905H317.749V102.983Z" fill="white"/>
<path d="M317.749 65.6574H313.817V69.5794H317.749V65.6574Z" fill="white"/>
<path d="M325.233 73.1209H321.301V77.0429H325.233V73.1209Z" fill="white"/>
<path d="M325.233 80.5868H321.301V84.5088H325.233V80.5868Z" fill="white"/>
<path d="M325.233 88.0529H321.301V91.9749H325.233V88.0529Z" fill="white"/>
<path d="M325.233 95.5164H321.301V99.4384H325.233V95.5164Z" fill="white"/>
<path d="M325.233 102.983H321.301V106.905H325.233V102.983Z" fill="white"/>
<path d="M325.233 110.449H321.301V114.371H325.233V110.449Z" fill="white"/>
<path d="M448.546 269.665L448.493 179.593L408.445 169.353V169.356H377.382L377.379 169.353L325.233 185.442V269.665H448.546Z" fill="url(#paint60_linear_1397_997)"/>
<path d="M423.451 205.221H351.941V243.165H423.451V205.221Z" fill="url(#paint61_linear_1397_997)"/>
<path d="M417.421 91.9771V125.904C417.421 118.257 411.208 112.053 403.537 112.053C395.866 112.053 389.653 118.257 389.653 125.904L389.647 122.444V118.351H389.641L389.625 112.056H365.093C358.213 112.056 352.425 107.48 350.611 101.208C350.847 102.007 351.149 102.782 351.504 103.522H378.061C387.327 103.522 394.841 96.0293 394.841 86.7769V81.9594H407.379C412.925 81.9562 417.421 86.4444 417.421 91.9771Z" fill="url(#paint62_linear_1397_997)"/>
<path d="M403.54 112.053C411.212 112.053 417.424 118.257 417.424 125.904C417.424 131.829 413.689 136.897 408.445 138.864C406.917 139.444 405.263 139.761 403.54 139.761C402.635 139.761 401.742 139.67 400.88 139.503C400.874 139.497 400.874 139.497 400.874 139.497L400.868 139.503C400.874 139.503 400.874 139.503 400.883 139.503C400.915 139.676 402.213 145.278 408.448 145.98V157.365V169.353H377.385V164.717L391.404 157.365H377.385H371.754C365.391 157.365 360.229 152.215 360.229 145.867V136.458H383.34V125.904H389.65V122.444L389.656 125.904C389.656 118.26 395.869 112.053 403.54 112.053Z" fill="url(#paint63_linear_1397_997)"/>
<path d="M408.445 138.867V145.983C402.21 145.281 400.909 139.679 400.88 139.506C401.742 139.673 402.635 139.764 403.54 139.764C405.263 139.764 406.917 139.447 408.445 138.867Z" fill="#003F9B"/>
<path d="M394.841 81.9562V86.7738C394.841 96.0262 387.33 103.519 378.062 103.519H351.504C351.149 102.779 350.847 102.004 350.611 101.204C350.46 100.699 350.338 100.185 350.24 99.6582C350.234 99.5892 350.218 99.5296 350.209 99.47C350.178 99.2756 350.149 99.0717 350.127 98.8741C350.111 98.8145 350.105 98.7455 350.096 98.6859C350.08 98.5291 350.064 98.3691 350.058 98.2123C350.042 98.068 350.036 97.9269 350.027 97.7826C350.011 97.5254 350.005 97.2714 350.005 97.0048C350.005 88.6964 356.755 81.9562 365.089 81.9562H394.841Z" fill="url(#paint64_linear_1397_997)"/>
<path d="M391.401 157.368L377.382 164.717V157.368H391.401Z" fill="#FF4581"/>
<path d="M389.647 122.445V125.904H383.337V118.352H389.641L389.647 122.445Z" fill="#171772"/>
<path d="M389.625 112.053L389.641 118.351H383.337H360.226V112.053H365.092H389.625Z" fill="url(#paint65_linear_1397_997)"/>
<path d="M383.337 125.904V136.461H360.225H353.764V131.935H378.803V122.874H353.764V118.352H360.225H383.337V125.904Z" fill="#171772"/>
<path d="M378.803 122.874H353.764V131.935H378.803V122.874Z" fill="url(#paint66_linear_1397_997)"/>
<path d="M423.451 205.221H351.941V243.165H423.451V205.221Z" stroke="#02E9F7" stroke-width="2" stroke-miterlimit="10"/>
<path d="M361.95 188.746H287.551L260.931 131.715H335.33L361.95 188.746Z" fill="url(#paint67_linear_1397_997)"/>
<path d="M312.652 144.281L310.319 139.28H274.879L277.212 144.281H312.652Z" fill="url(#paint68_linear_1397_997)"/>
<path d="M316.27 152.513L313.934 147.514H278.494L280.829 152.513H316.27Z" fill="url(#paint69_linear_1397_997)"/>
<path d="M338.54 131.715H335.33L361.95 188.746H365.16L338.54 131.715Z" fill="url(#paint70_linear_1397_997)"/>
<path d="M47.0844 57.8649H39.0242L41.8839 61.6782C42.0785 61.9371 42.1097 62.2814 41.9643 62.5713C41.819 62.8587 41.5232 63.0425 41.2014 63.0425H33.3281C34.6282 65.2404 37.0208 66.7212 39.7586 66.7212C43.8769 66.7212 47.2297 63.3764 47.2297 59.268C47.2297 58.96 47.2115 58.6467 47.1726 58.3412C47.1544 58.1781 47.1155 58.0228 47.0844 57.8649Z" fill="url(#paint71_linear_1397_997)"/>
<path d="M51.0209 57.865H48.8203C48.8333 57.953 48.8592 58.041 48.8696 58.129C48.9163 58.5044 48.9397 58.8875 48.9397 59.2629C48.9397 64.3136 44.8214 68.4221 39.761 68.4221C34.7007 68.4221 30.5824 64.3136 30.5824 59.2629C30.5824 54.2122 34.7007 50.1064 39.761 50.1064C42.2134 50.1064 44.5177 51.059 46.2512 52.7883C46.5185 53.055 46.7728 53.3398 47.0038 53.6375C47.2944 54.0077 47.227 54.5435 46.8559 54.8335C46.4822 55.1234 45.9476 55.0561 45.657 54.6859C45.4675 54.4452 45.2625 54.2122 45.0446 53.9947C43.6329 52.5864 41.7566 51.8124 39.761 51.8124C35.6427 51.8124 32.2899 55.1571 32.2899 59.2655C32.2899 59.9852 32.3989 60.679 32.5884 61.3365H39.4964L36.6366 57.5232C36.442 57.2644 36.4109 56.9201 36.5562 56.6301C36.7015 56.3427 36.9973 56.1589 37.3191 56.1589H50.4734H50.6758C49.3212 51.4111 44.9511 47.9318 39.7585 47.9318C33.4863 47.9318 28.4 53.0058 28.4 59.2629C28.4 65.52 33.4863 70.5941 39.7585 70.5941C46.0306 70.5941 51.1169 65.52 51.1169 59.2629C51.1169 58.7892 51.078 58.3232 51.0209 57.865Z" fill="url(#paint72_linear_1397_997)"/>
<path d="M86.6549 305.684H76.5659H61.0185V316.263V326.822V330.16C61.0185 334.152 64.256 337.381 68.2717 337.381H81.6178H94.964C98.9649 337.381 102.217 334.152 102.217 330.16V326.822V316.263V305.684H86.6549Z" fill="url(#paint73_linear_1397_997)"/>
<path d="M81.6181 208.672C58.7532 208.672 40.2163 227.15 40.2163 249.959C40.2163 266.226 46.4333 273.818 52.1694 280.979C59.1895 289.763 61.0188 293.255 61.0188 305.688H76.5662H86.6552H102.217C102.217 293.255 104.047 289.763 111.067 280.979C116.803 273.818 123 266.226 123 249.959C123.005 227.15 104.478 208.672 81.6181 208.672Z" fill="url(#paint74_linear_1397_997)"/>
<path d="M61.0185 316.263H102.217" stroke="white" stroke-width="1.25106" stroke-miterlimit="10"/>
<path d="M61.0185 326.822H102.217" stroke="white" stroke-width="1.25106" stroke-miterlimit="10"/>
<path d="M76.5658 261.043V247.279C76.5658 245.192 74.5035 243.693 72.5353 244.4C68.4105 245.884 62.3075 249.366 59.9625 257.17C59.3874 259.104 60.8945 261.038 62.9073 261.038H76.5658V261.043Z" stroke="white" stroke-width="1.25106" stroke-miterlimit="10"/>
<path d="M76.5661 305.684V261.043" stroke="white" stroke-width="1.25106" stroke-miterlimit="10"/>
<path d="M86.6549 261.043V247.279C86.6549 245.192 88.7321 243.693 90.7003 244.4C94.8103 245.884 100.913 249.366 103.253 257.17C103.828 259.104 102.321 261.038 100.308 261.038H86.6549V261.043Z" stroke="white" stroke-width="1.25106" stroke-miterlimit="10"/>
<path d="M86.6549 305.684V261.043" stroke="white" stroke-width="1.25106" stroke-miterlimit="10"/>
<defs>
<linearGradient id="paint0_linear_1397_997" x1="109.213" y1="-116.637" x2="457.024" y2="644.153" gradientUnits="userSpaceOnUse">
<stop offset="0.1782" stop-color="#EBEFFF"/>
<stop offset="0.4255" stop-color="#E9EEFF"/>
<stop offset="0.5448" stop-color="#E1E9FD"/>
<stop offset="0.6367" stop-color="#D4E1FA"/>
<stop offset="0.7147" stop-color="#C2D6F7"/>
<stop offset="0.7837" stop-color="#AAC7F2"/>
<stop offset="0.8465" stop-color="#8CB5EC"/>
<stop offset="0.9033" stop-color="#6AA0E5"/>
<stop offset="0.9549" stop-color="#4388DD"/>
</linearGradient>
<linearGradient id="paint1_linear_1397_997" x1="276.694" y1="278.617" x2="158.603" y2="35.1016" gradientUnits="userSpaceOnUse">
<stop offset="0.1368" stop-color="#EBEFFF"/>
<stop offset="0.8708" stop-color="#FCFDFF"/>
<stop offset="0.9598" stop-color="white"/>
</linearGradient>
<linearGradient id="paint2_linear_1397_997" x1="399.813" y1="76.6915" x2="292.978" y2="395.667" gradientUnits="userSpaceOnUse">
<stop stop-color="#EBEFFF"/>
<stop offset="0.1144" stop-color="#E0E8FD"/>
<stop offset="0.3168" stop-color="#C2D6F7"/>
<stop offset="0.5833" stop-color="#91B8ED"/>
<stop offset="0.9006" stop-color="#4F8FDF"/>
<stop offset="0.9549" stop-color="#4388DD"/>
</linearGradient>
<linearGradient id="paint3_linear_1397_997" x1="44.2493" y1="-178.052" x2="481.136" y2="284.593" gradientUnits="userSpaceOnUse">
<stop stop-color="#EBEFFF"/>
<stop offset="0.1905" stop-color="#CFDEF9"/>
<stop offset="0.5997" stop-color="#86B1EB"/>
<stop offset="0.9549" stop-color="#4388DD"/>
</linearGradient>
<linearGradient id="paint4_linear_1397_997" x1="318.658" y1="-98.0892" x2="369.6" y2="266.135" gradientUnits="userSpaceOnUse">
<stop offset="0.1092" stop-color="#EBEFFF"/>
<stop offset="0.2131" stop-color="#E5EBFE"/>
<stop offset="0.3509" stop-color="#D4E1FA"/>
<stop offset="0.5078" stop-color="#B9D0F5"/>
<stop offset="0.6787" stop-color="#92B9ED"/>
<stop offset="0.8589" stop-color="#629BE3"/>
<stop offset="0.9598" stop-color="#4388DD"/>
</linearGradient>
<linearGradient id="paint5_linear_1397_997" x1="407.948" y1="15.7395" x2="454.09" y2="15.2675" gradientUnits="userSpaceOnUse">
<stop offset="0.0543" stop-color="#7BACE7"/>
<stop offset="0.1648" stop-color="#5695DC"/>
<stop offset="0.2809" stop-color="#3783D2"/>
<stop offset="0.4026" stop-color="#1F74CA"/>
<stop offset="0.5306" stop-color="#0E69C5"/>
<stop offset="0.6688" stop-color="#0363C2"/>
<stop offset="0.8362" stop-color="#0061C1"/>
</linearGradient>
<linearGradient id="paint6_linear_1397_997" x1="20.5674" y1="14.6062" x2="407.846" y2="17.5398" gradientUnits="userSpaceOnUse">
<stop offset="0.0543" stop-color="#7BACE7"/>
<stop offset="0.1648" stop-color="#5695DC"/>
<stop offset="0.2809" stop-color="#3783D2"/>
<stop offset="0.4026" stop-color="#1F74CA"/>
<stop offset="0.5306" stop-color="#0E69C5"/>
<stop offset="0.6688" stop-color="#0363C2"/>
<stop offset="0.8362" stop-color="#0061C1"/>
</linearGradient>
<linearGradient id="paint7_linear_1397_997" x1="18.2171" y1="13.3733" x2="413.8" y2="16.3698" gradientUnits="userSpaceOnUse">
<stop offset="0.0543" stop-color="#7BACE7"/>
<stop offset="0.1648" stop-color="#5695DC"/>
<stop offset="0.2809" stop-color="#3783D2"/>
<stop offset="0.4026" stop-color="#1F74CA"/>
<stop offset="0.5306" stop-color="#0E69C5"/>
<stop offset="0.6688" stop-color="#0363C2"/>
<stop offset="0.8362" stop-color="#0061C1"/>
</linearGradient>
<linearGradient id="paint8_linear_1397_997" x1="99.6597" y1="-34.6815" x2="97.799" y2="209.66" gradientUnits="userSpaceOnUse">
<stop offset="0.138" stop-color="#EBEFFF"/>
<stop offset="0.2349" stop-color="#E5EBFE"/>
<stop offset="0.3706" stop-color="#D2E0FA"/>
<stop offset="0.529" stop-color="#B4CEF4"/>
<stop offset="0.7046" stop-color="#8BB4EC"/>
<stop offset="0.8924" stop-color="#5694E1"/>
<stop offset="0.9549" stop-color="#4388DD"/>
</linearGradient>
<linearGradient id="paint9_linear_1397_997" x1="99.7819" y1="-34.6806" x2="97.9212" y2="209.661" gradientUnits="userSpaceOnUse">
<stop offset="0.138" stop-color="#EBEFFF"/>
<stop offset="0.2349" stop-color="#E5EBFE"/>
<stop offset="0.3706" stop-color="#D2E0FA"/>
<stop offset="0.529" stop-color="#B4CEF4"/>
<stop offset="0.7046" stop-color="#8BB4EC"/>
<stop offset="0.8924" stop-color="#5694E1"/>
<stop offset="0.9549" stop-color="#4388DD"/>
</linearGradient>
<linearGradient id="paint10_linear_1397_997" x1="100.026" y1="-34.6792" x2="98.1657" y2="209.663" gradientUnits="userSpaceOnUse">
<stop offset="0.138" stop-color="#EBEFFF"/>
<stop offset="0.2349" stop-color="#E5EBFE"/>
<stop offset="0.3706" stop-color="#D2E0FA"/>
<stop offset="0.529" stop-color="#B4CEF4"/>
<stop offset="0.7046" stop-color="#8BB4EC"/>
<stop offset="0.8924" stop-color="#5694E1"/>
<stop offset="0.9549" stop-color="#4388DD"/>
</linearGradient>
<linearGradient id="paint11_linear_1397_997" x1="100.149" y1="-34.6774" x2="98.2879" y2="209.665" gradientUnits="userSpaceOnUse">
<stop offset="0.138" stop-color="#EBEFFF"/>
<stop offset="0.2349" stop-color="#E5EBFE"/>
<stop offset="0.3706" stop-color="#D2E0FA"/>
<stop offset="0.529" stop-color="#B4CEF4"/>
<stop offset="0.7046" stop-color="#8BB4EC"/>
<stop offset="0.8924" stop-color="#5694E1"/>
<stop offset="0.9549" stop-color="#4388DD"/>
</linearGradient>
<linearGradient id="paint12_linear_1397_997" x1="100.271" y1="-34.6767" x2="98.4101" y2="209.665" gradientUnits="userSpaceOnUse">
<stop offset="0.138" stop-color="#EBEFFF"/>
<stop offset="0.2349" stop-color="#E5EBFE"/>
<stop offset="0.3706" stop-color="#D2E0FA"/>
<stop offset="0.529" stop-color="#B4CEF4"/>
<stop offset="0.7046" stop-color="#8BB4EC"/>
<stop offset="0.8924" stop-color="#5694E1"/>
<stop offset="0.9549" stop-color="#4388DD"/>
</linearGradient>
<linearGradient id="paint13_linear_1397_997" x1="100.393" y1="-34.6756" x2="98.5324" y2="209.666" gradientUnits="userSpaceOnUse">
<stop offset="0.138" stop-color="#EBEFFF"/>
<stop offset="0.2349" stop-color="#E5EBFE"/>
<stop offset="0.3706" stop-color="#D2E0FA"/>
<stop offset="0.529" stop-color="#B4CEF4"/>
<stop offset="0.7046" stop-color="#8BB4EC"/>
<stop offset="0.8924" stop-color="#5694E1"/>
<stop offset="0.9549" stop-color="#4388DD"/>
</linearGradient>
<linearGradient id="paint14_linear_1397_997" x1="115.795" y1="-34.5587" x2="113.934" y2="209.783" gradientUnits="userSpaceOnUse">
<stop offset="0.138" stop-color="#EBEFFF"/>
<stop offset="0.2349" stop-color="#E5EBFE"/>
<stop offset="0.3706" stop-color="#D2E0FA"/>
<stop offset="0.529" stop-color="#B4CEF4"/>
<stop offset="0.7046" stop-color="#8BB4EC"/>
<stop offset="0.8924" stop-color="#5694E1"/>
<stop offset="0.9549" stop-color="#4388DD"/>
</linearGradient>
<linearGradient id="paint15_linear_1397_997" x1="115.917" y1="-34.5576" x2="114.056" y2="209.784" gradientUnits="userSpaceOnUse">
<stop offset="0.138" stop-color="#EBEFFF"/>
<stop offset="0.2349" stop-color="#E5EBFE"/>
<stop offset="0.3706" stop-color="#D2E0FA"/>
<stop offset="0.529" stop-color="#B4CEF4"/>
<stop offset="0.7046" stop-color="#8BB4EC"/>
<stop offset="0.8924" stop-color="#5694E1"/>
<stop offset="0.9549" stop-color="#4388DD"/>
</linearGradient>
<linearGradient id="paint16_linear_1397_997" x1="116.039" y1="-34.5572" x2="114.179" y2="209.785" gradientUnits="userSpaceOnUse">
<stop offset="0.138" stop-color="#EBEFFF"/>
<stop offset="0.2349" stop-color="#E5EBFE"/>
<stop offset="0.3706" stop-color="#D2E0FA"/>
<stop offset="0.529" stop-color="#B4CEF4"/>
<stop offset="0.7046" stop-color="#8BB4EC"/>
<stop offset="0.8924" stop-color="#5694E1"/>
<stop offset="0.9549" stop-color="#4388DD"/>
</linearGradient>
<linearGradient id="paint17_linear_1397_997" x1="116.284" y1="-34.5548" x2="114.423" y2="209.787" gradientUnits="userSpaceOnUse">
<stop offset="0.138" stop-color="#EBEFFF"/>
<stop offset="0.2349" stop-color="#E5EBFE"/>
<stop offset="0.3706" stop-color="#D2E0FA"/>
<stop offset="0.529" stop-color="#B4CEF4"/>
<stop offset="0.7046" stop-color="#8BB4EC"/>
<stop offset="0.8924" stop-color="#5694E1"/>
<stop offset="0.9549" stop-color="#4388DD"/>
</linearGradient>
<linearGradient id="paint18_linear_1397_997" x1="116.406" y1="-34.5536" x2="114.545" y2="209.788" gradientUnits="userSpaceOnUse">
<stop offset="0.138" stop-color="#EBEFFF"/>
<stop offset="0.2349" stop-color="#E5EBFE"/>
<stop offset="0.3706" stop-color="#D2E0FA"/>
<stop offset="0.529" stop-color="#B4CEF4"/>
<stop offset="0.7046" stop-color="#8BB4EC"/>
<stop offset="0.8924" stop-color="#5694E1"/>
<stop offset="0.9549" stop-color="#4388DD"/>
</linearGradient>
<linearGradient id="paint19_linear_1397_997" x1="131.685" y1="-34.4376" x2="129.824" y2="209.904" gradientUnits="userSpaceOnUse">
<stop offset="0.138" stop-color="#EBEFFF"/>
<stop offset="0.2349" stop-color="#E5EBFE"/>
<stop offset="0.3706" stop-color="#D2E0FA"/>
<stop offset="0.529" stop-color="#B4CEF4"/>
<stop offset="0.7046" stop-color="#8BB4EC"/>
<stop offset="0.8924" stop-color="#5694E1"/>
<stop offset="0.9549" stop-color="#4388DD"/>
</linearGradient>
<linearGradient id="paint20_linear_1397_997" x1="131.807" y1="-34.4368" x2="129.946" y2="209.905" gradientUnits="userSpaceOnUse">
<stop offset="0.138" stop-color="#EBEFFF"/>
<stop offset="0.2349" stop-color="#E5EBFE"/>
<stop offset="0.3706" stop-color="#D2E0FA"/>
<stop offset="0.529" stop-color="#B4CEF4"/>
<stop offset="0.7046" stop-color="#8BB4EC"/>
<stop offset="0.8924" stop-color="#5694E1"/>
<stop offset="0.9549" stop-color="#4388DD"/>
</linearGradient>
<linearGradient id="paint21_linear_1397_997" x1="131.929" y1="-34.4356" x2="130.069" y2="209.906" gradientUnits="userSpaceOnUse">
<stop offset="0.138" stop-color="#EBEFFF"/>
<stop offset="0.2349" stop-color="#E5EBFE"/>
<stop offset="0.3706" stop-color="#D2E0FA"/>
<stop offset="0.529" stop-color="#B4CEF4"/>
<stop offset="0.7046" stop-color="#8BB4EC"/>
<stop offset="0.8924" stop-color="#5694E1"/>
<stop offset="0.9549" stop-color="#4388DD"/>
</linearGradient>
<linearGradient id="paint22_linear_1397_997" x1="132.052" y1="-34.4353" x2="130.191" y2="209.907" gradientUnits="userSpaceOnUse">
<stop offset="0.138" stop-color="#EBEFFF"/>
<stop offset="0.2349" stop-color="#E5EBFE"/>
<stop offset="0.3706" stop-color="#D2E0FA"/>
<stop offset="0.529" stop-color="#B4CEF4"/>
<stop offset="0.7046" stop-color="#8BB4EC"/>
<stop offset="0.8924" stop-color="#5694E1"/>
<stop offset="0.9549" stop-color="#4388DD"/>
</linearGradient>
<linearGradient id="paint23_linear_1397_997" x1="132.174" y1="-34.4335" x2="130.313" y2="209.908" gradientUnits="userSpaceOnUse">
<stop offset="0.138" stop-color="#EBEFFF"/>
<stop offset="0.2349" stop-color="#E5EBFE"/>
<stop offset="0.3706" stop-color="#D2E0FA"/>
<stop offset="0.529" stop-color="#B4CEF4"/>
<stop offset="0.7046" stop-color="#8BB4EC"/>
<stop offset="0.8924" stop-color="#5694E1"/>
<stop offset="0.9549" stop-color="#4388DD"/>
</linearGradient>
<linearGradient id="paint24_linear_1397_997" x1="132.296" y1="-34.4328" x2="130.435" y2="209.909" gradientUnits="userSpaceOnUse">
<stop offset="0.138" stop-color="#EBEFFF"/>
<stop offset="0.2349" stop-color="#E5EBFE"/>
<stop offset="0.3706" stop-color="#D2E0FA"/>
<stop offset="0.529" stop-color="#B4CEF4"/>
<stop offset="0.7046" stop-color="#8BB4EC"/>
<stop offset="0.8924" stop-color="#5694E1"/>
<stop offset="0.9549" stop-color="#4388DD"/>
</linearGradient>
<linearGradient id="paint25_linear_1397_997" x1="132.418" y1="-34.4317" x2="130.558" y2="209.91" gradientUnits="userSpaceOnUse">
<stop offset="0.138" stop-color="#EBEFFF"/>
<stop offset="0.2349" stop-color="#E5EBFE"/>
<stop offset="0.3706" stop-color="#D2E0FA"/>
<stop offset="0.529" stop-color="#B4CEF4"/>
<stop offset="0.7046" stop-color="#8BB4EC"/>
<stop offset="0.8924" stop-color="#5694E1"/>
<stop offset="0.9549" stop-color="#4388DD"/>
</linearGradient>
<linearGradient id="paint26_linear_1397_997" x1="147.82" y1="-34.3148" x2="145.959" y2="210.027" gradientUnits="userSpaceOnUse">
<stop offset="0.138" stop-color="#EBEFFF"/>
<stop offset="0.2349" stop-color="#E5EBFE"/>
<stop offset="0.3706" stop-color="#D2E0FA"/>
<stop offset="0.529" stop-color="#B4CEF4"/>
<stop offset="0.7046" stop-color="#8BB4EC"/>
<stop offset="0.8924" stop-color="#5694E1"/>
<stop offset="0.9549" stop-color="#4388DD"/>
</linearGradient>
<linearGradient id="paint27_linear_1397_997" x1="147.942" y1="-34.3137" x2="146.082" y2="210.028" gradientUnits="userSpaceOnUse">
<stop offset="0.138" stop-color="#EBEFFF"/>
<stop offset="0.2349" stop-color="#E5EBFE"/>
<stop offset="0.3706" stop-color="#D2E0FA"/>
<stop offset="0.529" stop-color="#B4CEF4"/>
<stop offset="0.7046" stop-color="#8BB4EC"/>
<stop offset="0.8924" stop-color="#5694E1"/>
<stop offset="0.9549" stop-color="#4388DD"/>
</linearGradient>
<linearGradient id="paint28_linear_1397_997" x1="148.187" y1="-34.3116" x2="146.326" y2="210.03" gradientUnits="userSpaceOnUse">
<stop offset="0.138" stop-color="#EBEFFF"/>
<stop offset="0.2349" stop-color="#E5EBFE"/>
<stop offset="0.3706" stop-color="#D2E0FA"/>
<stop offset="0.529" stop-color="#B4CEF4"/>
<stop offset="0.7046" stop-color="#8BB4EC"/>
<stop offset="0.8924" stop-color="#5694E1"/>
<stop offset="0.9549" stop-color="#4388DD"/>
</linearGradient>
<linearGradient id="paint29_linear_1397_997" x1="148.309" y1="-34.3109" x2="146.448" y2="210.031" gradientUnits="userSpaceOnUse">
<stop offset="0.138" stop-color="#EBEFFF"/>
<stop offset="0.2349" stop-color="#E5EBFE"/>
<stop offset="0.3706" stop-color="#D2E0FA"/>
<stop offset="0.529" stop-color="#B4CEF4"/>
<stop offset="0.7046" stop-color="#8BB4EC"/>
<stop offset="0.8924" stop-color="#5694E1"/>
<stop offset="0.9549" stop-color="#4388DD"/>
</linearGradient>
<linearGradient id="paint30_linear_1397_997" x1="163.711" y1="-34.1937" x2="161.85" y2="210.148" gradientUnits="userSpaceOnUse">
<stop offset="0.138" stop-color="#EBEFFF"/>
<stop offset="0.2349" stop-color="#E5EBFE"/>
<stop offset="0.3706" stop-color="#D2E0FA"/>
<stop offset="0.529" stop-color="#B4CEF4"/>
<stop offset="0.7046" stop-color="#8BB4EC"/>
<stop offset="0.8924" stop-color="#5694E1"/>
<stop offset="0.9549" stop-color="#4388DD"/>
</linearGradient>
<linearGradient id="paint31_linear_1397_997" x1="163.833" y1="-34.1928" x2="161.972" y2="210.149" gradientUnits="userSpaceOnUse">
<stop offset="0.138" stop-color="#EBEFFF"/>
<stop offset="0.2349" stop-color="#E5EBFE"/>
<stop offset="0.3706" stop-color="#D2E0FA"/>
<stop offset="0.529" stop-color="#B4CEF4"/>
<stop offset="0.7046" stop-color="#8BB4EC"/>
<stop offset="0.8924" stop-color="#5694E1"/>
<stop offset="0.9549" stop-color="#4388DD"/>
</linearGradient>
<linearGradient id="paint32_linear_1397_997" x1="163.955" y1="-34.1917" x2="162.094" y2="210.15" gradientUnits="userSpaceOnUse">
<stop offset="0.138" stop-color="#EBEFFF"/>
<stop offset="0.2349" stop-color="#E5EBFE"/>
<stop offset="0.3706" stop-color="#D2E0FA"/>
<stop offset="0.529" stop-color="#B4CEF4"/>
<stop offset="0.7046" stop-color="#8BB4EC"/>
<stop offset="0.8924" stop-color="#5694E1"/>
<stop offset="0.9549" stop-color="#4388DD"/>
</linearGradient>
<linearGradient id="paint33_linear_1397_997" x1="164.077" y1="-34.1914" x2="162.217" y2="210.151" gradientUnits="userSpaceOnUse">
<stop offset="0.138" stop-color="#EBEFFF"/>
<stop offset="0.2349" stop-color="#E5EBFE"/>
<stop offset="0.3706" stop-color="#D2E0FA"/>
<stop offset="0.529" stop-color="#B4CEF4"/>
<stop offset="0.7046" stop-color="#8BB4EC"/>
<stop offset="0.8924" stop-color="#5694E1"/>
<stop offset="0.9549" stop-color="#4388DD"/>
</linearGradient>
<linearGradient id="paint34_linear_1397_997" x1="164.199" y1="-34.1896" x2="162.339" y2="210.152" gradientUnits="userSpaceOnUse">
<stop offset="0.138" stop-color="#EBEFFF"/>
<stop offset="0.2349" stop-color="#E5EBFE"/>
<stop offset="0.3706" stop-color="#D2E0FA"/>
<stop offset="0.529" stop-color="#B4CEF4"/>
<stop offset="0.7046" stop-color="#8BB4EC"/>
<stop offset="0.8924" stop-color="#5694E1"/>
<stop offset="0.9549" stop-color="#4388DD"/>
</linearGradient>
<linearGradient id="paint35_linear_1397_997" x1="164.322" y1="-34.1889" x2="162.461" y2="210.153" gradientUnits="userSpaceOnUse">
<stop offset="0.138" stop-color="#EBEFFF"/>
<stop offset="0.2349" stop-color="#E5EBFE"/>
<stop offset="0.3706" stop-color="#D2E0FA"/>
<stop offset="0.529" stop-color="#B4CEF4"/>
<stop offset="0.7046" stop-color="#8BB4EC"/>
<stop offset="0.8924" stop-color="#5694E1"/>
<stop offset="0.9549" stop-color="#4388DD"/>
</linearGradient>
<linearGradient id="paint36_linear_1397_997" x1="164.444" y1="-34.1878" x2="162.583" y2="210.154" gradientUnits="userSpaceOnUse">
<stop offset="0.138" stop-color="#EBEFFF"/>
<stop offset="0.2349" stop-color="#E5EBFE"/>
<stop offset="0.3706" stop-color="#D2E0FA"/>
<stop offset="0.529" stop-color="#B4CEF4"/>
<stop offset="0.7046" stop-color="#8BB4EC"/>
<stop offset="0.8924" stop-color="#5694E1"/>
<stop offset="0.9549" stop-color="#4388DD"/>
</linearGradient>
<linearGradient id="paint37_linear_1397_997" x1="179.845" y1="-34.0709" x2="177.985" y2="210.271" gradientUnits="userSpaceOnUse">
<stop offset="0.138" stop-color="#EBEFFF"/>
<stop offset="0.2349" stop-color="#E5EBFE"/>
<stop offset="0.3706" stop-color="#D2E0FA"/>
<stop offset="0.529" stop-color="#B4CEF4"/>
<stop offset="0.7046" stop-color="#8BB4EC"/>
<stop offset="0.8924" stop-color="#5694E1"/>
<stop offset="0.9549" stop-color="#4388DD"/>
</linearGradient>
<linearGradient id="paint38_linear_1397_997" x1="179.968" y1="-34.0698" x2="178.107" y2="210.272" gradientUnits="userSpaceOnUse">
<stop offset="0.138" stop-color="#EBEFFF"/>
<stop offset="0.2349" stop-color="#E5EBFE"/>
<stop offset="0.3706" stop-color="#D2E0FA"/>
<stop offset="0.529" stop-color="#B4CEF4"/>
<stop offset="0.7046" stop-color="#8BB4EC"/>
<stop offset="0.8924" stop-color="#5694E1"/>
<stop offset="0.9549" stop-color="#4388DD"/>
</linearGradient>
<linearGradient id="paint39_linear_1397_997" x1="180.212" y1="-34.0677" x2="178.351" y2="210.274" gradientUnits="userSpaceOnUse">
<stop offset="0.138" stop-color="#EBEFFF"/>
<stop offset="0.2349" stop-color="#E5EBFE"/>
<stop offset="0.3706" stop-color="#D2E0FA"/>
<stop offset="0.529" stop-color="#B4CEF4"/>
<stop offset="0.7046" stop-color="#8BB4EC"/>
<stop offset="0.8924" stop-color="#5694E1"/>
<stop offset="0.9549" stop-color="#4388DD"/>
</linearGradient>
<linearGradient id="paint40_linear_1397_997" x1="180.334" y1="-34.067" x2="178.473" y2="210.275" gradientUnits="userSpaceOnUse">
<stop offset="0.138" stop-color="#EBEFFF"/>
<stop offset="0.2349" stop-color="#E5EBFE"/>
<stop offset="0.3706" stop-color="#D2E0FA"/>
<stop offset="0.529" stop-color="#B4CEF4"/>
<stop offset="0.7046" stop-color="#8BB4EC"/>
<stop offset="0.8924" stop-color="#5694E1"/>
<stop offset="0.9549" stop-color="#4388DD"/>
</linearGradient>
<linearGradient id="paint41_linear_1397_997" x1="180.456" y1="-34.0659" x2="178.596" y2="210.276" gradientUnits="userSpaceOnUse">
<stop offset="0.138" stop-color="#EBEFFF"/>
<stop offset="0.2349" stop-color="#E5EBFE"/>
<stop offset="0.3706" stop-color="#D2E0FA"/>
<stop offset="0.529" stop-color="#B4CEF4"/>
<stop offset="0.7046" stop-color="#8BB4EC"/>
<stop offset="0.8924" stop-color="#5694E1"/>
<stop offset="0.9549" stop-color="#4388DD"/>
</linearGradient>
<linearGradient id="paint42_linear_1397_997" x1="195.736" y1="-33.9498" x2="193.875" y2="210.392" gradientUnits="userSpaceOnUse">
<stop offset="0.138" stop-color="#EBEFFF"/>
<stop offset="0.2349" stop-color="#E5EBFE"/>
<stop offset="0.3706" stop-color="#D2E0FA"/>
<stop offset="0.529" stop-color="#B4CEF4"/>
<stop offset="0.7046" stop-color="#8BB4EC"/>
<stop offset="0.8924" stop-color="#5694E1"/>
<stop offset="0.9549" stop-color="#4388DD"/>
</linearGradient>
<linearGradient id="paint43_linear_1397_997" x1="195.858" y1="-33.949" x2="193.997" y2="210.393" gradientUnits="userSpaceOnUse">
<stop offset="0.138" stop-color="#EBEFFF"/>
<stop offset="0.2349" stop-color="#E5EBFE"/>
<stop offset="0.3706" stop-color="#D2E0FA"/>
<stop offset="0.529" stop-color="#B4CEF4"/>
<stop offset="0.7046" stop-color="#8BB4EC"/>
<stop offset="0.8924" stop-color="#5694E1"/>
<stop offset="0.9549" stop-color="#4388DD"/>
</linearGradient>
<linearGradient id="paint44_linear_1397_997" x1="195.98" y1="-33.9479" x2="194.12" y2="210.394" gradientUnits="userSpaceOnUse">
<stop offset="0.138" stop-color="#EBEFFF"/>
<stop offset="0.2349" stop-color="#E5EBFE"/>
<stop offset="0.3706" stop-color="#D2E0FA"/>
<stop offset="0.529" stop-color="#B4CEF4"/>
<stop offset="0.7046" stop-color="#8BB4EC"/>
<stop offset="0.8924" stop-color="#5694E1"/>
<stop offset="0.9549" stop-color="#4388DD"/>
</linearGradient>
<linearGradient id="paint45_linear_1397_997" x1="196.103" y1="-33.9475" x2="194.242" y2="210.395" gradientUnits="userSpaceOnUse">
<stop offset="0.138" stop-color="#EBEFFF"/>
<stop offset="0.2349" stop-color="#E5EBFE"/>
<stop offset="0.3706" stop-color="#D2E0FA"/>
<stop offset="0.529" stop-color="#B4CEF4"/>
<stop offset="0.7046" stop-color="#8BB4EC"/>
<stop offset="0.8924" stop-color="#5694E1"/>
<stop offset="0.9549" stop-color="#4388DD"/>
</linearGradient>
<linearGradient id="paint46_linear_1397_997" x1="196.225" y1="-33.9458" x2="194.364" y2="210.396" gradientUnits="userSpaceOnUse">
<stop offset="0.138" stop-color="#EBEFFF"/>
<stop offset="0.2349" stop-color="#E5EBFE"/>
<stop offset="0.3706" stop-color="#D2E0FA"/>
<stop offset="0.529" stop-color="#B4CEF4"/>
<stop offset="0.7046" stop-color="#8BB4EC"/>
<stop offset="0.8924" stop-color="#5694E1"/>
<stop offset="0.9549" stop-color="#4388DD"/>
</linearGradient>
<linearGradient id="paint47_linear_1397_997" x1="196.347" y1="-33.9451" x2="194.486" y2="210.397" gradientUnits="userSpaceOnUse">
<stop offset="0.138" stop-color="#EBEFFF"/>
<stop offset="0.2349" stop-color="#E5EBFE"/>
<stop offset="0.3706" stop-color="#D2E0FA"/>
<stop offset="0.529" stop-color="#B4CEF4"/>
<stop offset="0.7046" stop-color="#8BB4EC"/>
<stop offset="0.8924" stop-color="#5694E1"/>
<stop offset="0.9549" stop-color="#4388DD"/>
</linearGradient>
<linearGradient id="paint48_linear_1397_997" x1="211.749" y1="-33.8279" x2="209.888" y2="210.514" gradientUnits="userSpaceOnUse">
<stop offset="0.138" stop-color="#EBEFFF"/>
<stop offset="0.2349" stop-color="#E5EBFE"/>
<stop offset="0.3706" stop-color="#D2E0FA"/>
<stop offset="0.529" stop-color="#B4CEF4"/>
<stop offset="0.7046" stop-color="#8BB4EC"/>
<stop offset="0.8924" stop-color="#5694E1"/>
<stop offset="0.9549" stop-color="#4388DD"/>
</linearGradient>
<linearGradient id="paint49_linear_1397_997" x1="211.871" y1="-33.827" x2="210.01" y2="210.515" gradientUnits="userSpaceOnUse">
<stop offset="0.138" stop-color="#EBEFFF"/>
<stop offset="0.2349" stop-color="#E5EBFE"/>
<stop offset="0.3706" stop-color="#D2E0FA"/>
<stop offset="0.529" stop-color="#B4CEF4"/>
<stop offset="0.7046" stop-color="#8BB4EC"/>
<stop offset="0.8924" stop-color="#5694E1"/>
<stop offset="0.9549" stop-color="#4388DD"/>
</linearGradient>
<linearGradient id="paint50_linear_1397_997" x1="212.115" y1="-33.8256" x2="210.255" y2="210.517" gradientUnits="userSpaceOnUse">
<stop offset="0.138" stop-color="#EBEFFF"/>
<stop offset="0.2349" stop-color="#E5EBFE"/>
<stop offset="0.3706" stop-color="#D2E0FA"/>
<stop offset="0.529" stop-color="#B4CEF4"/>
<stop offset="0.7046" stop-color="#8BB4EC"/>
<stop offset="0.8924" stop-color="#5694E1"/>
<stop offset="0.9549" stop-color="#4388DD"/>
</linearGradient>
<linearGradient id="paint51_linear_1397_997" x1="212.238" y1="-33.8238" x2="210.377" y2="210.518" gradientUnits="userSpaceOnUse">
<stop offset="0.138" stop-color="#EBEFFF"/>
<stop offset="0.2349" stop-color="#E5EBFE"/>
<stop offset="0.3706" stop-color="#D2E0FA"/>
<stop offset="0.529" stop-color="#B4CEF4"/>
<stop offset="0.7046" stop-color="#8BB4EC"/>
<stop offset="0.8924" stop-color="#5694E1"/>
<stop offset="0.9549" stop-color="#4388DD"/>
</linearGradient>
<linearGradient id="paint52_linear_1397_997" x1="212.36" y1="-33.8231" x2="210.499" y2="210.519" gradientUnits="userSpaceOnUse">
<stop offset="0.138" stop-color="#EBEFFF"/>
<stop offset="0.2349" stop-color="#E5EBFE"/>
<stop offset="0.3706" stop-color="#D2E0FA"/>
<stop offset="0.529" stop-color="#B4CEF4"/>
<stop offset="0.7046" stop-color="#8BB4EC"/>
<stop offset="0.8924" stop-color="#5694E1"/>
<stop offset="0.9549" stop-color="#4388DD"/>
</linearGradient>
<linearGradient id="paint53_linear_1397_997" x1="212.482" y1="-33.822" x2="210.621" y2="210.52" gradientUnits="userSpaceOnUse">
<stop offset="0.138" stop-color="#EBEFFF"/>
<stop offset="0.2349" stop-color="#E5EBFE"/>
<stop offset="0.3706" stop-color="#D2E0FA"/>
<stop offset="0.529" stop-color="#B4CEF4"/>
<stop offset="0.7046" stop-color="#8BB4EC"/>
<stop offset="0.8924" stop-color="#5694E1"/>
<stop offset="0.9549" stop-color="#4388DD"/>
</linearGradient>
<linearGradient id="paint54_linear_1397_997" x1="227.761" y1="-33.706" x2="225.901" y2="210.636" gradientUnits="userSpaceOnUse">
<stop offset="0.138" stop-color="#EBEFFF"/>
<stop offset="0.2349" stop-color="#E5EBFE"/>
<stop offset="0.3706" stop-color="#D2E0FA"/>
<stop offset="0.529" stop-color="#B4CEF4"/>
<stop offset="0.7046" stop-color="#8BB4EC"/>
<stop offset="0.8924" stop-color="#5694E1"/>
<stop offset="0.9549" stop-color="#4388DD"/>
</linearGradient>
<linearGradient id="paint55_linear_1397_997" x1="227.884" y1="-33.7051" x2="226.023" y2="210.637" gradientUnits="userSpaceOnUse">
<stop offset="0.138" stop-color="#EBEFFF"/>
<stop offset="0.2349" stop-color="#E5EBFE"/>
<stop offset="0.3706" stop-color="#D2E0FA"/>
<stop offset="0.529" stop-color="#B4CEF4"/>
<stop offset="0.7046" stop-color="#8BB4EC"/>
<stop offset="0.8924" stop-color="#5694E1"/>
<stop offset="0.9549" stop-color="#4388DD"/>
</linearGradient>
<linearGradient id="paint56_linear_1397_997" x1="228.006" y1="-33.704" x2="226.145" y2="210.638" gradientUnits="userSpaceOnUse">
<stop offset="0.138" stop-color="#EBEFFF"/>
<stop offset="0.2349" stop-color="#E5EBFE"/>
<stop offset="0.3706" stop-color="#D2E0FA"/>
<stop offset="0.529" stop-color="#B4CEF4"/>
<stop offset="0.7046" stop-color="#8BB4EC"/>
<stop offset="0.8924" stop-color="#5694E1"/>
<stop offset="0.9549" stop-color="#4388DD"/>
</linearGradient>
<linearGradient id="paint57_linear_1397_997" x1="228.128" y1="-33.7036" x2="226.267" y2="210.639" gradientUnits="userSpaceOnUse">
<stop offset="0.138" stop-color="#EBEFFF"/>
<stop offset="0.2349" stop-color="#E5EBFE"/>
<stop offset="0.3706" stop-color="#D2E0FA"/>
<stop offset="0.529" stop-color="#B4CEF4"/>
<stop offset="0.7046" stop-color="#8BB4EC"/>
<stop offset="0.8924" stop-color="#5694E1"/>
<stop offset="0.9549" stop-color="#4388DD"/>
</linearGradient>
<linearGradient id="paint58_linear_1397_997" x1="228.25" y1="-33.7019" x2="226.39" y2="210.64" gradientUnits="userSpaceOnUse">
<stop offset="0.138" stop-color="#EBEFFF"/>
<stop offset="0.2349" stop-color="#E5EBFE"/>
<stop offset="0.3706" stop-color="#D2E0FA"/>
<stop offset="0.529" stop-color="#B4CEF4"/>
<stop offset="0.7046" stop-color="#8BB4EC"/>
<stop offset="0.8924" stop-color="#5694E1"/>
<stop offset="0.9549" stop-color="#4388DD"/>
</linearGradient>
<linearGradient id="paint59_linear_1397_997" x1="228.495" y1="-33.7" x2="226.634" y2="210.642" gradientUnits="userSpaceOnUse">
<stop offset="0.138" stop-color="#EBEFFF"/>
<stop offset="0.2349" stop-color="#E5EBFE"/>
<stop offset="0.3706" stop-color="#D2E0FA"/>
<stop offset="0.529" stop-color="#B4CEF4"/>
<stop offset="0.7046" stop-color="#8BB4EC"/>
<stop offset="0.8924" stop-color="#5694E1"/>
<stop offset="0.9549" stop-color="#4388DD"/>
</linearGradient>
<linearGradient id="paint60_linear_1397_997" x1="350.063" y1="151.762" x2="407.271" y2="265.585" gradientUnits="userSpaceOnUse">
<stop offset="0.0543" stop-color="#7BACE7"/>
<stop offset="0.1648" stop-color="#5695DC"/>
<stop offset="0.2809" stop-color="#3783D2"/>
<stop offset="0.4026" stop-color="#1F74CA"/>
<stop offset="0.5306" stop-color="#0E69C5"/>
<stop offset="0.6688" stop-color="#0363C2"/>
<stop offset="0.8362" stop-color="#0061C1"/>
</linearGradient>
<linearGradient id="paint61_linear_1397_997" x1="343.505" y1="178.589" x2="393.847" y2="230.792" gradientUnits="userSpaceOnUse">
<stop offset="0.1391" stop-color="#7BACE7"/>
<stop offset="0.2607" stop-color="#5695DC"/>
<stop offset="0.3886" stop-color="#3783D2"/>
<stop offset="0.5226" stop-color="#1F74CA"/>
<stop offset="0.6635" stop-color="#0E69C5"/>
<stop offset="0.8157" stop-color="#0363C2"/>
<stop offset="1" stop-color="#0061C1"/>
</linearGradient>
<linearGradient id="paint62_linear_1397_997" x1="371.691" y1="81.5889" x2="406.695" y2="122.076" gradientUnits="userSpaceOnUse">
<stop offset="0.0543" stop-color="#7BACE7"/>
<stop offset="0.1733" stop-color="#5695DC"/>
<stop offset="0.2985" stop-color="#3783D2"/>
<stop offset="0.4296" stop-color="#1F74CA"/>
<stop offset="0.5674" stop-color="#0E69C5"/>
<stop offset="0.7164" stop-color="#0363C2"/>
<stop offset="0.8967" stop-color="#0061C1"/>
</linearGradient>
<linearGradient id="paint63_linear_1397_997" x1="364.718" y1="132.914" x2="417.454" y2="148.352" gradientUnits="userSpaceOnUse">
<stop offset="0.1403" stop-color="#FFA2C0"/>
<stop offset="1" stop-color="#FF7DA7"/>
</linearGradient>
<linearGradient id="paint64_linear_1397_997" x1="364.775" y1="79.4234" x2="436.888" y2="194.327" gradientUnits="userSpaceOnUse">
<stop stop-color="#7BACE7"/>
<stop offset="0.0652" stop-color="#6BA2E2"/>
<stop offset="0.2385" stop-color="#458BD6"/>
<stop offset="0.4108" stop-color="#2779CD"/>
<stop offset="0.5797" stop-color="#116BC6"/>
<stop offset="0.7435" stop-color="#0464C2"/>
<stop offset="0.8967" stop-color="#0061C1"/>
</linearGradient>
<linearGradient id="paint65_linear_1397_997" x1="370.298" y1="113.855" x2="423.034" y2="129.292" gradientUnits="userSpaceOnUse">
<stop offset="0.1403" stop-color="#FFA2C0"/>
<stop offset="1" stop-color="#FF7DA7"/>
</linearGradient>
<linearGradient id="paint66_linear_1397_997" x1="353.764" y1="127.405" x2="378.802" y2="127.405" gradientUnits="userSpaceOnUse">
<stop offset="0.0543" stop-color="#7BACE7"/>
<stop offset="0.1733" stop-color="#5695DC"/>
<stop offset="0.2985" stop-color="#3783D2"/>
<stop offset="0.4296" stop-color="#1F74CA"/>
<stop offset="0.5674" stop-color="#0E69C5"/>
<stop offset="0.7164" stop-color="#0363C2"/>
<stop offset="0.8967" stop-color="#0061C1"/>
</linearGradient>
<linearGradient id="paint67_linear_1397_997" x1="363.863" y1="202.504" x2="253.464" y2="113.049" gradientUnits="userSpaceOnUse">
<stop offset="0.0811" stop-color="#D1DAEC"/>
<stop offset="0.3281" stop-color="#D8E0EF"/>
<stop offset="0.6911" stop-color="#ECF0F7"/>
<stop offset="0.894" stop-color="#FAFBFD"/>
</linearGradient>
<linearGradient id="paint68_linear_1397_997" x1="273.4" y1="141.555" x2="330.329" y2="142.189" gradientUnits="userSpaceOnUse">
<stop stop-color="#C0CCE4"/>
<stop offset="0.7619" stop-color="#91A2C7"/>
</linearGradient>
<linearGradient id="paint69_linear_1397_997" x1="273.309" y1="149.747" x2="330.238" y2="150.382" gradientUnits="userSpaceOnUse">
<stop stop-color="#C0CCE4"/>
<stop offset="0.7619" stop-color="#91A2C7"/>
</linearGradient>
<linearGradient id="paint70_linear_1397_997" x1="329.237" y1="131.621" x2="393.915" y2="220.125" gradientUnits="userSpaceOnUse">
<stop stop-color="#C0CCE4"/>
<stop offset="0.7619" stop-color="#91A2C7"/>
</linearGradient>
<linearGradient id="paint71_linear_1397_997" x1="17.7764" y1="31.8424" x2="53.7944" y2="78.089" gradientUnits="userSpaceOnUse">
<stop stop-color="#EBEFFF"/>
<stop offset="0.1173" stop-color="#E5EBFE"/>
<stop offset="0.2728" stop-color="#D4E1FA"/>
<stop offset="0.4497" stop-color="#B9D0F5"/>
<stop offset="0.6426" stop-color="#92B9ED"/>
<stop offset="0.846" stop-color="#629BE3"/>
<stop offset="0.9598" stop-color="#4388DD"/>
</linearGradient>
<linearGradient id="paint72_linear_1397_997" x1="18.0973" y1="31.5925" x2="54.1153" y2="77.8391" gradientUnits="userSpaceOnUse">
<stop offset="0.1092" stop-color="#EBEFFF"/>
<stop offset="0.2131" stop-color="#E5EBFE"/>
<stop offset="0.3509" stop-color="#D4E1FA"/>
<stop offset="0.5078" stop-color="#B9D0F5"/>
<stop offset="0.6787" stop-color="#92B9ED"/>
<stop offset="0.8589" stop-color="#629BE3"/>
<stop offset="0.9598" stop-color="#4388DD"/>
</linearGradient>
<linearGradient id="paint73_linear_1397_997" x1="59.297" y1="291.019" x2="93.2285" y2="334.036" gradientUnits="userSpaceOnUse">
<stop stop-color="#EBEFFF"/>
<stop offset="0.1342" stop-color="#E6ECFE"/>
<stop offset="0.2827" stop-color="#D9E4FB"/>
<stop offset="0.438" stop-color="#C3D6F7"/>
<stop offset="0.5981" stop-color="#A4C3F1"/>
<stop offset="0.762" stop-color="#7CABE9"/>
<stop offset="0.9265" stop-color="#4C8EDF"/>
<stop offset="0.9549" stop-color="#4388DD"/>
</linearGradient>
<linearGradient id="paint74_linear_1397_997" x1="116.145" y1="308.884" x2="52.8353" y2="210.907" gradientUnits="userSpaceOnUse">
<stop offset="0.0885" stop-color="#EF8400"/>
<stop offset="1" stop-color="#FDEBAF"/>
</linearGradient>
</defs>
</svg>
