<svg width="21" height="17" viewBox="0 0 21 17" fill="none" xmlns="http://www.w3.org/2000/svg">
<path d="M17.6577 1.80626C16.3412 1.20221 14.9295 0.757179 13.4535 0.50229C13.4266 0.497371 13.3998 0.509664 13.3859 0.534252C13.2044 0.857164 13.0033 1.27843 12.8624 1.60954C11.2749 1.37187 9.69549 1.37187 8.1405 1.60954C7.99964 1.27107 7.79123 0.857164 7.60886 0.534252C7.59501 0.510485 7.56816 0.498191 7.54128 0.50229C6.06608 0.756364 4.65439 1.2014 3.33712 1.80626C3.32572 1.81117 3.31594 1.81938 3.30946 1.83002C0.63177 5.83043 -0.101761 9.73251 0.258085 13.5862C0.259713 13.6051 0.270296 13.6231 0.284951 13.6346C2.05161 14.932 3.76293 15.7196 5.44246 16.2417C5.46934 16.2499 5.49782 16.24 5.51493 16.2179C5.91222 15.6753 6.26637 15.1033 6.57002 14.5017C6.58794 14.4664 6.57084 14.4246 6.53421 14.4107C5.97247 14.1976 5.43757 13.9378 4.92304 13.6428C4.88234 13.619 4.87909 13.5608 4.91653 13.5329C5.0248 13.4518 5.13311 13.3674 5.2365 13.2821C5.2552 13.2666 5.28127 13.2633 5.30326 13.2731C8.68351 14.8164 12.343 14.8164 15.6834 13.2731C15.7054 13.2625 15.7314 13.2657 15.751 13.2813C15.8544 13.3665 15.9627 13.4518 16.0718 13.5329C16.1092 13.5608 16.1068 13.619 16.0661 13.6428C15.5515 13.9435 15.0166 14.1976 14.4541 14.4099C14.4174 14.4238 14.4012 14.4664 14.4191 14.5017C14.7292 15.1024 15.0834 15.6745 15.4734 16.2171C15.4896 16.24 15.5189 16.2499 15.5458 16.2417C17.2335 15.7196 18.9448 14.932 20.7115 13.6346C20.7269 13.6231 20.7367 13.6059 20.7383 13.587C21.169 9.13173 20.017 5.26164 17.6845 1.83084C17.6788 1.81938 17.6691 1.81117 17.6577 1.80626ZM7.07481 11.2397C6.05712 11.2397 5.21858 10.3054 5.21858 9.15796C5.21858 8.01053 6.04086 7.07622 7.07481 7.07622C8.11687 7.07622 8.9473 8.01874 8.93101 9.15796C8.93101 10.3054 8.10873 11.2397 7.07481 11.2397ZM13.9379 11.2397C12.9202 11.2397 12.0817 10.3054 12.0817 9.15796C12.0817 8.01053 12.904 7.07622 13.9379 7.07622C14.98 7.07622 15.8104 8.01874 15.7941 9.15796C15.7941 10.3054 14.98 11.2397 13.9379 11.2397Z" fill="white"/>
</svg>
