<svg width="46" height="46" viewBox="0 0 46 46" fill="none" xmlns="http://www.w3.org/2000/svg">
<g id="Group">
<path id="Vector" d="M7.32005 37.5601C8.37719 37.6212 9.41024 37.2278 10.1591 36.479C10.9076 35.7301 11.301 34.6973 11.2399 33.6399C11.301 32.5827 10.9076 31.5497 10.1591 30.8008C9.41026 30.0523 8.37719 29.6589 7.32005 29.72C6.26252 29.6589 5.22986 30.0523 4.48097 30.8008C3.73209 31.5497 3.33877 32.5827 3.39982 33.6399C3.3387 34.6974 3.73207 35.7301 4.48097 36.479C5.22987 37.2278 6.26262 37.6212 7.32005 37.5601ZM7.32005 31.9603V31.9599C7.92005 31.9599 8.47463 32.2801 8.77463 32.7999C9.075 33.3196 9.075 33.9601 8.77463 34.4799C8.47463 34.9996 7.92002 35.3199 7.32005 35.3199C6.71968 35.3199 6.16508 34.9996 5.86509 34.4799C5.56509 33.9601 5.56509 33.3196 5.86509 32.7999C6.16508 32.2801 6.7197 31.9599 7.32005 31.9599V31.9603ZM14.04 44.2799V45.4L11.7998 45.3996V44.2799C11.7998 41.5034 9.36378 40.9199 7.31967 40.9199C5.27555 40.9199 2.83957 41.5034 2.83957 44.2799V45.4L0.600098 45.3996V44.2799C0.600098 40.8258 3.17595 38.68 7.32005 38.68C11.4638 38.6797 14.04 40.8258 14.04 44.2799V44.2799ZM38.6801 37.5599H38.6798C39.7373 37.621 40.77 37.2277 41.5189 36.4788C42.2677 35.7299 42.6611 34.6971 42.6 33.6397C42.6611 32.5825 42.2678 31.5495 41.5189 30.8006C40.77 30.0521 39.7372 29.6587 38.6798 29.7198C37.6226 29.6587 36.5896 30.0521 35.8407 30.8006C35.0922 31.5495 34.6988 32.5825 34.7599 33.6397C34.6988 34.6972 35.0922 35.7299 35.8407 36.4788C36.5896 37.2276 37.6226 37.621 38.6798 37.5599H38.6801ZM38.6801 31.9601L38.6798 31.9597C39.1256 31.9597 39.5528 32.1367 39.8678 32.4517C40.1828 32.7671 40.3598 33.1942 40.3598 33.6397C40.3598 34.0855 40.1828 34.5127 39.8678 34.8277C39.5528 35.1427 39.1256 35.3197 38.6798 35.3197C38.2343 35.3197 37.8072 35.1427 37.4918 34.8277C37.1768 34.5127 36.9998 34.0855 36.9998 33.6397C36.9424 33.1792 37.101 32.7176 37.4292 32.3891C37.7577 32.061 38.2193 31.9024 38.6797 31.9597L38.6801 31.9601ZM45.4001 44.2797V45.3998L43.1599 45.3994V44.2797C43.1599 41.5032 40.7239 40.9197 38.6798 40.9197C36.6357 40.9197 34.1997 41.5032 34.1997 44.2797V45.3998L31.9598 45.3994V44.2797C31.9598 40.8256 34.5357 38.6798 38.6798 38.6798C42.8239 38.6795 45.3997 40.8256 45.3997 44.2797L45.4001 44.2797ZM22.9996 0.599976C15.6301 0.599976 10.68 5.55028 10.68 12.9196C10.68 20.2889 15.6303 25.2392 22.9996 25.2392C30.3689 25.2392 35.3192 20.2889 35.3192 12.9196C35.3192 5.55028 30.3689 0.599976 22.9996 0.599976ZM19.6273 3.30034C18.3773 4.80859 17.4519 6.55798 16.9082 8.43966H13.7721C14.8183 5.90922 16.9824 4.00977 19.6273 3.30034ZM12.9197 12.9195C12.9182 12.1687 12.9827 11.4191 13.1124 10.6796H16.4421C16.2257 12.165 16.2257 13.6739 16.4421 15.1593H13.1124C12.9827 14.4198 12.9182 13.6702 12.9197 12.9195ZM13.7743 17.3996H16.9104H16.91C17.4542 19.2813 18.3797 21.0306 19.6295 22.5389C16.9846 21.8294 14.8205 19.93 13.7743 17.3996H13.7743ZM21.8795 21.7023C20.7171 20.4666 19.826 19.0007 19.2643 17.3996H21.8795V21.7023ZM21.8795 15.1593H18.7021C18.5818 14.4187 18.5206 13.6698 18.5195 12.9195C18.5206 12.1691 18.5806 11.4202 18.6988 10.6796H21.8795L21.8795 15.1593ZM21.8795 8.43937H19.2545C19.8133 6.82947 20.708 5.35655 21.8795 4.11864V8.43937ZM32.2254 8.43937H29.0893H29.0896C28.5455 6.5576 27.62 4.8083 26.3702 3.30005C29.015 4.00954 31.1792 5.90893 32.2254 8.43937H32.2254ZM24.1202 4.13669C25.2826 5.37229 26.1737 6.8382 26.7354 8.43937H24.1202V4.13669ZM24.1202 10.6796H27.2975C27.4179 11.4202 27.479 12.1691 27.4802 12.9195C27.479 13.6698 27.419 14.4187 27.3009 15.1593H24.1202L24.1202 10.6796ZM24.1202 17.3996H26.7455H26.7452C26.186 19.0095 25.2913 20.4824 24.1202 21.7203L24.1202 17.3996ZM26.3724 22.5393V22.5389C27.6223 21.0307 28.5477 19.2813 29.0915 17.3996H32.2276C31.1814 19.93 29.0173 21.8295 26.3724 22.5389V22.5393ZM29.5576 15.1593C29.774 13.6739 29.774 12.165 29.5576 10.6796H32.8873C33.1442 12.1617 33.1442 13.6774 32.8873 15.1593H29.5576ZM26.9199 33.6392C26.9814 32.5821 26.588 31.549 25.8391 30.8001C25.0902 30.0516 24.0572 29.6582 23 29.7193C21.9429 29.6582 20.9098 30.0516 20.1609 30.8001C19.4121 31.549 19.0187 32.5821 19.0802 33.6392C19.0187 34.6967 19.4121 35.7294 20.1609 36.4783C20.9098 37.2272 21.9429 37.6205 23 37.5594C24.0572 37.6205 25.0902 37.2272 25.8391 36.4783C26.588 35.7294 26.9813 34.6966 26.9199 33.6392ZM21.32 33.6392C21.2627 33.1787 21.4209 32.7171 21.7494 32.3886C22.0775 32.0605 22.5392 31.9019 23 31.9592C23.6004 31.9592 24.155 32.2795 24.455 32.7992C24.755 33.319 24.755 33.9595 24.455 34.4792C24.155 34.999 23.6004 35.3192 23 35.3192C22.5391 35.377 22.0775 35.2183 21.7494 34.8898C21.4209 34.5617 21.2627 34.1001 21.32 33.6393V33.6392ZM29.72 44.2798V45.3999L27.4801 45.3995V44.2798C27.4801 41.5033 25.0441 40.9198 23 40.9198C20.9559 40.9198 18.5199 41.5033 18.5199 44.2798V45.3999L16.2801 45.3995V44.2798C16.2801 40.8257 18.8559 38.6799 23 38.6799C27.1441 38.6796 29.72 40.8257 29.72 44.2798V44.2798Z" fill="#4388DD"/>
</g>
</svg>
