<svg width="46" height="34" viewBox="0 0 46 34" fill="none" xmlns="http://www.w3.org/2000/svg">
<g id="Group">
<path id="Vector" d="M23.0002 0.799988C17.8772 0.799668 12.909 2.55538 8.92325 5.77474C4.93822 8.99411 2.17681 13.4824 1.1002 18.4912C0.0235813 23.5 0.696581 28.7264 3.00677 33.2987C3.19276 33.6573 3.56187 33.8832 3.96583 33.8855H11.7828C12.2015 33.8871 12.5824 33.6436 12.7565 33.2629C12.9345 32.8811 12.8728 32.4305 12.599 32.1103C10.3125 29.4438 9.13744 26.0007 9.31669 22.4927C9.49597 18.9848 11.0159 15.6795 13.5624 13.2597C16.1088 10.8403 19.4873 9.49106 23 9.49106C26.5128 9.49106 29.8912 10.8403 32.4376 13.2597C34.9842 15.6795 36.5041 18.9847 36.6833 22.4927C36.8626 26.001 35.6875 29.444 33.4011 32.1103C33.1272 32.4305 33.0655 32.8811 33.2435 33.2629C33.4177 33.6436 33.7986 33.8871 34.2172 33.8855H42.0342C42.4381 33.8832 42.8072 33.6573 42.9933 33.2987C45.3034 28.726 45.9764 23.4996 44.8998 18.4912C43.8232 13.4828 41.0618 8.99395 37.0768 5.77474C33.0914 2.55538 28.1227 0.799742 22.9998 0.799988H23.0002ZM21.9265 3.09769V7.32111C18.8644 7.5234 15.924 8.59619 13.451 10.4136L10.4803 7.46427C13.7467 4.84989 17.749 3.32299 21.9263 3.09769H21.9265ZM32.5568 10.4206C30.0837 8.59783 27.1398 7.52211 24.074 7.32111V3.11209H24.4175L25.1334 3.17664L26.0425 3.29104L26.7584 3.4128C27.0591 3.47 27.3524 3.53456 27.6532 3.60614C27.9539 3.67772 28.1185 3.71352 28.369 3.77807C28.6196 3.84262 28.9561 3.95 29.2495 4.043L29.9151 4.26477C30.2085 4.37215 30.4948 4.49391 30.7812 4.61566C31.0675 4.73742 31.2036 4.78024 31.411 4.88059C31.6187 4.98093 31.9981 5.16692 32.2844 5.31711C32.5708 5.46731 32.6711 5.5031 32.8571 5.61047C33.1722 5.78241 33.4799 5.97542 33.7877 6.17611C33.9379 6.26911 34.0954 6.35507 34.2459 6.45542C34.6969 6.75613 35.1337 7.07826 35.5632 7.42175L32.5568 10.4206ZM8.71913 8.98896C8.78784 8.92536 8.89394 8.92536 8.96265 8.98896L11.826 11.8523C9.5318 14.049 7.94003 16.8762 7.25168 19.977H3.07104C3.74501 15.8072 5.72217 11.9583 8.7191 8.98176L8.71913 8.98896ZM34.2176 11.8095L37.0237 9.00336C37.0589 8.96565 37.1081 8.94424 37.1595 8.94424C37.2113 8.94424 37.2605 8.96565 37.2957 9.00336C40.2871 11.9789 42.2592 15.8255 42.9294 19.9912H38.7487C38.0862 16.8715 36.5085 14.0204 34.2175 11.8021L34.2176 11.8095ZM9.65013 31.7383H4.63928C3.39422 29.0635 2.74907 26.1491 2.74932 23.1982V22.1245H7.19485C7.19485 22.4824 7.15203 22.8403 7.15203 23.1982H7.15171C7.15043 26.2252 8.01742 29.1891 9.6501 31.7383H9.65013ZM41.3612 31.7383H36.3504C37.983 29.1894 38.8501 26.2254 38.8487 23.1982C38.8487 22.8333 38.8487 22.4824 38.8059 22.1245H43.2227V23.1982H43.2223C43.2316 26.1465 42.5963 29.061 41.3612 31.7383H41.3612Z" fill="#E968DD"/>
<path id="Vector_2" d="M26.6725 15.7393C26.2759 15.584 25.8397 15.5617 25.4294 15.6751C25.0191 15.7886 24.6564 16.0324 24.3962 16.3695C22.7642 18.4669 18.9271 23.5279 18.3903 24.845V24.8447C17.8125 26.2911 18.0499 27.9355 19.0134 29.1595C19.9769 30.3831 21.5198 30.9995 23.0614 30.7771C24.603 30.5543 25.9084 29.5266 26.4865 28.0802C27.0163 26.7272 27.6533 20.4352 27.9182 17.787C27.9635 17.3562 27.8661 16.9229 27.6411 16.5528C27.4161 16.183 27.0758 15.8974 26.6725 15.7395L26.6725 15.7393ZM24.4892 27.2499C24.2741 27.7935 23.8516 28.2291 23.315 28.4614C22.7785 28.6938 22.1716 28.7034 21.628 28.4883C21.0845 28.2729 20.6485 27.8508 20.4163 27.3142C20.1875 26.777 20.1875 26.1695 20.4163 25.632C20.6882 24.952 22.8501 21.9241 25.7349 18.1803C25.2482 22.8834 24.7542 26.5699 24.4892 27.2497V27.2499Z" fill="#E968DD"/>
</g>
</svg>
