<svg width="56" height="57" viewBox="0 0 56 57" fill="none" xmlns="http://www.w3.org/2000/svg">
<path d="M28.0002 10.6824C22.8772 10.6821 17.909 12.4378 13.9232 15.6571C9.93822 18.8765 7.17681 23.3648 6.1002 28.3736C5.02358 33.3824 5.69658 38.6088 8.00677 43.1811C8.19276 43.5397 8.56187 43.7656 8.96583 43.7679H16.7828C17.2015 43.7695 17.5824 43.5259 17.7565 43.1453C17.9345 42.7634 17.8728 42.3128 17.599 41.9926C15.3125 39.3261 14.1374 35.8831 14.3167 32.3751C14.496 28.8672 16.0159 25.5619 18.5624 23.1421C21.1088 20.7227 24.4873 19.3734 28 19.3734C31.5128 19.3734 34.8912 20.7227 37.4376 23.1421C39.9842 25.5618 41.5041 28.8671 41.6833 32.3751C41.8626 35.8833 40.6875 39.3264 38.4011 41.9926C38.1272 42.3128 38.0655 42.7634 38.2435 43.1453C38.4177 43.5259 38.7986 43.7695 39.2172 43.7679H47.0342C47.4381 43.7656 47.8072 43.5397 47.9933 43.1811C50.3034 38.6084 50.9764 33.382 49.8998 28.3736C48.8232 23.3652 46.0618 18.8763 42.0768 15.6571C38.0914 12.4378 33.1227 10.6821 27.9998 10.6824H28.0002ZM26.9265 12.9801V17.2035C23.8644 17.4058 20.924 18.4786 18.451 20.296L15.4803 17.3467C18.7467 14.7323 22.749 13.2054 26.9263 12.9801H26.9265ZM37.5568 20.303C35.0837 18.4802 32.1398 17.4045 29.074 17.2035V12.9945H29.4175L30.1334 13.059L31.0425 13.1734L31.7584 13.2952C32.0591 13.3524 32.3524 13.4169 32.6532 13.4885C32.9539 13.5601 33.1185 13.5959 33.369 13.6605C33.6196 13.725 33.9561 13.8324 34.2495 13.9254L34.9151 14.1472C35.2085 14.2545 35.4948 14.3763 35.7812 14.498C36.0675 14.6198 36.2036 14.6626 36.411 14.763C36.6187 14.8633 36.9981 15.0493 37.2844 15.1995C37.5708 15.3497 37.6711 15.3855 37.8571 15.4929C38.1722 15.6648 38.4799 15.8578 38.7877 16.0585C38.9379 16.1515 39.0954 16.2375 39.2459 16.3378C39.6969 16.6385 40.1337 16.9606 40.5632 17.3041L37.5568 20.303ZM13.7191 18.8713C13.7878 18.8077 13.8939 18.8077 13.9626 18.8713L16.826 21.7347C14.5318 23.9314 12.94 26.7586 12.2517 29.8593H8.07104C8.74501 25.6896 10.7222 21.8407 13.7191 18.8641L13.7191 18.8713ZM39.2176 21.6919L42.0237 18.8857C42.0589 18.848 42.1081 18.8266 42.1595 18.8266C42.2113 18.8266 42.2605 18.848 42.2957 18.8857C45.2871 21.8612 47.2592 25.7079 47.9294 29.8736H43.7487C43.0862 26.7539 41.5085 23.9028 39.2175 21.6844L39.2176 21.6919ZM14.6501 41.6207H9.63928C8.39422 38.9459 7.74907 36.0315 7.74932 33.0806V32.0068H12.1949C12.1949 32.3648 12.152 32.7227 12.152 33.0806H12.1517C12.1504 36.1075 13.0174 39.0715 14.6501 41.6207H14.6501ZM46.3612 41.6207H41.3504C42.983 39.0718 43.8501 36.1078 43.8487 33.0806C43.8487 32.7157 43.8487 32.3648 43.8059 32.0068H48.2227V33.0806H48.2223C48.2316 36.0289 47.5963 38.9434 46.3612 41.6207H46.3612Z" fill="#4388DD"/>
<path d="M31.6725 25.6217C31.2759 25.4664 30.8397 25.444 30.4294 25.5575C30.0191 25.6709 29.6564 25.9148 29.3962 26.2519C27.7642 28.3493 23.9271 33.4102 23.3903 34.7274V34.7271C22.8125 36.1734 23.0499 37.8179 24.0134 39.0419C24.9769 40.2655 26.5198 40.8819 28.0614 40.6595C29.603 40.4367 30.9084 39.409 31.4865 37.9626C32.0163 36.6096 32.6533 30.3176 32.9182 27.6694C32.9635 27.2386 32.8661 26.8053 32.6411 26.4352C32.4161 26.0654 32.0758 25.7797 31.6725 25.6219L31.6725 25.6217ZM29.4892 37.1323C29.2741 37.6759 28.8516 38.1115 28.315 38.3438C27.7784 38.5762 27.1716 38.5857 26.628 38.3707C26.0844 38.1553 25.6485 37.7331 25.4163 37.1965C25.1875 36.6594 25.1875 36.0519 25.4163 35.5144C25.6882 34.8343 27.8501 31.8064 30.7349 28.0627C30.2482 32.7657 29.7541 36.4522 29.4892 37.1321V37.1323Z" fill="#4388DD"/>
</svg>
