<svg width="46" height="46" viewBox="0 0 46 46" fill="none" xmlns="http://www.w3.org/2000/svg">
<g id="Group">
<path id="Vector" d="M7.31996 37.5601C8.3771 37.6212 9.41015 37.2278 10.159 36.479C10.9075 35.7301 11.301 34.6973 11.2398 33.6399C11.3009 32.5827 10.9076 31.5497 10.159 30.8008C9.41017 30.0523 8.3771 29.6589 7.31996 29.72C6.26243 29.6589 5.22976 30.0523 4.48087 30.8008C3.732 31.5497 3.33867 32.5827 3.39973 33.6399C3.33861 34.6974 3.73197 35.7301 4.48087 36.479C5.22977 37.2278 6.26253 37.6212 7.31996 37.5601ZM7.31996 31.9603V31.9599C7.91995 31.9599 8.47454 32.2801 8.77454 32.7999C9.07491 33.3196 9.07491 33.9601 8.77454 34.4799C8.47454 34.9996 7.91993 35.3199 7.31996 35.3199C6.71959 35.3199 6.16499 34.9996 5.86499 34.4799C5.565 33.9601 5.565 33.3196 5.86499 32.7999C6.16499 32.2801 6.71961 31.9599 7.31996 31.9599V31.9603ZM14.0399 44.2799V45.4L11.7997 45.3996V44.2799C11.7997 41.5034 9.36369 40.9199 7.31957 40.9199C5.27546 40.9199 2.83948 41.5034 2.83948 44.2799V45.4L0.600006 45.3996V44.2799C0.600006 40.8258 3.17586 38.68 7.31996 38.68C11.4637 38.6797 14.0399 40.8258 14.0399 44.2799V44.2799ZM38.6801 37.5599H38.6797C39.7372 37.621 40.7699 37.2277 41.5188 36.4788C42.2677 35.7299 42.661 34.6971 42.5999 33.6397C42.661 32.5825 42.2677 31.5495 41.5188 30.8006C40.7699 30.0521 39.7371 29.6587 38.6797 29.7198C37.6225 29.6587 36.5895 30.0521 35.8406 30.8006C35.0921 31.5495 34.6987 32.5825 34.7598 33.6397C34.6987 34.6972 35.0921 35.7299 35.8406 36.4788C36.5895 37.2276 37.6225 37.621 38.6797 37.5599H38.6801ZM38.6801 31.9601L38.6797 31.9597C39.1256 31.9597 39.5527 32.1367 39.8677 32.4517C40.1827 32.7671 40.3597 33.1942 40.3597 33.6397C40.3597 34.0855 40.1827 34.5127 39.8677 34.8277C39.5527 35.1427 39.1256 35.3197 38.6797 35.3197C38.2342 35.3197 37.8071 35.1427 37.4917 34.8277C37.1767 34.5127 36.9997 34.0855 36.9997 33.6397C36.9423 33.1792 37.1009 32.7176 37.4291 32.3891C37.7576 32.061 38.2192 31.9024 38.6797 31.9597L38.6801 31.9601ZM45.4 44.2797V45.3998L43.1598 45.3994V44.2797C43.1598 41.5032 40.7238 40.9197 38.6797 40.9197C36.6356 40.9197 34.1996 41.5032 34.1996 44.2797V45.3998L31.9597 45.3994V44.2797C31.9597 40.8256 34.5356 38.6798 38.6797 38.6798C42.8238 38.6795 45.3996 40.8256 45.3996 44.2797L45.4 44.2797ZM22.9995 0.599976C15.63 0.599976 10.6799 5.55028 10.6799 12.9196C10.6799 20.2889 15.6302 25.2392 22.9995 25.2392C30.3688 25.2392 35.3191 20.2889 35.3191 12.9196C35.3191 5.55028 30.3688 0.599976 22.9995 0.599976ZM19.6272 3.30034C18.3773 4.80859 17.4518 6.55798 16.9081 8.43966H13.772C14.8182 5.90922 16.9823 4.00977 19.6272 3.30034ZM12.9196 12.9195C12.9181 12.1687 12.9826 11.4191 13.1123 10.6796H16.442C16.2256 12.165 16.2256 13.6739 16.442 15.1593H13.1123C12.9826 14.4198 12.9181 13.6702 12.9196 12.9195ZM13.7742 17.3996H16.9103H16.9099C17.4541 19.2813 18.3796 21.0306 19.6294 22.5389C16.9845 21.8294 14.8204 19.93 13.7742 17.3996H13.7742ZM21.8794 21.7023C20.717 20.4666 19.8259 19.0007 19.2642 17.3996H21.8794V21.7023ZM21.8794 15.1593H18.7021C18.5817 14.4187 18.5206 13.6698 18.5194 12.9195C18.5206 12.1691 18.5806 11.4202 18.6987 10.6796H21.8794L21.8794 15.1593ZM21.8794 8.43937H19.2544C19.8132 6.82947 20.708 5.35655 21.8794 4.11864V8.43937ZM32.2253 8.43937H29.0892H29.0895C28.5454 6.5576 27.6199 4.8083 26.3701 3.30005C29.015 4.00954 31.1791 5.90893 32.2253 8.43937H32.2253ZM24.1201 4.13669C25.2825 5.37229 26.1736 6.8382 26.7353 8.43937H24.1201V4.13669ZM24.1201 10.6796H27.2974C27.4178 11.4202 27.4789 12.1691 27.4801 12.9195C27.4789 13.6698 27.4189 14.4187 27.3008 15.1593H24.1201L24.1201 10.6796ZM24.1201 17.3996H26.7454H26.7451C26.186 19.0095 25.2912 20.4824 24.1201 21.7203L24.1201 17.3996ZM26.3723 22.5393V22.5389C27.6222 21.0307 28.5476 19.2813 29.0914 17.3996H32.2275C31.1813 19.93 29.0172 21.8295 26.3723 22.5389V22.5393ZM29.5576 15.1593C29.7739 13.6739 29.7739 12.165 29.5576 10.6796H32.8872C33.1441 12.1617 33.1441 13.6774 32.8872 15.1593H29.5576ZM26.9198 33.6392C26.9813 32.5821 26.5879 31.549 25.839 30.8001C25.0902 30.0516 24.0571 29.6582 22.9999 29.7193C21.9428 29.6582 20.9097 30.0516 20.1609 30.8001C19.412 31.549 19.0187 32.5821 19.0801 33.6392C19.0186 34.6967 19.412 35.7294 20.1609 36.4783C20.9097 37.2272 21.9428 37.6205 22.9999 37.5594C24.0571 37.6205 25.0901 37.2272 25.839 36.4783C26.5879 35.7294 26.9812 34.6966 26.9198 33.6392ZM21.32 33.6392C21.2626 33.1787 21.4208 32.7171 21.7493 32.3886C22.0775 32.0605 22.5391 31.9019 22.9999 31.9592C23.6003 31.9592 24.1549 32.2795 24.4549 32.7992C24.7549 33.319 24.7549 33.9595 24.4549 34.4792C24.1549 34.999 23.6003 35.3192 22.9999 35.3192C22.539 35.377 22.0774 35.2183 21.7493 34.8898C21.4208 34.5617 21.2626 34.1001 21.32 33.6393V33.6392ZM29.7199 44.2798V45.3999L27.48 45.3995V44.2798C27.48 41.5033 25.0441 40.9198 22.9999 40.9198C20.9558 40.9198 18.5198 41.5033 18.5198 44.2798V45.3999L16.28 45.3995V44.2798C16.28 40.8257 18.8558 38.6799 22.9999 38.6799C27.144 38.6796 29.7199 40.8257 29.7199 44.2798V44.2798Z" fill="#E968DD"/>
</g>
</svg>
