<svg width="56" height="57" viewBox="0 0 56 57" fill="none" xmlns="http://www.w3.org/2000/svg">
<path d="M48.3148 8.28457C48.1609 7.94055 47.8855 7.66554 47.5419 7.51164C42.4512 5.19286 32.8342 6.97991 28.837 10.9884C27.0579 12.7661 24.0107 16.4127 21.4417 19.5724H21.4414C19.0526 18.5421 16.406 18.2636 13.8546 18.775C11.3036 19.286 8.96863 20.5623 7.16086 22.434C6.84376 22.7587 6.68538 23.2062 6.72782 23.6579C6.76992 24.1099 7.0087 24.5202 7.38067 24.7803C7.75264 25.0405 8.21985 25.1243 8.65878 25.0091C11.6573 24.3179 14.8035 25.1588 17.0575 27.2537L21.7229 31.9206L19.1967 34.4575C18.8986 34.7456 18.7285 35.1414 18.7251 35.5558C18.7216 35.9706 18.8845 36.3695 19.1778 36.6624C19.4711 36.9557 19.8696 37.1189 20.2843 37.1151C20.6988 37.1116 21.0945 36.9415 21.3827 36.6434L23.9102 34.1128L28.5726 38.7859C30.6688 41.0353 31.5111 44.1791 30.8203 47.1753C30.703 47.6145 30.7851 48.0831 31.0449 48.4561C31.3044 48.8295 31.715 49.0696 32.1677 49.1124C32.6201 49.1556 33.0687 48.9972 33.3941 48.6794C35.2654 46.8716 36.5413 44.5367 37.0527 41.9857C37.5638 39.4343 37.2856 36.788 36.2553 34.3989C39.4136 31.8296 43.0571 28.7827 44.8393 27.0036C48.8447 22.9934 50.6318 13.3735 48.3147 8.28458L48.3148 8.28457ZM19.372 22.1416C18.814 22.8373 18.321 23.457 17.9282 23.9518H17.9279C16.6322 22.9987 15.1491 22.3317 13.5763 21.9946C15.4807 21.4739 17.4962 21.525 19.3719 22.1416L19.372 22.1416ZM33.8394 42.2581C33.5023 40.6853 32.8346 39.2019 31.8809 37.9065C32.3757 37.5139 32.9954 37.0208 33.6928 36.4628H33.6924C34.3108 38.3379 34.3618 40.354 33.8394 42.258L33.8394 42.2581ZM29.7847 35.6216L26.0915 31.9271L29.197 28.8198H29.1973C29.4955 28.532 29.6656 28.1362 29.669 27.7215C29.6728 27.3067 29.5096 26.9082 29.2163 26.6149C28.923 26.3216 28.5245 26.1587 28.1097 26.1622C27.6953 26.166 27.2995 26.3357 27.0114 26.6342L23.9104 29.7415L20.2172 26.047C22.4245 23.2644 28.3592 15.8443 31.0241 13.181C33.9612 10.2439 41.6384 8.69804 45.7238 10.1141C47.1399 14.1951 45.6003 21.8706 42.6569 24.8121C39.9872 27.4767 32.5674 33.4113 29.7848 35.6216L29.7847 35.6216ZM33.0047 15.8205C32.0755 16.7498 31.5537 18.0099 31.5537 19.3238C31.5541 20.6378 32.0758 21.898 33.0051 22.8268C33.9344 23.7561 35.1945 24.2778 36.5084 24.2778C37.8224 24.2778 39.0826 23.7561 40.0114 22.8268C40.9407 21.8979 41.4628 20.6378 41.4628 19.3238C41.4628 18.0099 40.9411 16.7497 40.0121 15.8205C39.0822 14.8923 37.8221 14.3709 36.5084 14.3709C35.1945 14.3709 33.9343 14.8923 33.0047 15.8205ZM37.8231 20.642C37.4743 20.9932 36.9998 21.1913 36.5046 21.1923C36.0095 21.1934 35.5344 20.9974 35.1838 20.6478C34.8332 20.2979 34.6362 19.8231 34.6362 19.328C34.6362 18.8329 34.8332 18.3581 35.1838 18.0085C35.5344 17.6586 36.0095 17.4626 36.5046 17.4636C36.9998 17.4647 37.4743 17.6627 37.8231 18.014C38.1706 18.3632 38.3656 18.8356 38.3656 19.328C38.3656 19.8204 38.1706 20.2931 37.8231 20.642V20.642ZM16.6679 41.8555L8.21981 50.3036C7.82714 50.6832 7.26368 50.827 6.73711 50.6828C6.21056 50.5382 5.79927 50.1269 5.65502 49.6007C5.51078 49.0742 5.65467 48.5107 6.03389 48.118L14.4805 39.6699C14.8732 39.2907 15.4367 39.1465 15.9632 39.2907C16.4898 39.4353 16.9011 39.8466 17.0453 40.3728C17.1896 40.8994 17.0457 41.4629 16.6665 41.8555H16.6679ZM6.31064 40.4643C6.00215 40.1944 5.81375 39.8128 5.78649 39.4039C5.75923 38.9946 5.89553 38.5916 6.16537 38.2831L12.8587 30.6218C13.2224 30.206 13.7804 30.0159 14.3225 30.1229C14.8645 30.2298 15.3083 30.6177 15.4863 31.1408C15.6647 31.6635 15.5505 32.2419 15.1868 32.6576L8.49346 40.3189C8.22328 40.6281 7.84165 40.8168 7.43203 40.8441C7.0228 40.8713 6.61943 40.7347 6.31063 40.4642L6.31064 40.4643ZM25.7884 40.8369C26.0507 41.152 26.1769 41.5584 26.1393 41.9666C26.1021 42.3745 25.904 42.7513 25.589 43.0136L16.0586 50.9454C15.6328 51.2846 15.0599 51.375 14.5503 51.1831C14.0407 50.9909 13.6697 50.5451 13.5734 50.0093C13.4775 49.4734 13.6704 48.9265 14.0814 48.5693L23.6135 40.6406C23.9276 40.3777 24.3333 40.25 24.7416 40.2859C25.1494 40.3221 25.5269 40.5184 25.7902 40.8324L25.7884 40.8369Z" fill="#4388DD"/>
</svg>
