<svg width="56" height="57" viewBox="0 0 56 57" fill="none" xmlns="http://www.w3.org/2000/svg">
<mask id="path-1-outside-1_1397_951" maskUnits="userSpaceOnUse" x="4.60001" y="5.4823" width="47" height="47" fill="black">
<rect fill="white" x="4.60001" y="5.4823" width="47" height="47"/>
<path d="M48.5928 10.7128L46.1668 8.28678C42.9286 5.04955 35.9836 6.22832 27.9987 11.3421C20.0141 6.22844 13.0678 5.0487 9.83067 8.28726L7.40461 10.7133C4.16689 13.9505 5.34566 20.895 10.4599 28.8813C5.34627 36.8669 4.16701 43.811 7.4051 47.0493L9.83116 49.4754C11.0442 50.6884 12.7764 51.2823 14.8891 51.2823C18.4169 51.2823 23.0052 49.6216 27.9985 46.4234C32.9931 49.6224 37.5806 51.2823 41.1078 51.2823C43.2201 51.2823 44.9532 50.6884 46.1658 49.4754L48.5918 47.0493C51.83 43.8111 50.6513 36.8667 45.537 28.8813C50.6512 20.8953 51.8299 13.9504 48.5918 10.7133L48.5928 10.7128ZM47.8384 11.4672C50.6946 14.3235 49.3697 21.0446 44.4622 28.5903C43.7311 29.7139 42.9301 30.8427 42.0809 31.9457C41.2693 32.9997 40.3854 34.0656 39.4538 35.1143L39.4514 35.1167C38.6198 36.0521 37.7687 36.956 36.9209 37.8038C36.1522 38.5725 35.3354 39.3403 34.4967 40.0936C33.7747 39.7403 33.0298 39.3326 32.2688 38.8716C33.2866 38.01 34.2872 37.0932 35.2487 36.1321C36.3556 35.0271 37.4453 33.8512 38.4888 32.6372C39.4113 31.5642 40.2881 30.4698 41.0935 29.3838C41.8831 28.3203 42.618 27.2501 43.2791 26.2037C46.9798 20.3433 48.5338 15.0404 47.7698 11.3984L47.8384 11.4672ZM39.6942 36.4325C40.581 38.5038 40.9582 40.297 40.801 41.6834C39.4132 41.8405 37.6215 41.4638 35.5502 40.5765C36.2818 39.9097 36.999 39.2353 37.6763 38.558C38.3517 37.8827 39.0265 37.1654 39.6943 36.4324L39.6942 36.4325ZM40.4748 35.5634C41.142 34.8037 41.7793 34.0408 42.3851 33.274C43.9573 36.7788 44.1111 39.5107 42.7847 40.8366C42.5285 41.0847 42.226 41.281 41.8945 41.4134C41.9746 39.8003 41.4897 37.8033 40.4744 35.5634L40.4748 35.5634ZM45.4127 9.0423C48.226 11.8556 47.063 18.2134 42.3771 25.635C41.7308 26.659 41.0107 27.7063 40.2372 28.7489C39.4465 29.8143 38.5864 30.8893 37.6805 31.9427C36.6537 33.1362 35.5821 34.2925 34.4957 35.379C33.4736 36.4011 32.4073 37.3717 31.3224 38.2762C30.5141 37.749 29.6888 37.1617 28.8558 36.5207C30.0898 35.512 31.2881 34.4347 32.4197 33.303C33.7119 32.0103 34.9296 30.6449 36.0665 29.2138C36.938 28.1212 37.7524 26.9844 38.5055 25.8071L38.5064 25.8061C39.1837 24.7497 39.7938 23.6524 40.3338 22.5199L40.3343 22.518C41.645 19.7352 42.1522 17.309 41.8007 15.5025L41.7993 15.4968L41.7974 15.4902C41.6588 14.681 41.2792 13.9323 40.7081 13.3427C38.9592 11.5938 35.6777 11.7472 31.4499 13.7594C30.6345 13.1393 29.8063 12.5511 28.9747 11.9906C36.2387 7.44459 42.6437 6.27338 45.4126 9.04242L45.4127 9.0423ZM27.9994 21.9212C29.2782 22.9542 30.5022 24.0539 31.6657 25.2156C32.8268 26.3796 33.9266 27.6031 34.9601 28.8819C33.9266 30.1606 32.8269 31.3841 31.6657 32.5482C30.5022 33.7098 29.2782 34.8095 27.9994 35.8426C26.7207 34.8095 25.4967 33.7099 24.3331 32.5482C23.172 31.3842 22.0723 30.1606 21.0387 28.8819C23.1043 26.3205 25.438 23.9869 27.9994 21.9212ZM34.6815 16.4061C33.9214 15.7379 33.1584 15.1011 32.3926 14.4957C35.897 12.9232 38.6288 12.7703 39.9548 14.0966C40.2029 14.3529 40.3991 14.6548 40.5315 14.9863C38.9188 14.9068 36.9215 15.3911 34.6816 16.4061L34.6815 16.4061ZM40.8015 16.0803C40.9587 17.4667 40.5815 19.2594 39.6947 21.3311C39.0274 20.5986 38.3525 19.8813 37.6767 19.205C36.999 18.5277 36.2821 17.8533 35.5511 17.187C37.6219 16.3002 39.4137 15.9235 40.8014 16.0802L40.8015 16.0803ZM10.5861 9.04194C13.4428 6.18525 20.1644 7.51069 27.7092 12.4186C28.8356 13.1511 29.9644 13.9527 31.0646 14.8C32.1181 15.6106 33.185 16.4954 34.2356 17.4289C35.1682 18.2576 36.0726 19.1087 36.9232 19.9593C37.6905 20.7266 38.4583 21.5439 39.2126 22.3831C38.8602 23.1041 38.452 23.8495 37.9906 24.611C37.129 23.5932 36.2122 22.5925 35.2505 21.631C34.1437 20.5232 32.9673 19.4336 31.7557 18.392C30.685 17.4718 29.5905 16.5955 28.5018 15.7873C27.4406 14.9996 26.3705 14.2642 25.3222 13.6017C19.4613 9.90066 14.1589 8.34648 10.5168 9.11046L10.5861 9.04194ZM8.16003 11.468C10.9314 8.69665 17.4444 9.88968 24.7528 14.5037C25.7792 15.1524 26.8265 15.872 27.8666 16.6441C28.9344 17.4371 30.0089 18.2972 31.0605 19.2012C32.2516 20.2252 33.4085 21.2968 34.4963 22.3855C35.5184 23.4076 36.4895 24.4744 37.3935 25.5588C36.8663 26.3675 36.2786 27.1934 35.638 28.0254C34.6283 26.7904 33.5515 25.5921 32.4203 24.461H32.4213C31.1286 23.1689 29.7637 21.9511 28.3325 20.8143C27.2395 19.9422 26.1016 19.1278 24.9238 18.3743C23.8689 17.6975 22.7721 17.0879 21.6409 16.5482L21.638 16.5473C18.8537 15.2356 16.4272 14.7284 14.6206 15.0799L14.6164 15.0809L14.6059 15.0837C13.7976 15.2228 13.0499 15.6019 12.4602 16.1725C10.7109 17.9219 10.8652 21.2043 12.8775 25.4307C12.2559 26.248 11.6677 27.0757 11.1086 27.9059C6.56357 20.6419 5.39138 14.2369 8.16042 11.468L8.16003 11.468ZM13.6137 24.4896C12.0415 20.9852 11.8883 18.2529 13.2141 16.9269C13.4704 16.6788 13.7728 16.4826 14.1043 16.3502C14.0248 17.9637 14.5091 19.9607 15.5241 22.2006C14.8573 22.9593 14.2201 23.7227 13.6138 24.4895L13.6137 24.4896ZM16.3046 21.331C15.4178 19.2597 15.0406 17.4666 15.1978 16.0802C16.5866 15.9235 18.3778 16.3002 20.4486 17.1865C19.717 17.8528 19.0002 18.5272 18.3225 19.2045C17.6466 19.8813 16.9723 20.5986 16.3045 21.331L16.3046 21.331ZM8.15991 46.2963C5.30369 43.4396 6.62865 36.7185 11.5361 29.1732C12.2663 28.0501 13.0678 26.9213 13.9175 25.8174C14.7295 24.763 15.6134 23.697 16.5446 22.6493L16.5465 22.6474V22.647C17.3776 21.7125 18.2287 20.8081 19.0769 19.9599C19.8461 19.1907 20.6634 18.423 21.5011 17.67C22.2222 18.0224 22.9675 18.4306 23.7291 18.8921C22.7113 19.7536 21.7106 20.6704 20.7491 21.6316C19.6399 22.7403 18.5502 23.9162 17.5096 25.1269C16.5856 26.2023 15.7092 27.2973 14.9054 28.3804C14.1148 29.4458 13.3793 30.5155 12.7197 31.5604C9.01907 37.4208 7.46501 42.7237 8.22899 46.3657L8.15991 46.2963ZM10.586 48.7223C7.77267 45.9086 8.93572 39.5508 13.6217 32.1296C14.267 31.1075 14.9871 30.0597 15.7616 29.0158C16.5507 27.9527 17.4108 26.8783 18.3182 25.822C19.3417 24.6318 20.4134 23.4759 21.503 22.3856C22.5251 21.3636 23.5915 20.3929 24.6764 19.4885C25.4851 20.0162 26.3109 20.6034 27.1429 21.2439C25.9084 22.2527 24.7106 23.3299 23.579 24.4616C22.2869 25.7543 21.0691 27.1197 19.9323 28.5509C19.0602 29.6434 18.2463 30.7808 17.4928 31.9581L17.4923 31.9585C16.815 33.0144 16.2049 34.1122 15.6649 35.2448L15.6644 35.2467C14.3537 38.03 13.8465 40.4557 14.198 42.2626L14.1995 42.2683L14.2014 42.275V42.2745C14.3399 43.0837 14.7195 43.8323 15.2906 44.422C16.1974 45.2645 17.4085 45.7026 18.6445 45.6345C20.2772 45.6345 22.2775 45.0854 24.5479 44.0048C25.3618 44.6239 26.1906 45.2121 27.0236 45.7736C19.759 50.3196 13.3545 51.4908 10.5856 48.7223L10.586 48.7223ZM21.3196 41.3597C22.0788 42.0269 22.8413 42.6637 23.6072 43.2685C20.1019 44.8403 17.3705 44.994 16.045 43.6676H16.0446C15.7959 43.4114 15.5997 43.109 15.4673 42.7775C15.5821 42.7832 15.6945 42.7927 15.8131 42.7927V42.7922C17.7277 42.7008 19.6028 42.2126 21.3197 41.3596L21.3196 41.3597ZM15.1982 41.6845C15.041 40.2981 15.4182 38.5049 16.305 36.4337C16.9727 37.1667 17.6476 37.884 18.323 38.5593C18.9998 39.2366 19.7171 39.911 20.4491 40.5778C18.3778 41.4651 16.5865 41.8418 15.1978 41.6846L15.1982 41.6845ZM45.4136 48.7223C42.5564 51.579 35.8349 50.2536 28.2892 45.3456C27.161 44.6112 26.0317 43.8101 24.9339 42.9643C23.8818 42.1542 22.8159 41.2702 21.7662 40.3377L21.7634 40.3353C20.8304 39.5061 19.926 38.6546 19.0758 37.8044C18.309 37.0376 17.5413 36.2209 16.7864 35.3807C17.1393 34.6596 17.547 33.9143 18.0085 33.1527C18.87 34.1705 19.7869 35.1712 20.7485 36.1327C21.8592 37.2434 23.0356 38.3336 24.2433 39.3718C25.314 40.2919 26.4085 41.1682 27.4973 41.9764C28.5589 42.7647 29.629 43.5 30.6768 44.1616C35.5671 47.2497 40.0708 48.8457 43.5436 48.8457L43.5431 48.8461C44.1956 48.8481 44.8466 48.7819 45.4859 48.649L45.4136 48.7223ZM47.8397 46.2963C45.0254 49.1101 38.6676 47.947 31.2469 43.2601C30.2215 42.6129 29.1737 41.8927 28.1331 41.1202C27.0653 40.3272 25.9913 39.467 24.9392 38.5631C23.7514 37.542 22.595 36.4704 21.5034 35.3788C20.4813 34.3567 19.5101 33.2899 18.6057 32.2055C19.1329 31.3968 19.7207 30.5709 20.3612 29.7389C21.3709 30.9739 22.4477 32.1722 23.5789 33.3033C24.8716 34.5954 26.2365 35.8132 27.6677 36.95C28.7607 37.8221 29.8985 38.6365 31.0763 39.39C32.1322 40.0672 33.2295 40.6774 34.3621 41.2169L34.3735 41.2221L34.3754 41.2231C36.1781 42.1547 38.1598 42.69 40.1864 42.7924C40.5864 42.7948 40.986 42.7586 41.3794 42.6843C42.1934 42.5466 42.9464 42.1661 43.5398 41.5917C45.2892 39.8423 45.1353 36.5604 43.1226 32.333C43.7441 31.5162 44.3318 30.688 44.8915 29.8583C49.4365 37.1218 50.6087 43.5273 47.8396 46.2962L47.8397 46.2963Z"/>
</mask>
<path d="M48.5928 10.7128L46.1668 8.28678C42.9286 5.04955 35.9836 6.22832 27.9987 11.3421C20.0141 6.22844 13.0678 5.0487 9.83067 8.28726L7.40461 10.7133C4.16689 13.9505 5.34566 20.895 10.4599 28.8813C5.34627 36.8669 4.16701 43.811 7.4051 47.0493L9.83116 49.4754C11.0442 50.6884 12.7764 51.2823 14.8891 51.2823C18.4169 51.2823 23.0052 49.6216 27.9985 46.4234C32.9931 49.6224 37.5806 51.2823 41.1078 51.2823C43.2201 51.2823 44.9532 50.6884 46.1658 49.4754L48.5918 47.0493C51.83 43.8111 50.6513 36.8667 45.537 28.8813C50.6512 20.8953 51.8299 13.9504 48.5918 10.7133L48.5928 10.7128ZM47.8384 11.4672C50.6946 14.3235 49.3697 21.0446 44.4622 28.5903C43.7311 29.7139 42.9301 30.8427 42.0809 31.9457C41.2693 32.9997 40.3854 34.0656 39.4538 35.1143L39.4514 35.1167C38.6198 36.0521 37.7687 36.956 36.9209 37.8038C36.1522 38.5725 35.3354 39.3403 34.4967 40.0936C33.7747 39.7403 33.0298 39.3326 32.2688 38.8716C33.2866 38.01 34.2872 37.0932 35.2487 36.1321C36.3556 35.0271 37.4453 33.8512 38.4888 32.6372C39.4113 31.5642 40.2881 30.4698 41.0935 29.3838C41.8831 28.3203 42.618 27.2501 43.2791 26.2037C46.9798 20.3433 48.5338 15.0404 47.7698 11.3984L47.8384 11.4672ZM39.6942 36.4325C40.581 38.5038 40.9582 40.297 40.801 41.6834C39.4132 41.8405 37.6215 41.4638 35.5502 40.5765C36.2818 39.9097 36.999 39.2353 37.6763 38.558C38.3517 37.8827 39.0265 37.1654 39.6943 36.4324L39.6942 36.4325ZM40.4748 35.5634C41.142 34.8037 41.7793 34.0408 42.3851 33.274C43.9573 36.7788 44.1111 39.5107 42.7847 40.8366C42.5285 41.0847 42.226 41.281 41.8945 41.4134C41.9746 39.8003 41.4897 37.8033 40.4744 35.5634L40.4748 35.5634ZM45.4127 9.0423C48.226 11.8556 47.063 18.2134 42.3771 25.635C41.7308 26.659 41.0107 27.7063 40.2372 28.7489C39.4465 29.8143 38.5864 30.8893 37.6805 31.9427C36.6537 33.1362 35.5821 34.2925 34.4957 35.379C33.4736 36.4011 32.4073 37.3717 31.3224 38.2762C30.5141 37.749 29.6888 37.1617 28.8558 36.5207C30.0898 35.512 31.2881 34.4347 32.4197 33.303C33.7119 32.0103 34.9296 30.6449 36.0665 29.2138C36.938 28.1212 37.7524 26.9844 38.5055 25.8071L38.5064 25.8061C39.1837 24.7497 39.7938 23.6524 40.3338 22.5199L40.3343 22.518C41.645 19.7352 42.1522 17.309 41.8007 15.5025L41.7993 15.4968L41.7974 15.4902C41.6588 14.681 41.2792 13.9323 40.7081 13.3427C38.9592 11.5938 35.6777 11.7472 31.4499 13.7594C30.6345 13.1393 29.8063 12.5511 28.9747 11.9906C36.2387 7.44459 42.6437 6.27338 45.4126 9.04242L45.4127 9.0423ZM27.9994 21.9212C29.2782 22.9542 30.5022 24.0539 31.6657 25.2156C32.8268 26.3796 33.9266 27.6031 34.9601 28.8819C33.9266 30.1606 32.8269 31.3841 31.6657 32.5482C30.5022 33.7098 29.2782 34.8095 27.9994 35.8426C26.7207 34.8095 25.4967 33.7099 24.3331 32.5482C23.172 31.3842 22.0723 30.1606 21.0387 28.8819C23.1043 26.3205 25.438 23.9869 27.9994 21.9212ZM34.6815 16.4061C33.9214 15.7379 33.1584 15.1011 32.3926 14.4957C35.897 12.9232 38.6288 12.7703 39.9548 14.0966C40.2029 14.3529 40.3991 14.6548 40.5315 14.9863C38.9188 14.9068 36.9215 15.3911 34.6816 16.4061L34.6815 16.4061ZM40.8015 16.0803C40.9587 17.4667 40.5815 19.2594 39.6947 21.3311C39.0274 20.5986 38.3525 19.8813 37.6767 19.205C36.999 18.5277 36.2821 17.8533 35.5511 17.187C37.6219 16.3002 39.4137 15.9235 40.8014 16.0802L40.8015 16.0803ZM10.5861 9.04194C13.4428 6.18525 20.1644 7.51069 27.7092 12.4186C28.8356 13.1511 29.9644 13.9527 31.0646 14.8C32.1181 15.6106 33.185 16.4954 34.2356 17.4289C35.1682 18.2576 36.0726 19.1087 36.9232 19.9593C37.6905 20.7266 38.4583 21.5439 39.2126 22.3831C38.8602 23.1041 38.452 23.8495 37.9906 24.611C37.129 23.5932 36.2122 22.5925 35.2505 21.631C34.1437 20.5232 32.9673 19.4336 31.7557 18.392C30.685 17.4718 29.5905 16.5955 28.5018 15.7873C27.4406 14.9996 26.3705 14.2642 25.3222 13.6017C19.4613 9.90066 14.1589 8.34648 10.5168 9.11046L10.5861 9.04194ZM8.16003 11.468C10.9314 8.69665 17.4444 9.88968 24.7528 14.5037C25.7792 15.1524 26.8265 15.872 27.8666 16.6441C28.9344 17.4371 30.0089 18.2972 31.0605 19.2012C32.2516 20.2252 33.4085 21.2968 34.4963 22.3855C35.5184 23.4076 36.4895 24.4744 37.3935 25.5588C36.8663 26.3675 36.2786 27.1934 35.638 28.0254C34.6283 26.7904 33.5515 25.5921 32.4203 24.461H32.4213C31.1286 23.1689 29.7637 21.9511 28.3325 20.8143C27.2395 19.9422 26.1016 19.1278 24.9238 18.3743C23.8689 17.6975 22.7721 17.0879 21.6409 16.5482L21.638 16.5473C18.8537 15.2356 16.4272 14.7284 14.6206 15.0799L14.6164 15.0809L14.6059 15.0837C13.7976 15.2228 13.0499 15.6019 12.4602 16.1725C10.7109 17.9219 10.8652 21.2043 12.8775 25.4307C12.2559 26.248 11.6677 27.0757 11.1086 27.9059C6.56357 20.6419 5.39138 14.2369 8.16042 11.468L8.16003 11.468ZM13.6137 24.4896C12.0415 20.9852 11.8883 18.2529 13.2141 16.9269C13.4704 16.6788 13.7728 16.4826 14.1043 16.3502C14.0248 17.9637 14.5091 19.9607 15.5241 22.2006C14.8573 22.9593 14.2201 23.7227 13.6138 24.4895L13.6137 24.4896ZM16.3046 21.331C15.4178 19.2597 15.0406 17.4666 15.1978 16.0802C16.5866 15.9235 18.3778 16.3002 20.4486 17.1865C19.717 17.8528 19.0002 18.5272 18.3225 19.2045C17.6466 19.8813 16.9723 20.5986 16.3045 21.331L16.3046 21.331ZM8.15991 46.2963C5.30369 43.4396 6.62865 36.7185 11.5361 29.1732C12.2663 28.0501 13.0678 26.9213 13.9175 25.8174C14.7295 24.763 15.6134 23.697 16.5446 22.6493L16.5465 22.6474V22.647C17.3776 21.7125 18.2287 20.8081 19.0769 19.9599C19.8461 19.1907 20.6634 18.423 21.5011 17.67C22.2222 18.0224 22.9675 18.4306 23.7291 18.8921C22.7113 19.7536 21.7106 20.6704 20.7491 21.6316C19.6399 22.7403 18.5502 23.9162 17.5096 25.1269C16.5856 26.2023 15.7092 27.2973 14.9054 28.3804C14.1148 29.4458 13.3793 30.5155 12.7197 31.5604C9.01907 37.4208 7.46501 42.7237 8.22899 46.3657L8.15991 46.2963ZM10.586 48.7223C7.77267 45.9086 8.93572 39.5508 13.6217 32.1296C14.267 31.1075 14.9871 30.0597 15.7616 29.0158C16.5507 27.9527 17.4108 26.8783 18.3182 25.822C19.3417 24.6318 20.4134 23.4759 21.503 22.3856C22.5251 21.3636 23.5915 20.3929 24.6764 19.4885C25.4851 20.0162 26.3109 20.6034 27.1429 21.2439C25.9084 22.2527 24.7106 23.3299 23.579 24.4616C22.2869 25.7543 21.0691 27.1197 19.9323 28.5509C19.0602 29.6434 18.2463 30.7808 17.4928 31.9581L17.4923 31.9585C16.815 33.0144 16.2049 34.1122 15.6649 35.2448L15.6644 35.2467C14.3537 38.03 13.8465 40.4557 14.198 42.2626L14.1995 42.2683L14.2014 42.275V42.2745C14.3399 43.0837 14.7195 43.8323 15.2906 44.422C16.1974 45.2645 17.4085 45.7026 18.6445 45.6345C20.2772 45.6345 22.2775 45.0854 24.5479 44.0048C25.3618 44.6239 26.1906 45.2121 27.0236 45.7736C19.759 50.3196 13.3545 51.4908 10.5856 48.7223L10.586 48.7223ZM21.3196 41.3597C22.0788 42.0269 22.8413 42.6637 23.6072 43.2685C20.1019 44.8403 17.3705 44.994 16.045 43.6676H16.0446C15.7959 43.4114 15.5997 43.109 15.4673 42.7775C15.5821 42.7832 15.6945 42.7927 15.8131 42.7927V42.7922C17.7277 42.7008 19.6028 42.2126 21.3197 41.3596L21.3196 41.3597ZM15.1982 41.6845C15.041 40.2981 15.4182 38.5049 16.305 36.4337C16.9727 37.1667 17.6476 37.884 18.323 38.5593C18.9998 39.2366 19.7171 39.911 20.4491 40.5778C18.3778 41.4651 16.5865 41.8418 15.1978 41.6846L15.1982 41.6845ZM45.4136 48.7223C42.5564 51.579 35.8349 50.2536 28.2892 45.3456C27.161 44.6112 26.0317 43.8101 24.9339 42.9643C23.8818 42.1542 22.8159 41.2702 21.7662 40.3377L21.7634 40.3353C20.8304 39.5061 19.926 38.6546 19.0758 37.8044C18.309 37.0376 17.5413 36.2209 16.7864 35.3807C17.1393 34.6596 17.547 33.9143 18.0085 33.1527C18.87 34.1705 19.7869 35.1712 20.7485 36.1327C21.8592 37.2434 23.0356 38.3336 24.2433 39.3718C25.314 40.2919 26.4085 41.1682 27.4973 41.9764C28.5589 42.7647 29.629 43.5 30.6768 44.1616C35.5671 47.2497 40.0708 48.8457 43.5436 48.8457L43.5431 48.8461C44.1956 48.8481 44.8466 48.7819 45.4859 48.649L45.4136 48.7223ZM47.8397 46.2963C45.0254 49.1101 38.6676 47.947 31.2469 43.2601C30.2215 42.6129 29.1737 41.8927 28.1331 41.1202C27.0653 40.3272 25.9913 39.467 24.9392 38.5631C23.7514 37.542 22.595 36.4704 21.5034 35.3788C20.4813 34.3567 19.5101 33.2899 18.6057 32.2055C19.1329 31.3968 19.7207 30.5709 20.3612 29.7389C21.3709 30.9739 22.4477 32.1722 23.5789 33.3033C24.8716 34.5954 26.2365 35.8132 27.6677 36.95C28.7607 37.8221 29.8985 38.6365 31.0763 39.39C32.1322 40.0672 33.2295 40.6774 34.3621 41.2169L34.3735 41.2221L34.3754 41.2231C36.1781 42.1547 38.1598 42.69 40.1864 42.7924C40.5864 42.7948 40.986 42.7586 41.3794 42.6843C42.1934 42.5466 42.9464 42.1661 43.5398 41.5917C45.2892 39.8423 45.1353 36.5604 43.1226 32.333C43.7441 31.5162 44.3318 30.688 44.8915 29.8583C49.4365 37.1218 50.6087 43.5273 47.8396 46.2962L47.8397 46.2963Z" fill="#4388DD"/>
<path d="M48.5928 10.7128L46.1668 8.28678C42.9286 5.04955 35.9836 6.22832 27.9987 11.3421C20.0141 6.22844 13.0678 5.0487 9.83067 8.28726L7.40461 10.7133C4.16689 13.9505 5.34566 20.895 10.4599 28.8813C5.34627 36.8669 4.16701 43.811 7.4051 47.0493L9.83116 49.4754C11.0442 50.6884 12.7764 51.2823 14.8891 51.2823C18.4169 51.2823 23.0052 49.6216 27.9985 46.4234C32.9931 49.6224 37.5806 51.2823 41.1078 51.2823C43.2201 51.2823 44.9532 50.6884 46.1658 49.4754L48.5918 47.0493C51.83 43.8111 50.6513 36.8667 45.537 28.8813C50.6512 20.8953 51.8299 13.9504 48.5918 10.7133L48.5928 10.7128ZM47.8384 11.4672C50.6946 14.3235 49.3697 21.0446 44.4622 28.5903C43.7311 29.7139 42.9301 30.8427 42.0809 31.9457C41.2693 32.9997 40.3854 34.0656 39.4538 35.1143L39.4514 35.1167C38.6198 36.0521 37.7687 36.956 36.9209 37.8038C36.1522 38.5725 35.3354 39.3403 34.4967 40.0936C33.7747 39.7403 33.0298 39.3326 32.2688 38.8716C33.2866 38.01 34.2872 37.0932 35.2487 36.1321C36.3556 35.0271 37.4453 33.8512 38.4888 32.6372C39.4113 31.5642 40.2881 30.4698 41.0935 29.3838C41.8831 28.3203 42.618 27.2501 43.2791 26.2037C46.9798 20.3433 48.5338 15.0404 47.7698 11.3984L47.8384 11.4672ZM39.6942 36.4325C40.581 38.5038 40.9582 40.297 40.801 41.6834C39.4132 41.8405 37.6215 41.4638 35.5502 40.5765C36.2818 39.9097 36.999 39.2353 37.6763 38.558C38.3517 37.8827 39.0265 37.1654 39.6943 36.4324L39.6942 36.4325ZM40.4748 35.5634C41.142 34.8037 41.7793 34.0408 42.3851 33.274C43.9573 36.7788 44.1111 39.5107 42.7847 40.8366C42.5285 41.0847 42.226 41.281 41.8945 41.4134C41.9746 39.8003 41.4897 37.8033 40.4744 35.5634L40.4748 35.5634ZM45.4127 9.0423C48.226 11.8556 47.063 18.2134 42.3771 25.635C41.7308 26.659 41.0107 27.7063 40.2372 28.7489C39.4465 29.8143 38.5864 30.8893 37.6805 31.9427C36.6537 33.1362 35.5821 34.2925 34.4957 35.379C33.4736 36.4011 32.4073 37.3717 31.3224 38.2762C30.5141 37.749 29.6888 37.1617 28.8558 36.5207C30.0898 35.512 31.2881 34.4347 32.4197 33.303C33.7119 32.0103 34.9296 30.6449 36.0665 29.2138C36.938 28.1212 37.7524 26.9844 38.5055 25.8071L38.5064 25.8061C39.1837 24.7497 39.7938 23.6524 40.3338 22.5199L40.3343 22.518C41.645 19.7352 42.1522 17.309 41.8007 15.5025L41.7993 15.4968L41.7974 15.4902C41.6588 14.681 41.2792 13.9323 40.7081 13.3427C38.9592 11.5938 35.6777 11.7472 31.4499 13.7594C30.6345 13.1393 29.8063 12.5511 28.9747 11.9906C36.2387 7.44459 42.6437 6.27338 45.4126 9.04242L45.4127 9.0423ZM27.9994 21.9212C29.2782 22.9542 30.5022 24.0539 31.6657 25.2156C32.8268 26.3796 33.9266 27.6031 34.9601 28.8819C33.9266 30.1606 32.8269 31.3841 31.6657 32.5482C30.5022 33.7098 29.2782 34.8095 27.9994 35.8426C26.7207 34.8095 25.4967 33.7099 24.3331 32.5482C23.172 31.3842 22.0723 30.1606 21.0387 28.8819C23.1043 26.3205 25.438 23.9869 27.9994 21.9212ZM34.6815 16.4061C33.9214 15.7379 33.1584 15.1011 32.3926 14.4957C35.897 12.9232 38.6288 12.7703 39.9548 14.0966C40.2029 14.3529 40.3991 14.6548 40.5315 14.9863C38.9188 14.9068 36.9215 15.3911 34.6816 16.4061L34.6815 16.4061ZM40.8015 16.0803C40.9587 17.4667 40.5815 19.2594 39.6947 21.3311C39.0274 20.5986 38.3525 19.8813 37.6767 19.205C36.999 18.5277 36.2821 17.8533 35.5511 17.187C37.6219 16.3002 39.4137 15.9235 40.8014 16.0802L40.8015 16.0803ZM10.5861 9.04194C13.4428 6.18525 20.1644 7.51069 27.7092 12.4186C28.8356 13.1511 29.9644 13.9527 31.0646 14.8C32.1181 15.6106 33.185 16.4954 34.2356 17.4289C35.1682 18.2576 36.0726 19.1087 36.9232 19.9593C37.6905 20.7266 38.4583 21.5439 39.2126 22.3831C38.8602 23.1041 38.452 23.8495 37.9906 24.611C37.129 23.5932 36.2122 22.5925 35.2505 21.631C34.1437 20.5232 32.9673 19.4336 31.7557 18.392C30.685 17.4718 29.5905 16.5955 28.5018 15.7873C27.4406 14.9996 26.3705 14.2642 25.3222 13.6017C19.4613 9.90066 14.1589 8.34648 10.5168 9.11046L10.5861 9.04194ZM8.16003 11.468C10.9314 8.69665 17.4444 9.88968 24.7528 14.5037C25.7792 15.1524 26.8265 15.872 27.8666 16.6441C28.9344 17.4371 30.0089 18.2972 31.0605 19.2012C32.2516 20.2252 33.4085 21.2968 34.4963 22.3855C35.5184 23.4076 36.4895 24.4744 37.3935 25.5588C36.8663 26.3675 36.2786 27.1934 35.638 28.0254C34.6283 26.7904 33.5515 25.5921 32.4203 24.461H32.4213C31.1286 23.1689 29.7637 21.9511 28.3325 20.8143C27.2395 19.9422 26.1016 19.1278 24.9238 18.3743C23.8689 17.6975 22.7721 17.0879 21.6409 16.5482L21.638 16.5473C18.8537 15.2356 16.4272 14.7284 14.6206 15.0799L14.6164 15.0809L14.6059 15.0837C13.7976 15.2228 13.0499 15.6019 12.4602 16.1725C10.7109 17.9219 10.8652 21.2043 12.8775 25.4307C12.2559 26.248 11.6677 27.0757 11.1086 27.9059C6.56357 20.6419 5.39138 14.2369 8.16042 11.468L8.16003 11.468ZM13.6137 24.4896C12.0415 20.9852 11.8883 18.2529 13.2141 16.9269C13.4704 16.6788 13.7728 16.4826 14.1043 16.3502C14.0248 17.9637 14.5091 19.9607 15.5241 22.2006C14.8573 22.9593 14.2201 23.7227 13.6138 24.4895L13.6137 24.4896ZM16.3046 21.331C15.4178 19.2597 15.0406 17.4666 15.1978 16.0802C16.5866 15.9235 18.3778 16.3002 20.4486 17.1865C19.717 17.8528 19.0002 18.5272 18.3225 19.2045C17.6466 19.8813 16.9723 20.5986 16.3045 21.331L16.3046 21.331ZM8.15991 46.2963C5.30369 43.4396 6.62865 36.7185 11.5361 29.1732C12.2663 28.0501 13.0678 26.9213 13.9175 25.8174C14.7295 24.763 15.6134 23.697 16.5446 22.6493L16.5465 22.6474V22.647C17.3776 21.7125 18.2287 20.8081 19.0769 19.9599C19.8461 19.1907 20.6634 18.423 21.5011 17.67C22.2222 18.0224 22.9675 18.4306 23.7291 18.8921C22.7113 19.7536 21.7106 20.6704 20.7491 21.6316C19.6399 22.7403 18.5502 23.9162 17.5096 25.1269C16.5856 26.2023 15.7092 27.2973 14.9054 28.3804C14.1148 29.4458 13.3793 30.5155 12.7197 31.5604C9.01907 37.4208 7.46501 42.7237 8.22899 46.3657L8.15991 46.2963ZM10.586 48.7223C7.77267 45.9086 8.93572 39.5508 13.6217 32.1296C14.267 31.1075 14.9871 30.0597 15.7616 29.0158C16.5507 27.9527 17.4108 26.8783 18.3182 25.822C19.3417 24.6318 20.4134 23.4759 21.503 22.3856C22.5251 21.3636 23.5915 20.3929 24.6764 19.4885C25.4851 20.0162 26.3109 20.6034 27.1429 21.2439C25.9084 22.2527 24.7106 23.3299 23.579 24.4616C22.2869 25.7543 21.0691 27.1197 19.9323 28.5509C19.0602 29.6434 18.2463 30.7808 17.4928 31.9581L17.4923 31.9585C16.815 33.0144 16.2049 34.1122 15.6649 35.2448L15.6644 35.2467C14.3537 38.03 13.8465 40.4557 14.198 42.2626L14.1995 42.2683L14.2014 42.275V42.2745C14.3399 43.0837 14.7195 43.8323 15.2906 44.422C16.1974 45.2645 17.4085 45.7026 18.6445 45.6345C20.2772 45.6345 22.2775 45.0854 24.5479 44.0048C25.3618 44.6239 26.1906 45.2121 27.0236 45.7736C19.759 50.3196 13.3545 51.4908 10.5856 48.7223L10.586 48.7223ZM21.3196 41.3597C22.0788 42.0269 22.8413 42.6637 23.6072 43.2685C20.1019 44.8403 17.3705 44.994 16.045 43.6676H16.0446C15.7959 43.4114 15.5997 43.109 15.4673 42.7775C15.5821 42.7832 15.6945 42.7927 15.8131 42.7927V42.7922C17.7277 42.7008 19.6028 42.2126 21.3197 41.3596L21.3196 41.3597ZM15.1982 41.6845C15.041 40.2981 15.4182 38.5049 16.305 36.4337C16.9727 37.1667 17.6476 37.884 18.323 38.5593C18.9998 39.2366 19.7171 39.911 20.4491 40.5778C18.3778 41.4651 16.5865 41.8418 15.1978 41.6846L15.1982 41.6845ZM45.4136 48.7223C42.5564 51.579 35.8349 50.2536 28.2892 45.3456C27.161 44.6112 26.0317 43.8101 24.9339 42.9643C23.8818 42.1542 22.8159 41.2702 21.7662 40.3377L21.7634 40.3353C20.8304 39.5061 19.926 38.6546 19.0758 37.8044C18.309 37.0376 17.5413 36.2209 16.7864 35.3807C17.1393 34.6596 17.547 33.9143 18.0085 33.1527C18.87 34.1705 19.7869 35.1712 20.7485 36.1327C21.8592 37.2434 23.0356 38.3336 24.2433 39.3718C25.314 40.2919 26.4085 41.1682 27.4973 41.9764C28.5589 42.7647 29.629 43.5 30.6768 44.1616C35.5671 47.2497 40.0708 48.8457 43.5436 48.8457L43.5431 48.8461C44.1956 48.8481 44.8466 48.7819 45.4859 48.649L45.4136 48.7223ZM47.8397 46.2963C45.0254 49.1101 38.6676 47.947 31.2469 43.2601C30.2215 42.6129 29.1737 41.8927 28.1331 41.1202C27.0653 40.3272 25.9913 39.467 24.9392 38.5631C23.7514 37.542 22.595 36.4704 21.5034 35.3788C20.4813 34.3567 19.5101 33.2899 18.6057 32.2055C19.1329 31.3968 19.7207 30.5709 20.3612 29.7389C21.3709 30.9739 22.4477 32.1722 23.5789 33.3033C24.8716 34.5954 26.2365 35.8132 27.6677 36.95C28.7607 37.8221 29.8985 38.6365 31.0763 39.39C32.1322 40.0672 33.2295 40.6774 34.3621 41.2169L34.3735 41.2221L34.3754 41.2231C36.1781 42.1547 38.1598 42.69 40.1864 42.7924C40.5864 42.7948 40.986 42.7586 41.3794 42.6843C42.1934 42.5466 42.9464 42.1661 43.5398 41.5917C45.2892 39.8423 45.1353 36.5604 43.1226 32.333C43.7441 31.5162 44.3318 30.688 44.8915 29.8583C49.4365 37.1218 50.6087 43.5273 47.8396 46.2962L47.8397 46.2963Z" stroke="#4388DD" stroke-width="0.8" mask="url(#path-1-outside-1_1397_951)"/>
</svg>
