<svg width="57" height="56" viewBox="0 0 57 56" fill="none" xmlns="http://www.w3.org/2000/svg">
<g id="Group">
<path id="Vector" fill-rule="evenodd" clip-rule="evenodd" d="M54.0975 39.5865H1.93099V29.9316C1.93099 29.3988 1.49824 28.9661 0.965495 28.9661C0.432751 28.9661 0 29.3988 0 29.9316V44.414C0 45.1825 0.305162 45.9192 0.847825 46.4619C1.39135 47.0054 2.12802 47.3105 2.89644 47.3105H22.9909L20.1754 54.069H18.4047C17.872 54.069 17.4392 54.5018 17.4392 55.0345C17.4392 55.5672 17.872 56 18.4047 56H37.7146C38.2474 56 38.6801 55.5672 38.6801 55.0345C38.6801 54.5018 38.2474 54.069 37.7146 54.069H35.9448L33.1286 47.3105H53.1325C54.7325 47.3105 56.029 46.014 56.029 44.4141V13.5182C56.029 11.9183 54.7325 10.6217 53.1325 10.6217H38.6225C38.0906 10.6217 37.657 11.0545 37.657 11.5872C37.657 12.12 38.0906 12.5527 38.6225 12.5527H53.1325C53.6653 12.5527 54.098 12.9855 54.098 13.5182V39.5866L54.0975 39.5865ZM33.8519 54.069H22.266L25.0822 47.3105H31.0364L33.8519 54.069ZM54.0975 41.5175H1.93099V44.414C1.93099 44.67 2.03228 44.9162 2.21374 45.0968C2.39434 45.2782 2.64046 45.3795 2.89648 45.3795H53.132C53.6648 45.3795 54.0975 44.9468 54.0975 44.414V41.5175ZM21.8136 11.4426C21.7877 11.5133 21.77 11.5857 21.7605 11.659C20.9825 14.9348 20.8162 18.3546 21.3019 21.7445L21.555 23.5082C20.3184 24.2884 17.0576 27.0862 17.3201 34.7918C17.3318 35.1297 17.5188 35.4366 17.8145 35.6017C18.1098 35.7668 18.4692 35.7651 18.7636 35.5978L23.1566 33.0962C23.701 34.2634 25.044 36.659 27.535 38.44C27.8712 38.6805 28.322 38.6805 28.6578 38.44C31.1737 36.6405 32.4823 34.2151 32.9996 33.0543L37.4659 35.5974C37.7594 35.7646 38.1193 35.7663 38.4141 35.6013C38.7094 35.4362 38.8969 35.1293 38.9085 34.7914C39.1788 26.8791 35.7332 24.1411 34.5801 23.4482L34.8245 21.7431C35.7823 15.0588 34.2038 8.25815 30.3996 2.67924C29.5009 1.36032 28.8604 0.421971 28.8604 0.421971C28.6807 0.157326 28.3815 0 28.063 0C27.7436 0 27.4449 0.157326 27.2656 0.421971C27.2656 0.421971 26.6255 1.36031 25.7256 2.67924C23.8941 5.3663 22.5783 8.33605 21.8136 11.4411L21.8136 11.4426ZM24.8876 32.2455C25.2815 33.1049 26.2712 34.9364 28.0961 36.4385C29.912 34.9389 30.868 33.1105 31.2447 32.2558L28.0336 30.1279L24.8879 32.2451L24.8876 32.2455ZM34.2654 25.6452L33.4822 31.1081C34.1649 31.4973 36.9752 33.0968 36.9752 33.0981C36.7976 28.7236 35.2545 26.5802 34.265 25.6452H34.2654ZM21.8739 25.7332C20.8834 26.7103 19.4265 28.8546 19.2546 33.0967L22.6524 31.1619L21.8744 25.7327L21.8739 25.7332ZM23.3821 13.3252C22.8868 15.991 22.823 18.7414 23.214 21.4711L24.4653 30.2032L27.4911 28.1662C27.8143 27.949 28.2376 27.9472 28.5639 28.1623L31.6603 30.2157L32.9137 21.4711C33.3038 18.7483 33.2408 16.0044 32.7486 13.3446C29.8232 14.8699 26.3031 14.8643 23.3824 13.3252L23.3821 13.3252ZM17.3469 10.6227H2.89759C2.12908 10.6227 1.39241 10.9278 0.848974 11.4714C0.30631 12.014 0.00114743 12.7507 0.00114743 13.5192V26.0706C0.00114743 26.6034 0.433899 27.0361 0.966642 27.0361C1.49939 27.0361 1.93214 26.6034 1.93214 26.0706V13.5192C1.93214 13.2632 2.03343 13.0171 2.21489 12.8365C2.39549 12.655 2.64161 12.5537 2.89763 12.5537H17.347C17.8788 12.5537 18.3124 12.121 18.3124 11.5882C18.3124 11.0555 17.8788 10.6227 17.347 10.6227L17.3469 10.6227ZM28.0302 16.4156C26.0174 16.4156 24.3824 18.05 24.3824 20.0634C24.3824 22.0763 26.0168 23.7113 28.0302 23.7113C30.0431 23.7113 31.6781 22.0769 31.6781 20.0634C31.6781 18.0506 30.0437 16.4156 28.0302 16.4156ZM28.0302 18.3466C28.9772 18.3466 29.7471 19.116 29.7471 20.0634C29.7471 21.0104 28.9777 21.7803 28.0302 21.7803C27.0833 21.7803 26.3134 21.0109 26.3134 20.0634C26.3134 19.1165 27.0828 18.3466 28.0302 18.3466ZM32.3035 11.3804C31.5785 8.68859 30.4035 6.11287 28.8053 3.76854L28.0639 2.68149L27.3226 3.76854C25.7287 6.10603 24.5554 8.67403 23.8304 11.3593C26.4201 12.9455 29.7075 12.9524 32.3035 11.3804L32.3035 11.3804Z" fill="#E968DD"/>
</g>
</svg>
