<svg width="56" height="57" viewBox="0 0 56 57" fill="none" xmlns="http://www.w3.org/2000/svg">
<path d="M12.32 43.4424C13.3771 43.5035 14.4102 43.1102 15.159 42.3613C15.9075 41.6124 16.301 40.5796 16.2398 39.5222C16.3009 38.465 15.9076 37.432 15.159 36.6831C14.4102 35.9346 13.3771 35.5412 12.32 35.6023C11.2624 35.5412 10.2298 35.9346 9.48087 36.6831C8.732 37.432 8.33867 38.465 8.39973 39.5222C8.33861 40.5797 8.73197 41.6124 9.48087 42.3613C10.2298 43.1102 11.2625 43.5035 12.32 43.4424ZM12.32 37.8426V37.8422C12.92 37.8422 13.4745 38.1625 13.7745 38.6822C14.0749 39.202 14.0749 39.8425 13.7745 40.3622C13.4745 40.8819 12.9199 41.2022 12.32 41.2022C11.7196 41.2022 11.165 40.8819 10.865 40.3622C10.565 39.8424 10.565 39.2019 10.865 38.6822C11.165 38.1625 11.7196 37.8422 12.32 37.8422V37.8426ZM19.0399 50.1622V51.2823L16.7997 51.2819V50.1622C16.7997 47.3857 14.3637 46.8022 12.3196 46.8022C10.2755 46.8022 7.83948 47.3857 7.83948 50.1622V51.2823L5.60001 51.2819V50.1622C5.60001 46.7081 8.17586 44.5624 12.32 44.5624C16.4637 44.562 19.0399 46.7081 19.0399 50.1622V50.1622ZM43.6801 43.4422H43.6797C44.7372 43.5034 45.7699 43.11 46.5188 42.3611C47.2677 41.6122 47.661 40.5794 47.5999 39.522C47.661 38.4649 47.2677 37.4318 46.5188 36.6829C45.7699 35.9344 44.7371 35.541 43.6797 35.6022C42.6225 35.541 41.5895 35.9344 40.8406 36.6829C40.0921 37.4318 39.6987 38.4649 39.7598 39.522C39.6987 40.5795 40.0921 41.6122 40.8406 42.3611C41.5895 43.11 42.6225 43.5033 43.6797 43.4422H43.6801ZM43.6801 37.8424L43.6797 37.842C44.1256 37.842 44.5527 38.019 44.8677 38.334C45.1827 38.6494 45.3597 39.0765 45.3597 39.522C45.3597 39.9679 45.1827 40.395 44.8677 40.71C44.5527 41.025 44.1256 41.202 43.6797 41.202C43.2342 41.202 42.8071 41.025 42.4917 40.71C42.1767 40.395 41.9997 39.9679 41.9997 39.522C41.9423 39.0615 42.1009 38.5999 42.4291 38.2714C42.7576 37.9433 43.2192 37.7847 43.6797 37.842L43.6801 37.8424ZM50.4 50.162V51.2821L48.1598 51.2817V50.162C48.1598 47.3855 45.7238 46.802 43.6797 46.802C41.6356 46.802 39.1996 47.3855 39.1996 50.162V51.2821L36.9597 51.2817V50.162C36.9597 46.7079 39.5356 44.5622 43.6797 44.5622C47.8238 44.5618 50.3996 46.7079 50.3996 50.162L50.4 50.162ZM27.9995 6.4823C20.63 6.4823 15.6799 11.4326 15.6799 18.8019C15.6799 26.1712 20.6302 31.1215 27.9995 31.1215C35.3688 31.1215 40.3191 26.1712 40.3191 18.8019C40.3191 11.4326 35.3688 6.4823 27.9995 6.4823ZM24.6272 9.18266C23.3773 10.6909 22.4518 12.4403 21.9081 14.322H18.772C19.8182 11.7915 21.9823 9.8921 24.6272 9.18266ZM17.9196 18.8018C17.9181 18.0511 17.9826 17.3014 18.1123 16.5619H21.442C21.2256 18.0473 21.2256 19.5563 21.442 21.0417H18.1123C17.9826 20.3022 17.9181 19.5525 17.9196 18.8018ZM18.7742 23.2819H21.9103H21.9099C22.4541 25.1637 23.3796 26.913 24.6294 28.4212C21.9845 27.7117 19.8204 25.8123 18.7742 23.2819H18.7742ZM26.8794 27.5846C25.717 26.349 24.8259 24.8831 24.2642 23.2819H26.8794V27.5846ZM26.8794 21.0417H23.7021C23.5817 20.301 23.5206 19.5521 23.5194 18.8018C23.5206 18.0514 23.5806 17.3026 23.6987 16.5619H26.8794L26.8794 21.0417ZM26.8794 14.3217H24.2544C24.8132 12.7118 25.708 11.2389 26.8794 10.001V14.3217ZM37.2253 14.3217H34.0892H34.0895C33.5454 12.4399 32.6199 10.6906 31.3701 9.18238C34.015 9.89187 36.1791 11.7913 37.2253 14.3217H37.2253ZM29.1201 10.019C30.2825 11.2546 31.1736 12.7205 31.7353 14.3217H29.1201V10.019ZM29.1201 16.5619H32.2974C32.4178 17.3026 32.4789 18.0515 32.4801 18.8018C32.4789 19.5522 32.4189 20.301 32.3008 21.0417H29.1201L29.1201 16.5619ZM29.1201 23.2819H31.7454H31.7451C31.186 24.8918 30.2912 26.3647 29.1201 27.6026L29.1201 23.2819ZM31.3723 28.4216V28.4212C32.6222 26.913 33.5476 25.1636 34.0914 23.2819H37.2275C36.1813 25.8123 34.0172 27.7118 31.3723 28.4212V28.4216ZM34.5576 21.0417C34.7739 19.5563 34.7739 18.0473 34.5576 16.5619H37.8872C38.1441 18.044 38.1441 19.5597 37.8872 21.0417H34.5576ZM31.9198 39.5215C31.9813 38.4644 31.5879 37.4313 30.839 36.6824C30.0902 35.9339 29.0571 35.5405 27.9999 35.6017C26.9428 35.5405 25.9097 35.9339 25.1609 36.6824C24.412 37.4313 24.0187 38.4644 24.0801 39.5215C24.0186 40.579 24.412 41.6117 25.1609 42.3606C25.9097 43.1095 26.9428 43.5028 27.9999 43.4417C29.0571 43.5029 30.0901 43.1095 30.839 42.3606C31.5879 41.6117 31.9812 40.579 31.9198 39.5215ZM26.32 39.5215C26.2626 39.061 26.4208 38.5994 26.7493 38.2709C27.0775 37.9428 27.5391 37.7842 27.9999 37.8416C28.6003 37.8416 29.1549 38.1618 29.4549 38.6816C29.7549 39.2013 29.7549 39.8418 29.4549 40.3615C29.1549 40.8813 28.6003 41.2015 27.9999 41.2015C27.539 41.2593 27.0774 41.1007 26.7493 40.7722C26.4208 40.444 26.2626 39.9824 26.32 39.5216V39.5215ZM34.7199 50.1621V51.2822L32.48 51.2818V50.1621C32.48 47.3856 30.0441 46.8021 27.9999 46.8021C25.9558 46.8021 23.5198 47.3856 23.5198 50.1621V51.2822L21.28 51.2818V50.1621C21.28 46.708 23.8558 44.5623 27.9999 44.5623C32.144 44.5619 34.7199 46.708 34.7199 50.1621V50.1621Z" fill="#4388DD"/>
</svg>
