<svg width="56" height="56" viewBox="0 0 56 56" fill="none" xmlns="http://www.w3.org/2000/svg">
<g id="Website icon">
<path id="Vector" d="M48.3148 7.40224C48.1609 7.05822 47.8855 6.78321 47.5419 6.62932C42.4512 4.31053 32.8342 6.09758 28.837 10.1061C27.0579 11.8838 24.0107 15.5304 21.4417 18.6901H21.4414C19.0526 17.6597 16.406 17.3813 13.8546 17.8927C11.3036 18.4037 8.96863 19.68 7.16086 21.5517C6.84376 21.8764 6.68538 22.3239 6.72782 22.7755C6.76992 23.2276 7.0087 23.6378 7.38067 23.898C7.75264 24.1582 8.21985 24.242 8.65878 24.1268C11.6573 23.4356 14.8035 24.2765 17.0575 26.3714L21.7229 31.0382L19.1967 33.5751C18.8986 33.8633 18.7285 34.259 18.7251 34.6735C18.7216 35.0882 18.8845 35.4871 19.1778 35.7801C19.4711 36.0734 19.8696 36.2366 20.2843 36.2328C20.6988 36.2293 21.0945 36.0592 21.3827 35.7611L23.9102 33.2305L28.5726 37.9035C30.6688 40.153 31.5111 43.2968 30.8203 46.2929C30.703 46.7322 30.7851 47.2008 31.0449 47.5738C31.3044 47.9472 31.715 48.1873 32.1677 48.2301C32.6201 48.2732 33.0687 48.1149 33.3941 47.7971C35.2654 45.9893 36.5413 43.6543 37.0527 41.1033C37.5638 38.552 37.2856 35.9057 36.2553 33.5165C39.4136 30.9472 43.0571 27.9004 44.8393 26.1212C48.8447 22.111 50.6318 12.4912 48.3147 7.40225L48.3148 7.40224ZM19.372 21.2593C18.814 21.9549 18.321 22.5747 17.9282 23.0694H17.9279C16.6322 22.1164 15.1491 21.4494 13.5763 21.1123C15.4807 20.5916 17.4962 20.6427 19.3719 21.2593L19.372 21.2593ZM33.8394 41.3757C33.5023 39.8029 32.8346 38.3195 31.8809 37.0242C32.3757 36.6315 32.9954 36.1385 33.6928 35.5805H33.6924C34.3108 37.4555 34.3618 39.4717 33.8394 41.3757L33.8394 41.3757ZM29.7847 34.7393L26.0915 31.0447L29.197 27.9375H29.1973C29.4955 27.6497 29.6656 27.2539 29.669 26.8391C29.6728 26.4244 29.5096 26.0258 29.2163 25.7326C28.923 25.4393 28.5245 25.2764 28.1097 25.2798C27.6953 25.2836 27.2995 25.4534 27.0114 25.7519L23.9104 28.8591L20.2172 25.1646C22.4245 22.3821 28.3592 14.962 31.0241 12.2987C33.9612 9.36158 41.6384 7.81572 45.7238 9.23181C47.1399 13.3128 45.6003 20.9883 42.6569 23.9298C39.9872 26.5943 32.5674 32.529 29.7848 34.7393L29.7847 34.7393ZM33.0047 14.9382C32.0755 15.8674 31.5537 17.1275 31.5537 18.4415C31.5541 19.7555 32.0758 21.0157 33.0051 21.9445C33.9344 22.8738 35.1945 23.3955 36.5084 23.3955C37.8224 23.3955 39.0826 22.8738 40.0114 21.9445C40.9407 21.0156 41.4628 19.7555 41.4628 18.4415C41.4628 17.1275 40.9411 15.8674 40.0121 14.9382C39.0822 14.0099 37.8221 13.4886 36.5084 13.4886C35.1945 13.4886 33.9343 14.01 33.0047 14.9382ZM37.8231 19.7596C37.4743 20.1109 36.9998 20.309 36.5046 20.31C36.0095 20.311 35.5344 20.1151 35.1838 19.7655C34.8332 19.4156 34.6362 18.9408 34.6362 18.4457C34.6362 17.9505 34.8332 17.4758 35.1838 17.1262C35.5344 16.7763 36.0095 16.5803 36.5046 16.5813C36.9998 16.5823 37.4743 16.7804 37.8231 17.1317C38.1706 17.4809 38.3656 17.9533 38.3656 18.4457C38.3656 18.938 38.1706 19.4108 37.8231 19.7596V19.7596ZM16.6679 40.9732L8.21981 49.4213C7.82714 49.8008 7.26368 49.9447 6.73711 49.8005C6.21056 49.6559 5.79927 49.2446 5.65502 48.7184C5.51078 48.1918 5.65467 47.6283 6.03389 47.2357L14.4805 38.7876C14.8732 38.4084 15.4367 38.2642 15.9632 38.4084C16.4898 38.553 16.9011 38.9643 17.0453 39.4905C17.1896 40.0171 17.0457 40.5806 16.6665 40.9732H16.6679ZM6.31064 39.5819C6.00215 39.3121 5.81375 38.9305 5.78649 38.5216C5.75923 38.1123 5.89553 37.7093 6.16537 37.4008L12.8587 29.7395C13.2224 29.3237 13.7804 29.1336 14.3225 29.2406C14.8645 29.3475 15.3083 29.7354 15.4863 30.2584C15.6647 30.7812 15.5505 31.3595 15.1868 31.7753L8.49346 39.4366C8.22328 39.7458 7.84165 39.9345 7.43203 39.9618C7.0228 39.989 6.61943 39.8524 6.31063 39.5819L6.31064 39.5819ZM25.7884 39.9546C26.0507 40.2696 26.1769 40.6761 26.1393 41.0843C26.1021 41.4922 25.904 41.869 25.589 42.1312L16.0586 50.0631C15.6328 50.4023 15.0599 50.4927 14.5503 50.3008C14.0407 50.1086 13.6697 49.6628 13.5734 49.1269C13.4775 48.5911 13.6704 48.0441 14.0814 47.687L23.6135 39.7583C23.9276 39.4953 24.3333 39.3677 24.7416 39.4035C25.1494 39.4398 25.5269 39.6361 25.7902 39.9501L25.7884 39.9546Z" fill="#E968DD"/>
</g>
</svg>
