<svg width="57" height="57" viewBox="0 0 57 57" fill="none" xmlns="http://www.w3.org/2000/svg">
<path fill-rule="evenodd" clip-rule="evenodd" d="M54.0975 40.4689H1.93099V30.8139C1.93099 30.2812 1.49824 29.8484 0.965495 29.8484C0.432751 29.8484 0 30.2812 0 30.8139V45.2963C0 46.0648 0.305162 46.8015 0.847825 47.3442C1.39135 47.8877 2.12802 48.1929 2.89644 48.1929H22.9909L20.1754 54.9513H18.4047C17.872 54.9513 17.4392 55.3841 17.4392 55.9168C17.4392 56.4496 17.872 56.8823 18.4047 56.8823H37.7146C38.2474 56.8823 38.6801 56.4496 38.6801 55.9168C38.6801 55.3841 38.2474 54.9513 37.7146 54.9513H35.9448L33.1286 48.1929H53.1325C54.7325 48.1929 56.029 46.8963 56.029 45.2964V14.4005C56.029 12.8006 54.7325 11.5041 53.1325 11.5041H38.6225C38.0906 11.5041 37.657 11.9368 37.657 12.4696C37.657 13.0023 38.0906 13.435 38.6225 13.435H53.1325C53.6653 13.435 54.098 13.8678 54.098 14.4005V40.4689L54.0975 40.4689ZM33.8519 54.9513H22.266L25.0822 48.1928H31.0364L33.8519 54.9513ZM54.0975 42.3999H1.93099V45.2963C1.93099 45.5524 2.03228 45.7985 2.21374 45.9791C2.39434 46.1605 2.64046 46.2618 2.89648 46.2618H53.132C53.6648 46.2618 54.0975 45.8291 54.0975 45.2963V42.3999ZM21.8136 12.325C21.7877 12.3956 21.77 12.4681 21.7605 12.5413C20.9825 15.8172 20.8162 19.2369 21.3019 22.6268L21.555 24.3905C20.3184 25.1707 17.0576 27.9685 17.3201 35.6741C17.3318 36.0121 17.5188 36.319 17.8145 36.484C18.1098 36.6491 18.4692 36.6474 18.7636 36.4802L23.1566 33.9785C23.701 35.1457 25.044 37.5413 27.535 39.3224C27.8712 39.5629 28.322 39.5629 28.6578 39.3224C31.1737 37.5228 32.4823 35.0975 32.9996 33.9367L37.4659 36.4797C37.7594 36.647 38.1193 36.6487 38.4141 36.4836C38.7094 36.3185 38.8969 36.0116 38.9085 35.6737C39.1788 27.7614 35.7332 25.0235 34.5801 24.3305L34.8245 22.6254C35.7823 15.9411 34.2038 9.14047 30.3996 3.56157C29.5009 2.24265 28.8604 1.3043 28.8604 1.3043C28.6807 1.03965 28.3815 0.882324 28.063 0.882324C27.7436 0.882324 27.4449 1.03965 27.2656 1.3043C27.2656 1.3043 26.6255 2.24263 25.7256 3.56157C23.8941 6.24862 22.5783 9.21838 21.8136 12.3234L21.8136 12.325ZM24.8876 33.1278C25.2815 33.9873 26.2712 35.8187 28.0961 37.3208C29.912 35.8212 30.868 33.9929 31.2447 33.1382L28.0336 31.0102L24.8879 33.1275L24.8876 33.1278ZM34.2654 26.5276L33.4822 31.9904C34.1649 32.3796 36.9752 33.9791 36.9752 33.9804C36.7976 29.6059 35.2545 27.4625 34.2649 26.5276H34.2654ZM21.8739 26.6155C20.8834 27.5926 19.4265 29.737 19.2546 33.9791L22.6524 32.0442L21.8744 26.615L21.8739 26.6155ZM23.3821 14.2075C22.8868 16.8734 22.823 19.6238 23.214 22.3534L24.4653 31.0856L27.4911 29.0485C27.8143 28.8313 28.2376 28.8296 28.5639 29.0447L31.6603 31.098L32.9137 22.3534C33.3038 19.6306 33.2408 16.8867 32.7486 14.2269C29.8232 15.7523 26.3031 15.7466 23.3824 14.2075L23.3821 14.2075ZM17.3469 11.505H2.89759C2.12908 11.505 1.39241 11.8102 0.848974 12.3537C0.30631 12.8963 0.00114743 13.633 0.00114743 14.4015V26.953C0.00114743 27.4857 0.433899 27.9185 0.966642 27.9185C1.49939 27.9185 1.93214 27.4857 1.93214 26.953V14.4015C1.93214 14.1455 2.03343 13.8994 2.21489 13.7188C2.39549 13.5373 2.64161 13.436 2.89763 13.436H17.347C17.8788 13.436 18.3124 13.0033 18.3124 12.4705C18.3124 11.9378 17.8788 11.505 17.347 11.505L17.3469 11.505ZM28.0302 17.298C26.0174 17.298 24.3824 18.9324 24.3824 20.9458C24.3824 22.9586 26.0168 24.5936 28.0302 24.5936C30.0431 24.5936 31.6781 22.9592 31.6781 20.9458C31.6781 18.9329 30.0437 17.298 28.0302 17.298ZM28.0302 19.229C28.9772 19.229 29.7471 19.9983 29.7471 20.9458C29.7471 21.8927 28.9777 22.6626 28.0302 22.6626C27.0833 22.6626 26.3134 21.8932 26.3134 20.9458C26.3134 19.9988 27.0828 19.229 28.0302 19.229ZM32.3035 12.2627C31.5785 9.57091 30.4035 6.99519 28.8053 4.65086L28.0639 3.56382L27.3226 4.65086C25.7287 6.98835 24.5554 9.55635 23.8304 12.2416C26.4201 13.8278 29.7075 13.8348 32.3035 12.2628L32.3035 12.2627Z" fill="#4388DD"/>
</svg>
