<svg width="46" height="46" viewBox="0 0 46 46" fill="none" xmlns="http://www.w3.org/2000/svg">
<g id="Group">
<g id="Vector">
<mask id="path-1-outside-1_2858_112" maskUnits="userSpaceOnUse" x="-0.399994" y="-0.400024" width="47" height="47" fill="black">
<rect fill="white" x="-0.399994" y="-0.400024" width="47" height="47"/>
<path d="M43.5928 4.83051L41.1668 2.40445C37.9286 -0.83277 30.9836 0.345998 22.9987 5.45976C15.0141 0.346119 8.06778 -0.833624 4.83067 2.40494L2.40461 4.831C-0.833112 8.06822 0.34566 15.0127 5.45993 22.999C0.346269 30.9846 -0.832989 37.9287 2.4051 41.167L4.83116 43.5931C6.04421 44.8061 7.77638 45.4 9.88909 45.4C13.4169 45.4 18.0052 43.7392 22.9985 40.541C27.9931 43.7401 32.5806 45.4 36.1078 45.4C38.2201 45.4 39.9532 44.8061 41.1658 43.5931L43.5918 41.167C46.83 37.9288 45.6513 30.9843 40.537 22.999C45.6512 15.0129 46.8299 8.0681 43.5918 4.831L43.5928 4.83051ZM42.8384 5.58492C45.6946 8.44113 44.3697 15.1622 39.4622 22.708C38.7311 23.8315 37.9301 24.9603 37.0809 26.0634C36.2693 27.1174 35.3854 28.1833 34.4538 29.232L34.4514 29.2344C33.6198 30.1697 32.7687 31.0737 31.9209 31.9214C31.1522 32.6901 30.3354 33.4579 29.4967 34.2113C28.7747 33.8579 28.0298 33.4502 27.2688 32.9893C28.2866 32.1277 29.2872 31.2109 30.2487 30.2497C31.3556 29.1448 32.4453 27.9689 33.4888 26.7549C34.4113 25.6819 35.2881 24.5874 36.0935 23.5015C36.8831 22.4379 37.618 21.3678 38.2791 20.3214C41.9798 14.461 43.5338 9.15811 42.7698 5.5161L42.8384 5.58492ZM34.6942 30.5502C35.581 32.6215 35.9582 34.4146 35.801 35.801C34.4132 35.9582 32.6215 35.5815 30.5502 34.6942C31.2818 34.0274 31.999 33.353 32.6763 32.6757C33.3517 32.0004 34.0265 31.2831 34.6943 30.5501L34.6942 30.5502ZM35.4748 29.681C36.142 28.9214 36.7793 28.1584 37.3851 27.3917C38.9573 30.8965 39.1111 33.6283 37.7847 34.9543C37.5285 35.2024 37.226 35.3986 36.8945 35.531C36.9746 33.918 36.4897 31.921 35.4744 29.6811L35.4748 29.681ZM40.4127 3.15997C43.226 5.97326 42.063 12.331 37.3771 19.7527C36.7308 20.7767 36.0107 21.824 35.2372 22.8665C34.4465 23.932 33.5864 25.0069 32.6805 26.0604C31.6537 27.2539 30.5821 28.4102 29.4957 29.4967C28.4736 30.5188 27.4073 31.4894 26.3224 32.3939C25.5141 31.8666 24.6888 31.2794 23.8558 30.6384C25.0898 29.6297 26.2881 28.5524 27.4197 27.4207C28.7119 26.128 29.9296 24.7626 31.0665 23.3314C31.938 22.2389 32.7524 21.102 33.5055 19.9247L33.5064 19.9238C34.1837 18.8674 34.7938 17.7701 35.3338 16.6376L35.3343 16.6356C36.645 13.8528 37.1522 11.4267 36.8007 9.62022L36.7993 9.6145L36.7974 9.60784C36.6588 8.79866 36.2792 8.05001 35.7081 7.46038C33.9592 5.71149 30.6777 5.86487 26.4499 7.87712C25.6345 7.25702 24.8063 6.66882 23.9747 6.10823C31.2387 1.56227 37.6437 0.391061 40.4126 3.16009L40.4127 3.15997ZM22.9994 16.0389C24.2782 17.0719 25.5022 18.1716 26.6657 19.3333C27.8268 20.4973 28.9266 21.7208 29.9601 22.9996C28.9266 24.2783 27.8269 25.5018 26.6657 26.6658C25.5022 27.8274 24.2782 28.9272 22.9994 29.9602C21.7207 28.9272 20.4967 27.8275 19.3331 26.6658C18.172 25.5018 17.0723 24.2783 16.0387 22.9996C18.1043 20.4382 20.438 18.1045 22.9994 16.0389ZM29.6815 10.5237C28.9214 9.85553 28.1584 9.21878 27.3926 8.61342C30.897 7.04083 33.6288 6.88794 34.9548 8.21431C35.2029 8.47055 35.3991 8.7725 35.5315 9.10398C33.9188 9.02445 31.9215 9.50881 29.6816 10.5238L29.6815 10.5237ZM35.8015 10.198C35.9587 11.5844 35.5815 13.377 34.6947 15.4488C34.0274 14.7163 33.3525 13.999 32.6767 13.3227C31.999 12.6454 31.2821 11.971 30.5511 11.3047C32.6219 10.4179 34.4137 10.0412 35.8014 10.1978L35.8015 10.198ZM5.58609 3.15962C8.4428 0.302922 15.1644 1.62836 22.7092 6.53632C23.8356 7.26882 24.9644 8.07038 26.0646 8.91763C27.1181 9.72824 28.185 10.6131 29.2356 11.5466C30.1682 12.3753 31.0726 13.2263 31.9232 14.077C32.6905 14.8443 33.4583 15.6615 34.2126 16.5007C33.8602 17.2218 33.452 17.9671 32.9906 18.7287C32.129 17.7109 31.2122 16.7102 30.2505 15.7487C29.1437 14.6409 27.9673 13.5513 26.7557 12.5097C25.685 11.5895 24.5905 10.7132 23.5018 9.90498C22.4406 9.11724 21.3705 8.3819 20.3222 7.71936C14.4613 4.01833 9.15886 2.46416 5.51684 3.22814L5.58609 3.15962ZM3.16003 5.58568C5.93138 2.81433 12.4444 4.00736 19.7528 8.62136C20.7792 9.27003 21.8265 9.98972 22.8666 10.7617C23.9344 11.5547 25.0089 12.4149 26.0605 13.3189C27.2516 14.3428 28.4085 15.4145 29.4963 16.5032C30.5184 17.5252 31.4895 18.5921 32.3935 19.6765C31.8663 20.4852 31.2786 21.311 30.638 22.1431C29.6283 20.9081 28.5515 19.7098 27.4203 18.5787H27.4213C26.1286 17.2865 24.7637 16.0688 23.3325 14.9319C22.2395 14.0599 21.1016 13.2455 19.9238 12.492C18.8689 11.8152 17.7721 11.2056 16.6409 10.6659L16.638 10.665C13.8537 9.3533 11.4272 8.84609 9.62064 9.1976L9.61635 9.19855L9.60587 9.20141C8.79764 9.34047 8.04987 9.71959 7.46024 10.2902C5.71086 12.0395 5.86521 15.322 7.87745 19.5484C7.25592 20.3657 6.66772 21.1934 6.10856 22.0236C1.56357 14.7596 0.391379 8.3546 3.16042 5.58569L3.16003 5.58568ZM8.61374 18.6072C7.04151 15.1029 6.88825 12.3705 8.21415 11.0446C8.47039 10.7965 8.77281 10.6003 9.1043 10.4678C9.02476 12.0814 9.50913 14.0784 10.5241 16.3183C9.85733 17.077 9.22013 17.8404 8.6138 18.6072L8.61374 18.6072ZM11.3046 15.4487C10.4178 13.3774 10.0406 11.5842 10.1978 10.1978C11.5866 10.0411 13.3778 10.4179 15.4486 11.3042C14.717 11.9705 14.0002 12.6449 13.3225 13.3222C12.6466 13.999 11.9723 14.7163 11.3045 15.4487L11.3046 15.4487ZM3.15991 40.414C0.303693 37.5573 1.62865 30.8362 6.53613 23.2908C7.26626 22.1678 8.06776 21.039 8.91745 19.9351C9.7295 18.8807 10.6134 17.8147 11.5446 16.767L11.5465 16.7651V16.7646C12.3776 15.8302 13.2287 14.9258 14.0769 14.0775C14.8461 13.3084 15.6634 12.5407 16.5011 11.7877C17.2222 12.1401 17.9675 12.5483 18.7291 13.0097C17.7113 13.8713 16.7106 14.7881 15.7491 15.7493C14.6399 16.858 13.5502 18.0339 12.5096 19.2446C11.5856 20.32 10.7092 21.415 9.90536 22.498C9.11475 23.5634 8.37935 24.6332 7.71974 25.6781C4.01907 31.5385 2.46501 36.8414 3.22899 40.4834L3.15991 40.414ZM5.58597 42.84C2.77267 40.0262 3.93572 33.6685 8.62166 26.2473C9.26701 25.2252 9.9871 24.1774 10.7616 23.1334C11.5507 22.0704 12.4108 20.996 13.3182 19.9396C14.3417 18.7494 15.4134 17.5936 16.503 16.5033C17.5251 15.4812 18.5915 14.5106 19.6764 13.6061C20.4851 14.1338 21.3109 14.7211 22.1429 15.3616C20.9084 16.3703 19.7106 17.4476 18.579 18.5793C17.2869 19.872 16.0691 21.2374 14.9323 22.6685C14.0602 23.7611 13.2463 24.8984 12.4928 26.0757L12.4923 26.0762C11.815 27.1321 11.2049 28.2299 10.6649 29.3624L10.6644 29.3644C9.35372 32.1476 8.84651 34.5733 9.19802 36.3803L9.19945 36.386L9.20135 36.3926V36.3922C9.33995 37.2013 9.71954 37.95 10.2906 38.5396C11.1974 39.3821 12.4085 39.8203 13.6445 39.7522C15.2772 39.7522 17.2775 39.2031 19.5479 38.1224C20.3618 38.7416 21.1906 39.3298 22.0236 39.8913C14.759 44.4373 8.35454 45.6085 5.58562 42.84L5.58597 42.84ZM16.3196 35.4773C17.0788 36.1446 17.8413 36.7813 18.6072 37.3862C15.1019 38.9579 12.3705 39.1117 11.045 37.7853H11.0446C10.7959 37.5291 10.5997 37.2266 10.4673 36.8952C10.5821 36.9009 10.6945 36.9104 10.8131 36.9104V36.9099C12.7277 36.8185 14.6028 36.3303 16.3197 35.4773L16.3196 35.4773ZM10.1982 35.8022C10.041 34.4158 10.4182 32.6226 11.305 30.5514C11.9727 31.2843 12.6476 32.0016 13.323 32.677C13.9998 33.3542 14.7171 34.0286 15.4491 34.6955C13.3778 35.5827 11.5865 35.9594 10.1978 35.8023L10.1982 35.8022ZM40.4136 42.84C37.5564 45.6967 30.8349 44.3713 23.2892 39.4633C22.161 38.7289 21.0317 37.9278 19.9339 37.082C18.8818 36.2719 17.8159 35.3879 16.7662 34.4554L16.7634 34.453C15.8304 33.6238 14.926 32.7723 14.0758 31.9221C13.309 31.1553 12.5413 30.3385 11.7864 29.4984C12.1393 28.7773 12.547 28.032 13.0085 27.2704C13.87 28.2882 14.7869 29.2889 15.7485 30.2504C16.8592 31.361 18.0356 32.4512 19.2433 33.4894C20.314 34.4096 21.4085 35.2859 22.4973 36.0941C23.5589 36.8823 24.629 37.6177 25.6768 38.2792C30.5671 41.3674 35.0708 42.9633 38.5436 42.9633L38.5431 42.9638C39.1956 42.9657 39.8466 42.8995 40.4859 42.7666L40.4136 42.84ZM42.8397 40.414C40.0254 43.2277 33.6676 42.0647 26.2469 37.3778C25.2215 36.7305 24.1737 36.0104 23.1331 35.2379C22.0653 34.4449 20.9913 33.5847 19.9392 32.6808C18.7514 31.6597 17.595 30.5881 16.5034 29.4965C15.4813 28.4744 14.5101 27.4075 13.6057 26.3231C14.1329 25.5144 14.7207 24.6886 15.3612 23.8566C16.3709 25.0916 17.4477 26.2898 18.5789 27.4209C19.8716 28.7131 21.2365 29.9309 22.6677 31.0677C23.7607 31.9397 24.8985 32.7542 26.0763 33.5077C27.1322 34.1849 28.2295 34.7951 29.3621 35.3346L29.3735 35.3398L29.3754 35.3408C31.1781 36.2724 33.1598 36.8077 35.1864 36.9101C35.5864 36.9124 35.986 36.8763 36.3794 36.802C37.1934 36.6643 37.9464 36.2838 38.5398 35.7094C40.2892 33.96 40.1353 30.6781 38.1226 26.4507C38.7441 25.6339 39.3318 24.8057 39.8915 23.976C44.4365 31.2395 45.6087 37.645 42.8396 40.4139L42.8397 40.414Z"/>
</mask>
<path d="M43.5928 4.83051L41.1668 2.40445C37.9286 -0.83277 30.9836 0.345998 22.9987 5.45976C15.0141 0.346119 8.06778 -0.833624 4.83067 2.40494L2.40461 4.831C-0.833112 8.06822 0.34566 15.0127 5.45993 22.999C0.346269 30.9846 -0.832989 37.9287 2.4051 41.167L4.83116 43.5931C6.04421 44.8061 7.77638 45.4 9.88909 45.4C13.4169 45.4 18.0052 43.7392 22.9985 40.541C27.9931 43.7401 32.5806 45.4 36.1078 45.4C38.2201 45.4 39.9532 44.8061 41.1658 43.5931L43.5918 41.167C46.83 37.9288 45.6513 30.9843 40.537 22.999C45.6512 15.0129 46.8299 8.0681 43.5918 4.831L43.5928 4.83051ZM42.8384 5.58492C45.6946 8.44113 44.3697 15.1622 39.4622 22.708C38.7311 23.8315 37.9301 24.9603 37.0809 26.0634C36.2693 27.1174 35.3854 28.1833 34.4538 29.232L34.4514 29.2344C33.6198 30.1697 32.7687 31.0737 31.9209 31.9214C31.1522 32.6901 30.3354 33.4579 29.4967 34.2113C28.7747 33.8579 28.0298 33.4502 27.2688 32.9893C28.2866 32.1277 29.2872 31.2109 30.2487 30.2497C31.3556 29.1448 32.4453 27.9689 33.4888 26.7549C34.4113 25.6819 35.2881 24.5874 36.0935 23.5015C36.8831 22.4379 37.618 21.3678 38.2791 20.3214C41.9798 14.461 43.5338 9.15811 42.7698 5.5161L42.8384 5.58492ZM34.6942 30.5502C35.581 32.6215 35.9582 34.4146 35.801 35.801C34.4132 35.9582 32.6215 35.5815 30.5502 34.6942C31.2818 34.0274 31.999 33.353 32.6763 32.6757C33.3517 32.0004 34.0265 31.2831 34.6943 30.5501L34.6942 30.5502ZM35.4748 29.681C36.142 28.9214 36.7793 28.1584 37.3851 27.3917C38.9573 30.8965 39.1111 33.6283 37.7847 34.9543C37.5285 35.2024 37.226 35.3986 36.8945 35.531C36.9746 33.918 36.4897 31.921 35.4744 29.6811L35.4748 29.681ZM40.4127 3.15997C43.226 5.97326 42.063 12.331 37.3771 19.7527C36.7308 20.7767 36.0107 21.824 35.2372 22.8665C34.4465 23.932 33.5864 25.0069 32.6805 26.0604C31.6537 27.2539 30.5821 28.4102 29.4957 29.4967C28.4736 30.5188 27.4073 31.4894 26.3224 32.3939C25.5141 31.8666 24.6888 31.2794 23.8558 30.6384C25.0898 29.6297 26.2881 28.5524 27.4197 27.4207C28.7119 26.128 29.9296 24.7626 31.0665 23.3314C31.938 22.2389 32.7524 21.102 33.5055 19.9247L33.5064 19.9238C34.1837 18.8674 34.7938 17.7701 35.3338 16.6376L35.3343 16.6356C36.645 13.8528 37.1522 11.4267 36.8007 9.62022L36.7993 9.6145L36.7974 9.60784C36.6588 8.79866 36.2792 8.05001 35.7081 7.46038C33.9592 5.71149 30.6777 5.86487 26.4499 7.87712C25.6345 7.25702 24.8063 6.66882 23.9747 6.10823C31.2387 1.56227 37.6437 0.391061 40.4126 3.16009L40.4127 3.15997ZM22.9994 16.0389C24.2782 17.0719 25.5022 18.1716 26.6657 19.3333C27.8268 20.4973 28.9266 21.7208 29.9601 22.9996C28.9266 24.2783 27.8269 25.5018 26.6657 26.6658C25.5022 27.8274 24.2782 28.9272 22.9994 29.9602C21.7207 28.9272 20.4967 27.8275 19.3331 26.6658C18.172 25.5018 17.0723 24.2783 16.0387 22.9996C18.1043 20.4382 20.438 18.1045 22.9994 16.0389ZM29.6815 10.5237C28.9214 9.85553 28.1584 9.21878 27.3926 8.61342C30.897 7.04083 33.6288 6.88794 34.9548 8.21431C35.2029 8.47055 35.3991 8.7725 35.5315 9.10398C33.9188 9.02445 31.9215 9.50881 29.6816 10.5238L29.6815 10.5237ZM35.8015 10.198C35.9587 11.5844 35.5815 13.377 34.6947 15.4488C34.0274 14.7163 33.3525 13.999 32.6767 13.3227C31.999 12.6454 31.2821 11.971 30.5511 11.3047C32.6219 10.4179 34.4137 10.0412 35.8014 10.1978L35.8015 10.198ZM5.58609 3.15962C8.4428 0.302922 15.1644 1.62836 22.7092 6.53632C23.8356 7.26882 24.9644 8.07038 26.0646 8.91763C27.1181 9.72824 28.185 10.6131 29.2356 11.5466C30.1682 12.3753 31.0726 13.2263 31.9232 14.077C32.6905 14.8443 33.4583 15.6615 34.2126 16.5007C33.8602 17.2218 33.452 17.9671 32.9906 18.7287C32.129 17.7109 31.2122 16.7102 30.2505 15.7487C29.1437 14.6409 27.9673 13.5513 26.7557 12.5097C25.685 11.5895 24.5905 10.7132 23.5018 9.90498C22.4406 9.11724 21.3705 8.3819 20.3222 7.71936C14.4613 4.01833 9.15886 2.46416 5.51684 3.22814L5.58609 3.15962ZM3.16003 5.58568C5.93138 2.81433 12.4444 4.00736 19.7528 8.62136C20.7792 9.27003 21.8265 9.98972 22.8666 10.7617C23.9344 11.5547 25.0089 12.4149 26.0605 13.3189C27.2516 14.3428 28.4085 15.4145 29.4963 16.5032C30.5184 17.5252 31.4895 18.5921 32.3935 19.6765C31.8663 20.4852 31.2786 21.311 30.638 22.1431C29.6283 20.9081 28.5515 19.7098 27.4203 18.5787H27.4213C26.1286 17.2865 24.7637 16.0688 23.3325 14.9319C22.2395 14.0599 21.1016 13.2455 19.9238 12.492C18.8689 11.8152 17.7721 11.2056 16.6409 10.6659L16.638 10.665C13.8537 9.3533 11.4272 8.84609 9.62064 9.1976L9.61635 9.19855L9.60587 9.20141C8.79764 9.34047 8.04987 9.71959 7.46024 10.2902C5.71086 12.0395 5.86521 15.322 7.87745 19.5484C7.25592 20.3657 6.66772 21.1934 6.10856 22.0236C1.56357 14.7596 0.391379 8.3546 3.16042 5.58569L3.16003 5.58568ZM8.61374 18.6072C7.04151 15.1029 6.88825 12.3705 8.21415 11.0446C8.47039 10.7965 8.77281 10.6003 9.1043 10.4678C9.02476 12.0814 9.50913 14.0784 10.5241 16.3183C9.85733 17.077 9.22013 17.8404 8.6138 18.6072L8.61374 18.6072ZM11.3046 15.4487C10.4178 13.3774 10.0406 11.5842 10.1978 10.1978C11.5866 10.0411 13.3778 10.4179 15.4486 11.3042C14.717 11.9705 14.0002 12.6449 13.3225 13.3222C12.6466 13.999 11.9723 14.7163 11.3045 15.4487L11.3046 15.4487ZM3.15991 40.414C0.303693 37.5573 1.62865 30.8362 6.53613 23.2908C7.26626 22.1678 8.06776 21.039 8.91745 19.9351C9.7295 18.8807 10.6134 17.8147 11.5446 16.767L11.5465 16.7651V16.7646C12.3776 15.8302 13.2287 14.9258 14.0769 14.0775C14.8461 13.3084 15.6634 12.5407 16.5011 11.7877C17.2222 12.1401 17.9675 12.5483 18.7291 13.0097C17.7113 13.8713 16.7106 14.7881 15.7491 15.7493C14.6399 16.858 13.5502 18.0339 12.5096 19.2446C11.5856 20.32 10.7092 21.415 9.90536 22.498C9.11475 23.5634 8.37935 24.6332 7.71974 25.6781C4.01907 31.5385 2.46501 36.8414 3.22899 40.4834L3.15991 40.414ZM5.58597 42.84C2.77267 40.0262 3.93572 33.6685 8.62166 26.2473C9.26701 25.2252 9.9871 24.1774 10.7616 23.1334C11.5507 22.0704 12.4108 20.996 13.3182 19.9396C14.3417 18.7494 15.4134 17.5936 16.503 16.5033C17.5251 15.4812 18.5915 14.5106 19.6764 13.6061C20.4851 14.1338 21.3109 14.7211 22.1429 15.3616C20.9084 16.3703 19.7106 17.4476 18.579 18.5793C17.2869 19.872 16.0691 21.2374 14.9323 22.6685C14.0602 23.7611 13.2463 24.8984 12.4928 26.0757L12.4923 26.0762C11.815 27.1321 11.2049 28.2299 10.6649 29.3624L10.6644 29.3644C9.35372 32.1476 8.84651 34.5733 9.19802 36.3803L9.19945 36.386L9.20135 36.3926V36.3922C9.33995 37.2013 9.71954 37.95 10.2906 38.5396C11.1974 39.3821 12.4085 39.8203 13.6445 39.7522C15.2772 39.7522 17.2775 39.2031 19.5479 38.1224C20.3618 38.7416 21.1906 39.3298 22.0236 39.8913C14.759 44.4373 8.35454 45.6085 5.58562 42.84L5.58597 42.84ZM16.3196 35.4773C17.0788 36.1446 17.8413 36.7813 18.6072 37.3862C15.1019 38.9579 12.3705 39.1117 11.045 37.7853H11.0446C10.7959 37.5291 10.5997 37.2266 10.4673 36.8952C10.5821 36.9009 10.6945 36.9104 10.8131 36.9104V36.9099C12.7277 36.8185 14.6028 36.3303 16.3197 35.4773L16.3196 35.4773ZM10.1982 35.8022C10.041 34.4158 10.4182 32.6226 11.305 30.5514C11.9727 31.2843 12.6476 32.0016 13.323 32.677C13.9998 33.3542 14.7171 34.0286 15.4491 34.6955C13.3778 35.5827 11.5865 35.9594 10.1978 35.8023L10.1982 35.8022ZM40.4136 42.84C37.5564 45.6967 30.8349 44.3713 23.2892 39.4633C22.161 38.7289 21.0317 37.9278 19.9339 37.082C18.8818 36.2719 17.8159 35.3879 16.7662 34.4554L16.7634 34.453C15.8304 33.6238 14.926 32.7723 14.0758 31.9221C13.309 31.1553 12.5413 30.3385 11.7864 29.4984C12.1393 28.7773 12.547 28.032 13.0085 27.2704C13.87 28.2882 14.7869 29.2889 15.7485 30.2504C16.8592 31.361 18.0356 32.4512 19.2433 33.4894C20.314 34.4096 21.4085 35.2859 22.4973 36.0941C23.5589 36.8823 24.629 37.6177 25.6768 38.2792C30.5671 41.3674 35.0708 42.9633 38.5436 42.9633L38.5431 42.9638C39.1956 42.9657 39.8466 42.8995 40.4859 42.7666L40.4136 42.84ZM42.8397 40.414C40.0254 43.2277 33.6676 42.0647 26.2469 37.3778C25.2215 36.7305 24.1737 36.0104 23.1331 35.2379C22.0653 34.4449 20.9913 33.5847 19.9392 32.6808C18.7514 31.6597 17.595 30.5881 16.5034 29.4965C15.4813 28.4744 14.5101 27.4075 13.6057 26.3231C14.1329 25.5144 14.7207 24.6886 15.3612 23.8566C16.3709 25.0916 17.4477 26.2898 18.5789 27.4209C19.8716 28.7131 21.2365 29.9309 22.6677 31.0677C23.7607 31.9397 24.8985 32.7542 26.0763 33.5077C27.1322 34.1849 28.2295 34.7951 29.3621 35.3346L29.3735 35.3398L29.3754 35.3408C31.1781 36.2724 33.1598 36.8077 35.1864 36.9101C35.5864 36.9124 35.986 36.8763 36.3794 36.802C37.1934 36.6643 37.9464 36.2838 38.5398 35.7094C40.2892 33.96 40.1353 30.6781 38.1226 26.4507C38.7441 25.6339 39.3318 24.8057 39.8915 23.976C44.4365 31.2395 45.6087 37.645 42.8396 40.4139L42.8397 40.414Z" fill="#E968DD"/>
<path d="M43.5928 4.83051L41.1668 2.40445C37.9286 -0.83277 30.9836 0.345998 22.9987 5.45976C15.0141 0.346119 8.06778 -0.833624 4.83067 2.40494L2.40461 4.831C-0.833112 8.06822 0.34566 15.0127 5.45993 22.999C0.346269 30.9846 -0.832989 37.9287 2.4051 41.167L4.83116 43.5931C6.04421 44.8061 7.77638 45.4 9.88909 45.4C13.4169 45.4 18.0052 43.7392 22.9985 40.541C27.9931 43.7401 32.5806 45.4 36.1078 45.4C38.2201 45.4 39.9532 44.8061 41.1658 43.5931L43.5918 41.167C46.83 37.9288 45.6513 30.9843 40.537 22.999C45.6512 15.0129 46.8299 8.0681 43.5918 4.831L43.5928 4.83051ZM42.8384 5.58492C45.6946 8.44113 44.3697 15.1622 39.4622 22.708C38.7311 23.8315 37.9301 24.9603 37.0809 26.0634C36.2693 27.1174 35.3854 28.1833 34.4538 29.232L34.4514 29.2344C33.6198 30.1697 32.7687 31.0737 31.9209 31.9214C31.1522 32.6901 30.3354 33.4579 29.4967 34.2113C28.7747 33.8579 28.0298 33.4502 27.2688 32.9893C28.2866 32.1277 29.2872 31.2109 30.2487 30.2497C31.3556 29.1448 32.4453 27.9689 33.4888 26.7549C34.4113 25.6819 35.2881 24.5874 36.0935 23.5015C36.8831 22.4379 37.618 21.3678 38.2791 20.3214C41.9798 14.461 43.5338 9.15811 42.7698 5.5161L42.8384 5.58492ZM34.6942 30.5502C35.581 32.6215 35.9582 34.4146 35.801 35.801C34.4132 35.9582 32.6215 35.5815 30.5502 34.6942C31.2818 34.0274 31.999 33.353 32.6763 32.6757C33.3517 32.0004 34.0265 31.2831 34.6943 30.5501L34.6942 30.5502ZM35.4748 29.681C36.142 28.9214 36.7793 28.1584 37.3851 27.3917C38.9573 30.8965 39.1111 33.6283 37.7847 34.9543C37.5285 35.2024 37.226 35.3986 36.8945 35.531C36.9746 33.918 36.4897 31.921 35.4744 29.6811L35.4748 29.681ZM40.4127 3.15997C43.226 5.97326 42.063 12.331 37.3771 19.7527C36.7308 20.7767 36.0107 21.824 35.2372 22.8665C34.4465 23.932 33.5864 25.0069 32.6805 26.0604C31.6537 27.2539 30.5821 28.4102 29.4957 29.4967C28.4736 30.5188 27.4073 31.4894 26.3224 32.3939C25.5141 31.8666 24.6888 31.2794 23.8558 30.6384C25.0898 29.6297 26.2881 28.5524 27.4197 27.4207C28.7119 26.128 29.9296 24.7626 31.0665 23.3314C31.938 22.2389 32.7524 21.102 33.5055 19.9247L33.5064 19.9238C34.1837 18.8674 34.7938 17.7701 35.3338 16.6376L35.3343 16.6356C36.645 13.8528 37.1522 11.4267 36.8007 9.62022L36.7993 9.6145L36.7974 9.60784C36.6588 8.79866 36.2792 8.05001 35.7081 7.46038C33.9592 5.71149 30.6777 5.86487 26.4499 7.87712C25.6345 7.25702 24.8063 6.66882 23.9747 6.10823C31.2387 1.56227 37.6437 0.391061 40.4126 3.16009L40.4127 3.15997ZM22.9994 16.0389C24.2782 17.0719 25.5022 18.1716 26.6657 19.3333C27.8268 20.4973 28.9266 21.7208 29.9601 22.9996C28.9266 24.2783 27.8269 25.5018 26.6657 26.6658C25.5022 27.8274 24.2782 28.9272 22.9994 29.9602C21.7207 28.9272 20.4967 27.8275 19.3331 26.6658C18.172 25.5018 17.0723 24.2783 16.0387 22.9996C18.1043 20.4382 20.438 18.1045 22.9994 16.0389ZM29.6815 10.5237C28.9214 9.85553 28.1584 9.21878 27.3926 8.61342C30.897 7.04083 33.6288 6.88794 34.9548 8.21431C35.2029 8.47055 35.3991 8.7725 35.5315 9.10398C33.9188 9.02445 31.9215 9.50881 29.6816 10.5238L29.6815 10.5237ZM35.8015 10.198C35.9587 11.5844 35.5815 13.377 34.6947 15.4488C34.0274 14.7163 33.3525 13.999 32.6767 13.3227C31.999 12.6454 31.2821 11.971 30.5511 11.3047C32.6219 10.4179 34.4137 10.0412 35.8014 10.1978L35.8015 10.198ZM5.58609 3.15962C8.4428 0.302922 15.1644 1.62836 22.7092 6.53632C23.8356 7.26882 24.9644 8.07038 26.0646 8.91763C27.1181 9.72824 28.185 10.6131 29.2356 11.5466C30.1682 12.3753 31.0726 13.2263 31.9232 14.077C32.6905 14.8443 33.4583 15.6615 34.2126 16.5007C33.8602 17.2218 33.452 17.9671 32.9906 18.7287C32.129 17.7109 31.2122 16.7102 30.2505 15.7487C29.1437 14.6409 27.9673 13.5513 26.7557 12.5097C25.685 11.5895 24.5905 10.7132 23.5018 9.90498C22.4406 9.11724 21.3705 8.3819 20.3222 7.71936C14.4613 4.01833 9.15886 2.46416 5.51684 3.22814L5.58609 3.15962ZM3.16003 5.58568C5.93138 2.81433 12.4444 4.00736 19.7528 8.62136C20.7792 9.27003 21.8265 9.98972 22.8666 10.7617C23.9344 11.5547 25.0089 12.4149 26.0605 13.3189C27.2516 14.3428 28.4085 15.4145 29.4963 16.5032C30.5184 17.5252 31.4895 18.5921 32.3935 19.6765C31.8663 20.4852 31.2786 21.311 30.638 22.1431C29.6283 20.9081 28.5515 19.7098 27.4203 18.5787H27.4213C26.1286 17.2865 24.7637 16.0688 23.3325 14.9319C22.2395 14.0599 21.1016 13.2455 19.9238 12.492C18.8689 11.8152 17.7721 11.2056 16.6409 10.6659L16.638 10.665C13.8537 9.3533 11.4272 8.84609 9.62064 9.1976L9.61635 9.19855L9.60587 9.20141C8.79764 9.34047 8.04987 9.71959 7.46024 10.2902C5.71086 12.0395 5.86521 15.322 7.87745 19.5484C7.25592 20.3657 6.66772 21.1934 6.10856 22.0236C1.56357 14.7596 0.391379 8.3546 3.16042 5.58569L3.16003 5.58568ZM8.61374 18.6072C7.04151 15.1029 6.88825 12.3705 8.21415 11.0446C8.47039 10.7965 8.77281 10.6003 9.1043 10.4678C9.02476 12.0814 9.50913 14.0784 10.5241 16.3183C9.85733 17.077 9.22013 17.8404 8.6138 18.6072L8.61374 18.6072ZM11.3046 15.4487C10.4178 13.3774 10.0406 11.5842 10.1978 10.1978C11.5866 10.0411 13.3778 10.4179 15.4486 11.3042C14.717 11.9705 14.0002 12.6449 13.3225 13.3222C12.6466 13.999 11.9723 14.7163 11.3045 15.4487L11.3046 15.4487ZM3.15991 40.414C0.303693 37.5573 1.62865 30.8362 6.53613 23.2908C7.26626 22.1678 8.06776 21.039 8.91745 19.9351C9.7295 18.8807 10.6134 17.8147 11.5446 16.767L11.5465 16.7651V16.7646C12.3776 15.8302 13.2287 14.9258 14.0769 14.0775C14.8461 13.3084 15.6634 12.5407 16.5011 11.7877C17.2222 12.1401 17.9675 12.5483 18.7291 13.0097C17.7113 13.8713 16.7106 14.7881 15.7491 15.7493C14.6399 16.858 13.5502 18.0339 12.5096 19.2446C11.5856 20.32 10.7092 21.415 9.90536 22.498C9.11475 23.5634 8.37935 24.6332 7.71974 25.6781C4.01907 31.5385 2.46501 36.8414 3.22899 40.4834L3.15991 40.414ZM5.58597 42.84C2.77267 40.0262 3.93572 33.6685 8.62166 26.2473C9.26701 25.2252 9.9871 24.1774 10.7616 23.1334C11.5507 22.0704 12.4108 20.996 13.3182 19.9396C14.3417 18.7494 15.4134 17.5936 16.503 16.5033C17.5251 15.4812 18.5915 14.5106 19.6764 13.6061C20.4851 14.1338 21.3109 14.7211 22.1429 15.3616C20.9084 16.3703 19.7106 17.4476 18.579 18.5793C17.2869 19.872 16.0691 21.2374 14.9323 22.6685C14.0602 23.7611 13.2463 24.8984 12.4928 26.0757L12.4923 26.0762C11.815 27.1321 11.2049 28.2299 10.6649 29.3624L10.6644 29.3644C9.35372 32.1476 8.84651 34.5733 9.19802 36.3803L9.19945 36.386L9.20135 36.3926V36.3922C9.33995 37.2013 9.71954 37.95 10.2906 38.5396C11.1974 39.3821 12.4085 39.8203 13.6445 39.7522C15.2772 39.7522 17.2775 39.2031 19.5479 38.1224C20.3618 38.7416 21.1906 39.3298 22.0236 39.8913C14.759 44.4373 8.35454 45.6085 5.58562 42.84L5.58597 42.84ZM16.3196 35.4773C17.0788 36.1446 17.8413 36.7813 18.6072 37.3862C15.1019 38.9579 12.3705 39.1117 11.045 37.7853H11.0446C10.7959 37.5291 10.5997 37.2266 10.4673 36.8952C10.5821 36.9009 10.6945 36.9104 10.8131 36.9104V36.9099C12.7277 36.8185 14.6028 36.3303 16.3197 35.4773L16.3196 35.4773ZM10.1982 35.8022C10.041 34.4158 10.4182 32.6226 11.305 30.5514C11.9727 31.2843 12.6476 32.0016 13.323 32.677C13.9998 33.3542 14.7171 34.0286 15.4491 34.6955C13.3778 35.5827 11.5865 35.9594 10.1978 35.8023L10.1982 35.8022ZM40.4136 42.84C37.5564 45.6967 30.8349 44.3713 23.2892 39.4633C22.161 38.7289 21.0317 37.9278 19.9339 37.082C18.8818 36.2719 17.8159 35.3879 16.7662 34.4554L16.7634 34.453C15.8304 33.6238 14.926 32.7723 14.0758 31.9221C13.309 31.1553 12.5413 30.3385 11.7864 29.4984C12.1393 28.7773 12.547 28.032 13.0085 27.2704C13.87 28.2882 14.7869 29.2889 15.7485 30.2504C16.8592 31.361 18.0356 32.4512 19.2433 33.4894C20.314 34.4096 21.4085 35.2859 22.4973 36.0941C23.5589 36.8823 24.629 37.6177 25.6768 38.2792C30.5671 41.3674 35.0708 42.9633 38.5436 42.9633L38.5431 42.9638C39.1956 42.9657 39.8466 42.8995 40.4859 42.7666L40.4136 42.84ZM42.8397 40.414C40.0254 43.2277 33.6676 42.0647 26.2469 37.3778C25.2215 36.7305 24.1737 36.0104 23.1331 35.2379C22.0653 34.4449 20.9913 33.5847 19.9392 32.6808C18.7514 31.6597 17.595 30.5881 16.5034 29.4965C15.4813 28.4744 14.5101 27.4075 13.6057 26.3231C14.1329 25.5144 14.7207 24.6886 15.3612 23.8566C16.3709 25.0916 17.4477 26.2898 18.5789 27.4209C19.8716 28.7131 21.2365 29.9309 22.6677 31.0677C23.7607 31.9397 24.8985 32.7542 26.0763 33.5077C27.1322 34.1849 28.2295 34.7951 29.3621 35.3346L29.3735 35.3398L29.3754 35.3408C31.1781 36.2724 33.1598 36.8077 35.1864 36.9101C35.5864 36.9124 35.986 36.8763 36.3794 36.802C37.1934 36.6643 37.9464 36.2838 38.5398 35.7094C40.2892 33.96 40.1353 30.6781 38.1226 26.4507C38.7441 25.6339 39.3318 24.8057 39.8915 23.976C44.4365 31.2395 45.6087 37.645 42.8396 40.4139L42.8397 40.414Z" stroke="#E968DD" stroke-width="0.8" mask="url(#path-1-outside-1_2858_112)"/>
</g>
</g>
</svg>
