<svg width="100" height="22" viewBox="0 0 100 22" fill="none" xmlns="http://www.w3.org/2000/svg">
<g clip-path="url(#clip0_1534_2697)">
<path d="M31.0562 3.19119C29.8854 3.19119 28.7571 3.33832 28.2976 3.46269C27.6288 3.65076 27.4619 3.94349 27.3361 4.55018L24.682 16.7977C24.6396 17.048 24.5986 17.2573 24.5986 17.4666C24.5986 18.0733 24.996 18.4692 25.6436 18.4692C26.3548 18.4692 26.6475 18.0096 26.7931 17.2983L27.5453 13.8083C28.067 13.8705 28.7571 13.9342 29.7398 13.9342C34.0666 13.9342 36.7616 11.5938 36.7616 8.0614C36.7616 4.96728 34.608 3.19119 31.0562 3.19119ZM29.6352 11.9275C28.9664 11.9275 28.4432 11.9063 27.9639 11.8441L29.3637 5.34343C29.802 5.28124 30.4511 5.1963 31.1199 5.1963C33.419 5.1963 34.5898 6.2838 34.5898 8.08111C34.5883 10.3805 32.9155 11.9275 29.6352 11.9275Z" fill="#919EAB"/>
<path d="M99.1431 14.4347C98.7882 14.4347 98.5577 14.644 98.1194 15.1248C97.346 15.9195 96.8652 16.3579 96.2601 16.3579C95.7172 16.3579 95.4245 15.9195 95.4245 15.2082C95.4245 14.8108 95.5079 14.33 95.6125 13.8083L96.386 10.1712H98.7063C99.4373 10.1712 99.8771 9.75254 99.8771 9.00025C99.8771 8.58163 99.6057 8.26919 98.9793 8.26919H96.803L97.1791 6.57652C97.2216 6.32626 97.2626 6.09572 97.2626 5.88641C97.2626 5.30096 96.8652 4.88234 96.2176 4.88234C95.5276 4.88234 95.2152 5.34191 95.0681 6.05325L94.5873 8.26919H93.6046C92.8524 8.26919 92.4141 8.6878 92.4141 9.4401C92.4141 9.85872 92.7068 10.1712 93.3331 10.1712H94.19L93.4165 13.7658C93.3331 14.1632 93.2285 14.8108 93.2285 15.4797C93.2285 17.1724 94.1066 18.4055 95.9871 18.4055C97.0745 18.4055 98.0345 17.8625 98.767 17.2133C99.4783 16.5869 100 15.8134 100 15.3113C100 14.8321 99.6239 14.4347 99.1431 14.4347Z" fill="#919EAB"/>
<path d="M51.0769 4.42428C51.0769 3.81759 50.6584 3.42021 50.0108 3.42021C49.3207 3.42021 49.0083 3.87978 48.8612 4.59112L46.2497 16.734C46.1875 16.9843 46.145 17.1936 46.145 17.4029C46.145 18.0096 46.5636 18.4055 47.1899 18.4055C47.9012 18.4055 48.2136 17.9459 48.3607 17.2345L50.9723 5.09316C51.0147 4.84138 51.0769 4.63359 51.0769 4.42428Z" fill="#919EAB"/>
<path d="M88.3801 8.05987C85.036 8.05987 82.7581 11.383 82.7581 14.5393C82.7581 14.5985 82.7596 14.6576 82.7612 14.7153C82.2364 15.5115 81.5661 16.3366 81.1066 16.3366C80.7729 16.3366 80.647 16.0227 80.647 15.5419C80.647 14.9564 80.8139 13.9736 81.0019 13.1166L82.7369 5.09012C82.7794 4.83986 82.8203 4.63056 82.8203 4.42125C82.8203 3.81456 82.423 3.41718 81.7754 3.41718C81.0641 3.41718 80.7729 3.87674 80.6258 4.58809L79.6855 8.93502C79.1835 8.41327 78.451 8.05684 77.3439 8.05684C75.1237 8.05684 72.8898 9.76619 72.0192 12.3886C71.0608 14.8669 70.2039 16.3336 69.5275 16.3336C69.2773 16.3336 69.1302 16.1243 69.1302 15.7694C69.1302 14.7244 69.7156 12.1747 69.9658 10.9416C70.0492 10.4821 70.0917 10.294 70.0917 10.0225C70.0917 9.10338 68.566 8.01589 66.5808 8.01589C64.2847 8.01589 62.2055 9.47043 61.1636 11.6302C59.6152 14.3664 58.1941 16.3336 57.4904 16.3336C57.1765 16.3336 57.0719 15.9362 56.9885 15.5601L56.4683 12.6798L59.6652 10.068C59.9579 9.81776 60.334 9.46133 60.334 9.00176C60.334 8.43754 59.9579 8.06139 59.3937 8.06139C58.9752 8.06139 58.6203 8.31165 58.2654 8.60438L53.4594 12.5752L55.0685 5.09316C55.1109 4.8429 55.1731 4.63359 55.1731 4.42428C55.1731 3.81759 54.7545 3.42021 54.107 3.42021C53.4169 3.42021 53.1045 3.87978 52.9574 4.59112L50.3459 16.734C50.2837 16.9843 50.2412 17.1936 50.2412 17.4029C50.2412 18.0096 50.6598 18.4055 51.2861 18.4055C51.9974 18.4055 52.3098 17.9459 52.4569 17.2345L52.7921 15.6678L54.7561 14.0798L55.2368 16.5035C55.4249 17.4651 55.9269 18.4055 57.222 18.4055C58.5111 18.4055 59.5257 17.2285 60.5418 15.6374C60.8497 17.3043 62.0356 18.4055 63.6811 18.4055C65.3327 18.4055 66.461 17.4226 67.192 16.1061V16.1486C67.192 17.5076 67.882 18.4055 69.0938 18.4055C70.1903 18.4055 71.1002 17.7442 71.9131 16.3397C72.3741 17.5637 73.4054 18.4055 74.8401 18.4055C76.5326 18.4055 77.7443 17.3817 78.5178 15.9605V16.0864C78.5178 17.591 79.27 18.407 80.503 18.407C81.5919 18.407 82.517 17.7745 83.3071 16.7462C83.9077 17.7745 84.9845 18.407 86.4389 18.407C89.7829 18.407 92.0608 15.0838 92.0608 11.9063C92.0593 9.66912 90.7004 8.05987 88.3801 8.05987ZM67.5453 12.3037C66.9387 14.9155 65.6436 16.4003 64.1801 16.4003C63.1973 16.4003 62.6544 15.648 62.6544 14.5196C62.6544 12.3037 64.2635 9.92089 66.4155 9.92089C67.0631 9.92089 67.5651 10.109 68.0034 10.3805L67.5453 12.3037ZM79.1851 11.1965C78.5163 14.2693 76.9906 16.4003 75.3193 16.4003C74.4003 16.4003 73.8558 15.689 73.8558 14.5196C73.8558 12.284 75.4027 9.96336 77.4713 9.96336C78.266 9.96336 78.8711 10.2349 79.3109 10.5898L79.1851 11.1965ZM86.6876 16.4003C85.4758 16.4003 84.9738 15.5222 84.9738 14.415C84.9738 12.3871 86.3736 10.068 88.1298 10.068C89.3416 10.068 89.8436 10.9462 89.8436 12.0534C89.8436 14.101 88.4438 16.4003 86.6876 16.4003Z" fill="#919EAB"/>
<path d="M41.9652 8.05988C38.6212 8.05988 36.3433 11.383 36.3433 14.5393C36.3433 16.7962 37.7021 18.4055 40.021 18.4055C43.365 18.4055 45.6429 15.0823 45.6429 11.9048C45.6429 9.66912 44.2841 8.05988 41.9652 8.05988ZM40.2727 16.4003C39.061 16.4003 38.559 15.5222 38.559 14.415C38.559 12.3871 39.9588 10.068 41.715 10.068C42.9267 10.068 43.4287 10.9462 43.4287 12.0534C43.4272 14.101 42.0274 16.4003 40.2727 16.4003Z" fill="#919EAB"/>
<path d="M10.0549 4.48647C12.1849 4.48647 13.9115 3.48214 13.9115 2.24324C13.9115 1.00433 12.1849 0 10.0549 0C7.92492 0 6.19824 1.00433 6.19824 2.24324C6.19824 3.48214 7.92492 4.48647 10.0549 4.48647Z" fill="#919EAB"/>
<path d="M10.0549 21.3889C12.1849 21.3889 13.9115 20.3845 13.9115 19.1456C13.9115 17.9067 12.1849 16.9024 10.0549 16.9024C7.92492 16.9024 6.19824 17.9067 6.19824 19.1456C6.19824 20.3845 7.92492 21.3889 10.0549 21.3889Z" fill="#919EAB"/>
<path d="M4.6806 7.59164C5.74559 5.7469 5.73868 3.74894 4.66516 3.12907C3.59165 2.5092 1.85806 3.50215 0.793073 5.34688C-0.271913 7.19162 -0.265001 9.18958 0.808511 9.80945C1.88202 10.4293 3.61562 9.43637 4.6806 7.59164Z" fill="#919EAB"/>
<path d="M19.3152 16.0418C20.3802 14.1971 20.3738 12.1995 19.3011 11.58C18.2283 10.9606 16.4953 11.9539 15.4303 13.7986C14.3653 15.6433 14.3716 17.641 15.4444 18.2604C16.5172 18.8799 18.2502 17.8866 19.3152 16.0418Z" fill="#919EAB"/>
<path d="M4.66565 18.2599C5.73916 17.64 5.74608 15.642 4.68109 13.7973C3.61611 11.9526 1.88251 10.9596 0.809 11.5795C-0.264512 12.1994 -0.271425 14.1973 0.793561 16.0421C1.85855 17.8868 3.59214 18.8797 4.66565 18.2599Z" fill="#919EAB"/>
<path d="M19.302 9.80995C20.3748 9.1905 20.3811 7.19288 19.3162 5.34814C18.2512 3.50341 16.5182 2.51012 15.4454 3.12957C14.3726 3.74902 14.3663 5.74664 15.4313 7.59138C16.4962 9.43612 18.2292 10.4294 19.302 9.80995Z" fill="#919EAB"/>
</g>
<defs>
<clipPath id="clip0_1534_2697">
<rect width="100" height="21.3904" fill="white"/>
</clipPath>
</defs>
</svg>
