<svg width="108" height="21" viewBox="0 0 108 21" fill="none" xmlns="http://www.w3.org/2000/svg">
<g clip-path="url(#clip0_1508_91)">
<path fill-rule="evenodd" clip-rule="evenodd" d="M12.5186 15.3418L11.0557 13.8603C10.5 14.3787 9.93835 14.7894 9.37022 15.092C8.80255 15.3943 8.12342 15.5454 7.33342 15.5454C6.71604 15.5454 6.14513 15.4253 5.62045 15.1844C5.09577 14.9436 4.64204 14.6135 4.25927 14.1936C3.8765 13.7739 3.58043 13.2832 3.37031 12.7215C3.16043 12.1599 3.05575 11.5578 3.05575 10.9163C3.05575 10.2742 3.16043 9.67534 3.37031 9.11967C3.58043 8.56434 3.8765 8.07987 4.25927 7.66614C4.64204 7.25269 5.09577 6.92566 5.62045 6.68482C6.14513 6.44423 6.71604 6.32381 7.33342 6.32381C8.07395 6.32381 8.73455 6.47197 9.31475 6.76827C9.89515 7.06432 10.4446 7.45331 10.9628 7.93474L12.4258 6.24986C12.1173 5.95356 11.7902 5.68199 11.4444 5.4349C11.0989 5.18807 10.7224 4.97496 10.3149 4.79608C9.90735 4.61695 9.45989 4.47829 8.97215 4.37961C8.48449 4.28067 7.94429 4.2312 7.35189 4.2312C6.36425 4.2312 5.46305 4.40733 4.64829 4.7591C3.83328 5.11087 3.1297 5.5923 2.53706 6.20339C1.94441 6.81449 1.48469 7.52726 1.15739 8.34221C0.830088 9.15694 0.666687 10.0273 0.666687 10.9532C0.666687 11.8913 0.833336 12.7678 1.16664 13.5827C1.49993 14.3972 1.95991 15.104 2.5463 15.7028C3.1327 16.3014 3.82703 16.7736 4.62955 17.1194C5.43206 17.4651 6.30879 17.6378 7.25921 17.6378C7.86435 17.6378 8.41675 17.5853 8.91669 17.4804C9.41669 17.3755 9.87662 17.2213 10.2964 17.0177C10.7162 16.8139 11.1082 16.573 11.4724 16.2954C11.8364 16.0176 12.1852 15.6996 12.5186 15.3418Z" fill="#637381"/>
<path fill-rule="evenodd" clip-rule="evenodd" d="M41.9031 7.90137C41.9031 7.47016 42.0872 7.10374 42.4557 6.80213C42.824 6.50003 43.3398 6.34923 44.0028 6.34923C44.5922 6.34923 45.1754 6.46339 45.7524 6.69121C46.3297 6.91904 46.9129 7.24857 47.502 7.67951L48.7177 5.96137C48.055 5.43169 47.3458 5.02839 46.5906 4.75146C45.8352 4.47428 44.9851 4.33569 44.0396 4.33569C43.4012 4.33569 42.8118 4.42493 42.2746 4.60365C41.7344 4.78212 41.2742 5.03761 40.8902 5.37013C40.5066 5.70289 40.2056 6.09997 39.9848 6.56185C39.7668 7.02373 39.6562 7.53795 39.6562 8.10451C39.6562 8.70797 39.7514 9.21924 39.9418 9.63797C40.1321 10.0568 40.4114 10.4139 40.7737 10.7096C41.1358 11.0052 41.587 11.2514 42.121 11.4486C42.6582 11.6458 43.2693 11.824 43.9598 11.9843C44.5617 12.1321 45.0494 12.2737 45.4272 12.409C45.8016 12.5446 46.0964 12.6894 46.3143 12.8432C46.529 12.9973 46.6766 13.1665 46.7564 13.3512C46.8361 13.5362 46.8758 13.7453 46.8758 13.9794C46.8758 14.4846 46.6704 14.885 46.2591 15.1803C45.8476 15.4762 45.292 15.6238 44.5922 15.6238C43.7819 15.6238 43.0573 15.4789 42.419 15.1896C41.7803 14.9002 41.1482 14.4846 40.5217 13.9425L39.159 15.5684C39.9326 16.2704 40.7737 16.7908 41.6822 17.1296C42.5909 17.4683 43.5424 17.6376 44.5368 17.6376C45.2122 17.6376 45.8324 17.5513 46.3973 17.379C46.9588 17.2063 47.4439 16.9538 47.843 16.6213C48.245 16.2888 48.5582 15.8825 48.7852 15.4022C49.0094 14.9218 49.123 14.3737 49.123 13.7578C49.123 13.2159 49.034 12.7448 48.8558 12.3444C48.6776 11.9442 48.4138 11.5934 48.0701 11.2914C47.7262 10.9897 47.2904 10.734 46.7685 10.5246C46.2469 10.3155 45.6451 10.1246 44.9697 9.95204C44.3527 9.80424 43.8463 9.66244 43.4442 9.52704C43.0452 9.39171 42.732 9.24391 42.5017 9.08364C42.2746 8.92357 42.1183 8.75111 42.032 8.56644C41.9463 8.38144 41.9031 8.15984 41.9031 7.90137Z" fill="#637381"/>
<path fill-rule="evenodd" clip-rule="evenodd" d="M67.1152 8.08467V17.3235H69.3654V4.44067H66.9489L63.0199 10.5325L59.0909 4.44067H56.6746V17.3235H58.9249V8.12141L62.9644 14.1581H63.0384L67.1152 8.08467Z" fill="#637381"/>
<path fill-rule="evenodd" clip-rule="evenodd" d="M88.2727 10.9533C88.2727 11.5828 88.1647 12.1784 87.9493 12.7403C87.7333 13.3019 87.4347 13.7893 87.0527 14.2028C86.6707 14.6163 86.2113 14.9436 85.6753 15.1844C85.1393 15.4253 84.5513 15.5455 83.9107 15.5455C83.2693 15.5455 82.678 15.422 82.136 15.1752C81.594 14.9281 81.1287 14.5948 80.7407 14.1753C80.3527 13.7554 80.0507 13.2647 79.8347 12.7031C79.6193 12.1415 79.5113 11.5456 79.5113 10.9163C79.5113 10.2864 79.6193 9.69081 79.8347 9.12921C80.0507 8.56734 80.3493 8.07987 80.7313 7.66621C81.1133 7.2527 81.572 6.92567 82.108 6.68483C82.644 6.44424 83.2327 6.32382 83.8733 6.32382C84.514 6.32382 85.106 6.44723 85.648 6.69432C86.19 6.94116 86.6553 7.27443 87.0433 7.69414C87.4313 8.11361 87.7333 8.60454 87.9493 9.16621C88.1647 9.72781 88.2727 10.3237 88.2727 10.9533ZM90.6567 10.9163C90.6567 10.0026 90.4907 9.13847 90.158 8.32347C89.8253 7.50903 89.3633 6.79899 88.772 6.19415C88.18 5.58905 87.472 5.11087 86.646 4.7591C85.82 4.40733 84.9087 4.2312 83.9107 4.2312C82.912 4.2312 82.0007 4.41033 81.1747 4.76835C80.3493 5.12636 79.6347 5.61079 79.0307 6.22188C78.4267 6.83297 77.9587 7.546 77.626 8.36074C77.2933 9.17541 77.1267 10.0396 77.1267 10.9532C77.1267 11.8666 77.2933 12.7305 77.626 13.5455C77.9587 14.3605 78.4207 15.0703 79.012 15.6751C79.6033 16.2799 80.312 16.7584 81.138 17.1101C81.9633 17.4619 82.8753 17.6378 83.8733 17.6378C84.8713 17.6378 85.7833 17.4587 86.6087 17.1009C87.4347 16.7429 88.1493 16.2585 88.7533 15.6471C89.3573 15.0363 89.8253 14.3233 90.158 13.5085C90.4907 12.6938 90.6567 11.8297 90.6567 10.9163Z" fill="#637381"/>
<path fill-rule="evenodd" clip-rule="evenodd" d="M100.113 7.90137C100.113 7.47016 100.297 7.10374 100.666 6.80213C101.035 6.50003 101.55 6.34923 102.213 6.34923C102.803 6.34923 103.386 6.46339 103.963 6.69121C104.54 6.91904 105.123 7.24857 105.713 7.67951L106.928 5.96137C106.265 5.43169 105.556 5.02839 104.801 4.75146C104.046 4.47428 103.195 4.33569 102.25 4.33569C101.611 4.33569 101.022 4.42493 100.485 4.60365C99.9447 4.78212 99.4847 5.03761 99.1007 5.37013C98.7167 5.70289 98.416 6.09997 98.1947 6.56185C97.9774 7.02373 97.8667 7.53795 97.8667 8.10451C97.8667 8.70797 97.962 9.21924 98.152 9.63797C98.3427 10.0568 98.622 10.4139 98.984 10.7096C99.346 11.0052 99.7973 11.2514 100.331 11.4486C100.869 11.6458 101.479 11.824 102.17 11.9843C102.772 12.1321 103.26 12.2737 103.637 12.409C104.012 12.5446 104.307 12.6894 104.525 12.8432C104.739 12.9973 104.887 13.1665 104.967 13.3512C105.047 13.5362 105.087 13.7453 105.087 13.9794C105.087 14.4846 104.881 14.885 104.469 15.1803C104.058 15.4762 103.503 15.6238 102.803 15.6238C101.992 15.6238 101.267 15.4789 100.629 15.1896C99.9907 14.9002 99.3587 14.4846 98.732 13.9425L97.3694 15.5684C98.1427 16.2704 98.984 16.7908 99.8927 17.1296C100.801 17.4683 101.753 17.6376 102.747 17.6376C103.423 17.6376 104.043 17.5513 104.607 17.379C105.169 17.2063 105.654 16.9538 106.053 16.6213C106.455 16.2888 106.769 15.8825 106.995 15.4022C107.219 14.9218 107.333 14.3737 107.333 13.7578C107.333 13.2159 107.244 12.7448 107.066 12.3444C106.888 11.9442 106.624 11.5934 106.28 11.2914C105.937 10.9897 105.501 10.734 104.979 10.5246C104.457 10.3155 103.855 10.1246 103.18 9.95204C102.563 9.80424 102.057 9.66244 101.655 9.52704C101.255 9.39171 100.943 9.24391 100.712 9.08364C100.485 8.92357 100.329 8.75111 100.243 8.56644C100.157 8.38144 100.113 8.15984 100.113 7.90137Z" fill="#637381"/>
<path fill-rule="evenodd" clip-rule="evenodd" d="M27.9556 7.01952L21.7896 13.1773C21.71 13.0232 21.6383 12.8627 21.574 12.6962C21.3586 12.1367 21.251 11.5431 21.251 10.9162C21.251 10.2887 21.3586 9.69531 21.574 9.13584C21.7896 8.57611 22.0882 8.09051 22.47 7.67831C22.8518 7.26642 23.3106 6.94062 23.8462 6.7007C24.3821 6.46102 24.97 6.34105 25.6103 6.34105C26.2508 6.34105 26.842 6.464 27.3836 6.71016C27.585 6.8015 27.7756 6.90454 27.9556 7.01952ZM27.4115 15.1682C26.8757 15.4081 26.2877 15.5278 25.6474 15.5278C25.0069 15.5278 24.4158 15.4049 23.8739 15.159C23.6728 15.0674 23.4821 14.9644 23.3024 14.8491L29.4682 8.69184C29.5477 8.84564 29.6195 9.00591 29.6838 9.17264C29.8991 9.73218 30.0068 10.3258 30.0068 10.953C30.0068 11.5802 29.8991 12.1736 29.6838 12.7333C29.4682 13.2928 29.1696 13.7784 28.7878 14.1903C28.406 14.6022 27.9474 14.9282 27.4115 15.1682ZM28.3444 17.0774C29.1696 16.7208 29.8839 16.2382 30.4873 15.6291C31.0907 15.0206 31.5585 14.3102 31.891 13.4986C32.2237 12.687 32.39 11.8261 32.39 10.9162C32.39 10.006 32.2237 9.14504 31.891 8.33318C31.6938 7.85184 31.4511 7.4073 31.163 6.99937L35.1734 2.99448L33.5798 1.40308L29.5572 5.42016C29.196 5.17426 28.804 4.96171 28.3813 4.78226C27.5561 4.43182 26.6449 4.25636 25.6474 4.25636C24.6498 4.25636 23.7386 4.43481 22.9134 4.79147C22.0882 5.14813 21.3738 5.63072 20.7704 6.23951C20.167 6.8483 19.699 7.55864 19.3665 8.37024C19.034 9.18191 18.8678 10.0428 18.8678 10.953C18.8678 11.8629 19.034 12.7236 19.3665 13.5355C19.5639 14.0171 19.8066 14.4616 20.0948 14.8698L16.0846 18.8742L17.6782 20.4656L21.7006 16.4487C22.0617 16.6946 22.4538 16.9072 22.8764 17.0866C23.7017 17.4371 24.6129 17.6123 25.6103 17.6123C26.608 17.6123 27.5192 17.4338 28.3444 17.0774Z" fill="#637381"/>
</g>
<defs>
<clipPath id="clip0_1508_91">
<rect width="106.667" height="20" fill="white" transform="translate(0.666687 0.882324)"/>
</clipPath>
</defs>
</svg>
