<svg width="189" height="75" viewBox="0 0 189 75" fill="none" xmlns="http://www.w3.org/2000/svg">
<rect x="0.5" y="0.5" width="188" height="74" rx="3.5" fill="white"/>
<g clip-path="url(#clip0_1550_669)">
<path d="M75.5565 29.9961C74.3857 29.9961 73.2573 30.1432 72.7978 30.2676C72.129 30.4557 71.9622 30.7484 71.8363 31.3551L69.1823 43.6026C69.1398 43.8529 69.0989 44.0622 69.0989 44.2715C69.0989 44.8782 69.4962 45.2741 70.1438 45.2741C70.8551 45.2741 71.1478 44.8145 71.2934 44.1032L72.0456 40.6132C72.5673 40.6754 73.2573 40.7391 74.2401 40.7391C78.5669 40.7391 81.2618 38.3988 81.2618 34.8663C81.2618 31.7722 79.1083 29.9961 75.5565 29.9961ZM74.1354 38.7324C73.4666 38.7324 72.9434 38.7112 72.4642 38.649L73.864 32.1483C74.3022 32.0861 74.9513 32.0012 75.6202 32.0012C77.9193 32.0012 79.0901 33.0887 79.0901 34.886C79.0886 37.1854 77.4158 38.7324 74.1354 38.7324Z" fill="#919EAB"/>
<path d="M143.643 41.2396C143.288 41.2396 143.058 41.4489 142.619 41.9297C141.846 42.7245 141.365 43.1628 140.76 43.1628C140.217 43.1628 139.924 42.7245 139.924 42.0131C139.924 41.6157 140.008 41.1349 140.113 40.6132L140.886 36.9761H143.206C143.937 36.9761 144.377 36.5575 144.377 35.8052C144.377 35.3865 144.106 35.0741 143.479 35.0741H141.303L141.679 33.3814C141.722 33.1312 141.763 32.9006 141.763 32.6913C141.763 32.1059 141.365 31.6873 140.718 31.6873C140.028 31.6873 139.715 32.1468 139.568 32.8582L139.087 35.0741H138.105C137.352 35.0741 136.914 35.4927 136.914 36.245C136.914 36.6636 137.207 36.9761 137.833 36.9761H138.69L137.917 40.5707C137.833 40.9681 137.728 41.6157 137.728 42.2846C137.728 43.9773 138.607 45.2104 140.487 45.2104C141.575 45.2104 142.534 44.6674 143.267 44.0182C143.978 43.3918 144.5 42.6183 144.5 42.1163C144.5 41.637 144.124 41.2396 143.643 41.2396Z" fill="#919EAB"/>
<path d="M95.5768 31.2292C95.5768 30.6225 95.1582 30.2251 94.5107 30.2251C93.8206 30.2251 93.5082 30.6847 93.3611 31.396L90.7495 43.5389C90.6874 43.7892 90.6449 43.9985 90.6449 44.2078C90.6449 44.8145 91.0635 45.2103 91.6898 45.2103C92.4011 45.2103 92.7135 44.7508 92.8606 44.0394L95.4722 31.898C95.5146 31.6463 95.5768 31.4385 95.5768 31.2292Z" fill="#919EAB"/>
<path d="M132.88 34.8649C129.536 34.8649 127.258 38.188 127.258 41.3443C127.258 41.4035 127.26 41.4626 127.261 41.5203C126.736 42.3165 126.066 43.1416 125.606 43.1416C125.273 43.1416 125.147 42.8277 125.147 42.3469C125.147 41.7614 125.314 40.7786 125.502 39.9216L127.237 31.8951C127.279 31.6449 127.32 31.4355 127.32 31.2262C127.32 30.6195 126.923 30.2222 126.275 30.2222C125.564 30.2222 125.273 30.6817 125.126 31.3931L124.185 35.74C123.683 35.2183 122.951 34.8618 121.844 34.8618C119.624 34.8618 117.39 36.5712 116.519 39.1936C115.561 41.6719 114.704 43.1386 114.027 43.1386C113.777 43.1386 113.63 42.9293 113.63 42.5744C113.63 41.5294 114.215 38.9797 114.466 37.7466C114.549 37.2871 114.592 37.099 114.592 36.8275C114.592 35.9084 113.066 34.8209 111.081 34.8209C108.785 34.8209 106.705 36.2754 105.663 38.4352C104.115 41.1714 102.694 43.1386 101.99 43.1386C101.676 43.1386 101.572 42.7412 101.488 42.3651L100.968 39.4848L104.165 36.873C104.458 36.6227 104.834 36.2663 104.834 35.8068C104.834 35.2425 104.458 34.8664 103.894 34.8664C103.475 34.8664 103.12 35.1166 102.765 35.4094L97.9593 39.3802L99.5684 31.8981C99.6108 31.6479 99.673 31.4386 99.673 31.2293C99.673 30.6226 99.2544 30.2252 98.6068 30.2252C97.9168 30.2252 97.6044 30.6848 97.4573 31.3961L94.8457 43.539C94.7836 43.7893 94.7411 43.9986 94.7411 44.2079C94.7411 44.8146 95.1597 45.2104 95.786 45.2104C96.4973 45.2104 96.8097 44.7509 96.9568 44.0395L97.292 42.4728L99.2559 40.8847L99.7367 43.3085C99.9247 44.2701 100.427 45.2104 101.722 45.2104C103.011 45.2104 104.026 44.0335 105.042 42.4424C105.35 44.1093 106.536 45.2104 108.181 45.2104C109.833 45.2104 110.961 44.2276 111.692 42.9111V42.9536C111.692 44.3125 112.382 45.2104 113.594 45.2104C114.69 45.2104 115.6 44.5492 116.413 43.1447C116.874 44.3687 117.905 45.2104 119.34 45.2104C121.032 45.2104 122.244 44.1867 123.018 42.7655V42.8914C123.018 44.396 123.77 45.212 125.003 45.212C126.092 45.212 127.017 44.5795 127.807 43.5511C128.408 44.5795 129.484 45.212 130.939 45.212C134.283 45.212 136.561 41.8888 136.561 38.7113C136.559 36.4741 135.2 34.8649 132.88 34.8649ZM112.045 39.1087C111.439 41.7205 110.143 43.2053 108.68 43.2053C107.697 43.2053 107.154 42.453 107.154 41.3246C107.154 39.1087 108.763 36.7259 110.915 36.7259C111.563 36.7259 112.065 36.914 112.503 37.1855L112.045 39.1087ZM123.685 38.0015C123.016 41.0743 121.49 43.2053 119.819 43.2053C118.9 43.2053 118.356 42.494 118.356 41.3246C118.356 39.0889 119.903 36.7684 121.971 36.7684C122.766 36.7684 123.371 37.0398 123.811 37.3948L123.685 38.0015ZM131.187 43.2053C129.976 43.2053 129.474 42.3272 129.474 41.2199C129.474 39.1921 130.874 36.873 132.63 36.873C133.841 36.873 134.343 37.7512 134.343 38.8584C134.343 40.906 132.944 43.2053 131.187 43.2053Z" fill="#919EAB"/>
<path d="M86.4652 34.8647C83.1212 34.8647 80.8433 38.1879 80.8433 41.3442C80.8433 43.6011 82.2021 45.2103 84.521 45.2103C87.865 45.2103 90.1429 41.8872 90.1429 38.7096C90.1429 36.474 88.7841 34.8647 86.4652 34.8647ZM84.7727 43.2052C83.561 43.2052 83.059 42.327 83.059 41.2198C83.059 39.192 84.4588 36.8729 86.215 36.8729C87.4267 36.8729 87.9287 37.7511 87.9287 38.8583C87.9272 40.9059 86.5274 43.2052 84.7727 43.2052Z" fill="#919EAB"/>
<path d="M54.5549 31.2914C56.6849 31.2914 58.4115 30.2871 58.4115 29.0482C58.4115 27.8093 56.6849 26.8049 54.5549 26.8049C52.4249 26.8049 50.6982 27.8093 50.6982 29.0482C50.6982 30.2871 52.4249 31.2914 54.5549 31.2914Z" fill="#919EAB"/>
<path d="M54.5549 48.1937C56.6849 48.1937 58.4115 47.1894 58.4115 45.9505C58.4115 44.7116 56.6849 43.7073 54.5549 43.7073C52.4249 43.7073 50.6982 44.7116 50.6982 45.9505C50.6982 47.1894 52.4249 48.1937 54.5549 48.1937Z" fill="#919EAB"/>
<path d="M49.1804 34.3965C50.2453 32.5518 50.2384 30.5538 49.1649 29.9339C48.0914 29.3141 46.3578 30.307 45.2928 32.1518C44.2278 33.9965 44.2348 35.9944 45.3083 36.6143C46.3818 37.2342 48.1154 36.2412 49.1804 34.3965Z" fill="#919EAB"/>
<path d="M63.8153 42.8467C64.8803 41.0019 64.874 39.0043 63.8012 38.3848C62.7284 37.7654 60.9954 38.7587 59.9304 40.6034C58.8654 42.4481 58.8717 44.4458 59.9445 45.0652C61.0173 45.6847 62.7503 44.6914 63.8153 42.8467Z" fill="#919EAB"/>
<path d="M49.1655 45.0648C50.239 44.445 50.246 42.447 49.181 40.6023C48.116 38.7575 46.3824 37.7646 45.3089 38.3845C44.2354 39.0043 44.2285 41.0023 45.2934 42.847C46.3584 44.6918 48.092 45.6847 49.1655 45.0648Z" fill="#919EAB"/>
<path d="M63.802 36.6149C64.8748 35.9955 64.8811 33.9978 63.8162 32.1531C62.7512 30.3084 61.0182 29.3151 59.9454 29.9345C58.8726 30.554 58.8663 32.5516 59.9313 34.3963C60.9962 36.2411 62.7292 37.2344 63.802 36.6149Z" fill="#919EAB"/>
</g>
<rect x="0.5" y="0.5" width="188" height="74" rx="3.5" stroke="#DFE3E8"/>
<defs>
<clipPath id="clip0_1550_669">
<rect width="100" height="21.3904" fill="white" transform="translate(44.5 26.8049)"/>
</clipPath>
</defs>
</svg>
