<svg width="189" height="76" viewBox="0 0 189 76" fill="none" xmlns="http://www.w3.org/2000/svg">
<rect x="0.5" y="1.38232" width="188" height="74" rx="3.5" fill="white"/>
<g clip-path="url(#clip0_1508_110)">
<path fill-rule="evenodd" clip-rule="evenodd" d="M80.6006 38.3475C80.6006 48.1207 72.678 56.0432 62.9049 56.0432C53.1318 56.0432 45.2092 48.1207 45.2092 38.3475C45.2092 28.5745 53.1318 20.6519 62.9049 20.6519C72.678 20.6519 80.6006 28.5745 80.6006 38.3475Z" stroke="#4388DD" stroke-width="2"/>
<path fill-rule="evenodd" clip-rule="evenodd" d="M70.2278 33.9265L65.5476 33.7327L68.7261 30.2903L67.4472 29.0114L64.0009 32.1836L63.8142 27.502H62.0054L61.8117 32.182L58.3695 29.0035L57.0903 30.2825L60.2626 33.7288L55.5808 33.9155V35.7242L60.261 35.918L57.0825 39.3604L58.3615 40.6395L61.7548 37.5158L61.9024 45.0976L59.1956 45.2956V46.9802L61.9432 47.1888L61.9945 49.8222H63.8032L63.8564 47.1927L66.6328 46.982V45.2975L63.8988 45.0975L64.052 37.5195L67.4393 40.6472L68.7185 39.3682L65.5461 35.9219L70.2278 35.7352V33.9265Z" fill="#4388DD"/>
<path fill-rule="evenodd" clip-rule="evenodd" d="M109.911 45.2473C109.238 45.6317 108.421 45.824 107.436 45.824C105.106 45.824 103.98 44.4776 103.496 43.1334C103.12 42.0881 103.112 41.3903 103.112 40.8138V33.5961H106.499V40.6589C106.499 41.8361 107.22 42.8931 108.637 42.8931C110.079 42.8931 111.088 41.8841 111.088 40.8032V33.572H114.451V45.4876H111.527L111.184 44.0223C111.016 44.4307 110.607 44.839 109.911 45.2473Z" fill="#4388DD"/>
<path fill-rule="evenodd" clip-rule="evenodd" d="M120.113 33.6442L120.505 35.3258C121.346 34.1246 122.355 33.452 123.556 33.3078C125.887 33.0196 127.496 34.0525 128.169 35.4219C128.529 36.1666 128.697 37.4399 128.697 39.2416V45.4877H125.454V39.0974C125.454 36.9834 124.853 36.1666 123.028 36.1666C121.85 36.1666 120.673 37.4158 120.673 39.5538V45.4877H117.43V33.6442H120.113Z" fill="#4388DD"/>
<path fill-rule="evenodd" clip-rule="evenodd" d="M140.425 39.5058C140.425 40.5388 140.113 41.3796 139.488 42.0042C138.887 42.6288 138.143 42.9412 137.278 42.9412C136.803 42.9412 136.365 42.8464 135.962 42.658L140.258 38.3619C140.369 38.7117 140.425 39.0916 140.425 39.5058ZM134.107 39.5058C134.107 38.5208 134.419 37.7281 135.044 37.0795C135.692 36.4309 136.437 36.1185 137.278 36.1185C137.756 36.1185 138.204 36.22 138.616 36.4268L134.288 40.7545C134.167 40.3766 134.107 39.9599 134.107 39.5058ZM144.5 34.1201L142.711 32.3313L140.785 34.2575C139.759 33.5574 138.583 33.2116 137.254 33.2116C135.476 33.2116 133.987 33.8123 132.761 35.0375C131.536 36.2627 130.936 37.7281 130.936 39.4817C130.936 40.8174 131.285 41.9994 131.993 43.0497L130.27 44.772L132.059 46.5611L133.765 44.8554C134.776 45.5521 135.935 45.896 137.254 45.896C139.007 45.896 140.497 45.2714 141.722 43.9982C142.947 42.7248 143.548 41.2356 143.548 39.4817C143.548 38.191 143.221 37.0568 142.561 36.0592L144.5 34.1201Z" fill="#4388DD"/>
<path fill-rule="evenodd" clip-rule="evenodd" d="M96.8313 30.134V39.7462C96.8313 41.5479 95.7983 42.6289 94.4529 42.6289C93.4441 42.6289 92.6224 42.0389 92.0127 40.6084L88.9908 42.3454C90.039 44.7067 91.9848 45.8962 94.8134 45.8962C96.3748 45.8962 97.696 45.2955 98.7291 44.1184C99.7622 42.9172 100.291 41.4037 100.291 39.602L100.231 30.134H96.8313Z" fill="#4388DD"/>
</g>
<rect x="0.5" y="1.38232" width="188" height="74" rx="3.5" stroke="#4388DD"/>
<defs>
<clipPath id="clip0_1508_110">
<rect width="100" height="36.8794" fill="white" transform="translate(44.5 19.9426)"/>
</clipPath>
</defs>
</svg>
