<svg width="218" height="76" viewBox="0 0 218 76" fill="none" xmlns="http://www.w3.org/2000/svg">
<rect x="0.5" y="1.38232" width="217" height="74" rx="3.5" fill="white"/>
<g clip-path="url(#clip0_1508_70)">
<path fill-rule="evenodd" clip-rule="evenodd" d="M130.876 33.4418C130.769 33.4337 130.549 33.4114 130.083 33.4114C129.677 33.4114 129.301 33.4493 128.95 33.5221C127.49 33.8058 126.557 34.5991 125.752 35.4393V33.7771H121.177V48.6004H125.752V42.4087C125.752 41.6768 125.792 41.0056 125.873 40.3958C125.955 39.7858 126.133 39.2625 126.407 38.8251C126.682 38.3877 127.073 38.0471 127.581 37.8033C128.09 37.5593 128.781 37.4371 129.656 37.4371C130.001 37.4371 130.332 37.463 130.647 37.5135C130.962 37.5643 131.282 37.6407 131.608 37.7423V33.5637C131.384 33.5029 131.14 33.4619 130.876 33.4418Z" fill="#919EAB"/>
<path fill-rule="evenodd" clip-rule="evenodd" d="M143.114 33.4418C143.007 33.4337 142.787 33.4114 142.321 33.4114C141.915 33.4114 141.539 33.4493 141.188 33.5221C139.728 33.8058 138.795 34.5991 137.99 35.4393V33.7771H133.415V48.6004H137.99V42.4087C137.99 41.6768 138.03 41.0056 138.112 40.3958C138.193 39.7858 138.371 39.2625 138.645 38.8251C138.92 38.3877 139.311 38.0471 139.82 37.8033C140.328 37.5593 141.019 37.4371 141.894 37.4371C142.239 37.4371 142.57 37.463 142.885 37.5135C143.2 37.5643 143.52 37.6407 143.846 37.7423V33.5637C143.622 33.5029 143.378 33.4619 143.114 33.4418Z" fill="#919EAB"/>
<path fill-rule="evenodd" clip-rule="evenodd" d="M94.8824 33.1678H88.7213V28.9585H105.802V33.1678H99.6406V48.6003H94.8824V33.1678Z" fill="#919EAB"/>
<path fill-rule="evenodd" clip-rule="evenodd" d="M114.784 39.5113C114.804 38.7386 114.549 38.0775 114.021 37.5289C113.492 36.9799 112.811 36.7051 111.977 36.7051C111.469 36.7051 111.022 36.7866 110.636 36.9492C110.249 37.1121 109.919 37.3205 109.644 37.5746C109.37 37.829 109.156 38.1233 109.004 38.4591C108.851 38.7947 108.764 39.1453 108.745 39.5113H114.784ZM118.657 46.0383C117.925 46.9739 116.999 47.6958 115.882 48.2038C114.763 48.7117 113.604 48.9664 112.405 48.9664C111.266 48.9664 110.193 48.7834 109.187 48.4174C108.18 48.0514 107.306 47.5282 106.564 46.8467C105.821 46.1655 105.237 45.3474 104.81 44.3914C104.383 43.4358 104.169 42.3683 104.169 41.1889C104.169 40.0098 104.383 38.9423 104.81 37.9863C105.237 37.0307 105.821 36.2125 106.564 35.5308C107.306 34.8499 108.18 34.326 109.187 33.9603C110.193 33.5944 111.266 33.4114 112.405 33.4114C113.462 33.4114 114.422 33.5944 115.287 33.9603C116.151 34.326 116.883 34.8499 117.483 35.5308C118.082 36.2125 118.545 37.0307 118.871 37.9863C119.196 38.9423 119.358 40.0098 119.358 41.1889V42.6224H108.745C108.928 43.4969 109.324 44.1931 109.934 44.7117C110.544 45.2302 111.296 45.4894 112.191 45.4894C112.943 45.4894 113.579 45.3217 114.097 44.9861C114.616 44.6506 115.068 44.2188 115.454 43.6896L118.657 46.0383Z" fill="#919EAB"/>
<path fill-rule="evenodd" clip-rule="evenodd" d="M154.397 43.3652V43.115C154.397 42.79 154.186 42.5063 153.879 42.4028C153.218 42.1805 152.435 42.0424 151.598 42.0424C149.722 42.0424 148.568 42.7741 148.568 44.1253V44.1814C148.568 45.3356 149.549 46.0112 150.963 46.0112C153.012 46.0112 154.397 44.9133 154.397 43.3652ZM144.326 44.3507V44.294C144.326 41.0008 146.894 39.4809 150.559 39.4809C152.117 39.4809 153.243 39.7344 154.339 40.1001V39.8469C154.339 38.0736 153.214 37.0884 151.021 37.0884C149.347 37.0884 148.164 37.398 146.75 37.9046L145.653 34.6398C147.356 33.9076 149.03 33.4292 151.656 33.4292C154.051 33.4292 155.782 34.0485 156.879 35.1182C158.033 36.244 158.552 37.9046 158.552 39.9314V48.6852H154.31V47.0525C153.243 48.2065 151.771 48.9666 149.636 48.9666C146.721 48.9666 144.326 47.334 144.326 44.3507Z" fill="#919EAB"/>
<path fill-rule="evenodd" clip-rule="evenodd" d="M70.2163 46.0515C70.931 48.6948 73.4947 50.7124 74.7893 50.629C74.8348 50.6259 79.7004 49.7188 82.3637 45.2688C84.4366 41.8054 83.7309 38.462 80.9116 38.3889C79.8973 38.4628 68.8545 41.0146 70.2163 46.0515Z" fill="white"/>
<path fill-rule="evenodd" clip-rule="evenodd" d="M80.6493 29.0708C80.6484 29.0699 80.6473 29.0691 80.6465 29.0683L80.6504 29.066C78.4911 27.2256 75.6908 26.1182 72.631 26.1182C70.8427 26.1182 69.1451 26.5014 67.61 27.1843C67.3339 27.3 67.0725 27.4281 66.8256 27.5681C66.6521 27.6607 66.4784 27.7528 66.3099 27.8529L66.3509 27.8657C65.8415 28.2172 65.4039 28.6278 65.0452 29.1017C61.4936 33.7936 73.3967 37.2037 79.7603 37.2148C82.688 39.3167 83.5098 31.2976 80.6493 29.0708Z" fill="white"/>
<path fill-rule="evenodd" clip-rule="evenodd" d="M68.327 29.1662C66.6924 31.6237 61.2455 33.3557 60.3495 33.0859C60.3479 33.0826 60.3456 33.0778 60.3437 33.0745C60.3805 33.0003 60.4176 32.9266 60.4558 32.8533C60.7657 32.2552 61.1208 31.6842 61.5163 31.1448C61.9119 30.6053 62.3479 30.097 62.8199 29.6251C63.2918 29.1531 63.7998 28.7171 64.3395 28.3216C64.6745 28.0761 65.0218 27.846 65.3803 27.6326C66.1429 27.191 66.9242 27.1623 67.1811 27.1531C69.6068 27.1994 68.3401 29.1467 68.327 29.1662Z" fill="#919EAB"/>
<mask id="mask0_1508_70" style="mask-type:alpha" maskUnits="userSpaceOnUse" x="59" y="34" width="9" height="17">
<path d="M59 34.3335H67.0332V50.6173H59V34.3335Z" fill="white"/>
</mask>
<g mask="url(#mask0_1508_70)">
<path fill-rule="evenodd" clip-rule="evenodd" d="M66.9862 46.535C67.1036 47.3072 66.9831 50.3574 66.8252 50.6146C66.6891 50.623 66.4057 50.6403 65.585 50.1797C65.1538 49.9337 64.7381 49.6637 64.3395 49.3716C63.8001 48.9761 63.2918 48.5401 62.8199 48.0681C62.3479 47.5959 61.9119 47.0879 61.5163 46.5484C61.1208 46.009 60.7657 45.4377 60.4558 44.8396C60.1456 44.2413 59.8806 43.6162 59.665 42.9685C59.4494 42.3205 59.2831 41.6502 59.1707 40.9618C59.0586 40.273 59 39.5665 59 38.8462C59 38.126 59.0586 37.4194 59.1707 36.731C59.2831 36.0426 59.4494 35.3723 59.665 34.7246C59.7085 34.5935 59.7543 34.4632 59.802 34.3341L59.8028 34.3335C60.7428 35.584 61.8307 36.7151 62.7557 37.9782C63.6363 39.1804 64.8478 41.1408 65.0944 41.5595C66.6252 44.1598 66.869 45.764 66.9862 46.535Z" fill="#919EAB"/>
</g>
<path fill-rule="evenodd" clip-rule="evenodd" d="M85.0812 38.8463C85.0812 40.5375 84.7593 42.1534 84.1735 43.6363C82.638 45.2871 72.2816 41.2234 72.1801 41.1791C70.7633 40.5584 66.452 38.6697 66.0631 35.7028C65.5036 31.4347 74.1628 28.4606 77.9679 28.3477C78.4242 28.353 79.8128 28.3691 80.6223 29.0269C83.3551 31.4172 85.0812 34.9302 85.0812 38.8463Z" fill="#919EAB"/>
<path fill-rule="evenodd" clip-rule="evenodd" d="M78.0709 50.413C76.9417 50.9399 75.699 50.5561 76.0218 49.4567C76.6419 47.3454 82.0553 45.1808 83.2509 45.0637C83.3982 45.0492 83.4609 45.1496 83.3956 45.2642C82.1493 47.4478 80.3036 49.2464 78.0709 50.413Z" fill="#919EAB"/>
</g>
<rect x="0.5" y="1.38232" width="217" height="74" rx="3.5" stroke="#DFE3E8"/>
<defs>
<clipPath id="clip0_1508_70">
<rect width="100" height="24.5283" fill="white" transform="translate(59 26.1182)"/>
</clipPath>
</defs>
</svg>
