<svg width="213" height="75" viewBox="0 0 213 75" fill="none" xmlns="http://www.w3.org/2000/svg">
<rect x="0.5" y="0.5" width="212" height="74" rx="3.5" fill="white"/>
<g clip-path="url(#clip0_1642_1426)">
<path d="M82.687 39.5778C82.6854 39.6736 82.6459 39.7649 82.5772 39.8317C82.5085 39.8985 82.4161 39.9353 82.3203 39.9343H75.5675C75.7407 41.6046 76.9935 43.1324 78.7657 43.1324C79.9777 43.1324 80.874 42.6741 81.5462 41.7065C81.5775 41.6556 81.6208 41.6133 81.6723 41.5831C81.7238 41.5529 81.782 41.5358 81.8416 41.5333C81.8861 41.5321 81.9304 41.5399 81.9717 41.5563C82.0131 41.5728 82.0506 41.5975 82.0821 41.629C82.1135 41.6604 82.1383 41.698 82.1547 41.7393C82.1711 41.7807 82.179 41.825 82.1777 41.8694C82.1779 41.9309 82.1602 41.9911 82.1268 42.0426C81.4444 43.2241 80.0897 43.8046 78.7657 43.8046C76.4944 43.8046 74.8647 41.7676 74.8647 39.5981C74.8647 37.4287 76.4842 35.3917 78.7657 35.3917C81.0472 35.3917 82.6768 37.4083 82.687 39.5778ZM81.9638 39.262C81.8212 37.5917 80.5379 36.0639 78.7657 36.0639C76.9935 36.0639 75.7407 37.5917 75.5675 39.262H81.9638Z" fill="#637381"/>
<path d="M90.8961 35.5546C90.9844 35.5572 91.0684 35.5934 91.1309 35.6559C91.1934 35.7184 91.2297 35.8024 91.2322 35.8907C91.2335 35.9352 91.2256 35.9795 91.2092 36.0208C91.1928 36.0622 91.1681 36.0998 91.1366 36.1312C91.1051 36.1627 91.0676 36.1874 91.0262 36.2038C90.9849 36.2203 90.9406 36.2281 90.8961 36.2268H89.0831V43.3463C89.0823 43.4352 89.0467 43.5202 88.9838 43.5831C88.921 43.6459 88.8359 43.6816 88.747 43.6824C88.6587 43.6798 88.5747 43.6436 88.5122 43.5811C88.4497 43.5186 88.4135 43.4346 88.4109 43.3463V36.2268H86.6692C86.6248 36.2281 86.5805 36.2203 86.5391 36.2038C86.4978 36.1874 86.4602 36.1627 86.4288 36.1312C86.3973 36.0998 86.3726 36.0622 86.3561 36.0208C86.3397 35.9795 86.3319 35.9352 86.3331 35.8907C86.3339 35.8018 86.3696 35.7168 86.4325 35.654C86.4953 35.5911 86.5804 35.5554 86.6692 35.5546H88.4109V32.9574C88.4111 32.8713 88.442 32.7882 88.498 32.7228C88.554 32.6575 88.6314 32.6143 88.7165 32.6009C88.764 32.5946 88.8123 32.5986 88.8582 32.6127C88.904 32.6268 88.9462 32.6506 88.982 32.6825C89.0178 32.7144 89.0463 32.7537 89.0655 32.7976C89.0847 32.8415 89.0942 32.8891 89.0933 32.937V35.5546H90.8961Z" fill="#637381"/>
<path d="M101.947 38.9972V43.3055C101.944 43.3939 101.908 43.4779 101.846 43.5404C101.783 43.6028 101.699 43.6391 101.611 43.6416C101.566 43.6429 101.522 43.6351 101.481 43.6186C101.439 43.6022 101.402 43.5775 101.37 43.546C101.339 43.5145 101.314 43.477 101.298 43.4356C101.281 43.3943 101.274 43.35 101.275 43.3055V38.9972C101.275 37.5407 100.45 36.0944 98.8303 36.0944C96.7526 36.0944 95.8563 37.9074 95.9785 39.7713C95.9785 39.8222 95.9989 40.0361 95.9989 40.0666V43.2953C95.9987 43.3814 95.9678 43.4646 95.9118 43.5299C95.8558 43.5953 95.7783 43.6385 95.6933 43.6518C95.6458 43.6581 95.5975 43.6541 95.5516 43.64C95.5058 43.626 95.4636 43.6021 95.4278 43.5702C95.392 43.5383 95.3635 43.4991 95.3443 43.4551C95.3251 43.4112 95.3156 43.3637 95.3165 43.3157V29.1481C95.3173 29.0592 95.3529 28.9742 95.4158 28.9113C95.4786 28.8485 95.5637 28.8128 95.6526 28.812C95.7409 28.8146 95.8249 28.8508 95.8874 28.9133C95.9499 28.9758 95.9861 29.0598 95.9887 29.1481V37.1537C96.5692 36.1148 97.6081 35.412 98.8202 35.412C100.816 35.412 101.947 37.1537 101.947 38.9972Z" fill="#637381"/>
<path d="M114.078 39.5778C114.076 39.6736 114.037 39.7649 113.968 39.8317C113.899 39.8985 113.807 39.9353 113.711 39.9343H106.958C107.131 41.6046 108.384 43.1324 110.156 43.1324C111.368 43.1324 112.265 42.6741 112.937 41.7065C112.968 41.6556 113.011 41.6133 113.063 41.5831C113.114 41.5529 113.173 41.5358 113.232 41.5333C113.277 41.5321 113.321 41.5399 113.362 41.5563C113.404 41.5728 113.441 41.5975 113.473 41.629C113.504 41.6604 113.529 41.698 113.545 41.7393C113.562 41.7807 113.57 41.825 113.568 41.8694C113.569 41.9309 113.551 41.9911 113.517 42.0426C112.835 43.2241 111.48 43.8046 110.156 43.8046C107.885 43.8046 106.255 41.7676 106.255 39.5981C106.255 37.4287 107.875 35.3917 110.156 35.3917C112.417 35.3917 114.067 37.4083 114.078 39.5778ZM113.344 39.262C113.202 37.5917 111.918 36.0639 110.146 36.0639C108.374 36.0639 107.121 37.5917 106.948 39.262H113.344Z" fill="#637381"/>
<path d="M122.379 35.8704C122.385 35.9608 122.356 36.0501 122.296 36.1188C122.237 36.1875 122.153 36.23 122.063 36.237C120.077 36.5324 119.181 38.1518 119.181 40.0361V43.2648C119.18 43.3509 119.149 43.4341 119.093 43.4994C119.037 43.5647 118.96 43.608 118.875 43.6213C118.827 43.6276 118.779 43.6236 118.733 43.6095C118.687 43.5954 118.645 43.5716 118.609 43.5397C118.574 43.5078 118.545 43.4685 118.526 43.4246C118.507 43.3807 118.497 43.3331 118.498 43.2852V35.9213C118.498 35.8352 118.529 35.7521 118.585 35.6867C118.641 35.6214 118.719 35.5781 118.804 35.5648C118.851 35.5585 118.9 35.5625 118.945 35.5766C118.991 35.5907 119.033 35.6145 119.069 35.6464C119.105 35.6783 119.133 35.7176 119.153 35.7615C119.172 35.8054 119.181 35.853 119.181 35.9009V37.3981C119.741 36.4509 120.851 35.5546 122.012 35.5546C122.185 35.5546 122.379 35.6768 122.379 35.8704Z" fill="#637381"/>
<path d="M133.48 39.5778C133.479 39.6736 133.439 39.7649 133.371 39.8317C133.302 39.8985 133.21 39.9353 133.114 39.9343H126.361C126.534 41.6046 127.787 43.1324 129.559 43.1324C130.771 43.1324 131.667 42.6741 132.34 41.7065C132.371 41.6556 132.414 41.6133 132.466 41.5831C132.517 41.5529 132.575 41.5358 132.635 41.5333C132.68 41.5321 132.724 41.5399 132.765 41.5563C132.807 41.5728 132.844 41.5975 132.876 41.629C132.907 41.6604 132.932 41.698 132.948 41.7393C132.965 41.7807 132.972 41.825 132.971 41.8694C132.971 41.9309 132.954 41.9911 132.92 42.0426C132.238 43.2241 130.883 43.8046 129.559 43.8046C127.288 43.8046 125.658 41.7676 125.658 39.5981C125.658 37.4287 127.278 35.3917 129.559 35.3917C131.841 35.3917 133.47 37.4083 133.48 39.5778ZM132.757 39.262C132.615 37.5917 131.331 36.0639 129.559 36.0639C127.787 36.0639 126.534 37.5917 126.361 39.262H132.757Z" fill="#637381"/>
<path d="M144.399 35.9518V43.3463C144.396 43.4346 144.36 43.5186 144.298 43.5811C144.235 43.6436 144.151 43.6798 144.063 43.6824C144.018 43.6836 143.974 43.6758 143.933 43.6594C143.891 43.6429 143.854 43.6182 143.822 43.5868C143.791 43.5553 143.766 43.5177 143.75 43.4764C143.733 43.435 143.725 43.3908 143.727 43.3463V41.9407C143.166 43.0509 142.178 43.8555 140.915 43.8555C138.909 43.8555 137.799 42.1139 137.799 40.2703V35.9416C137.8 35.8527 137.835 35.7677 137.898 35.7049C137.961 35.642 138.046 35.6063 138.135 35.6055C138.223 35.6081 138.307 35.6443 138.37 35.7068C138.432 35.7693 138.468 35.8533 138.471 35.9416V40.2703C138.471 41.7268 139.296 43.1731 140.915 43.1731C143.187 43.1731 143.727 41.0444 143.727 38.6916V35.9315C143.727 35.877 143.741 35.8235 143.767 35.7754C143.793 35.7273 143.829 35.6861 143.874 35.6552C143.919 35.6243 143.971 35.6046 144.025 35.5977C144.079 35.5908 144.134 35.597 144.185 35.6157C144.249 35.6455 144.303 35.6929 144.341 35.7525C144.379 35.8121 144.399 35.8812 144.399 35.9518Z" fill="#637381"/>
<path d="M161.5 38.9666V43.2953C161.497 43.3837 161.461 43.4677 161.399 43.5301C161.336 43.5926 161.252 43.6289 161.164 43.6314C161.119 43.6327 161.075 43.6249 161.034 43.6084C160.992 43.592 160.955 43.5673 160.923 43.5358C160.892 43.5043 160.867 43.4668 160.851 43.4254C160.834 43.3841 160.826 43.3398 160.828 43.2953V38.9666C160.828 37.5101 160.003 36.0842 158.383 36.0842C156.346 36.0842 155.572 38.2638 155.572 39.9546V43.2953C155.569 43.3837 155.533 43.4677 155.471 43.5301C155.408 43.5926 155.324 43.6289 155.236 43.6314C155.191 43.6327 155.147 43.6249 155.106 43.6084C155.064 43.592 155.027 43.5673 154.995 43.5358C154.964 43.5043 154.939 43.4668 154.923 43.4254C154.906 43.3841 154.899 43.3398 154.9 43.2953V38.9666C154.9 37.5101 154.075 36.0842 152.455 36.0842C150.398 36.0842 149.553 37.7037 149.624 39.8629C149.624 39.9138 149.644 40.0055 149.624 40.0361V43.2851C149.624 43.3712 149.593 43.4544 149.537 43.5197C149.481 43.5851 149.403 43.6283 149.318 43.6416C149.271 43.6479 149.222 43.6439 149.177 43.6298C149.131 43.6157 149.089 43.5919 149.053 43.56C149.017 43.5281 148.989 43.4888 148.969 43.4449C148.95 43.401 148.941 43.3534 148.941 43.3055V35.9212C148.942 35.8352 148.972 35.752 149.029 35.6867C149.085 35.6213 149.162 35.5781 149.247 35.5648C149.295 35.5585 149.343 35.5625 149.389 35.5766C149.435 35.5906 149.477 35.6145 149.513 35.6464C149.548 35.6783 149.577 35.7175 149.596 35.7615C149.615 35.8054 149.625 35.8529 149.624 35.9009V37.1333C150.204 36.0944 151.243 35.412 152.455 35.412C153.83 35.412 154.9 36.2879 155.338 37.5611C155.898 36.2981 156.988 35.412 158.383 35.412C160.369 35.412 161.5 37.1333 161.5 38.9666Z" fill="#637381"/>
<path opacity="0.6" d="M59.9537 33.9148L51.5 37.7546L59.9537 42.7555L68.4176 37.7546L59.9537 33.9148Z" fill="#637381"/>
<path opacity="0.45" d="M51.5 37.7546L59.9537 42.7555V23.7194L51.5 37.7546Z" fill="#637381"/>
<path opacity="0.8" d="M59.9536 23.7194V42.7555L68.4175 37.7546L59.9536 23.7194Z" fill="#637381"/>
<path opacity="0.45" d="M51.5 39.3639L59.9537 51.2806V44.3546L51.5 39.3639Z" fill="#637381"/>
<path opacity="0.8" d="M59.9536 44.3546V51.2806L68.4175 39.3639L59.9536 44.3546Z" fill="#637381"/>
</g>
<rect x="0.5" y="0.5" width="212" height="74" rx="3.5" stroke="#DFE3E8"/>
<defs>
<clipPath id="clip0_1642_1426">
<rect width="110" height="27.5611" fill="white" transform="translate(51.5 23.7194)"/>
</clipPath>
</defs>
</svg>
