<svg width="218" height="76" viewBox="0 0 218 76" fill="none" xmlns="http://www.w3.org/2000/svg">
<rect x="0.5" y="1.38232" width="217" height="74" rx="3.5" fill="white"/>
<g clip-path="url(#clip0_1508_56)">
<path d="M90.0564 30.8784C88.8856 30.8784 87.7573 31.0255 87.2978 31.1499C86.629 31.338 86.4622 31.6307 86.3363 32.2374L83.6823 44.485C83.6398 44.7352 83.5989 44.9445 83.5989 45.1538C83.5989 45.7605 83.9962 46.1564 84.6438 46.1564C85.3551 46.1564 85.6478 45.6968 85.7933 44.9855L86.5456 41.4955C87.0673 41.5577 87.7573 41.6214 88.7401 41.6214C93.0668 41.6214 95.7618 39.2811 95.7618 35.7486C95.7618 32.6545 93.6083 30.8784 90.0564 30.8784ZM88.6354 39.6148C87.9666 39.6148 87.4434 39.5935 86.9641 39.5313L88.3639 33.0307C88.8022 32.9685 89.4513 32.8835 90.1201 32.8835C92.4193 32.8835 93.5901 33.971 93.5901 35.7683C93.5885 38.0677 91.9158 39.6148 88.6354 39.6148Z" fill="#4388DD"/>
<path d="M158.143 42.1219C157.788 42.1219 157.558 42.3312 157.119 42.812C156.346 43.6068 155.865 44.0451 155.26 44.0451C154.717 44.0451 154.424 43.6068 154.424 42.8954C154.424 42.4981 154.508 42.0173 154.613 41.4955L155.386 37.8584H157.706C158.437 37.8584 158.877 37.4398 158.877 36.6875C158.877 36.2689 158.606 35.9564 157.979 35.9564H155.803L156.179 34.2638C156.222 34.0135 156.263 33.783 156.263 33.5737C156.263 32.9882 155.865 32.5696 155.218 32.5696C154.528 32.5696 154.215 33.0291 154.068 33.7405L153.587 35.9564H152.605C151.852 35.9564 151.414 36.375 151.414 37.1273C151.414 37.546 151.707 37.8584 152.333 37.8584H153.19L152.417 41.453C152.333 41.8504 152.228 42.4981 152.228 43.1669C152.228 44.8596 153.107 46.0927 154.987 46.0927C156.075 46.0927 157.035 45.5497 157.767 44.9006C158.478 44.2741 159 43.5006 159 42.9986C159 42.5193 158.624 42.1219 158.143 42.1219Z" fill="#4388DD"/>
<path d="M110.077 32.1115C110.077 31.5048 109.658 31.1074 109.011 31.1074C108.321 31.1074 108.008 31.567 107.861 32.2783L105.25 44.4212C105.187 44.6715 105.145 44.8808 105.145 45.0901C105.145 45.6968 105.563 46.0927 106.19 46.0927C106.901 46.0927 107.213 45.6331 107.361 44.9218L109.972 32.7804C110.015 32.5286 110.077 32.3208 110.077 32.1115Z" fill="#4388DD"/>
<path d="M147.38 35.7472C144.036 35.7472 141.758 39.0703 141.758 42.2266C141.758 42.2858 141.76 42.3449 141.761 42.4026C141.236 43.1989 140.566 44.024 140.106 44.024C139.773 44.024 139.647 43.71 139.647 43.2292C139.647 42.6437 139.814 41.6609 140.002 40.804L141.737 32.7774C141.779 32.5272 141.82 32.3179 141.82 32.1086C141.82 31.5019 141.423 31.1045 140.775 31.1045C140.064 31.1045 139.773 31.5641 139.626 32.2754L138.685 36.6223C138.183 36.1006 137.451 35.7442 136.344 35.7442C134.124 35.7442 131.89 37.4535 131.019 40.0759C130.061 42.5543 129.204 44.0209 128.527 44.0209C128.277 44.0209 128.13 43.8116 128.13 43.4567C128.13 42.4117 128.715 39.8621 128.966 38.629C129.049 38.1694 129.092 37.9813 129.092 37.7098C129.092 36.7907 127.566 35.7032 125.581 35.7032C123.285 35.7032 121.205 37.1577 120.164 39.3176C118.615 42.0537 117.194 44.0209 116.49 44.0209C116.176 44.0209 116.072 43.6235 115.988 43.2474L115.468 40.3671L118.665 37.7553C118.958 37.5051 119.334 37.1486 119.334 36.6891C119.334 36.1249 118.958 35.7487 118.394 35.7487C117.975 35.7487 117.62 35.999 117.265 36.2917L112.459 40.2625L114.068 32.7805C114.111 32.5302 114.173 32.3209 114.173 32.1116C114.173 31.5049 113.754 31.1075 113.107 31.1075C112.417 31.1075 112.104 31.5671 111.957 32.2784L109.346 44.4213C109.284 44.6716 109.241 44.8809 109.241 45.0902C109.241 45.6969 109.66 46.0928 110.286 46.0928C110.997 46.0928 111.31 45.6332 111.457 44.9219L111.792 43.3551L113.756 41.7671L114.237 44.1908C114.425 45.1524 114.927 46.0928 116.222 46.0928C117.511 46.0928 118.526 44.9158 119.542 43.3247C119.85 44.9916 121.036 46.0928 122.681 46.0928C124.333 46.0928 125.461 45.1099 126.192 43.7934V43.8359C126.192 45.1949 126.882 46.0928 128.094 46.0928C129.19 46.0928 130.1 45.4315 130.913 44.027C131.374 45.251 132.405 46.0928 133.84 46.0928C135.532 46.0928 136.744 45.069 137.518 43.6478V43.7737C137.518 45.2783 138.27 46.0943 139.503 46.0943C140.592 46.0943 141.517 45.4618 142.307 44.4335C142.908 45.4618 143.984 46.0943 145.439 46.0943C148.783 46.0943 151.061 42.7711 151.061 39.5936C151.059 37.3564 149.7 35.7472 147.38 35.7472ZM126.545 39.991C125.939 42.6028 124.643 44.0877 123.18 44.0877C122.197 44.0877 121.654 43.3354 121.654 42.2069C121.654 39.991 123.263 37.6082 125.415 37.6082C126.063 37.6082 126.565 37.7963 127.003 38.0678L126.545 39.991ZM138.185 38.8838C137.516 41.9567 135.991 44.0877 134.319 44.0877C133.4 44.0877 132.856 43.3763 132.856 42.2069C132.856 39.9713 134.403 37.6507 136.471 37.6507C137.266 37.6507 137.871 37.9222 138.311 38.2771L138.185 38.8838ZM145.687 44.0877C144.476 44.0877 143.974 43.2095 143.974 42.1023C143.974 40.0744 145.374 37.7553 147.13 37.7553C148.342 37.7553 148.843 38.6335 148.843 39.7407C148.843 41.7883 147.444 44.0877 145.687 44.0877Z" fill="#4388DD"/>
<path d="M100.965 35.7471C97.6211 35.7471 95.3432 39.0702 95.3432 42.2265C95.3432 44.4834 96.7021 46.0927 99.0209 46.0927C102.365 46.0927 104.643 42.7695 104.643 39.592C104.643 37.3563 103.284 35.7471 100.965 35.7471ZM99.2727 44.0875C98.0609 44.0875 97.559 43.2094 97.559 42.1021C97.559 40.0743 98.9588 37.7552 100.715 37.7552C101.927 37.7552 102.429 38.6334 102.429 39.7406C102.427 41.7882 101.027 44.0875 99.2727 44.0875Z" fill="#4388DD"/>
<path d="M69.0549 32.1737C71.1849 32.1737 72.9115 31.1694 72.9115 29.9305C72.9115 28.6916 71.1849 27.6873 69.0549 27.6873C66.9249 27.6873 65.1982 28.6916 65.1982 29.9305C65.1982 31.1694 66.9249 32.1737 69.0549 32.1737Z" fill="#4388DD"/>
<path d="M69.0549 49.0761C71.1849 49.0761 72.9115 48.0717 72.9115 46.8328C72.9115 45.5939 71.1849 44.5896 69.0549 44.5896C66.9249 44.5896 65.1982 45.5939 65.1982 46.8328C65.1982 48.0717 66.9249 49.0761 69.0549 49.0761Z" fill="#4388DD"/>
<path d="M63.6804 35.2788C64.7454 33.4341 64.7385 31.4361 63.665 30.8163C62.5914 30.1964 60.8578 31.1893 59.7929 33.0341C58.7279 34.8788 58.7348 36.8768 59.8083 37.4966C60.8818 38.1165 62.6154 37.1236 63.6804 35.2788Z" fill="#4388DD"/>
<path d="M78.3153 43.729C79.3803 41.8842 79.3739 39.8866 78.3012 39.2672C77.2284 38.6477 75.4954 39.641 74.4304 41.4857C73.3654 43.3305 73.3717 45.3281 74.4445 45.9475C75.5173 46.567 77.2503 45.5737 78.3153 43.729Z" fill="#4388DD"/>
<path d="M63.6655 45.9472C64.739 45.3273 64.7459 43.3293 63.6809 41.4846C62.616 39.6399 60.8824 38.6469 59.8088 39.2668C58.7353 39.8867 58.7284 41.8846 59.7934 43.7293C60.8584 45.5741 62.592 46.567 63.6655 45.9472Z" fill="#4388DD"/>
<path d="M78.3021 37.4972C79.3749 36.8778 79.3812 34.8802 78.3162 33.0354C77.2512 31.1907 75.5182 30.1974 74.4454 30.8169C73.3726 31.4363 73.3663 33.4339 74.4313 35.2787C75.4963 37.1234 77.2293 38.1167 78.3021 37.4972Z" fill="#4388DD"/>
</g>
<rect x="0.5" y="1.38232" width="217" height="74" rx="3.5" stroke="#4388DD"/>
<defs>
<clipPath id="clip0_1508_56">
<rect width="100" height="21.3904" fill="white" transform="translate(59 27.6873)"/>
</clipPath>
</defs>
</svg>
