<svg width="213" height="75" viewBox="0 0 213 75" fill="none" xmlns="http://www.w3.org/2000/svg">
<rect x="0.5" y="0.5" width="212" height="74" rx="3.5" fill="white"/>
<path d="M106.562 29.8246V45.1755C106.561 45.2334 106.538 45.2888 106.497 45.3297C106.456 45.3707 106.4 45.394 106.342 45.3948H104.746C104.379 45.3951 104.019 45.3034 103.697 45.1282C103.375 44.953 103.102 44.6998 102.904 44.3919L95.6581 33.193L95.9067 38.7866V45.1755C95.9059 45.2334 95.8825 45.2888 95.8416 45.3297C95.8006 45.3707 95.7453 45.394 95.6874 45.3948H93.5762C93.5183 45.394 93.463 45.3707 93.422 45.3297C93.381 45.2888 93.3577 45.2334 93.3569 45.1755V29.8246C93.3577 29.7666 93.381 29.7113 93.422 29.6703C93.463 29.6294 93.5183 29.606 93.5762 29.6053H95.164C95.53 29.6054 95.8902 29.697 96.2118 29.8716C96.5335 30.0463 96.8065 30.2984 97.0061 30.6053L104.252 41.7866L104.027 36.2135V29.8246C104.027 29.7664 104.05 29.7106 104.091 29.6695C104.132 29.6284 104.188 29.6053 104.246 29.6053H106.357C106.412 29.6096 106.464 29.6346 106.502 29.6752C106.54 29.7157 106.561 29.769 106.562 29.8246Z" fill="#919EAB"/>
<path d="M128.138 45.3948H125.904C125.869 45.3945 125.835 45.3858 125.804 45.3696C125.773 45.3533 125.746 45.3299 125.726 45.3013C125.706 45.2727 125.693 45.2397 125.689 45.2051C125.684 45.1705 125.687 45.1353 125.699 45.1024L131.617 29.8158C131.643 29.7518 131.687 29.6972 131.745 29.6595C131.802 29.6218 131.87 29.6029 131.939 29.6053H134.737C134.803 29.6058 134.868 29.6262 134.923 29.6637C134.977 29.7012 135.02 29.7542 135.044 29.8158L140.945 45.1024C140.956 45.1353 140.96 45.1705 140.955 45.2051C140.951 45.2397 140.938 45.2727 140.918 45.3013C140.898 45.3299 140.871 45.3533 140.84 45.3696C140.809 45.3858 140.775 45.3945 140.74 45.3948H138.506C138.461 45.395 138.418 45.3817 138.381 45.3567C138.344 45.3317 138.315 45.296 138.299 45.2545L133.53 32.6813C133.514 32.639 133.486 32.6024 133.449 32.5766C133.412 32.5507 133.368 32.5368 133.323 32.5368C133.278 32.5368 133.234 32.5507 133.198 32.5766C133.161 32.6024 133.133 32.639 133.117 32.6813L128.348 45.2545C128.332 45.2965 128.302 45.3325 128.265 45.3575C128.227 45.3826 128.183 45.3956 128.138 45.3948Z" fill="#919EAB"/>
<path d="M156.453 45.041L152.015 39.3714C154.521 38.8977 155.986 37.2076 155.986 34.614C155.986 31.6345 154.047 29.6053 150.617 29.6053H144.427C144.34 29.6053 144.257 29.6398 144.196 29.7012C144.134 29.7626 144.1 29.8459 144.1 29.9327C144.1 30.2092 144.154 30.483 144.26 30.7384C144.366 30.9938 144.521 31.2259 144.716 31.4214C144.912 31.6169 145.144 31.772 145.399 31.8778C145.655 31.9836 145.928 32.038 146.205 32.038H150.36C152.433 32.038 153.427 33.0994 153.427 34.6316C153.427 36.1638 152.456 37.2632 150.36 37.2632H144.427C144.34 37.264 144.257 37.2991 144.195 37.361C144.134 37.4229 144.1 37.5065 144.1 37.5936V45.196C144.1 45.2541 144.123 45.3099 144.164 45.351C144.205 45.3922 144.261 45.4153 144.319 45.4153H146.43C146.488 45.4145 146.543 45.3912 146.584 45.3502C146.625 45.3092 146.649 45.2539 146.649 45.196V39.5088H149.085L152.936 44.5351C153.142 44.8041 153.408 45.0217 153.712 45.1708C154.017 45.32 154.351 45.3966 154.69 45.3948H156.293C156.333 45.3926 156.371 45.3795 156.404 45.3569C156.437 45.3343 156.464 45.303 156.48 45.2666C156.497 45.2301 156.503 45.1898 156.498 45.1501C156.494 45.1103 156.478 45.0726 156.453 45.041Z" fill="#919EAB"/>
<path d="M121.462 29.6053H111.667C111.589 29.6053 111.515 29.6361 111.46 29.6909C111.405 29.7457 111.375 29.8201 111.375 29.8977C111.375 30.4661 111.6 31.0112 112.002 31.4132C112.404 31.8151 112.949 32.0409 113.518 32.0409H121.462C121.491 32.0413 121.52 32.0359 121.547 32.025C121.573 32.0142 121.598 31.998 121.618 31.9776C121.639 31.9571 121.655 31.9328 121.666 31.906C121.677 31.8792 121.682 31.8505 121.682 31.8216V29.8246C121.682 29.7664 121.658 29.7106 121.617 29.6695C121.576 29.6284 121.52 29.6053 121.462 29.6053ZM121.462 42.9591H114.152C114.094 42.9584 114.039 42.935 113.998 42.894C113.957 42.8531 113.934 42.7977 113.933 42.7398V38.7807C113.933 38.7226 113.956 38.6668 113.997 38.6257C114.038 38.5845 114.094 38.5614 114.152 38.5614H120.91C120.968 38.5614 121.024 38.5383 121.065 38.4972C121.106 38.4561 121.129 38.4003 121.129 38.3421V36.3304C121.129 36.2723 121.106 36.2165 121.065 36.1754C121.024 36.1342 120.968 36.1111 120.91 36.1111H111.702C111.615 36.1119 111.532 36.1471 111.47 36.2089C111.409 36.2708 111.375 36.3544 111.375 36.4415V45.0556C111.375 45.1425 111.409 45.2258 111.47 45.2872C111.532 45.3486 111.615 45.3831 111.702 45.3831H121.462C121.52 45.3831 121.576 45.36 121.617 45.3189C121.658 45.2777 121.682 45.222 121.682 45.1638V43.1667C121.679 43.1104 121.655 43.0571 121.614 43.0183C121.573 42.9796 121.519 42.9583 121.462 42.9591Z" fill="#919EAB"/>
<path d="M77.6229 25.6783L72.12 33.845C72.0308 33.9629 71.9895 34.1102 72.0046 34.2572C72.0196 34.4042 72.0897 34.5402 72.2008 34.6376C72.312 34.735 72.4559 34.7868 72.6036 34.7824C72.7514 34.778 72.892 34.7179 72.9971 34.614L78.4124 29.9357C78.4436 29.907 78.4825 29.8882 78.5244 29.8815C78.5662 29.8748 78.6091 29.8805 78.6477 29.8979C78.6863 29.9154 78.7189 29.9438 78.7415 29.9796C78.7642 30.0154 78.7758 30.057 78.775 30.0994V44.8041C78.7745 44.8488 78.7605 44.8922 78.7347 44.9287C78.7089 44.9651 78.6726 44.9928 78.6306 45.0081C78.5886 45.0233 78.543 45.0254 78.4999 45.0141C78.4567 45.0027 78.418 44.9784 78.389 44.9445L62.0146 25.3538C61.7532 25.0393 61.4262 24.7857 61.0565 24.611C60.6867 24.4362 60.2832 24.3444 59.8743 24.3421H59.3041C58.5604 24.3421 57.8472 24.6375 57.3213 25.1634C56.7954 25.6892 56.5 26.4025 56.5 27.1462V47.8539C56.5 48.5976 56.7954 49.3108 57.3213 49.8367C57.8472 50.3625 58.5604 50.658 59.3041 50.658C59.7833 50.6579 60.2545 50.5351 60.6727 50.3011C61.0909 50.0672 61.4422 49.73 61.693 49.3217L67.196 41.155C67.2851 41.0371 67.3264 40.8899 67.3113 40.7428C67.2963 40.5958 67.2262 40.4599 67.1151 40.3624C67.0039 40.265 66.86 40.2133 66.7123 40.2176C66.5645 40.222 66.4239 40.2822 66.3188 40.386L60.9035 45.0644C60.8723 45.093 60.8334 45.1118 60.7915 45.1186C60.7497 45.1253 60.7068 45.1195 60.6682 45.1021C60.6296 45.0847 60.597 45.0563 60.5744 45.0205C60.5517 44.9847 60.5401 44.943 60.541 44.9006V30.2105C60.5414 30.1659 60.5555 30.1224 60.5812 30.086C60.607 30.0495 60.6433 30.0218 60.6853 30.0066C60.7273 29.9913 60.7729 29.9892 60.816 30.0006C60.8592 30.012 60.8979 30.0362 60.9269 30.0702L77.3013 49.6609C77.5647 49.9726 77.8929 50.223 78.2631 50.3947C78.6333 50.5664 79.0365 50.6553 79.4445 50.655H80.0293C80.3976 50.655 80.7622 50.5825 81.1024 50.4416C81.4426 50.3007 81.7518 50.0941 82.0121 49.8337C82.2725 49.5734 82.4791 49.2642 82.62 48.924C82.7609 48.5838 82.8334 48.2192 82.8334 47.8509V27.1462C82.8335 26.7764 82.7603 26.4104 82.6183 26.069C82.4763 25.7277 82.2682 25.4178 82.006 25.1571C81.7437 24.8965 81.4325 24.6903 81.0903 24.5505C80.748 24.4106 80.3815 24.3398 80.0118 24.3421C79.5326 24.3421 79.0614 24.465 78.6432 24.6989C78.225 24.9328 77.8737 25.27 77.6229 25.6783Z" fill="#919EAB"/>
<rect x="0.5" y="0.5" width="212" height="74" rx="3.5" stroke="#DFE3E8"/>
</svg>
