<svg width="213" height="75" viewBox="0 0 213 75" fill="none" xmlns="http://www.w3.org/2000/svg">
<rect x="0.5" y="0.5" width="212" height="74" rx="3.5" fill="white"/>
<path d="M106.562 29.8245V45.1755C106.561 45.2334 106.537 45.2887 106.496 45.3297C106.456 45.3707 106.4 45.394 106.342 45.3948H104.746C104.379 45.3951 104.019 45.3034 103.697 45.1282C103.375 44.9529 103.102 44.6998 102.904 44.3918L95.658 33.193L95.9065 38.7866V45.1755C95.9058 45.2334 95.8824 45.2887 95.8415 45.3297C95.8005 45.3707 95.7452 45.394 95.6872 45.3948H93.5761C93.5182 45.394 93.4628 45.3707 93.4219 45.3297C93.3809 45.2887 93.3576 45.2334 93.3568 45.1755V29.8245C93.3576 29.7666 93.3809 29.7113 93.4219 29.6703C93.4628 29.6293 93.5182 29.606 93.5761 29.6052H95.1638C95.5299 29.6054 95.89 29.697 96.2117 29.8716C96.5334 30.0462 96.8064 30.2984 97.0059 30.6052L104.252 41.7866L104.026 36.2134V29.8245C104.026 29.7664 104.05 29.7106 104.091 29.6695C104.132 29.6283 104.188 29.6052 104.246 29.6052H106.357C106.412 29.6096 106.464 29.6345 106.502 29.6751C106.54 29.7157 106.561 29.769 106.562 29.8245Z" fill="#4388DD"/>
<path d="M128.138 45.3947H125.904C125.869 45.3944 125.835 45.3857 125.804 45.3695C125.773 45.3532 125.746 45.3298 125.726 45.3012C125.706 45.2726 125.693 45.2396 125.689 45.205C125.684 45.1705 125.687 45.1352 125.699 45.1023L131.617 29.8157C131.643 29.7517 131.687 29.6971 131.745 29.6594C131.802 29.6217 131.87 29.6028 131.939 29.6052H134.737C134.803 29.6058 134.868 29.6261 134.923 29.6636C134.977 29.7011 135.02 29.7541 135.044 29.8157L140.945 45.1023C140.956 45.1352 140.96 45.1705 140.955 45.205C140.951 45.2396 140.938 45.2726 140.918 45.3012C140.898 45.3298 140.871 45.3532 140.84 45.3695C140.809 45.3857 140.775 45.3944 140.74 45.3947H138.506C138.461 45.3949 138.418 45.3816 138.381 45.3566C138.344 45.3316 138.315 45.2959 138.299 45.2544L133.53 32.6812C133.514 32.6389 133.486 32.6023 133.449 32.5765C133.412 32.5506 133.368 32.5367 133.323 32.5367C133.278 32.5367 133.234 32.5506 133.198 32.5765C133.161 32.6023 133.133 32.6389 133.117 32.6812L128.348 45.2544C128.332 45.2964 128.302 45.3324 128.265 45.3574C128.227 45.3825 128.183 45.3955 128.138 45.3947Z" fill="#4388DD"/>
<path d="M156.454 45.041L152.015 39.3713C154.521 38.8977 155.986 37.2076 155.986 34.614C155.986 31.6345 154.047 29.6052 150.617 29.6052H144.427C144.34 29.6052 144.257 29.6397 144.196 29.7011C144.134 29.7626 144.1 29.8459 144.1 29.9327C144.1 30.2092 144.154 30.4829 144.26 30.7384C144.366 30.9938 144.521 31.2259 144.716 31.4214C144.912 31.6169 145.144 31.7719 145.399 31.8777C145.655 31.9835 145.929 32.038 146.205 32.038H150.36C152.433 32.038 153.427 33.0994 153.427 34.6316C153.427 36.1637 152.457 37.2632 150.36 37.2632H144.427C144.34 37.2639 144.257 37.2991 144.196 37.361C144.134 37.4228 144.1 37.5064 144.1 37.5936V45.1959C144.1 45.2541 144.123 45.3099 144.164 45.351C144.205 45.3921 144.261 45.4152 144.319 45.4152H146.43C146.488 45.4145 146.544 45.3911 146.585 45.3502C146.625 45.3092 146.649 45.2539 146.65 45.1959V39.5088H149.085L152.936 44.5351C153.142 44.8041 153.408 45.0217 153.712 45.1708C154.017 45.3199 154.352 45.3966 154.691 45.3948H156.293C156.333 45.3926 156.371 45.3794 156.405 45.3568C156.438 45.3342 156.464 45.303 156.48 45.2666C156.497 45.2301 156.503 45.1898 156.499 45.15C156.494 45.1103 156.478 45.0725 156.454 45.041Z" fill="#4388DD"/>
<path d="M121.462 29.6052H111.667C111.589 29.6052 111.515 29.636 111.46 29.6909C111.405 29.7457 111.375 29.8201 111.375 29.8976C111.375 30.4661 111.6 31.0112 112.002 31.4132C112.404 31.8151 112.949 32.0409 113.518 32.0409H121.462C121.491 32.0413 121.52 32.0359 121.547 32.025C121.574 32.0141 121.598 31.998 121.618 31.9776C121.639 31.9571 121.655 31.9328 121.666 31.906C121.677 31.8792 121.682 31.8505 121.682 31.8216V29.8245C121.682 29.7664 121.659 29.7106 121.617 29.6695C121.576 29.6283 121.521 29.6052 121.462 29.6052ZM121.462 42.9591H114.152C114.094 42.9583 114.039 42.935 113.998 42.894C113.957 42.8531 113.934 42.7977 113.933 42.7398V38.7807C113.933 38.7225 113.956 38.6668 113.997 38.6256C114.038 38.5845 114.094 38.5614 114.152 38.5614H120.91C120.968 38.5614 121.024 38.5383 121.065 38.4972C121.106 38.456 121.129 38.4003 121.129 38.3421V36.3304C121.129 36.2722 121.106 36.2165 121.065 36.1753C121.024 36.1342 120.968 36.1111 120.91 36.1111H111.702C111.615 36.1119 111.532 36.147 111.47 36.2089C111.409 36.2708 111.375 36.3544 111.375 36.4415V45.0556C111.375 45.1424 111.409 45.2257 111.471 45.2872C111.532 45.3486 111.615 45.3831 111.702 45.3831H121.462C121.521 45.3831 121.576 45.36 121.617 45.3188C121.659 45.2777 121.682 45.2219 121.682 45.1638V43.1667C121.679 43.1103 121.655 43.0571 121.614 43.0183C121.573 42.9795 121.519 42.9583 121.462 42.9591Z" fill="#4388DD"/>
<path d="M77.6229 25.6784L72.12 33.8451C72.0308 33.9629 71.9895 34.1102 72.0046 34.2572C72.0196 34.4043 72.0897 34.5402 72.2008 34.6376C72.312 34.735 72.4559 34.7868 72.6036 34.7824C72.7514 34.778 72.892 34.7179 72.9971 34.6141L78.4124 29.9357C78.4436 29.9071 78.4825 29.8882 78.5244 29.8815C78.5662 29.8748 78.6091 29.8805 78.6477 29.898C78.6863 29.9154 78.7189 29.9438 78.7415 29.9796C78.7642 30.0154 78.7758 30.0571 78.775 30.0994V44.8042C78.7745 44.8488 78.7605 44.8923 78.7347 44.9287C78.7089 44.9651 78.6726 44.9928 78.6306 45.0081C78.5886 45.0234 78.543 45.0255 78.4999 45.0141C78.4567 45.0027 78.418 44.9785 78.389 44.9445L62.0146 25.3538C61.7532 25.0393 61.4262 24.7858 61.0565 24.611C60.6867 24.4362 60.2832 24.3444 59.8743 24.3421H59.3041C58.5604 24.3421 57.8472 24.6375 57.3213 25.1634C56.7954 25.6893 56.5 26.4025 56.5 27.1462V47.8539C56.5 48.5976 56.7954 49.3108 57.3213 49.8367C57.8472 50.3626 58.5604 50.658 59.3041 50.658C59.7833 50.6579 60.2545 50.5351 60.6727 50.3012C61.0909 50.0672 61.4422 49.73 61.693 49.3217L67.196 41.155C67.2851 41.0372 67.3264 40.8899 67.3113 40.7429C67.2963 40.5958 67.2262 40.4599 67.1151 40.3625C67.0039 40.265 66.86 40.2133 66.7123 40.2177C66.5645 40.222 66.4239 40.2822 66.3188 40.386L60.9035 45.0644C60.8723 45.093 60.8334 45.1119 60.7915 45.1186C60.7497 45.1253 60.7068 45.1196 60.6682 45.1021C60.6296 45.0847 60.597 45.0563 60.5744 45.0205C60.5517 44.9847 60.5401 44.943 60.541 44.9007V30.2105C60.5414 30.1659 60.5555 30.1225 60.5812 30.086C60.607 30.0496 60.6433 30.0219 60.6853 30.0066C60.7273 29.9914 60.7729 29.9893 60.816 30.0006C60.8592 30.012 60.8979 30.0363 60.9269 30.0702L77.3013 49.6609C77.5647 49.9726 77.8929 50.223 78.2631 50.3947C78.6333 50.5665 79.0365 50.6553 79.4445 50.6551H80.0293C80.3976 50.6551 80.7622 50.5825 81.1024 50.4416C81.4426 50.3007 81.7518 50.0942 82.0121 49.8338C82.2725 49.5734 82.4791 49.2643 82.62 48.9241C82.7609 48.5838 82.8334 48.2192 82.8334 47.851V27.1462C82.8335 26.7765 82.7603 26.4104 82.6183 26.069C82.4763 25.7277 82.2682 25.4178 82.006 25.1572C81.7437 24.8966 81.4325 24.6904 81.0903 24.5505C80.748 24.4106 80.3815 24.3398 80.0118 24.3421C79.5326 24.3422 79.0614 24.465 78.6432 24.6989C78.225 24.9329 77.8737 25.2701 77.6229 25.6784Z" fill="#4388DD"/>
<rect x="0.5" y="0.5" width="212" height="74" rx="3.5" stroke="#4388DD"/>
</svg>
