<svg width="213" height="75" viewBox="0 0 213 75" fill="none" xmlns="http://www.w3.org/2000/svg">
<g clip-path="url(#clip0_1642_1458)">
<rect width="213" height="75" rx="4" fill="white"/>
<path d="M85.3721 27.7058H89.7758C90.8948 27.7058 91.713 28.0066 92.2424 28.524C92.7598 28.9692 92.9884 29.5708 92.9884 30.1604C92.9884 30.389 92.9884 30.6778 92.9162 30.9064C92.7718 31.2794 92.5432 31.6524 92.2424 31.9532C92.098 32.0975 91.9416 32.1818 91.7972 32.254C92.3146 32.3983 92.7718 32.6991 93.1448 33.0721C93.4456 33.4451 93.59 33.8903 93.59 34.5641C93.59 34.9371 93.5178 35.3823 93.3614 35.6831C93.217 35.9839 92.9162 36.2847 92.6154 36.5013C92.2424 36.7299 91.8694 36.8743 91.4964 37.0187C91.0512 37.163 90.5218 37.163 90.0044 37.163H85.4443V27.6818H85.3721V27.7058ZM89.4028 31.5802C89.7758 31.5802 90.1488 31.508 90.5218 31.3515C90.8226 31.2072 90.967 30.9064 90.967 30.6056C90.967 30.3048 90.8226 30.004 90.594 29.8596C90.2932 29.631 89.9202 29.5588 89.5472 29.631H87.4536V31.6403H89.3908V31.5802H89.4028ZM89.9202 35.3943C90.2932 35.3943 90.6662 35.3221 91.0392 35.1657C91.34 35.0213 91.4844 34.7205 91.4122 34.3475C91.4122 34.0467 91.2678 33.7459 91.0392 33.6016C90.8106 33.4572 90.3654 33.3007 89.848 33.3007H87.3814V35.3943H89.9202Z" fill="#919EAB"/>
<path d="M96.1885 27.7059H98.2821V37.2593H96.1885V27.7059Z" fill="#919EAB"/>
<path d="M101.495 27.7059H103.432L107.908 33.6016V27.7059H109.99V37.2593H108.209L103.504 31.2072V37.2593H101.495V27.7059Z" fill="#919EAB"/>
<path d="M116.343 27.6337H118.28L122.383 37.2593H120.217L119.327 35.0936H115.296L114.406 37.2593H112.24L116.343 27.6337ZM118.581 33.3008L117.317 30.1724L116.054 33.3008H118.581Z" fill="#919EAB"/>
<path d="M124.621 27.7059H126.558L131.034 33.6016V27.7059H133.127V37.2593H131.335L126.702 31.2072V37.2593H124.621V27.7059Z" fill="#919EAB"/>
<path d="M140.732 37.4037C140.058 37.4037 139.384 37.2593 138.795 37.0307C137.603 36.5133 136.701 35.6109 136.184 34.4198C135.955 33.8181 135.811 33.1564 135.811 32.4826C135.811 31.2192 136.328 29.9438 137.23 28.9813C137.676 28.5361 138.205 28.1631 138.795 27.9345C139.468 27.6337 140.142 27.5615 140.804 27.5615C141.177 27.5615 141.622 27.5615 141.995 27.6337C142.368 27.7058 142.669 27.778 142.97 27.9345C143.27 28.0788 143.571 28.2353 143.788 28.3796C144.016 28.524 144.305 28.7526 144.534 28.9813L143.27 30.5454C142.897 30.2446 142.524 29.9438 142.151 29.7272C141.778 29.5107 141.333 29.4264 140.888 29.4264C140.515 29.4264 140.142 29.4986 139.769 29.655C139.396 29.7994 139.095 30.028 138.879 30.3288C138.662 30.6296 138.434 30.9304 138.277 31.3034C138.133 31.6764 138.049 32.0494 138.049 32.4224C138.049 32.7954 138.121 33.2406 138.277 33.6136C138.434 33.9866 138.578 34.2874 138.879 34.5882C139.396 35.1898 140.142 35.4786 140.888 35.4786C141.333 35.4786 141.863 35.4064 142.308 35.1778C142.681 34.9492 143.126 34.6604 143.427 34.3596L144.762 35.6952C144.534 35.9238 144.245 36.2125 144.016 36.4411C143.716 36.6698 143.415 36.8141 143.126 36.9585C142.825 37.1029 142.452 37.2593 142.079 37.3315C141.55 37.4037 141.105 37.4037 140.732 37.4037Z" fill="#919EAB"/>
<path d="M147.157 27.7059H154.316V29.5708H149.166V31.508H153.714V33.373H149.166V35.3944H154.388V37.2593H147.157V27.7059Z" fill="#919EAB"/>
<path d="M88.0549 46.6564C87.5375 46.6564 87.0081 46.5842 86.5629 46.3556C86.1177 46.2112 85.6726 45.9104 85.2153 45.5374L85.9613 44.7192C86.2621 45.02 86.5629 45.1644 86.9359 45.393C87.3089 45.5374 87.6819 45.6216 88.0549 45.6216C88.3557 45.6216 88.6565 45.5494 88.9453 45.393C89.1739 45.2486 89.2461 45.02 89.2461 44.7914C89.2461 44.7192 89.2461 44.5628 89.1739 44.4906C89.1017 44.4184 89.0295 44.262 88.9453 44.1898C88.8009 44.1176 88.6445 44.0454 88.5001 43.9612C88.2715 43.889 87.9827 43.8168 87.7541 43.7326C87.4533 43.6604 87.0803 43.5882 86.7795 43.4318C86.5509 43.3596 86.2621 43.2032 86.1057 43.0588C85.9613 42.9144 85.8049 42.758 85.6605 42.5414C85.5161 42.2406 85.5161 41.9398 85.5161 41.7232C85.5161 41.4224 85.5883 41.2059 85.6605 40.9051C85.7327 40.6764 85.9613 40.4599 86.1057 40.3034C86.3343 40.1591 86.5509 40.0027 86.8517 39.9305C87.1525 39.8583 87.4533 39.7861 87.7421 39.7861C88.1873 39.7861 88.6324 39.8583 89.0897 40.0147C89.4627 40.1591 89.8357 40.3877 90.2086 40.6163L89.607 41.5067C89.3062 41.278 89.0054 41.1337 88.7167 40.9893C88.4159 40.8449 88.1151 40.8449 87.8263 40.8449C87.5255 40.8449 87.2247 40.9171 87.0081 41.0735C86.8637 41.2179 86.7073 41.4465 86.7073 41.6751C86.7073 41.8195 86.7073 41.9037 86.7795 42.0481C86.8517 42.1203 86.9239 42.2767 87.0081 42.3489C87.1525 42.4211 87.3089 42.4933 87.5255 42.5775C87.7541 42.6497 87.9707 42.7219 88.3437 42.8061C88.6445 42.8783 88.9453 42.9505 89.3183 43.1069C89.5469 43.1791 89.7635 43.3355 89.9921 43.4799C90.1365 43.6243 90.2929 43.8529 90.3651 43.9973C90.4373 44.2259 90.5094 44.4425 90.5094 44.7433C90.5094 45.0441 90.4373 45.3449 90.3651 45.5615C90.2207 45.7901 90.0643 46.0067 89.8477 46.2353C89.6191 46.3797 89.4025 46.5361 89.1017 46.6083C88.7287 46.5842 88.3557 46.6564 88.0549 46.6564Z" fill="#919EAB"/>
<path d="M91.7852 39.8703H93.0606L95.0699 42.9986L97.1635 39.8703H98.4269V46.5842H97.2357V41.7353L95.1421 44.8636H95.0699L92.9884 41.7353V46.5842H91.7852V39.8703Z" fill="#919EAB"/>
<path d="M102.457 39.7981H103.576L106.488 46.512H105.225L104.551 44.8756H101.423L100.749 46.512H99.5576L102.457 39.7981ZM104.178 43.901L102.987 41.2179L101.868 43.901H104.178Z" fill="#919EAB"/>
<path d="M107.679 39.8703H110.663C111.036 39.8703 111.409 39.9425 111.782 40.0147C112.083 40.0869 112.384 40.3155 112.6 40.5321C112.745 40.6765 112.901 40.9051 113.045 41.2059C113.118 41.4345 113.19 41.7232 113.19 42.024C113.19 42.2527 113.118 42.5414 113.045 42.77C112.973 42.9986 112.817 43.143 112.745 43.3716C112.6 43.516 112.444 43.6724 112.227 43.8168C111.999 43.9612 111.782 44.0454 111.553 44.1176L113.346 46.6564H111.926L110.29 44.3462H108.798V46.6564H107.607L107.679 39.8703ZM110.591 43.1551C110.964 43.1551 111.337 43.0829 111.565 42.8543C111.794 42.6256 111.938 42.3369 111.938 42.0361C111.938 41.7353 111.794 41.4345 111.565 41.2179C111.265 40.9893 110.892 40.9171 110.519 40.9171H108.798V43.1551H110.591Z" fill="#919EAB"/>
<path d="M116.258 40.9171H114.092V39.8703H119.543V40.9171H117.377V46.5842H116.186L116.258 40.9171Z" fill="#919EAB"/>
<path d="M126.786 46.6564C126.341 46.6564 125.896 46.5842 125.439 46.3556C124.62 45.9826 123.947 45.381 123.646 44.5628C123.501 44.1176 123.345 43.6724 123.417 43.2152C123.417 42.77 123.489 42.3248 123.646 41.8676C123.947 41.0494 124.62 40.3756 125.439 40.0026C125.884 39.8583 126.329 39.7018 126.858 39.7018C127.159 39.7018 127.46 39.7018 127.676 39.774C127.905 39.8462 128.122 39.9184 128.35 40.0026C128.579 40.0748 128.723 40.2313 128.952 40.3034C129.096 40.4478 129.325 40.6043 129.469 40.7486L128.723 41.639C128.495 41.4104 128.206 41.1938 127.905 41.0374C127.604 40.893 127.231 40.8088 126.858 40.8088C126.557 40.8088 126.257 40.881 125.968 40.9532C125.667 41.0976 125.451 41.254 125.222 41.4706C124.993 41.6992 124.849 41.9157 124.777 42.2166C124.705 42.5174 124.632 42.8182 124.632 43.1069C124.632 43.4077 124.705 43.7085 124.777 43.9973C124.849 44.2861 125.005 44.5147 125.222 44.7433C125.451 44.9719 125.667 45.1163 125.968 45.2607C126.269 45.4051 126.57 45.4893 126.858 45.4051C127.231 45.4051 127.604 45.3329 127.905 45.1764C128.206 45.0321 128.507 44.8035 128.795 44.5026L129.541 45.2486C129.397 45.393 129.168 45.6216 129.024 45.766C128.795 45.9104 128.651 46.0668 128.422 46.139C128.194 46.2112 127.977 46.3676 127.676 46.3676C127.376 46.6564 127.075 46.6564 126.786 46.6564Z" fill="#919EAB"/>
<path d="M130.733 39.8703H131.852V42.6256H135.064V39.8703H136.256V46.5842H135.064V43.7446H131.852V46.5842H130.733V39.8703Z" fill="#919EAB"/>
<path d="M140.359 39.7981H141.478L144.389 46.512H143.126L142.452 44.8756H139.324L138.65 46.512H137.459L140.359 39.7981ZM142.007 43.901L140.888 41.2179L139.769 43.901H142.007Z" fill="#919EAB"/>
<path d="M145.581 39.8703H146.784V46.5842H145.581V39.8703Z" fill="#919EAB"/>
<path d="M148.564 39.8703H149.611L153.197 44.4906V39.8703H154.388V46.5842H153.413L149.768 41.8075V46.5842H148.564V39.8703Z" fill="#919EAB"/>
<path d="M72.2449 46.139V49.0508L69.7061 50.5428L67.2395 49.0508V46.139L69.7061 47.631L72.2449 46.139ZM58.6606 36.0682L61.1272 37.5601V42.5534L65.3745 45.0922V48.004L58.6606 44.0454V36.0682ZM80.7516 36.0682V44.0575L73.9655 48.016V45.1043L78.2128 42.5655V37.5722L80.7516 36.0682ZM73.9534 32.1096L76.4922 33.6016V36.5133L72.2449 39.0521V44.1176L69.7783 45.6096L67.3237 44.1176V39.0401L62.92 36.5013V33.5895L65.4588 32.0976L69.7061 34.6363L73.9534 32.1096ZM62.92 38.5949L65.3866 40.0869V42.9986L62.92 41.5067V38.5949ZM76.4922 38.5949V41.5067L74.0256 42.9986V40.0869L76.4922 38.5949ZM61.1272 29.5708L63.666 31.0628L61.1272 32.5548V35.4666L58.6606 33.9746V31.0628L61.1272 29.5708ZM78.285 29.5708L80.8237 31.0628V33.9746L78.285 35.4666V32.5548L75.8184 31.0628L78.285 29.5708ZM69.7061 29.5708L72.2449 31.0628L69.7061 32.5548L67.2395 31.0628L69.7061 29.5708ZM69.7061 24.5775L76.4922 28.5361L74.0256 30.028L69.7783 27.4893L65.4467 30.028L62.9802 28.5361L69.7061 24.5775Z" fill="#919EAB"/>
</g>
<rect x="0.5" y="0.5" width="212" height="74" rx="3.5" stroke="#DFE3E8"/>
<defs>
<clipPath id="clip0_1642_1458">
<rect width="213" height="75" rx="4" fill="white"/>
</clipPath>
</defs>
</svg>
