<svg width="189" height="75" viewBox="0 0 189 75" fill="none" xmlns="http://www.w3.org/2000/svg">
<rect x="0.5" y="0.5" width="188" height="74" rx="3.5" fill="white"/>
<g clip-path="url(#clip0_1901_1713)">
<path d="M76.4159 36.4138C75.8159 27.6098 68.1919 20.9578 59.3879 21.5578C55.0039 21.8578 51.1519 23.8978 48.4639 26.9578L48.4559 26.9538C48.4359 26.9778 48.4199 27.0018 48.4039 27.0258C45.7359 30.1058 44.2319 34.1978 44.5319 38.5858C44.5599 39.0058 44.6079 39.4138 44.6679 39.8218C44.6679 39.8418 44.6719 39.8578 44.6759 39.8778C44.7159 40.1458 44.7639 40.4138 44.8159 40.6778C44.8639 40.9218 44.9199 41.1618 44.9799 41.4018C46.8279 48.7618 53.7199 53.9738 61.5599 53.4418C70.3639 52.8418 77.0159 45.2218 76.4159 36.4138ZM72.9359 36.6538C73.0119 37.7378 72.9399 38.7978 72.7479 39.8218C72.7479 39.8178 72.7439 39.8098 72.7439 39.8058C71.5839 36.9738 69.2919 34.9298 67.2799 33.8018C67.6879 29.0058 66.0599 26.9818 64.2159 26.6538C62.7679 26.3818 61.3759 27.3338 61.1039 28.7818C61.0959 28.8338 61.0879 28.8858 61.0799 28.9378C60.8919 30.3978 61.9239 31.7338 63.3839 31.9218H63.3879C63.5159 31.9378 63.6439 31.9418 63.7639 31.9418C63.7719 32.1138 63.7759 32.2858 63.7759 32.4578C62.0719 32.0378 60.4799 31.9498 59.0279 32.0818C58.4799 32.1178 57.9399 32.1858 57.3999 32.2858C57.5799 30.6658 58.1919 28.8458 59.3679 27.5178C60.5079 26.2298 62.2039 25.4938 64.0519 25.6818C64.4039 25.7178 64.7759 25.8058 65.1119 25.9178C65.1279 25.9218 65.1439 25.9298 65.1599 25.9298C69.4479 27.6738 72.5999 31.7378 72.9359 36.6538ZM61.7959 39.0938C61.7959 39.0938 61.7959 39.0978 61.7919 39.0978C61.3879 39.6778 60.9319 40.2178 60.4239 40.7138C59.6599 39.9058 59.0119 38.9938 58.4999 38.0018C58.4759 37.9498 58.4479 37.9018 58.4239 37.8498V37.8458C58.1239 37.2058 57.8839 36.5378 57.7079 35.8538C58.8439 35.5858 59.9559 35.4858 61.0199 35.5378L61.1879 35.5458H61.1919C61.8599 35.6018 62.5559 35.7218 63.2719 35.9218C62.9439 37.0458 62.4439 38.1138 61.7959 39.0938ZM56.3399 25.7098L56.3319 25.7218C54.4559 28.1418 53.8319 31.1458 53.8599 33.4538C49.4999 35.4978 48.5639 37.9178 49.1999 39.6818C49.2159 39.7298 49.2359 39.7778 49.2559 39.8258C49.8239 41.1858 51.3879 41.8258 52.7479 41.2578C54.1079 40.6898 54.7479 39.1258 54.1799 37.7658C54.1319 37.6498 54.0719 37.5378 54.0079 37.4298C54.1439 37.3378 54.2919 37.2498 54.4519 37.1578C54.9399 38.8458 55.6559 40.2698 56.4959 41.4618C56.7999 41.9138 57.1279 42.3458 57.4839 42.7658C55.9919 43.4178 54.1079 43.8018 52.3679 43.4458C50.6839 43.1018 49.1999 42.0018 48.4359 40.3058C48.2879 39.9738 48.1799 39.6258 48.1079 39.2698C48.0639 38.9658 48.0279 38.6578 48.0079 38.3498C47.6199 32.6218 51.1679 27.5258 56.3399 25.7098ZM61.3199 49.9618C57.9199 50.1938 54.7439 49.0338 52.3399 46.9738C55.3719 47.3858 58.2839 46.4258 60.2719 45.2458C64.2239 47.9978 66.7879 47.6018 67.9959 46.1698C68.9559 45.0498 68.8279 43.3658 67.7079 42.4058C67.6679 42.3698 67.6279 42.3378 67.5839 42.3058C66.4119 41.4138 64.7359 41.6378 63.8439 42.8098C63.7679 42.9098 63.6999 43.0218 63.6399 43.1298C63.4959 43.0538 63.3399 42.9738 63.1879 42.8818C64.2999 41.7338 65.2119 40.4058 65.8879 38.9538C66.1279 38.4618 66.3399 37.9578 66.5239 37.4418C67.8359 38.4098 69.1119 39.8458 69.6759 41.5338C70.2199 43.1618 70.0119 45.0018 68.9239 46.5098C68.7079 46.8018 68.4639 47.0698 68.1919 47.3098L68.1799 47.3218C66.2119 48.8738 63.8199 49.7898 61.3199 49.9618Z" fill="#919EAB"/>
<path opacity="0.9" d="M64.2158 26.646C63.9158 26.59 63.6078 26.586 63.3078 26.634C64.8358 27.466 65.9518 29.782 65.3638 34.354C65.1718 35.842 64.7318 37.286 64.0718 38.63C63.4998 39.858 62.7558 40.998 61.8638 42.014C62.2878 42.334 62.7318 42.622 63.1918 42.886C64.3038 41.738 65.2198 40.41 65.8918 38.958C66.5558 37.614 66.9918 36.17 67.1838 34.682C67.8798 29.246 66.1678 26.998 64.2158 26.646Z" fill="#919EAB"/>
<path opacity="0.8" d="M65.3637 34.354C65.9477 29.782 64.8357 27.466 63.3077 26.634C63.2477 26.642 63.1917 26.654 63.1317 26.67C64.6277 27.53 65.7037 29.846 65.1277 34.354C64.9357 35.842 64.4957 37.286 63.8357 38.63C63.2837 39.814 62.5757 40.918 61.7197 41.906C61.7677 41.946 61.8157 41.982 61.8637 42.014C62.7557 40.994 63.4997 39.854 64.0717 38.63C64.7317 37.286 65.1717 35.842 65.3637 34.354Z" fill="#919EAB"/>
<path opacity="0.5" d="M59.552 44.722C59.408 44.614 59.272 44.498 59.132 44.382C56.876 45.322 53.748 45.914 50.644 45.19C51.148 45.838 51.72 46.434 52.344 46.97C55.376 47.382 58.288 46.422 60.276 45.242C60.028 45.074 59.788 44.898 59.552 44.722Z" fill="#919EAB"/>
<path opacity="0.6" d="M59.132 44.382C59.064 44.326 58.992 44.266 58.928 44.21C56.656 45.118 53.512 45.662 50.416 44.89C50.492 44.99 50.568 45.094 50.644 45.194C53.748 45.914 56.876 45.322 59.132 44.382Z" fill="#919EAB"/>
<path opacity="0.9" d="M49.2041 39.682C49.2201 39.73 49.2401 39.778 49.2601 39.826C49.3601 40.066 49.4921 40.282 49.6521 40.478C49.6081 38.738 51.0561 36.614 55.3081 34.834C56.6921 34.258 58.1641 33.914 59.6601 33.818C61.0081 33.698 62.3681 33.77 63.6961 34.038C63.7641 33.462 63.7921 32.926 63.7881 32.454C62.2361 32.062 60.6321 31.938 59.0361 32.078C57.5401 32.178 56.0681 32.518 54.6841 33.094C49.6201 35.214 48.5281 37.818 49.2041 39.682Z" fill="#919EAB"/>
<path opacity="0.8" d="M55.3039 34.838C51.0559 36.614 49.6039 38.742 49.6479 40.478C49.6879 40.526 49.7279 40.57 49.7679 40.614C49.7639 38.89 51.2319 36.798 55.4239 35.042C56.8079 34.466 58.2799 34.122 59.7759 34.026C61.0759 33.91 62.3879 33.974 63.6719 34.218C63.6799 34.158 63.6879 34.098 63.6919 34.038C62.3639 33.774 61.0039 33.702 59.6559 33.818C58.1599 33.918 56.6879 34.258 55.3039 34.838Z" fill="#919EAB"/>
<path opacity="0.4" d="M67.188 34.686C67.168 34.866 67.136 35.042 67.104 35.218C69.044 36.702 71.12 39.114 72.052 42.166C72.36 41.402 72.592 40.61 72.744 39.802C71.588 36.97 69.296 34.93 67.284 33.798C67.26 34.086 67.228 34.378 67.188 34.686Z" fill="#919EAB"/>
<path opacity="0.5" d="M67.1042 35.218C67.0882 35.306 67.0722 35.394 67.0562 35.482C68.9802 36.998 71.0202 39.446 71.9002 42.514C71.9522 42.398 72.0002 42.278 72.0482 42.162C71.1202 39.114 69.0482 36.702 67.1042 35.218Z" fill="#919EAB"/>
<path opacity="0.9" d="M67.9998 46.166C68.1958 45.934 68.3558 45.67 68.4638 45.386C66.9798 46.294 64.4158 46.098 60.7478 43.306C59.5558 42.394 58.5238 41.294 57.6918 40.046C56.9118 38.938 56.2958 37.726 55.8638 36.442C55.3318 36.67 54.8558 36.914 54.4438 37.154C54.8838 38.694 55.5758 40.146 56.4958 41.454C57.3158 42.678 58.3398 43.786 59.5518 44.714C63.9158 48.042 66.7198 47.682 67.9998 46.166Z" fill="#919EAB"/>
<path opacity="0.8" d="M60.7522 43.306C64.4162 46.098 66.9802 46.294 68.4682 45.382C68.4882 45.326 68.5082 45.266 68.5242 45.214C67.0322 46.082 64.4882 45.854 60.8722 43.102C59.6802 42.19 58.6482 41.09 57.8162 39.842C57.0642 38.774 56.4682 37.606 56.0362 36.374C55.9802 36.398 55.9242 36.422 55.8682 36.446C56.3042 37.73 56.9202 38.942 57.6962 40.05C58.5162 41.274 59.5402 42.382 60.7522 43.306Z" fill="#919EAB"/>
<path opacity="0.3" d="M54.6758 33.09C54.8438 33.022 55.0078 32.958 55.1798 32.894C55.4918 30.47 56.5438 27.466 58.7238 25.138C57.9078 25.254 57.1078 25.446 56.3318 25.718C54.4558 28.138 53.8318 31.142 53.8598 33.45C54.1198 33.33 54.3918 33.21 54.6758 33.09Z" fill="#919EAB"/>
<path opacity="0.4" d="M55.1802 32.894C55.2642 32.866 55.3482 32.83 55.4322 32.802C55.7802 30.378 56.8802 27.386 59.1002 25.09C58.9762 25.102 58.8482 25.122 58.7242 25.138C56.5442 27.466 55.4922 30.47 55.1802 32.894Z" fill="#919EAB"/>
<path opacity="0.4" d="M59.3878 21.558C54.9998 21.858 51.1518 23.898 48.4638 26.958L48.4038 27.026C48.9278 27.546 50.6398 28.57 51.3278 28.994C52.7078 27.51 54.4278 26.382 56.3398 25.71C56.4758 25.534 56.6158 25.362 56.7638 25.194C58.5678 23.158 61.0318 22.082 63.8918 22.082C64.2078 22.082 64.8558 22.134 64.8718 22.134C63.0918 21.626 61.2398 21.43 59.3878 21.558Z" fill="url(#paint0_linear_1901_1713)"/>
<path opacity="0.4" d="M61.32 49.962C57.92 50.194 54.744 49.034 52.34 46.974C52.116 46.946 51.892 46.906 51.668 46.862C49 46.318 46.836 44.722 45.408 42.246C45.252 41.974 45.108 41.69 44.98 41.402C46.828 48.762 53.72 53.974 61.556 53.442C61.592 52.634 61.352 50.762 61.32 49.962Z" fill="#919EAB"/>
<path opacity="0.4" d="M76.4157 36.414C75.9237 36.366 73.5277 36.554 72.9357 36.65C73.0077 37.734 72.9397 38.794 72.7477 39.818C72.8317 40.022 72.9077 40.23 72.9797 40.438C73.8397 43.018 73.5397 45.69 72.1117 48.17C71.9517 48.442 71.7837 48.706 71.5957 48.962C71.5957 48.962 71.6037 48.958 71.6077 48.95C74.8557 45.798 76.7437 41.29 76.4157 36.414Z" fill="#919EAB"/>
<path opacity="0.5" d="M64.0597 25.678C64.4077 25.714 64.7837 25.802 65.1197 25.914C65.1357 25.918 65.1517 25.926 65.1677 25.926C66.5397 26.486 67.7997 27.286 68.8957 28.282C68.8957 28.282 68.8997 28.286 68.9037 28.286C69.4277 27.686 70.4397 27.03 70.4397 27.03C70.4397 27.03 68.8957 25.45 66.5277 24.958C64.8717 24.614 61.1397 24.282 58.7837 28.29L58.8037 28.27C58.9797 28.006 59.1637 27.75 59.3717 27.514C60.5157 26.222 62.2077 25.486 64.0597 25.678Z" fill="#919EAB"/>
<path opacity="0.5" d="M68.9197 46.514C68.7037 46.806 68.4597 47.074 68.1877 47.314C68.1757 47.326 68.1637 47.334 68.1517 47.346C66.9797 48.254 65.6597 48.946 64.2477 49.394C64.2437 49.394 64.2437 49.394 64.2397 49.398C64.4957 50.154 64.5637 51.358 64.5637 51.358C64.5637 51.358 66.7037 50.81 68.3157 49.01C69.4397 47.75 71.5957 44.682 69.3037 40.638C69.3037 40.638 69.3077 40.65 69.3117 40.666C69.4557 40.95 69.5837 41.238 69.6797 41.534C70.2197 43.17 70.0117 45.006 68.9197 46.514Z" fill="#919EAB"/>
<path opacity="0.5" d="M48.4438 40.31C48.2958 39.978 48.1878 39.63 48.1158 39.274C48.1118 39.258 48.1078 39.242 48.1038 39.226C47.8998 37.754 47.9678 36.258 48.2798 34.822V34.814C47.4958 34.662 46.4238 34.114 46.4238 34.114C46.4238 34.114 45.8278 36.246 46.5838 38.538C47.1158 40.142 48.6918 43.542 53.3398 43.578C53.3398 43.578 53.3278 43.574 53.3118 43.57C52.9958 43.55 52.6838 43.518 52.3758 43.454C50.6878 43.106 49.2038 42.006 48.4438 40.31Z" fill="#919EAB"/>
<path opacity="0.6" d="M63.3879 31.918C63.5159 31.934 63.6439 31.938 63.7639 31.938C63.7639 31.938 63.6799 30.278 63.4759 29.426C63.2719 28.574 62.9679 28.01 62.6399 27.69C62.4039 27.462 61.6559 27.174 61.0759 28.93C60.8879 30.39 61.9159 31.726 63.3799 31.914C63.3839 31.914 63.3839 31.914 63.3879 31.918Z" fill="url(#paint1_linear_1901_1713)"/>
<path opacity="0.5" d="M54.1838 37.77C54.1358 37.654 54.0758 37.542 54.0118 37.434C54.0118 37.434 52.6158 38.338 51.9798 38.938C51.3438 39.538 51.0078 40.086 50.8958 40.53C50.8158 40.85 50.9438 41.638 52.7518 41.262C54.1118 40.694 54.7518 39.13 54.1838 37.77Z" fill="url(#paint2_linear_1901_1713)"/>
<path opacity="0.6" d="M63.8519 42.81C63.7759 42.91 63.7079 43.022 63.6479 43.13C63.6479 43.13 65.1279 43.886 65.9679 44.138C66.8079 44.386 67.4479 44.41 67.8879 44.282C68.2039 44.19 68.8239 43.686 67.5959 42.306C66.4199 41.414 64.7439 41.638 63.8519 42.81C63.8519 42.814 63.8519 42.814 63.8519 42.81Z" fill="url(#paint3_linear_1901_1713)"/>
<path opacity="0.3" d="M63.2757 35.926C62.9397 37.042 62.4677 38.058 61.8917 38.95C61.8597 38.998 61.8317 39.042 61.7997 39.094C61.7997 39.094 61.7997 39.098 61.7957 39.098C61.3917 39.678 60.9357 40.218 60.4277 40.714C60.7957 41.102 61.1877 41.478 61.6237 41.838C62.1197 42.226 62.6397 42.578 63.1877 42.886C64.2997 41.738 65.2157 40.41 65.8877 38.958C66.1277 38.466 66.3397 37.962 66.5197 37.446C65.9557 37.034 65.3877 36.702 64.8637 36.478C64.3477 36.258 63.8157 36.074 63.2757 35.926Z" fill="url(#paint4_linear_1901_1713)"/>
<path opacity="0.3" d="M52.3439 46.974C55.3719 47.386 58.2879 46.426 60.2759 45.246C60.0319 45.074 59.7919 44.902 59.5519 44.722C58.7959 44.146 58.1039 43.49 57.4839 42.766C55.9919 43.418 54.1079 43.802 52.3679 43.446C50.6839 43.102 49.1999 42.002 48.4359 40.306C48.2879 39.974 48.1799 39.626 48.1079 39.27C48.5479 42.362 50.1039 45.058 52.3439 46.974Z" fill="#919EAB"/>
<path opacity="0.3" d="M60.4281 40.714C59.6641 39.906 59.0161 38.994 58.5041 38.006C58.4801 37.954 58.4521 37.906 58.4281 37.854V37.85C58.1281 37.21 57.8881 36.542 57.7121 35.858C57.1921 35.982 56.6721 36.134 56.1441 36.33C55.5601 36.562 54.9961 36.838 54.4521 37.154C54.9401 38.842 55.6601 40.266 56.5001 41.458C56.8041 41.91 57.1321 42.342 57.4921 42.762C58.1321 42.482 58.7041 42.154 59.1601 41.81C59.6081 41.474 60.0321 41.106 60.4281 40.714Z" fill="#919EAB"/>
<path opacity="0.3" d="M56.3318 25.722C54.4558 28.142 53.8318 31.146 53.8598 33.454C54.1278 33.326 54.4038 33.206 54.6758 33.09C55.5518 32.722 56.4638 32.45 57.3998 32.278C57.5798 30.658 58.1918 28.838 59.3678 27.51C60.5078 26.222 62.2038 25.486 64.0518 25.674C64.3998 25.71 64.7758 25.798 65.1118 25.91C65.1278 25.914 65.1438 25.922 65.1598 25.922C63.4078 25.206 61.5118 24.902 59.6238 25.034C58.4758 25.114 57.3758 25.346 56.3358 25.714C56.3318 25.714 56.3318 25.718 56.3318 25.722Z" fill="#919EAB"/>
<path opacity="0.3" d="M72.7439 39.798C71.5839 36.966 69.2919 34.922 67.2799 33.794C67.2559 34.082 67.2239 34.378 67.1839 34.686C67.0599 35.63 66.8399 36.554 66.5239 37.45C67.8359 38.418 69.1119 39.854 69.6759 41.542C70.2199 43.17 70.0119 45.01 68.9239 46.518C68.7079 46.81 68.4639 47.078 68.1919 47.318L68.1799 47.33C70.5279 45.486 72.1839 42.83 72.7559 39.822C72.7559 39.818 72.7519 39.81 72.7519 39.806L72.7439 39.798Z" fill="url(#paint5_linear_1901_1713)"/>
<path opacity="0.3" d="M57.3958 34.202C57.4638 34.758 57.5678 35.31 57.7118 35.854C58.8478 35.586 59.9598 35.486 61.0238 35.538L61.1918 35.546H61.1958C61.8638 35.602 62.5598 35.722 63.2758 35.922C63.4278 35.41 63.5558 34.878 63.6518 34.326C63.7518 33.638 63.7838 32.998 63.7798 32.446C62.0758 32.026 60.4838 31.938 59.0318 32.07C58.4838 32.106 57.9438 32.174 57.4038 32.274C57.3278 32.974 57.3238 33.63 57.3958 34.202Z" fill="url(#paint6_linear_1901_1713)"/>
<path d="M124.624 33.39L122.568 39.114H122.584L124.636 33.422L124.624 33.39ZM88.1161 33.39L86.0601 39.114H86.0681L88.1241 33.41C88.1241 33.406 88.1161 33.39 88.1161 33.39ZM88.6321 34.818L90.1761 39.11H87.0841L86.3041 41.274H90.9641L92.2841 44.946H95.2401L89.8521 31.43L88.6321 34.818Z" fill="#919EAB"/>
<path d="M86.0602 39.114L88.1162 33.39L88.1242 33.41L88.9922 31.002H86.7242L81.1802 44.95H83.9642L86.0682 39.11L86.0602 39.114ZM104.196 37.766C103.524 37.37 102.628 36.998 101.516 36.654C100.88 36.446 100.38 36.254 100.02 36.078C99.6602 35.902 99.4082 35.698 99.2682 35.474C99.1282 35.246 99.0562 34.982 99.0562 34.674C99.0562 34.134 99.2642 33.718 99.6802 33.426C100.096 33.134 100.68 32.986 101.424 32.986C102.036 32.986 102.672 33.078 103.34 33.262C104.008 33.446 104.596 33.698 105.112 34.014L105.496 31.758C104.972 31.442 104.332 31.186 103.58 30.994C102.844 30.806 102.088 30.71 101.332 30.71C100.316 30.71 99.4362 30.874 98.6922 31.206C97.9442 31.538 97.3682 32.006 96.9602 32.618C96.5482 33.23 96.3442 33.954 96.3442 34.782C96.3442 35.494 96.4802 36.106 96.7562 36.626C97.0322 37.146 97.4802 37.598 98.1042 37.974C98.7282 38.354 99.5482 38.698 100.564 39.002C101.296 39.226 101.864 39.43 102.272 39.626C102.676 39.822 102.96 40.038 103.116 40.278C103.276 40.518 103.352 40.802 103.352 41.13C103.352 41.706 103.116 42.154 102.648 42.478C102.176 42.802 101.524 42.966 100.692 42.966C99.9682 42.966 99.2162 42.854 98.4242 42.626C97.6322 42.398 96.9482 42.11 96.3602 41.754L96.1042 44.082C96.4442 44.314 96.8762 44.518 97.3882 44.686C97.9042 44.858 98.4562 44.994 99.0482 45.09C99.6402 45.19 100.232 45.238 100.82 45.238C102.472 45.238 103.768 44.862 104.712 44.11C105.652 43.358 106.124 42.314 106.124 40.982C106.124 40.274 105.972 39.658 105.664 39.138C105.36 38.622 104.872 38.162 104.196 37.766ZM118.84 31.002H107.04V33.278H118.84V31.002ZM114.344 34.23H111.536V44.95H114.344V34.23ZM122.568 39.114L124.624 33.39L124.636 33.422L125.508 31.002H123.228L117.688 44.954H120.476L121.796 41.282H121.8L122.584 39.118L122.568 39.114ZM125.14 34.83L126.676 39.114H123.592L122.812 41.278H127.464L128.784 44.95H131.74L126.356 31.446L125.14 34.83ZM140.828 39.298C141.492 38.926 142.06 38.402 142.48 37.766C142.908 37.122 143.124 36.374 143.124 35.518C143.124 34.586 142.916 33.786 142.5 33.114C142.084 32.442 141.492 31.922 140.72 31.554C139.948 31.186 139.032 31.006 137.968 31.006H136.992V33.118H137.6C139.46 33.118 140.388 33.914 140.388 35.502C140.388 37.09 139.428 37.886 137.504 37.886H136.988V39.998H138.42L141.356 44.954H144.496L140.828 39.298ZM136.04 31.002H133.38V44.95H136.04V31.002Z" fill="#919EAB"/>
</g>
<rect x="0.5" y="0.5" width="188" height="74" rx="3.5" stroke="#DFE3E8"/>
<defs>
<linearGradient id="paint0_linear_1901_1713" x1="59.6363" y1="23.8379" x2="54.4289" y2="25.3528" gradientUnits="userSpaceOnUse">
<stop stop-color="#231F20"/>
<stop offset="1" stop-color="white"/>
</linearGradient>
<linearGradient id="paint1_linear_1901_1713" x1="63.5337" y1="29.048" x2="61.3269" y2="31.2581" gradientUnits="userSpaceOnUse">
<stop stop-color="#231F20"/>
<stop offset="1" stop-color="white"/>
</linearGradient>
<linearGradient id="paint2_linear_1901_1713" x1="51.6256" y1="39.0754" x2="54.6416" y2="39.8856" gradientUnits="userSpaceOnUse">
<stop stop-color="#231F20"/>
<stop offset="1" stop-color="white"/>
</linearGradient>
<linearGradient id="paint3_linear_1901_1713" x1="66.2631" y1="44.3722" x2="65.455" y2="41.3573" gradientUnits="userSpaceOnUse">
<stop stop-color="#231F20"/>
<stop offset="1" stop-color="white"/>
</linearGradient>
<linearGradient id="paint4_linear_1901_1713" x1="61.666" y1="41.6887" x2="62.9924" y2="39.8595" gradientUnits="userSpaceOnUse">
<stop stop-color="#231F20"/>
<stop offset="1" stop-color="white"/>
</linearGradient>
<linearGradient id="paint5_linear_1901_1713" x1="66.0801" y1="40.1822" x2="67.7208" y2="40.5599" gradientUnits="userSpaceOnUse">
<stop stop-color="#231F20"/>
<stop offset="1" stop-color="white"/>
</linearGradient>
<linearGradient id="paint6_linear_1901_1713" x1="63.5068" y1="34.6359" x2="61.4256" y2="34.2582" gradientUnits="userSpaceOnUse">
<stop stop-color="#231F20"/>
<stop offset="1" stop-color="white"/>
</linearGradient>
<clipPath id="clip0_1901_1713">
<rect width="100" height="31.916" fill="white" transform="translate(44.5 21.542)"/>
</clipPath>
</defs>
</svg>
