<svg width="189" height="76" viewBox="0 0 189 76" fill="none" xmlns="http://www.w3.org/2000/svg">
<rect x="0.5" y="1.38232" width="188" height="74" rx="3.5" fill="white"/>
<g clip-path="url(#clip0_1508_99)">
<path d="M56.5186 24.429L44.5 31.3685V45.2429L56.5186 52.1778L68.5279 45.2429V31.3685L56.5186 24.429ZM64.9698 43.1871L56.5186 48.0662L48.0628 43.1871V33.4197L56.5186 28.5406L64.9698 33.4197V43.1871Z" fill="#919EAB"/>
<path d="M62.1232 41.5451L56.5139 44.7824L50.9 41.5451V35.0661L56.5139 31.8242L62.1232 35.0661L59.7884 36.4149L56.5139 34.5219L53.2395 36.4149V40.1917L56.5139 42.0847L59.7884 40.1917L62.1232 41.5451Z" fill="#919EAB"/>
<path d="M77.4209 39.3546V39.3174C77.4128 38.5822 77.5517 37.8528 77.8293 37.1719C78.1069 36.4911 78.5177 35.8726 79.0376 35.3527C79.5575 34.8328 80.176 34.422 80.8569 34.1443C81.5377 33.8667 82.2671 33.7279 83.0023 33.736C83.8084 33.7078 84.6107 33.8602 85.3502 34.1821C86.0898 34.504 86.748 34.9873 87.2767 35.5964L85.7372 37.2383C84.9884 36.4662 84.1977 35.8988 82.9837 35.8988C81.2023 35.8988 79.886 37.4383 79.886 39.3034V39.3453C79.886 41.2476 81.2023 42.7639 83.0814 42.7639C83.6131 42.7536 84.1366 42.631 84.6175 42.4042C85.0984 42.1773 85.526 41.8513 85.8721 41.4476L87.3512 42.9081C86.6165 43.7859 85.6306 44.4178 84.5261 44.7187C83.4217 45.0196 82.2516 44.975 81.1732 44.5911C80.0947 44.2071 79.1598 43.5022 78.494 42.571C77.8281 41.6398 77.4634 40.5271 77.4488 39.3825L77.4209 39.3546Z" fill="#919EAB"/>
<path d="M89.5511 33.9501H92.0209V36.3594C92.6907 34.7594 93.9232 33.6664 95.807 33.7455V36.3408H95.6674C93.5186 36.3408 92.0209 37.7362 92.0209 40.5687V44.6385H89.5511V33.9501Z" fill="#919EAB"/>
<path d="M96.9837 39.3546V39.3174C97.0205 37.8335 97.634 36.4223 98.6949 35.3837C99.7554 34.3452 101.179 33.7611 102.663 33.7557C104.148 33.7502 105.576 34.3238 106.644 35.3545C107.712 36.3853 108.336 37.7919 108.384 39.2755V39.3174C108.384 40.063 108.235 40.8012 107.945 41.4883C107.655 42.1753 107.231 42.7973 106.697 43.3176C106.162 43.8379 105.53 44.2458 104.835 44.5174C104.14 44.789 103.399 44.9187 102.653 44.8988C101.914 44.9174 101.179 44.7877 100.491 44.5173C99.8028 44.2469 99.1763 43.8412 98.6475 43.3243C98.1191 42.8074 97.6995 42.1898 97.4135 41.508C97.1279 40.8261 96.9814 40.0939 96.9837 39.3546ZM105.933 39.3546V39.3174C105.951 38.8738 105.88 38.4311 105.725 38.0155C105.568 37.5998 105.33 37.2199 105.024 36.8983C104.719 36.5767 104.351 36.3199 103.943 36.1434C103.536 35.9669 103.097 35.8742 102.653 35.8709C100.686 35.8709 99.4302 37.4104 99.4302 39.2755V39.3174C99.4135 39.7572 99.4851 40.1958 99.6405 40.6075C99.7963 41.0192 100.033 41.3955 100.336 41.7142C100.64 42.0329 101.004 42.2875 101.408 42.463C101.811 42.6385 102.246 42.7313 102.686 42.736C104.677 42.736 105.933 41.1964 105.933 39.3546Z" fill="#919EAB"/>
<path d="M110.853 33.95H113.314V35.5918C113.663 35.0187 114.154 34.546 114.74 34.2199C115.327 33.8938 115.987 33.7254 116.658 33.7314C119.067 33.7314 120.463 35.35 120.463 37.8197V44.643H118.012V38.5639C118.012 36.9034 117.184 35.9546 115.723 35.9546C114.263 35.9546 113.314 36.95 113.314 38.6058V44.6523H110.844L110.853 33.95Z" fill="#919EAB"/>
<path d="M122.844 39.3546V39.3174C122.881 37.8335 123.494 36.4223 124.555 35.3837C125.616 34.3452 127.04 33.7611 128.524 33.7557C130.008 33.7502 131.436 34.3238 132.504 35.3545C133.573 36.3853 134.197 37.7919 134.244 39.2755V39.3174C134.245 40.063 134.095 40.8012 133.806 41.4883C133.516 42.1753 133.091 42.7973 132.557 43.3176C132.023 43.8379 131.39 44.2458 130.696 44.5174C130.001 44.789 129.26 44.9187 128.514 44.8988C127.775 44.9174 127.04 44.7877 126.352 44.5173C125.663 44.2469 125.037 43.8412 124.508 43.3243C123.98 42.8074 123.56 42.1898 123.274 41.508C122.988 40.8261 122.842 40.0939 122.844 39.3546ZM131.793 39.3546V39.3174C131.812 38.8738 131.741 38.4311 131.585 38.0155C131.429 37.5998 131.191 37.2199 130.885 36.8983C130.579 36.5767 130.211 36.3199 129.804 36.1434C129.397 35.9669 128.958 35.8742 128.514 35.8709C126.547 35.8709 125.291 37.4104 125.291 39.2755V39.3174C125.274 39.7572 125.346 40.1958 125.501 40.6075C125.657 41.0192 125.893 41.3955 126.197 41.7142C126.5 42.0329 126.865 42.2875 127.268 42.463C127.672 42.6385 128.107 42.7313 128.547 42.736C130.523 42.736 131.793 41.1964 131.793 39.3546Z" fill="#919EAB"/>
<path d="M135.863 43.243L136.956 41.5825C137.955 42.3805 139.181 42.8413 140.458 42.8988C141.514 42.8988 142.119 42.4337 142.119 41.7453V41.7034C142.119 40.8755 140.988 40.5918 139.733 40.2058C138.151 39.7406 136.388 39.1127 136.388 37.0895V37.0476C136.388 35.0011 138.072 33.7686 140.198 33.7686C141.594 33.7945 142.955 34.2154 144.123 34.9825L143.151 36.722C142.252 36.1291 141.213 35.7812 140.137 35.7127C139.207 35.7127 138.64 36.1779 138.64 36.7639V36.8058C138.64 37.5965 139.793 37.9174 141.049 38.322C142.607 38.8104 144.37 39.5174 144.37 41.443V41.4802C144.37 43.7313 142.626 44.843 140.398 44.843C138.75 44.8312 137.153 44.2679 135.863 43.243Z" fill="#919EAB"/>
</g>
<rect x="0.5" y="1.38232" width="188" height="74" rx="3.5" stroke="#DFE3E8"/>
<defs>
<clipPath id="clip0_1508_99">
<rect width="100" height="27.907" fill="white" transform="translate(44.5 24.429)"/>
</clipPath>
</defs>
</svg>
