<svg width="213" height="75" viewBox="0 0 213 75" fill="none" xmlns="http://www.w3.org/2000/svg">
<rect x="0.5" y="0.5" width="212" height="74" rx="3.5" fill="white"/>
<g clip-path="url(#clip0_1902_723)">
<path d="M52.5593 45.2581C50.7789 45.2581 49.3202 44.8392 48.1831 44.0014C47.061 43.1486 46.5 41.9367 46.5 40.3659C46.5 40.0367 46.5374 39.6327 46.6122 39.154C46.8067 38.0768 47.0835 36.7826 47.4426 35.2716C48.4599 31.1573 51.0856 29.1001 55.3196 29.1001C56.4716 29.1001 57.5039 29.2946 58.4166 29.6836C59.3292 30.0576 60.0473 30.6261 60.571 31.3892C61.0946 32.1372 61.3564 33.0349 61.3564 34.0822C61.3564 34.3963 61.319 34.7928 61.2442 35.2716C61.0198 36.6031 60.7505 37.8972 60.4363 39.154C59.9126 41.2037 59.0075 42.7372 57.7209 43.7545C56.4342 44.7569 54.7137 45.2581 52.5593 45.2581ZM52.8734 42.0265C53.7113 42.0265 54.4219 41.7797 55.0054 41.2859C55.6038 40.7923 56.0302 40.0367 56.2846 39.0193C56.6287 37.613 56.8905 36.3862 57.0701 35.3389C57.1299 35.0247 57.1598 34.703 57.1598 34.3739C57.1598 33.0124 56.4491 32.3317 55.0278 32.3317C54.19 32.3317 53.4719 32.5786 52.8734 33.0723C52.29 33.566 51.871 34.3215 51.6167 35.3389C51.3474 36.3413 51.0781 37.5681 50.8088 39.0193C50.749 39.3186 50.719 39.6327 50.719 39.9619C50.719 41.3383 51.4372 42.0265 52.8734 42.0265Z" fill="#4388DD"/>
<path d="M63.6336 45.0336C63.4689 45.0336 63.3418 44.9813 63.252 44.8766C63.1772 44.7568 63.1548 44.6222 63.1847 44.4726L66.2817 29.8855C66.3116 29.7209 66.3939 29.5863 66.5285 29.4816C66.6632 29.3768 66.8053 29.3245 66.9549 29.3245H72.9244C74.5851 29.3245 75.9166 29.6686 76.919 30.3568C77.9364 31.045 78.4451 32.0399 78.4451 33.3415C78.4451 33.7156 78.4002 34.1045 78.3104 34.5085C77.9364 36.229 77.1808 37.5007 76.0438 38.3236C74.9217 39.1464 73.3807 39.5579 71.4208 39.5579H68.3912L67.3589 44.4726C67.3289 44.6372 67.2466 44.7718 67.112 44.8766C66.9773 44.9813 66.8353 45.0336 66.6856 45.0336H63.6336ZM71.5779 36.4609C72.2063 36.4609 72.7524 36.2889 73.2161 35.9448C73.6949 35.6007 74.0091 35.1069 74.1587 34.4636C74.2036 34.2093 74.2261 33.9849 74.2261 33.7904C74.2261 33.3565 74.0988 33.0273 73.8445 32.8029C73.5902 32.5636 73.1563 32.4439 72.5429 32.4439H69.8499L68.9971 36.4609H71.5779Z" fill="#4388DD"/>
<path d="M83.5016 45.0336C83.337 45.0336 83.2098 44.9813 83.1201 44.8766C83.0303 44.7568 83.0004 44.6222 83.0303 44.4726L85.5213 32.8478H81.5267C81.3621 32.8478 81.2349 32.7954 81.1452 32.6907C81.0704 32.571 81.048 32.4364 81.0779 32.2868L81.5941 29.8855C81.624 29.7209 81.7062 29.5863 81.8409 29.4816C81.9755 29.3768 82.1177 29.3245 82.2673 29.3245H94.3409C94.5055 29.3245 94.6326 29.3768 94.7225 29.4816C94.7823 29.5713 94.8122 29.6611 94.8122 29.7509C94.8122 29.7957 94.8047 29.8406 94.7897 29.8855L94.2736 32.2868C94.2437 32.4513 94.1614 32.586 94.0267 32.6907C93.907 32.7954 93.7649 32.8478 93.6004 32.8478H89.6281L87.1371 44.4726C87.1072 44.6372 87.0249 44.7718 86.8903 44.8766C86.7556 44.9813 86.6135 45.0336 86.4639 45.0336H83.5016Z" fill="#4388DD"/>
<path d="M95.3846 45.0336C95.22 45.0336 95.0929 44.9813 95.0032 44.8766C94.9133 44.7568 94.8834 44.6222 94.9133 44.4726L98.0328 29.8855C98.0627 29.7209 98.145 29.5863 98.2796 29.4816C98.4143 29.3768 98.5564 29.3245 98.706 29.3245H101.736C101.9 29.3245 102.027 29.3768 102.117 29.4816C102.177 29.5713 102.207 29.6611 102.207 29.7509C102.207 29.7957 102.199 29.8406 102.184 29.8855L99.0875 44.4726C99.0576 44.6372 98.9753 44.7718 98.8407 44.8766C98.706 44.9813 98.5639 45.0336 98.4143 45.0336H95.3846Z" fill="#4388DD"/>
<path d="M103.93 45.0336C103.765 45.0336 103.638 44.9813 103.548 44.8766C103.459 44.7718 103.429 44.6372 103.459 44.4726L106.556 29.8855C106.585 29.7209 106.668 29.5863 106.802 29.4816C106.937 29.3768 107.087 29.3245 107.251 29.3245H109.675C110.034 29.3245 110.266 29.489 110.371 29.8182L112.817 36.8873L118.27 29.8182C118.345 29.6985 118.45 29.5863 118.584 29.4816C118.734 29.3768 118.913 29.3245 119.123 29.3245H121.569C121.734 29.3245 121.861 29.3768 121.951 29.4816C122.01 29.5713 122.04 29.6611 122.04 29.7509C122.04 29.7957 122.033 29.8406 122.018 29.8855L118.921 44.4726C118.891 44.6372 118.809 44.7718 118.674 44.8766C118.539 44.9813 118.397 45.0336 118.248 45.0336H115.532C115.368 45.0336 115.241 44.9813 115.151 44.8766C115.076 44.7568 115.053 44.6222 115.083 44.4726L116.834 36.1916L113.4 40.7473C113.251 40.9119 113.109 41.039 112.974 41.1288C112.839 41.2186 112.682 41.2635 112.503 41.2635H111.336C111.021 41.2635 110.805 41.0914 110.685 40.7473L109.091 35.9897L107.296 44.4726C107.266 44.6372 107.184 44.7718 107.049 44.8766C106.915 44.9813 106.772 45.0336 106.623 45.0336H103.93Z" fill="#4388DD"/>
<path d="M123.739 45.0336C123.574 45.0336 123.447 44.9813 123.357 44.8766C123.267 44.7568 123.238 44.6222 123.267 44.4726L126.387 29.8855C126.417 29.7209 126.499 29.5863 126.634 29.4816C126.768 29.3768 126.91 29.3245 127.06 29.3245H130.09C130.254 29.3245 130.382 29.3768 130.471 29.4816C130.531 29.5713 130.561 29.6611 130.561 29.7509C130.561 29.7957 130.554 29.8406 130.538 29.8855L127.442 44.4726C127.412 44.6372 127.33 44.7718 127.194 44.8766C127.06 44.9813 126.918 45.0336 126.768 45.0336H123.739Z" fill="#4388DD"/>
<path d="M137.827 45.2581C136.51 45.2581 135.381 45.0786 134.438 44.7195C133.51 44.3605 132.807 43.8817 132.329 43.2833C131.865 42.6848 131.633 42.0191 131.633 41.2859C131.633 41.1663 131.648 40.9867 131.678 40.7474C131.708 40.6127 131.768 40.5005 131.858 40.4107C131.962 40.321 132.082 40.2761 132.217 40.2761H135.089C135.269 40.2761 135.403 40.306 135.493 40.3659C135.598 40.4257 135.702 40.5304 135.807 40.68C135.912 41.069 136.151 41.3907 136.526 41.645C136.914 41.8994 137.446 42.0265 138.118 42.0265C138.971 42.0265 139.66 41.8919 140.183 41.6226C140.707 41.3533 141.022 40.9867 141.126 40.5229C141.141 40.4631 141.148 40.3733 141.148 40.2536C141.148 39.8796 140.917 39.5879 140.453 39.3784C139.989 39.154 139.136 38.8922 137.894 38.593C136.443 38.2787 135.343 37.8075 134.595 37.1791C133.847 36.5358 133.474 35.698 133.474 34.6656C133.474 34.3066 133.518 33.94 133.608 33.566C133.907 32.1746 134.648 31.0824 135.83 30.2895C137.026 29.4966 138.567 29.1001 140.453 29.1001C141.59 29.1001 142.6 29.3021 143.482 29.706C144.365 30.11 145.046 30.6261 145.525 31.2545C146.018 31.8679 146.265 32.4813 146.265 33.0947C146.265 33.2743 146.258 33.4014 146.242 33.4762C146.213 33.6109 146.146 33.7231 146.041 33.8129C145.951 33.9026 145.838 33.9475 145.704 33.9475H142.697C142.368 33.9475 142.143 33.8203 142.024 33.566C142.009 33.2219 141.829 32.9302 141.485 32.6908C141.141 32.4514 140.692 32.3317 140.138 32.3317C139.48 32.3317 138.934 32.4514 138.5 32.6908C138.082 32.9302 137.819 33.2817 137.715 33.7455C137.7 33.8203 137.692 33.9176 137.692 34.0373C137.692 34.3963 137.902 34.6956 138.321 34.9349C138.754 35.1594 139.51 35.3913 140.587 35.6306C142.263 35.9598 143.482 36.4311 144.246 37.0445C145.023 37.6579 145.412 38.4732 145.412 39.4906C145.412 39.8347 145.367 40.2087 145.278 40.6127C144.949 42.1387 144.148 43.2983 142.876 44.0911C141.62 44.8691 139.937 45.2581 137.827 45.2581Z" fill="#4388DD"/>
<path d="M148.39 45.0336C148.225 45.0336 148.098 44.9813 148.008 44.8766C147.918 44.7718 147.888 44.6372 147.918 44.4726L151.015 29.8855C151.045 29.7209 151.127 29.5863 151.262 29.4816C151.397 29.3768 151.546 29.3245 151.711 29.3245H154.134C154.494 29.3245 154.726 29.489 154.83 29.8182L157.277 36.8873L162.73 29.8182C162.805 29.6985 162.91 29.5863 163.044 29.4816C163.194 29.3768 163.373 29.3245 163.582 29.3245H166.029C166.194 29.3245 166.321 29.3768 166.41 29.4816C166.47 29.5713 166.5 29.6611 166.5 29.7509C166.5 29.7957 166.493 29.8406 166.478 29.8855L163.381 44.4726C163.35 44.6372 163.268 44.7718 163.134 44.8766C162.999 44.9813 162.857 45.0336 162.707 45.0336H159.992C159.827 45.0336 159.7 44.9813 159.61 44.8766C159.535 44.7568 159.513 44.6222 159.543 44.4726L161.294 36.1916L157.86 40.7473C157.71 40.9119 157.568 41.039 157.434 41.1288C157.299 41.2186 157.142 41.2635 156.962 41.2635H155.795C155.481 41.2635 155.264 41.0914 155.145 40.7473L153.551 35.9897L151.756 44.4726C151.726 44.6372 151.643 44.7718 151.509 44.8766C151.374 44.9813 151.232 45.0336 151.082 45.0336H148.39Z" fill="#4388DD"/>
</g>
<rect x="0.5" y="0.5" width="212" height="74" rx="3.5" stroke="#4388DD"/>
<defs>
<clipPath id="clip0_1902_723">
<rect width="120" height="16.8" fill="white" transform="translate(46.5 29.1001)"/>
</clipPath>
</defs>
</svg>
