<svg width="213" height="75" viewBox="0 0 213 75" fill="none" xmlns="http://www.w3.org/2000/svg">
<rect x="0.5" y="0.5" width="212" height="74" rx="3.5" fill="white"/>
<g clip-path="url(#clip0_1902_1506)">
<path d="M49.998 31.7592V43.2408C49.998 43.9446 50.4074 44.6484 50.9962 44.998L60.9552 50.7388C61.5992 51.0884 62.3628 51.0884 63.0068 50.7388L72.9658 44.998C73.6098 44.6484 73.964 43.9446 73.964 43.2408V31.7592C73.964 31.0554 73.5546 30.3516 72.9658 30.002L63.0022 24.2612C62.3582 23.9116 61.5946 23.9116 60.9506 24.2612L50.9916 30.002C50.3476 30.3516 49.998 31.0554 49.998 31.7592Z" fill="#919EAB"/>
<path d="M64.1756 39.7264L62.768 43.595C62.7082 43.71 62.7082 43.8296 62.768 43.9446L65.229 50.6238L68.0396 48.9816L64.6402 39.7264C64.585 39.4918 64.2906 39.4918 64.1756 39.7264Z" fill="#DFE3E8"/>
<path d="M66.9861 33.1668C66.9263 32.9322 66.6365 32.9322 66.5169 33.1668L65.1093 37.0354C65.0495 37.1504 65.0495 37.27 65.1093 37.385L69.0929 48.3422L71.9035 46.7L66.9861 33.1668Z" fill="#DFE3E8"/>
<path d="M61.949 24.6706C62.0088 24.6706 62.064 24.6706 62.1238 24.7304L72.9016 30.9404C73.0166 31.0002 73.0764 31.1152 73.0764 31.29V43.71C73.0764 43.825 73.0166 44.0044 72.9016 44.0596L62.1238 50.2696C62.064 50.3294 62.0088 50.3294 61.949 50.3294C61.8892 50.3294 61.834 50.3294 61.7742 50.2696L50.9964 44.0596C50.8814 43.9998 50.8216 43.8848 50.8216 43.71V31.29C50.8216 31.175 50.8814 30.9956 50.9964 30.9404L61.7742 24.7304C61.8294 24.6706 61.8892 24.6706 61.949 24.6706ZM61.949 22.8536C61.5396 22.8536 61.1854 22.9686 60.8358 23.148L50.058 29.358C49.3542 29.7674 48.9448 30.4712 48.9448 31.29V43.71C48.9448 44.4736 49.3542 45.2326 50.058 45.642L60.8358 51.852C61.1854 52.0268 61.5396 52.1464 61.949 52.1464C62.3584 52.1464 62.7126 52.0314 63.0622 51.852L73.84 45.642C74.5438 45.2326 74.9532 44.5288 74.9532 43.71V31.29C74.9532 30.5264 74.5438 29.7674 73.84 29.358L63.1174 23.148C62.7678 22.9732 62.4136 22.8536 62.0042 22.8536H61.949Z" fill="#C4CDD5"/>
<path d="M54.8604 48.3376L55.854 45.642L57.8458 47.2842L55.9736 49.0414L54.8604 48.3376Z" fill="#919EAB"/>
<path d="M61.0706 30.4114H58.3152C58.1404 30.4114 57.9058 30.5264 57.846 30.7058L51.9902 46.7552L54.8008 48.3974L61.2454 30.761C61.3052 30.5862 61.1856 30.4114 61.0108 30.4114H61.0706Z" fill="white"/>
<path d="M65.8133 30.4114H63.0579C62.8831 30.4114 62.6485 30.5264 62.5887 30.7058L55.9141 48.9816L58.7247 50.6238L65.9881 30.7058C66.0479 30.531 65.9283 30.3562 65.7535 30.3562L65.8133 30.4114Z" fill="white"/>
<path d="M86.5543 33.751C86.8487 33.751 87.0833 33.8108 87.2581 33.9258C87.4329 34.0408 87.6077 34.2754 87.7871 34.5698L91.3613 41.0144C91.4211 41.0742 91.4211 41.1294 91.3613 41.1892C91.3613 41.249 91.3015 41.249 91.1865 41.249H89.8387C89.7237 41.249 89.6639 41.1892 89.6041 41.134L88.8359 39.7264H83.7989L83.0353 41.134C82.9755 41.249 82.9203 41.249 82.8007 41.249H81.3931C81.2781 41.249 81.2183 41.249 81.2183 41.1892C81.2183 41.1294 81.2183 41.0742 81.2183 41.0144L84.7327 34.5698C84.9075 34.2202 85.0823 34.0408 85.2617 33.9258C85.4411 33.8108 85.6113 33.751 85.8459 33.751H86.4899H86.5543ZM84.4429 38.4982H88.1321L86.4347 35.3334C86.3749 35.2736 86.3749 35.2736 86.3197 35.2736H86.2599C86.2001 35.2736 86.1449 35.2736 86.1449 35.3334L84.4429 38.4982Z" fill="#919EAB"/>
<path d="M99.1491 33.751C99.9679 33.751 100.557 33.9258 100.906 34.3352C101.256 34.6848 101.435 35.2736 101.435 35.9774V36.5616C101.435 37.2056 101.32 37.6748 101.086 38.0244C100.851 38.374 100.442 38.6086 99.8575 38.7282L101.674 41.0144C101.734 41.0742 101.734 41.1294 101.734 41.1892C101.734 41.249 101.674 41.3042 101.559 41.3042H100.152C100.037 41.3042 99.9771 41.3042 99.9771 41.2444C99.9173 41.2444 99.9173 41.1846 99.8621 41.1294L98.1647 38.903H94.7101V41.0696C94.7101 41.2444 94.6503 41.3042 94.4755 41.3042H93.3025C93.1277 41.3042 93.0679 41.2444 93.0679 41.0696V34.1006C93.0679 33.866 93.1829 33.751 93.4175 33.751H99.2181H99.1491ZM94.6963 37.615H98.7949C99.1445 37.615 99.4389 37.5552 99.5585 37.3804C99.7333 37.2056 99.7931 36.971 99.7931 36.6766V36.2074C99.7931 35.8578 99.7333 35.6232 99.5585 35.5036C99.3837 35.3288 99.1491 35.269 98.7949 35.269H94.8113C94.6963 35.269 94.6963 35.3288 94.6963 35.384V37.615Z" fill="#919EAB"/>
<path d="M110.456 33.751C111.219 33.751 111.744 33.9258 112.038 34.2202C112.332 34.5146 112.507 34.9838 112.507 35.568V36.097C112.507 36.6812 112.273 37.1504 111.803 37.4448C112.273 37.7392 112.567 38.2084 112.567 38.8524V39.4964C112.567 39.7908 112.507 40.0254 112.452 40.26C112.397 40.4946 112.277 40.6694 112.158 40.8442C111.983 41.019 111.808 41.1386 111.573 41.1938C111.339 41.2536 111.044 41.3088 110.695 41.3088H104.31C104.075 41.3088 103.96 41.1938 103.96 40.9592V34.1052C103.96 33.8706 104.075 33.7556 104.31 33.7556H110.52H110.456V33.751ZM105.593 36.856H109.986C110.336 36.856 110.571 36.7962 110.69 36.6812C110.81 36.5662 110.865 36.4466 110.865 36.212V35.8624C110.865 35.6278 110.805 35.453 110.69 35.3932C110.575 35.2782 110.341 35.2184 110.106 35.2184H105.713C105.598 35.2184 105.598 35.2782 105.598 35.3334V36.856H105.593ZM105.593 38.029V39.6114C105.593 39.7264 105.653 39.7264 105.708 39.7264H110.101C110.396 39.7264 110.571 39.6666 110.686 39.5516C110.801 39.4366 110.86 39.2572 110.86 39.0824V38.673C110.86 38.4384 110.801 38.2636 110.686 38.144C110.571 38.0244 110.336 37.9692 109.922 37.9692H105.534L105.593 38.029Z" fill="#919EAB"/>
<path d="M116.546 33.751C116.721 33.751 116.781 33.8108 116.781 33.9856V41.0144C116.781 41.1892 116.721 41.249 116.546 41.249H115.373C115.198 41.249 115.139 41.1892 115.139 41.0144V33.9856C115.139 33.8108 115.198 33.751 115.373 33.751H116.546Z" fill="#919EAB"/>
<path d="M127.853 33.751C128.028 33.751 128.087 33.8108 128.087 33.9856V35.039C128.087 35.2138 128.028 35.2736 127.853 35.2736H124.453V41.0144C124.453 41.1892 124.394 41.249 124.219 41.249H123.046C122.871 41.249 122.811 41.1892 122.811 41.0144V35.2736H119.412C119.237 35.2736 119.177 35.2138 119.177 35.039V33.9856C119.177 33.8108 119.237 33.751 119.412 33.751H127.788H127.853Z" fill="#919EAB"/>
<path d="M136.349 33.751C137.168 33.751 137.757 33.9258 138.106 34.3352C138.456 34.6848 138.635 35.2736 138.635 35.9774V36.5616C138.635 37.2056 138.52 37.6748 138.286 38.0244C138.051 38.374 137.642 38.6086 137.058 38.7282L138.875 41.0144C138.934 41.0742 138.934 41.1294 138.934 41.1892C138.934 41.249 138.875 41.3042 138.76 41.3042H137.352C137.237 41.3042 137.177 41.3042 137.177 41.2444C137.117 41.2444 137.117 41.1846 137.062 41.1294L135.365 38.903H131.91V41.0696C131.91 41.2444 131.85 41.3042 131.676 41.3042H130.503C130.328 41.3042 130.268 41.2444 130.268 41.0696V34.1006C130.268 33.866 130.383 33.751 130.618 33.751H136.418H136.349ZM131.896 37.615H135.995C136.345 37.615 136.639 37.5552 136.759 37.3804C136.933 37.2056 136.993 36.971 136.993 36.6766V36.2074C136.993 35.8578 136.933 35.6232 136.759 35.5036C136.584 35.3288 136.349 35.269 135.995 35.269H132.011C131.896 35.269 131.896 35.3288 131.896 35.384V37.615Z" fill="#919EAB"/>
<path d="M142.384 33.751C142.559 33.751 142.619 33.8108 142.619 33.9856V38.2636C142.619 38.558 142.619 38.7926 142.679 38.9674C142.739 39.1422 142.794 39.317 142.913 39.4366C143.033 39.5562 143.148 39.6114 143.323 39.6712C143.498 39.731 143.732 39.731 144.027 39.731H147.017C147.311 39.731 147.546 39.731 147.72 39.6712C147.895 39.6114 148.07 39.5562 148.13 39.4366C148.245 39.3216 148.305 39.1422 148.364 38.9674C148.424 38.7926 148.424 38.558 148.424 38.2636V33.9856C148.424 33.8108 148.484 33.751 148.659 33.751H149.832C150.007 33.751 150.066 33.8108 150.066 33.9856V38.4384C150.066 38.9674 150.007 39.3768 149.892 39.7264C149.777 40.076 149.597 40.3704 149.363 40.605C149.128 40.8396 148.834 41.0144 148.424 41.0742C148.015 41.1892 147.605 41.249 147.017 41.249H143.912C143.383 41.249 142.913 41.1892 142.504 41.0742C142.154 40.9592 141.8 40.7798 141.566 40.605C141.331 40.3704 141.156 40.076 141.037 39.7264C140.922 39.3768 140.862 38.9076 140.862 38.4384V33.9856C140.862 33.8108 140.922 33.751 141.096 33.751H142.269H142.384Z" fill="#919EAB"/>
<path d="M154.685 33.751C154.86 33.751 154.979 33.751 155.094 33.8108C155.209 33.8108 155.329 33.8706 155.389 33.9258C155.449 33.9856 155.564 34.0408 155.623 34.1604C155.683 34.2754 155.738 34.395 155.858 34.5698L158.084 39.7264C158.144 39.7862 158.144 39.8414 158.259 39.8414H158.374C158.434 39.8414 158.489 39.7816 158.549 39.7264L160.775 34.5698C160.835 34.395 160.89 34.2754 161.01 34.1604C161.07 34.0454 161.125 33.9856 161.245 33.9258C161.304 33.866 161.419 33.8108 161.539 33.8108C161.659 33.8108 161.774 33.751 161.948 33.751H163.121C163.471 33.751 163.765 33.8108 163.885 33.9856C164 34.1604 164.06 34.4548 164.06 34.8642V41.0144C164.06 41.1892 164 41.249 163.825 41.249H162.712C162.537 41.249 162.477 41.1892 162.477 41.0144V35.3932C162.477 35.3334 162.418 35.2782 162.418 35.2782H162.303C162.243 35.2782 162.188 35.338 162.188 35.338L160.021 40.1404C159.961 40.3152 159.846 40.49 159.727 40.6096C159.607 40.7292 159.552 40.8442 159.432 40.9592C159.317 41.019 159.198 41.134 159.083 41.134C158.968 41.1938 158.788 41.1938 158.613 41.1938H158.084C157.91 41.1938 157.735 41.1938 157.615 41.134C157.496 41.0742 157.381 41.019 157.266 40.9592C157.151 40.8994 157.091 40.7844 156.971 40.6096C156.856 40.4946 156.796 40.3152 156.677 40.1404L154.51 35.338C154.51 35.2782 154.45 35.2782 154.395 35.2782H154.28C154.22 35.2782 154.22 35.338 154.22 35.3932V41.019C154.22 41.1938 154.161 41.2536 153.986 41.2536H152.868C152.693 41.2536 152.633 41.1938 152.633 41.019V34.8642C152.633 34.4548 152.693 34.1604 152.808 33.9856C152.923 33.8108 153.218 33.751 153.572 33.751H154.745H154.685Z" fill="#919EAB"/>
</g>
<rect x="0.5" y="0.5" width="212" height="74" rx="3.5" stroke="#DFE3E8"/>
<defs>
<clipPath id="clip0_1902_1506">
<rect width="115" height="29.302" fill="white" transform="translate(49 22.849)"/>
</clipPath>
</defs>
</svg>
