<svg width="218" height="76" viewBox="0 0 218 76" fill="none" xmlns="http://www.w3.org/2000/svg">
<rect x="0.5" y="1.38232" width="217" height="74" rx="3.5" fill="white"/>
<path d="M85.32 30.1814V46.3948H82.0154V30.1814H85.32Z" fill="#919EAB"/>
<path d="M98.8078 35.463V46.4307C98.8078 49.8351 96.1588 51.928 92.917 51.928C89.792 51.928 87.4573 49.9878 87.2328 47.2481L90.5284 47.2661C90.6631 48.4338 91.6868 48.9368 93.0338 48.9368C94.3089 48.9368 95.4943 48.2541 95.4943 46.4756V45.0743C94.6502 45.6223 93.5726 45.9456 92.3693 45.9456C89.352 45.9456 86.9364 43.5024 86.9364 40.6909C86.9364 37.4212 89.361 35.2295 92.3693 35.2295C93.5815 35.2295 94.6502 35.5529 95.4943 36.1008V35.508L98.8078 35.463ZM95.5032 41.9215V39.2537C94.8298 38.2746 93.8958 37.9512 92.9709 37.9512C91.3456 37.9512 90.2141 39.0381 90.2141 40.6909C90.2141 41.9035 91.3456 43.2329 92.9709 43.2329C93.8958 43.2239 94.8298 42.8916 95.5032 41.9215Z" fill="#919EAB"/>
<path d="M111.99 40.7986C111.99 44.176 109.494 46.5833 106.144 46.5833C102.768 46.5833 100.272 44.176 100.272 40.7986C100.272 37.4481 102.768 34.9958 106.144 34.9958C109.494 34.9958 111.99 37.4481 111.99 40.7986ZM108.802 40.7986C108.802 39.2086 107.761 37.9241 106.144 37.9241C104.51 37.9241 103.468 39.2086 103.468 40.7986C103.468 42.4334 104.51 43.655 106.144 43.655C107.752 43.646 108.802 42.4334 108.802 40.7986Z" fill="#919EAB"/>
<path d="M132.509 35.481V46.3767L129.268 46.3947V45.7749C128.424 46.3228 127.346 46.6642 126.143 46.6642C123.125 46.6642 120.71 44.1042 120.71 40.9513C120.71 37.7805 123.134 35.2205 126.143 35.2205C127.355 35.2205 128.424 35.5618 129.268 36.1097V35.4899L132.509 35.481ZM129.268 42.6221V39.2806C128.585 38.3104 127.633 38.041 126.681 38.041C125.02 38.041 123.871 39.3704 123.871 40.9603C123.871 42.5322 125.02 43.8616 126.681 43.8616C127.633 43.8527 128.585 43.5922 129.268 42.6221Z" fill="#919EAB"/>
<path d="M145.835 40.4753V46.3948H142.648V40.8615C142.648 39.083 141.759 38.1398 140.178 38.1398C139.352 38.1398 138.445 38.6159 137.664 39.5321V46.3948H134.404V35.499H137.664V36.3254C138.553 35.6157 139.585 35.2295 140.816 35.2295C143.725 35.2295 145.835 37.2775 145.835 40.4753Z" fill="#919EAB"/>
<path d="M80.5068 46.3857H77.1394L74.9483 38.2386L70.2338 46.3857H66.4713L73.745 33.7743L72.5776 29.3908L62.7626 46.3947H59L71.4371 24.8367H74.7328L76.1785 30.1902H79.5819L77.2561 34.2324L80.5068 46.3857Z" fill="#919EAB"/>
<path d="M159 30.1813V46.3948H155.695V45.775C154.851 46.3229 153.774 46.6643 152.57 46.6643C149.553 46.6643 147.138 44.1042 147.138 40.9334C147.138 37.7805 149.562 35.2205 152.57 35.2205C153.783 35.2205 154.851 35.5619 155.695 36.1098V30.1724L159 30.1813ZM155.695 42.6311V39.2627C155.004 38.2836 154.043 38.0141 153.091 38.0141C151.421 38.0141 150.263 39.3525 150.263 40.9334C150.263 42.5413 151.421 43.8797 153.091 43.8797C154.043 43.8797 155.004 43.6102 155.695 42.6311Z" fill="#919EAB"/>
<path d="M120.117 38.2477C119.399 38.3375 117.71 38.4183 116.723 39.7837V46.4038H113.463V35.517H116.723V36.3344C117.468 35.6966 118.591 35.3194 120.117 35.4721V38.2477Z" fill="#919EAB"/>
<rect x="0.5" y="1.38232" width="217" height="74" rx="3.5" stroke="#DFE3E8"/>
</svg>
