<svg width="213" height="75" viewBox="0 0 213 75" fill="none" xmlns="http://www.w3.org/2000/svg">
<rect x="0.5" y="0.5" width="212" height="74" rx="3.5" fill="white"/>
<g clip-path="url(#clip0_1642_1588)">
<path d="M82.6871 39.5777C82.6855 39.6735 82.646 39.7648 82.5773 39.8316C82.5086 39.8984 82.4162 39.9353 82.3204 39.9342H75.5676C75.7408 41.6046 76.9936 43.1323 78.7658 43.1323C79.9778 43.1323 80.8741 42.674 81.5463 41.7064C81.5776 41.6556 81.6209 41.6132 81.6724 41.583C81.7239 41.5528 81.7821 41.5357 81.8417 41.5333C81.8862 41.532 81.9305 41.5398 81.9718 41.5563C82.0132 41.5727 82.0507 41.5974 82.0822 41.6289C82.1137 41.6604 82.1384 41.6979 82.1548 41.7393C82.1713 41.7806 82.1791 41.8249 82.1778 41.8694C82.1781 41.9308 82.1604 41.991 82.1269 42.0425C81.4445 43.224 80.0899 43.8046 78.7658 43.8046C76.4945 43.8046 74.8649 41.7675 74.8649 39.5981C74.8649 37.4286 76.4843 35.3916 78.7658 35.3916C81.0473 35.3916 82.6769 37.4083 82.6871 39.5777ZM81.9639 39.262C81.8214 37.5916 80.538 36.0638 78.7658 36.0638C76.9936 36.0638 75.7408 37.5916 75.5676 39.262H81.9639Z" fill="#4388DD"/>
<path d="M90.8963 35.5547C90.9847 35.5573 91.0687 35.5935 91.1312 35.656C91.1937 35.7185 91.2299 35.8025 91.2325 35.8909C91.2337 35.9353 91.2259 35.9796 91.2095 36.021C91.193 36.0623 91.1683 36.0999 91.1368 36.1313C91.1054 36.1628 91.0678 36.1875 91.0265 36.204C90.9851 36.2204 90.9408 36.2282 90.8963 36.227H89.0834V43.3464C89.0826 43.4353 89.0469 43.5203 88.9841 43.5832C88.9212 43.6461 88.8362 43.6817 88.7473 43.6825C88.6589 43.68 88.5749 43.6437 88.5124 43.5812C88.45 43.5188 88.4137 43.4347 88.4112 43.3464V36.227H86.6695C86.625 36.2282 86.5807 36.2204 86.5394 36.204C86.498 36.1875 86.4605 36.1628 86.429 36.1313C86.3975 36.0999 86.3728 36.0623 86.3564 36.021C86.3399 35.9796 86.3321 35.9353 86.3334 35.8909C86.3342 35.802 86.3698 35.7169 86.4327 35.6541C86.4956 35.5912 86.5806 35.5555 86.6695 35.5547H88.4112V32.9575C88.4113 32.8715 88.4422 32.7883 88.4982 32.7229C88.5542 32.6576 88.6317 32.6144 88.7167 32.601C88.7642 32.5947 88.8126 32.5988 88.8584 32.6128C88.9042 32.6269 88.9465 32.6507 88.9823 32.6826C89.018 32.7146 89.0465 32.7538 89.0657 32.7977C89.0849 32.8417 89.0944 32.8892 89.0936 32.9372V35.5547H90.8963Z" fill="#4388DD"/>
<path d="M101.947 38.9972V43.3055C101.945 43.3939 101.908 43.4779 101.846 43.5404C101.783 43.6028 101.699 43.6391 101.611 43.6416C101.567 43.6429 101.522 43.6351 101.481 43.6186C101.44 43.6022 101.402 43.5775 101.371 43.546C101.339 43.5145 101.314 43.477 101.298 43.4356C101.282 43.3943 101.274 43.35 101.275 43.3055V38.9972C101.275 37.5407 100.45 36.0944 98.8306 36.0944C96.7528 36.0944 95.8565 37.9074 95.9787 39.7713C95.9787 39.8222 95.9991 40.0361 95.9991 40.0666V43.2953C95.9989 43.3814 95.9681 43.4646 95.9121 43.5299C95.8561 43.5953 95.7786 43.6385 95.6936 43.6518C95.646 43.6581 95.5977 43.6541 95.5519 43.64C95.506 43.626 95.4638 43.6021 95.428 43.5702C95.3922 43.5383 95.3638 43.4991 95.3446 43.4551C95.3253 43.4112 95.3158 43.3637 95.3167 43.3157V29.1481C95.3175 29.0592 95.3532 28.9742 95.416 28.9113C95.4789 28.8485 95.5639 28.8128 95.6528 28.812C95.7411 28.8146 95.8252 28.8508 95.8876 28.9133C95.9501 28.9758 95.9864 29.0598 95.9889 29.1481V37.1537C96.5695 36.1148 97.6084 35.412 98.8204 35.412C100.817 35.412 101.947 37.1537 101.947 38.9972Z" fill="#4388DD"/>
<path d="M114.078 39.5777C114.076 39.6735 114.037 39.7648 113.968 39.8316C113.899 39.8984 113.807 39.9353 113.711 39.9342H106.958C107.132 41.6046 108.384 43.1323 110.157 43.1323C111.369 43.1323 112.265 42.674 112.937 41.7064C112.968 41.6556 113.012 41.6132 113.063 41.583C113.115 41.5528 113.173 41.5357 113.232 41.5333C113.277 41.532 113.321 41.5398 113.363 41.5563C113.404 41.5727 113.441 41.5974 113.473 41.6289C113.504 41.6604 113.529 41.6979 113.546 41.7393C113.562 41.7806 113.57 41.8249 113.569 41.8694C113.569 41.9308 113.551 41.991 113.518 42.0425C112.835 43.224 111.481 43.8046 110.157 43.8046C107.885 43.8046 106.256 41.7675 106.256 39.5981C106.256 37.4286 107.875 35.3916 110.157 35.3916C112.418 35.3916 114.068 37.4083 114.078 39.5777ZM113.345 39.262C113.202 37.5916 111.919 36.0638 110.146 36.0638C108.374 36.0638 107.121 37.5916 106.948 39.262H113.345Z" fill="#4388DD"/>
<path d="M122.379 35.8704C122.385 35.9609 122.356 36.0502 122.296 36.1189C122.237 36.1876 122.153 36.2301 122.063 36.2371C120.077 36.5325 119.181 38.1519 119.181 40.0362V43.2649C119.18 43.3509 119.149 43.4341 119.093 43.4995C119.037 43.5648 118.96 43.608 118.875 43.6214C118.827 43.6277 118.779 43.6236 118.733 43.6096C118.687 43.5955 118.645 43.5717 118.609 43.5398C118.574 43.5078 118.545 43.4686 118.526 43.4247C118.507 43.3807 118.497 43.3332 118.498 43.2852V35.9214C118.498 35.8353 118.529 35.7521 118.585 35.6868C118.641 35.6214 118.719 35.5782 118.804 35.5649C118.851 35.5586 118.9 35.5626 118.945 35.5767C118.991 35.5907 119.033 35.6146 119.069 35.6465C119.105 35.6784 119.133 35.7176 119.153 35.7616C119.172 35.8055 119.181 35.853 119.181 35.901V37.3982C119.741 36.451 120.851 35.5547 122.012 35.5547C122.185 35.5547 122.379 35.6769 122.379 35.8704Z" fill="#4388DD"/>
<path d="M133.481 39.5777C133.479 39.6735 133.439 39.7648 133.371 39.8316C133.302 39.8984 133.21 39.9353 133.114 39.9342H126.361C126.534 41.6046 127.787 43.1323 129.559 43.1323C130.771 43.1323 131.668 42.674 132.34 41.7064C132.371 41.6556 132.414 41.6132 132.466 41.583C132.517 41.5528 132.576 41.5357 132.635 41.5333C132.68 41.532 132.724 41.5398 132.765 41.5563C132.807 41.5727 132.844 41.5974 132.876 41.6289C132.907 41.6604 132.932 41.6979 132.948 41.7393C132.965 41.7806 132.973 41.8249 132.971 41.8694C132.972 41.9308 132.954 41.991 132.92 42.0425C132.238 43.224 130.883 43.8046 129.559 43.8046C127.288 43.8046 125.658 41.7675 125.658 39.5981C125.658 37.4286 127.278 35.3916 129.559 35.3916C131.841 35.3916 133.47 37.4083 133.481 39.5777ZM132.757 39.262C132.615 37.5916 131.331 36.0638 129.559 36.0638C127.787 36.0638 126.534 37.5916 126.361 39.262H132.757Z" fill="#4388DD"/>
<path d="M144.399 35.9518V43.3463C144.397 43.4346 144.36 43.5186 144.298 43.5811C144.235 43.6436 144.151 43.6798 144.063 43.6824C144.018 43.6836 143.974 43.6758 143.933 43.6594C143.892 43.6429 143.854 43.6182 143.822 43.5868C143.791 43.5553 143.766 43.5177 143.75 43.4764C143.733 43.435 143.726 43.3908 143.727 43.3463V41.9407C143.167 43.0509 142.179 43.8555 140.916 43.8555C138.909 43.8555 137.799 42.1139 137.799 40.2703V35.9416C137.8 35.8527 137.836 35.7677 137.898 35.7049C137.961 35.642 138.046 35.6063 138.135 35.6055C138.224 35.6081 138.308 35.6443 138.37 35.7068C138.432 35.7693 138.469 35.8533 138.471 35.9416V40.2703C138.471 41.7268 139.296 43.1731 140.916 43.1731C143.187 43.1731 143.727 41.0444 143.727 38.6916V35.9315C143.728 35.877 143.741 35.8235 143.767 35.7754C143.793 35.7273 143.83 35.6861 143.874 35.6552C143.919 35.6243 143.971 35.6046 144.025 35.5977C144.079 35.5908 144.134 35.597 144.185 35.6157C144.249 35.6455 144.303 35.6929 144.341 35.7525C144.379 35.8121 144.399 35.8812 144.399 35.9518Z" fill="#4388DD"/>
<path d="M161.5 38.9667V43.2954C161.497 43.3838 161.461 43.4678 161.399 43.5303C161.336 43.5928 161.252 43.629 161.164 43.6316C161.119 43.6328 161.075 43.625 161.034 43.6085C160.992 43.5921 160.955 43.5674 160.923 43.5359C160.892 43.5045 160.867 43.4669 160.851 43.4255C160.834 43.3842 160.827 43.3399 160.828 43.2954V38.9667C160.828 37.5103 160.003 36.0843 158.383 36.0843C156.346 36.0843 155.572 38.264 155.572 39.9547V43.2954C155.57 43.3838 155.533 43.4678 155.471 43.5303C155.408 43.5928 155.324 43.629 155.236 43.6316C155.192 43.6328 155.147 43.625 155.106 43.6085C155.065 43.5921 155.027 43.5674 154.996 43.5359C154.964 43.5045 154.939 43.4669 154.923 43.4255C154.907 43.3842 154.899 43.3399 154.9 43.2954V38.9667C154.9 37.5103 154.075 36.0843 152.456 36.0843C150.398 36.0843 149.553 37.7038 149.624 39.863C149.624 39.914 149.644 40.0056 149.624 40.0362V43.2853C149.624 43.3713 149.593 43.4545 149.537 43.5198C149.481 43.5852 149.404 43.6284 149.319 43.6417C149.271 43.6481 149.223 43.644 149.177 43.6299C149.131 43.6159 149.089 43.5921 149.053 43.5601C149.017 43.5282 148.989 43.489 148.97 43.445C148.95 43.4011 148.941 43.3536 148.942 43.3056V35.9214C148.942 35.8353 148.973 35.7521 149.029 35.6868C149.085 35.6214 149.162 35.5782 149.247 35.5649C149.295 35.5586 149.343 35.5626 149.389 35.5767C149.435 35.5908 149.477 35.6146 149.513 35.6465C149.549 35.6784 149.577 35.7177 149.596 35.7616C149.615 35.8055 149.625 35.8531 149.624 35.901V37.1334C150.205 36.0945 151.244 35.4121 152.456 35.4121C153.831 35.4121 154.9 36.288 155.338 37.5612C155.898 36.2982 156.988 35.4121 158.383 35.4121C160.369 35.4121 161.5 37.1334 161.5 38.9667Z" fill="#4388DD"/>
<path opacity="0.6" d="M59.9537 33.9148L51.5 37.7546L59.9537 42.7555L68.4176 37.7546L59.9537 33.9148Z" fill="#4388DD"/>
<path opacity="0.45" d="M51.5 37.7547L59.9537 42.7556V23.7195L51.5 37.7547Z" fill="#4388DD"/>
<path opacity="0.8" d="M59.9537 23.7195V42.7556L68.4176 37.7547L59.9537 23.7195Z" fill="#4388DD"/>
<path opacity="0.45" d="M51.5 39.364L59.9537 51.2807V44.3548L51.5 39.364Z" fill="#4388DD"/>
<path opacity="0.8" d="M59.9537 44.3548V51.2807L68.4176 39.364L59.9537 44.3548Z" fill="#4388DD"/>
</g>
<rect x="0.5" y="0.5" width="212" height="74" rx="3.5" stroke="#4388DD"/>
<defs>
<clipPath id="clip0_1642_1588">
<rect width="110" height="27.5611" fill="white" transform="translate(51.5 23.7195)"/>
</clipPath>
</defs>
</svg>
