<svg width="190" height="75" viewBox="0 0 190 75" fill="none" xmlns="http://www.w3.org/2000/svg">
<rect x="1" y="0.5" width="188" height="74" rx="3.5" fill="white"/>
<g clip-path="url(#clip0_1708_1557)">
<path d="M35 50.3945L53.0044 42.8122L47.3086 37.0339L35 50.3945ZM41.6128 31.2636L47.3086 37.0339L57.483 24.6055L41.6128 31.2636Z" fill="#919EAB"/>
<path d="M66.3152 34.0715H63.4966V32.5952H70.7761V34.0742H67.9664V42.419H66.3152V34.0715Z" fill="#919EAB"/>
<path d="M74.3049 32.5952H75.9428V36.844H80.0841V32.5952H81.7354V42.4225H80.0841V38.3212H75.9428V42.4225H74.3049V32.5952Z" fill="#919EAB"/>
<path d="M87.408 42.1206C86.8487 41.8662 86.427 41.3838 86.1429 40.6736C85.8588 39.9634 85.7168 38.9183 85.7168 37.5381C85.7168 36.1621 85.8609 35.1101 86.1491 34.3822C86.4373 33.6542 86.8614 33.1577 87.4213 32.8925C87.9805 32.631 88.7307 32.4999 89.6717 32.4993C90.6127 32.4987 91.3694 32.6298 91.9417 32.8925C92.5051 33.1547 92.9291 33.6474 93.2138 34.3706C93.4985 35.0939 93.6405 36.1482 93.6399 37.5337C93.6399 38.9097 93.4955 39.9548 93.2067 40.6692C92.9179 41.3835 92.4962 41.8673 91.9417 42.1206C91.3871 42.3734 90.6305 42.5 89.6717 42.5006C88.7129 42.5012 87.9584 42.3745 87.408 42.1206ZM91.0761 40.7553C91.4004 40.5777 91.6336 40.2428 91.7757 39.7504C91.9177 39.258 91.9887 38.5182 91.9887 37.531C91.9887 36.5101 91.9153 35.7466 91.7686 35.2406C91.6218 34.7346 91.3889 34.397 91.0699 34.2277C90.7503 34.0602 90.2842 33.9762 89.6717 33.9756C89.0769 33.9756 88.6197 34.062 88.3001 34.2348C87.9806 34.4076 87.7453 34.745 87.5944 35.2468C87.4435 35.7481 87.368 36.5095 87.368 37.531C87.368 38.5253 87.4367 39.2651 87.574 39.7504C87.7113 40.2357 87.9415 40.5706 88.2646 40.7553C88.5842 40.9328 89.0547 41.0216 89.6761 41.0216C90.2857 41.0216 90.7524 40.9328 91.0761 40.7553Z" fill="#919EAB"/>
<path d="M97.6216 32.5952H101.616C102.451 32.5952 103.112 32.8151 103.601 33.2548C104.089 33.6945 104.333 34.4906 104.333 35.6428C104.333 36.5128 104.18 37.1473 103.873 37.5462C103.567 37.946 103.147 38.2435 102.668 38.3993L104.559 42.4199H102.895L101.19 38.639C100.649 38.639 100.005 38.6298 99.2595 38.6115V42.4199H97.6216V32.5952ZM101.337 37.3225C101.763 37.3225 102.093 37.2005 102.328 36.9567C102.563 36.7129 102.682 36.2758 102.683 35.6455C102.683 35.0418 102.565 34.6276 102.328 34.4027C102.092 34.1778 101.761 34.0668 101.337 34.0698H99.2595V37.318L101.337 37.3225Z" fill="#919EAB"/>
<path d="M109.553 42.1073C109.056 41.8452 108.676 41.3501 108.414 40.6221C108.152 39.8942 108.021 38.8425 108.021 37.4671C108.021 36.1609 108.155 35.1465 108.421 34.4239C108.687 33.7013 109.078 33.1997 109.593 32.9192C110.107 32.6392 110.772 32.4993 111.59 32.4993C112.127 32.4998 112.664 32.5422 113.194 32.6262C113.66 32.6951 114.121 32.7951 114.573 32.9254V34.1931C114.307 34.1404 113.927 34.0919 113.434 34.0475C112.941 34.0031 112.438 33.9809 111.925 33.9809C111.339 33.9809 110.888 34.0718 110.573 34.2535C110.257 34.4351 110.029 34.7749 109.888 35.2726C109.745 35.7697 109.674 36.5095 109.674 37.4919C109.674 38.4744 109.741 39.2157 109.874 39.7157C110.007 40.2141 110.229 40.5559 110.54 40.7411C110.851 40.9263 111.308 41.0196 111.912 41.0207C112.802 41.0282 113.691 40.9792 114.575 40.8743V42.1393C113.767 42.376 112.759 42.4962 111.552 42.4997C110.716 42.5003 110.05 42.3695 109.553 42.1073Z" fill="#919EAB"/>
<path d="M118.448 32.5952H120.086V36.844H124.227V32.5952H125.878V42.4225H124.227V38.3212H120.086V42.4225H118.448V32.5952Z" fill="#919EAB"/>
<path d="M132.696 32.5952H134.774L137.969 42.4225H136.252L135.493 40.0895H131.942L131.196 42.4199H129.509L132.696 32.5952ZM135.093 38.6141L133.708 34.0076L132.323 38.6141H135.093Z" fill="#919EAB"/>
<path d="M141.578 32.5952H143.216V42.4225H141.578V32.5952Z" fill="#919EAB"/>
<path d="M147.556 32.5952H148.874L153.349 39.6128V32.5952H155V42.4225H153.682L149.207 35.4094V42.4225H147.556V32.5952Z" fill="#919EAB"/>
</g>
<rect x="1" y="0.5" width="188" height="74" rx="3.5" stroke="#DFE3E8"/>
<defs>
<clipPath id="clip0_1708_1557">
<rect width="120" height="25.789" fill="white" transform="translate(35 24.6055)"/>
</clipPath>
</defs>
</svg>
