<svg width="213" height="75" viewBox="0 0 213 75" fill="none" xmlns="http://www.w3.org/2000/svg">
<rect x="0.5" y="0.5" width="212" height="74" rx="3.5" fill="white"/>
<path d="M80.6103 38.0078V44.5712C80.6079 44.9805 80.4994 45.3822 80.2952 45.737C80.0911 46.0917 79.7985 46.3875 79.4458 46.5953L73.7603 49.8702C73.4081 50.0801 73.0058 50.1909 72.5958 50.1909C72.1859 50.1909 71.7835 50.0801 71.4314 49.8702L65.7458 46.5953C65.3932 46.3875 65.1005 46.0917 64.8964 45.737C64.6923 45.3822 64.5838 44.9805 64.5814 44.5712V42.7291L67.4924 41.0393V44.2415L72.5867 47.1979L77.681 44.2415V38.342L72.5867 35.3856L60.6516 42.2993C60.2961 42.4995 59.8951 42.6047 59.4871 42.6047C59.0792 42.6047 58.6782 42.4995 58.3227 42.2993L52.6371 39.0107C52.2899 38.7997 52.0029 38.5029 51.8037 38.1488C51.6045 37.7947 51.4999 37.3952 51.5 36.9889V30.4254C51.5024 30.0161 51.6109 29.6145 51.815 29.2597C52.0191 28.9049 52.3118 28.6092 52.6644 28.4014L58.35 25.1265C58.7029 24.9187 59.1049 24.8091 59.5144 24.8091C59.9239 24.8091 60.3259 24.9187 60.6788 25.1265L66.3645 28.4014C66.717 28.6092 67.0098 28.9049 67.2138 29.2597C67.4179 29.6145 67.5265 30.0161 67.5288 30.4254V32.2676L64.5996 33.9459V30.762L59.5053 27.8055L54.411 30.762V36.6546L59.5053 39.6111L71.4405 32.6974C71.7959 32.4971 72.197 32.392 72.605 32.392C73.0129 32.392 73.4139 32.4971 73.7693 32.6974L79.455 35.9859C79.8055 36.1947 80.0962 36.4906 80.2986 36.8448C80.5011 37.1991 80.6085 37.5997 80.6103 38.0078Z" fill="#919EAB"/>
<path d="M90.7414 46.9569V41.8421C91.2963 42.5403 92.3038 42.9314 93.4705 42.9314C96.4497 42.9314 98.4624 40.8164 98.4624 37.5916C98.4624 34.3667 96.6135 32.2516 93.7184 32.2516C92.3834 32.2516 91.3554 32.7451 90.7391 33.5457V32.4085H87.8872V46.95L90.7414 46.9569ZM93.118 40.4662C91.576 40.4662 90.5708 39.3154 90.5708 37.5916C90.5708 35.8677 91.576 34.6964 93.118 34.6964C94.6167 34.6964 95.6446 35.8336 95.6446 37.5916C95.6446 39.3496 94.6235 40.4662 93.118 40.4662Z" fill="#919EAB"/>
<path d="M104.945 42.9314C108.129 42.9314 110.403 40.6709 110.403 37.5916C110.403 34.5122 108.129 32.2516 104.945 32.2516C101.761 32.2516 99.4868 34.51 99.4868 37.5916C99.4868 40.6731 101.761 42.9314 104.945 42.9314ZM104.945 40.4662C103.405 40.4662 102.357 39.2949 102.357 37.5916C102.357 35.8881 103.408 34.6964 104.945 34.6964C106.482 34.6964 107.533 35.8654 107.533 37.5916C107.533 39.3177 106.487 40.4662 104.945 40.4662Z" fill="#919EAB"/>
<path d="M114.99 42.7677V27.9169H112.136V42.7677H114.99Z" fill="#919EAB"/>
<path d="M123.57 32.4152L121.414 39.0901L119.238 32.4152H116.315L120.072 42.6835L118.553 46.9567H121.283L122.749 42.7289L126.508 32.4198L123.57 32.4152Z" fill="#919EAB"/>
<path d="M134.526 33.4433C133.951 32.7246 132.935 32.2516 131.672 32.2516C128.652 32.2516 126.826 34.3667 126.826 37.5916C126.826 40.8164 128.645 42.9314 131.713 42.9314C132.925 42.9314 134.012 42.4766 134.547 41.7193V43.0838C134.547 44.0481 133.91 44.7258 133.048 44.7258H128.283V46.9659H133.501C135.841 46.9659 137.401 45.5491 137.401 43.3908V32.4154H134.526V33.4433ZM132.165 40.4662C130.644 40.4662 129.639 39.329 129.639 37.5916C129.639 35.854 130.644 34.6964 132.165 34.6964C133.687 34.6964 134.71 35.8336 134.71 37.5916C134.71 39.3496 133.705 40.4662 132.165 40.4662Z" fill="#919EAB"/>
<path d="M144.598 42.9314C147.782 42.9314 150.056 40.6709 150.056 37.5916C150.056 34.5122 147.782 32.2516 144.598 32.2516C141.415 32.2516 139.14 34.51 139.14 37.5916C139.14 40.6731 141.415 42.9314 144.598 42.9314ZM144.598 40.4662C143.057 40.4662 142.01 39.2949 142.01 37.5916C142.01 35.8881 143.057 34.6964 144.598 34.6964C146.14 34.6964 147.187 35.8654 147.187 37.5916C147.187 39.3177 146.138 40.4662 144.598 40.4662Z" fill="#919EAB"/>
<path d="M154.498 42.7677V37.098C154.498 35.7631 155.38 34.7988 156.634 34.7988C157.826 34.7988 158.626 35.7085 158.626 36.9547V42.7677H161.5V36.318C161.5 33.9346 159.982 32.2516 157.634 32.2516C156.217 32.2516 155.069 32.8475 154.494 33.8436V32.4154H151.624V42.7677H154.498Z" fill="#919EAB"/>
<rect x="0.5" y="0.5" width="212" height="74" rx="3.5" stroke="#DFE3E8"/>
</svg>
