<svg width="189" height="75" viewBox="0 0 189 75" fill="none" xmlns="http://www.w3.org/2000/svg">
<rect x="0.5" y="0.5" width="188" height="74" rx="3.5" fill="white"/>
<g clip-path="url(#clip0_1902_554)">
<path d="M76.4161 36.4139C75.8161 27.6099 68.1921 20.9579 59.3881 21.5579C55.0041 21.8579 51.1521 23.8979 48.4641 26.9579L48.4561 26.9539C48.4361 26.9779 48.4201 27.0019 48.4041 27.0259C45.7361 30.1059 44.2321 34.1979 44.5321 38.5859C44.5601 39.0059 44.6081 39.4139 44.6681 39.8219C44.6681 39.8419 44.6721 39.8579 44.6761 39.8779C44.7161 40.1459 44.7641 40.4139 44.8161 40.6779C44.8641 40.9219 44.9201 41.1619 44.9801 41.4019C46.8281 48.7619 53.7201 53.9739 61.5601 53.4419C70.3641 52.8419 77.0161 45.2219 76.4161 36.4139ZM72.9361 36.6539C73.0121 37.7379 72.9401 38.7979 72.7481 39.8219C72.7481 39.8179 72.7441 39.8099 72.7441 39.8059C71.5841 36.9739 69.2921 34.9299 67.2801 33.8019C67.6881 29.0059 66.0601 26.9819 64.2161 26.6539C62.7681 26.3819 61.3761 27.3339 61.1041 28.7819C61.0961 28.8339 61.0881 28.8859 61.0801 28.9379C60.8921 30.3979 61.9241 31.7339 63.3841 31.9219H63.3881C63.5161 31.9379 63.6441 31.9419 63.7641 31.9419C63.7721 32.1139 63.7761 32.2859 63.7761 32.4579C62.0721 32.0379 60.4801 31.9499 59.0281 32.0819C58.4801 32.1179 57.9401 32.1859 57.4001 32.2859C57.5801 30.6659 58.1921 28.8459 59.3681 27.5179C60.5081 26.2299 62.2041 25.4939 64.0521 25.6819C64.4041 25.7179 64.7761 25.8059 65.1121 25.9179C65.1281 25.9219 65.1441 25.9299 65.1601 25.9299C69.4481 27.6739 72.6001 31.7379 72.9361 36.6539ZM61.7961 39.0939C61.7961 39.0939 61.7961 39.0979 61.7921 39.0979C61.3881 39.6779 60.9321 40.2179 60.4241 40.7139C59.6601 39.9059 59.0121 38.9939 58.5001 38.0019C58.4761 37.9499 58.4481 37.9019 58.4241 37.8499V37.8459C58.1241 37.2059 57.8841 36.5379 57.7081 35.8539C58.8441 35.5859 59.9561 35.4859 61.0201 35.5379L61.1881 35.5459H61.1921C61.8601 35.6019 62.5561 35.7219 63.2721 35.9219C62.9441 37.0459 62.4441 38.1139 61.7961 39.0939ZM56.3401 25.7099L56.3321 25.7219C54.4561 28.1419 53.8321 31.1459 53.8601 33.4539C49.5001 35.4979 48.5641 37.9179 49.2001 39.6819C49.2161 39.7299 49.2361 39.7779 49.2561 39.8259C49.8241 41.1859 51.3881 41.8259 52.7481 41.2579C54.1081 40.6899 54.7481 39.1259 54.1801 37.7659C54.1321 37.6499 54.0721 37.5379 54.0081 37.4299C54.1441 37.3379 54.2921 37.2499 54.4521 37.1579C54.9401 38.8459 55.6561 40.2699 56.4961 41.4619C56.8001 41.9139 57.1281 42.3459 57.4841 42.7659C55.9921 43.4179 54.1081 43.8019 52.3681 43.4459C50.6841 43.1019 49.2001 42.0019 48.4361 40.3059C48.2881 39.9739 48.1801 39.6259 48.1081 39.2699C48.0641 38.9659 48.0281 38.6579 48.0081 38.3499C47.6201 32.6219 51.1681 27.5259 56.3401 25.7099ZM61.3201 49.9619C57.9201 50.1939 54.7441 49.0339 52.3401 46.9739C55.3721 47.3859 58.2841 46.4259 60.2721 45.2459C64.2241 47.9979 66.7881 47.6019 67.9961 46.1699C68.9561 45.0499 68.8281 43.3659 67.7081 42.4059C67.6681 42.3699 67.6281 42.3379 67.5841 42.3059C66.4121 41.4139 64.7361 41.6379 63.8441 42.8099C63.7681 42.9099 63.7001 43.0219 63.6401 43.1299C63.4961 43.0539 63.3401 42.9739 63.1881 42.8819C64.3001 41.7339 65.2121 40.4059 65.8881 38.9539C66.1281 38.4619 66.3401 37.9579 66.5241 37.4419C67.8361 38.4099 69.1121 39.8459 69.6761 41.5339C70.2201 43.1619 70.0121 45.0019 68.9241 46.5099C68.7081 46.8019 68.4641 47.0699 68.1921 47.3099L68.1801 47.3219C66.2121 48.8739 63.8201 49.7899 61.3201 49.9619Z" fill="#4388DD"/>
<path opacity="0.9" d="M64.216 26.6461C63.916 26.5901 63.608 26.5861 63.308 26.6341C64.836 27.4661 65.952 29.7821 65.364 34.3541C65.172 35.8421 64.732 37.2861 64.072 38.6301C63.5 39.8581 62.756 40.9981 61.864 42.0141C62.288 42.3341 62.732 42.6221 63.192 42.8861C64.304 41.7381 65.22 40.4101 65.892 38.9581C66.556 37.6141 66.992 36.1701 67.184 34.6821C67.88 29.2461 66.168 26.9981 64.216 26.6461Z" fill="#4388DD"/>
<path opacity="0.8" d="M65.3641 34.354C65.9481 29.782 64.8361 27.466 63.3081 26.634C63.2481 26.642 63.1921 26.654 63.1321 26.67C64.6281 27.53 65.7041 29.846 65.1281 34.354C64.9361 35.842 64.4961 37.286 63.8361 38.63C63.2841 39.814 62.5761 40.918 61.7201 41.906C61.7681 41.946 61.8161 41.982 61.8641 42.014C62.7561 40.994 63.5001 39.854 64.0721 38.63C64.7321 37.286 65.1721 35.842 65.3641 34.354Z" fill="#4388DD"/>
<path opacity="0.5" d="M59.552 44.7221C59.408 44.6141 59.272 44.4981 59.132 44.3821C56.876 45.3221 53.748 45.9141 50.644 45.1901C51.148 45.8381 51.72 46.4341 52.344 46.9701C55.376 47.3821 58.288 46.4221 60.276 45.2421C60.028 45.0741 59.788 44.8981 59.552 44.7221Z" fill="#4388DD"/>
<path opacity="0.6" d="M59.132 44.382C59.064 44.326 58.992 44.266 58.928 44.21C56.656 45.118 53.512 45.662 50.416 44.89C50.492 44.99 50.568 45.094 50.644 45.194C53.748 45.914 56.876 45.322 59.132 44.382Z" fill="#4388DD"/>
<path opacity="0.9" d="M49.204 39.6821C49.22 39.7301 49.24 39.7781 49.26 39.8261C49.36 40.0661 49.492 40.2821 49.652 40.4781C49.608 38.7381 51.056 36.6141 55.308 34.8341C56.692 34.2581 58.164 33.9141 59.66 33.8181C61.008 33.6981 62.368 33.7701 63.696 34.0381C63.764 33.4621 63.792 32.9261 63.788 32.4541C62.236 32.0621 60.632 31.9381 59.036 32.0781C57.54 32.1781 56.068 32.5181 54.684 33.0941C49.62 35.2141 48.528 37.8181 49.204 39.6821Z" fill="#4388DD"/>
<path opacity="0.8" d="M55.3041 34.838C51.0561 36.614 49.6041 38.742 49.6481 40.478C49.6881 40.526 49.7281 40.57 49.7681 40.614C49.7641 38.89 51.2321 36.798 55.4241 35.042C56.8081 34.466 58.2801 34.122 59.7761 34.026C61.0761 33.91 62.3881 33.974 63.6721 34.218C63.6801 34.158 63.6881 34.098 63.6921 34.038C62.3641 33.774 61.0041 33.702 59.6561 33.818C58.1601 33.918 56.6881 34.258 55.3041 34.838Z" fill="#4388DD"/>
<path opacity="0.4" d="M67.188 34.6861C67.168 34.8661 67.136 35.0421 67.104 35.2181C69.044 36.7021 71.12 39.1141 72.052 42.1661C72.36 41.4021 72.592 40.6101 72.744 39.8021C71.588 36.9701 69.296 34.9301 67.284 33.7981C67.26 34.0861 67.228 34.3781 67.188 34.6861Z" fill="#4388DD"/>
<path opacity="0.5" d="M67.104 35.218C67.088 35.306 67.072 35.394 67.056 35.482C68.98 36.998 71.02 39.446 71.9 42.514C71.952 42.398 72 42.278 72.048 42.162C71.12 39.114 69.048 36.702 67.104 35.218Z" fill="#4388DD"/>
<path opacity="0.9" d="M68.0001 46.1661C68.1961 45.9341 68.3561 45.6701 68.4641 45.3861C66.9801 46.2941 64.4161 46.0981 60.7481 43.3061C59.5561 42.3941 58.5241 41.2941 57.6921 40.0461C56.9121 38.9381 56.2961 37.7261 55.8641 36.4421C55.3321 36.6701 54.8561 36.9141 54.4441 37.1541C54.8841 38.6941 55.5761 40.1461 56.4961 41.4541C57.3161 42.6781 58.3401 43.7861 59.5521 44.7141C63.9161 48.0421 66.7201 47.6821 68.0001 46.1661Z" fill="#4388DD"/>
<path opacity="0.8" d="M60.752 43.306C64.416 46.098 66.98 46.294 68.468 45.382C68.488 45.326 68.508 45.266 68.524 45.214C67.032 46.082 64.488 45.854 60.872 43.102C59.68 42.19 58.648 41.09 57.816 39.842C57.064 38.774 56.468 37.606 56.036 36.374C55.98 36.398 55.924 36.422 55.868 36.446C56.304 37.73 56.92 38.942 57.696 40.05C58.516 41.274 59.54 42.382 60.752 43.306Z" fill="#4388DD"/>
<path opacity="0.3" d="M54.676 33.0899C54.844 33.0219 55.008 32.9579 55.18 32.8939C55.492 30.4699 56.544 27.4659 58.724 25.1379C57.908 25.2539 57.108 25.4459 56.332 25.7179C54.456 28.1379 53.832 31.1419 53.86 33.4499C54.12 33.3299 54.392 33.2099 54.676 33.0899Z" fill="#4388DD"/>
<path opacity="0.4" d="M55.1801 32.8941C55.2641 32.8661 55.3481 32.8301 55.4321 32.8021C55.7801 30.3781 56.8801 27.3861 59.1001 25.0901C58.9761 25.1021 58.8481 25.1221 58.7241 25.1381C56.5441 27.4661 55.4921 30.4701 55.1801 32.8941Z" fill="#4388DD"/>
<path opacity="0.4" d="M59.3881 21.558C55.0001 21.858 51.1521 23.898 48.4641 26.958L48.4041 27.026C48.9281 27.546 50.6401 28.57 51.3281 28.994C52.7081 27.51 54.4281 26.382 56.3401 25.71C56.4761 25.534 56.6161 25.362 56.7641 25.194C58.5681 23.158 61.0321 22.082 63.8921 22.082C64.2081 22.082 64.8561 22.134 64.8721 22.134C63.0921 21.626 61.2401 21.43 59.3881 21.558Z" fill="url(#paint0_linear_1902_554)"/>
<path opacity="0.4" d="M61.3201 49.9621C57.9201 50.1941 54.7441 49.0341 52.3401 46.9741C52.1161 46.9461 51.8921 46.9061 51.6681 46.8621C49.0001 46.3181 46.8361 44.7221 45.4081 42.2461C45.2521 41.9741 45.1081 41.6901 44.9801 41.4021C46.8281 48.7621 53.7201 53.9741 61.5561 53.4421C61.5921 52.6341 61.3521 50.7621 61.3201 49.9621Z" fill="#4388DD"/>
<path opacity="0.4" d="M76.4161 36.414C75.9241 36.366 73.5281 36.554 72.9361 36.65C73.0081 37.734 72.9401 38.794 72.7481 39.818C72.8321 40.022 72.9081 40.23 72.9801 40.438C73.8401 43.018 73.5401 45.69 72.1121 48.17C71.9521 48.442 71.7841 48.706 71.5961 48.962C71.5961 48.962 71.6041 48.958 71.6081 48.95C74.8561 45.798 76.7441 41.29 76.4161 36.414Z" fill="#4388DD"/>
<path opacity="0.5" d="M64.0601 25.678C64.4081 25.714 64.7841 25.802 65.1201 25.914C65.1361 25.918 65.1521 25.926 65.1681 25.926C66.5401 26.486 67.8001 27.286 68.8961 28.282C68.8961 28.282 68.9001 28.286 68.9041 28.286C69.4281 27.686 70.4401 27.03 70.4401 27.03C70.4401 27.03 68.8961 25.45 66.5281 24.958C64.8721 24.614 61.1401 24.282 58.7841 28.29L58.8041 28.27C58.9801 28.006 59.1641 27.75 59.3721 27.514C60.5161 26.222 62.2081 25.486 64.0601 25.678Z" fill="#4388DD"/>
<path opacity="0.5" d="M68.9201 46.5139C68.7041 46.8059 68.4601 47.0739 68.1881 47.3139C68.1761 47.3259 68.1641 47.3339 68.1521 47.3459C66.9801 48.2539 65.6601 48.9459 64.2481 49.3939C64.2441 49.3939 64.2441 49.3939 64.2401 49.3979C64.4961 50.1539 64.5641 51.3579 64.5641 51.3579C64.5641 51.3579 66.7041 50.8099 68.3161 49.0099C69.4401 47.7499 71.5961 44.6819 69.3041 40.6379C69.3041 40.6379 69.3081 40.6499 69.3121 40.6659C69.4561 40.9499 69.5841 41.2379 69.6801 41.5339C70.2201 43.1699 70.0121 45.0059 68.9201 46.5139Z" fill="#4388DD"/>
<path opacity="0.5" d="M48.4441 40.31C48.2961 39.978 48.1881 39.63 48.1161 39.274C48.1121 39.258 48.1081 39.242 48.1041 39.226C47.9001 37.754 47.9681 36.258 48.2801 34.822V34.814C47.4961 34.662 46.4241 34.114 46.4241 34.114C46.4241 34.114 45.8281 36.246 46.5841 38.538C47.1161 40.142 48.6921 43.542 53.3401 43.578C53.3401 43.578 53.3281 43.574 53.3121 43.57C52.9961 43.55 52.6841 43.518 52.3761 43.454C50.6881 43.106 49.2041 42.006 48.4441 40.31Z" fill="#4388DD"/>
<path opacity="0.6" d="M63.388 31.918C63.516 31.934 63.644 31.938 63.764 31.938C63.764 31.938 63.68 30.278 63.476 29.426C63.272 28.574 62.968 28.01 62.64 27.69C62.404 27.462 61.656 27.174 61.076 28.93C60.888 30.39 61.916 31.726 63.38 31.914C63.384 31.914 63.384 31.914 63.388 31.918Z" fill="url(#paint1_linear_1902_554)"/>
<path opacity="0.5" d="M54.1841 37.7701C54.1361 37.6541 54.0761 37.5421 54.0121 37.4341C54.0121 37.4341 52.6161 38.3381 51.9801 38.9381C51.3441 39.5381 51.0081 40.0861 50.8961 40.5301C50.8161 40.8501 50.9441 41.6381 52.7521 41.2621C54.1121 40.6941 54.7521 39.1301 54.1841 37.7701Z" fill="url(#paint2_linear_1902_554)"/>
<path opacity="0.6" d="M63.8521 42.81C63.7761 42.91 63.7081 43.022 63.6481 43.13C63.6481 43.13 65.1281 43.886 65.9681 44.138C66.8081 44.386 67.4481 44.41 67.8881 44.282C68.2041 44.19 68.8241 43.686 67.5961 42.306C66.4201 41.414 64.7441 41.638 63.8521 42.81C63.8521 42.814 63.8521 42.814 63.8521 42.81Z" fill="url(#paint3_linear_1902_554)"/>
<path opacity="0.3" d="M63.2761 35.926C62.9401 37.042 62.4681 38.058 61.8921 38.95C61.8601 38.998 61.8321 39.042 61.8001 39.094C61.8001 39.094 61.8001 39.098 61.7961 39.098C61.3921 39.678 60.9361 40.218 60.4281 40.714C60.7961 41.102 61.1881 41.478 61.6241 41.838C62.1201 42.226 62.6401 42.578 63.1881 42.886C64.3001 41.738 65.2161 40.41 65.8881 38.958C66.1281 38.466 66.3401 37.962 66.5201 37.446C65.9561 37.034 65.3881 36.702 64.8641 36.478C64.3481 36.258 63.8161 36.074 63.2761 35.926Z" fill="url(#paint4_linear_1902_554)"/>
<path opacity="0.3" d="M52.344 46.974C55.372 47.386 58.288 46.426 60.276 45.246C60.032 45.074 59.792 44.902 59.552 44.722C58.796 44.146 58.104 43.49 57.484 42.766C55.992 43.418 54.108 43.802 52.368 43.446C50.684 43.102 49.2 42.002 48.436 40.306C48.288 39.974 48.18 39.626 48.108 39.27C48.548 42.362 50.104 45.058 52.344 46.974Z" fill="#4388DD"/>
<path opacity="0.3" d="M60.428 40.7142C59.664 39.9062 59.016 38.9942 58.504 38.0062C58.48 37.9542 58.452 37.9062 58.428 37.8542V37.8502C58.128 37.2102 57.888 36.5422 57.712 35.8582C57.192 35.9822 56.672 36.1342 56.144 36.3302C55.56 36.5622 54.996 36.8382 54.452 37.1542C54.94 38.8422 55.66 40.2662 56.5 41.4582C56.804 41.9102 57.132 42.3422 57.492 42.7622C58.132 42.4822 58.704 42.1542 59.16 41.8102C59.608 41.4742 60.032 41.1062 60.428 40.7142Z" fill="#4388DD"/>
<path opacity="0.3" d="M56.332 25.722C54.456 28.142 53.832 31.146 53.86 33.454C54.128 33.326 54.404 33.206 54.676 33.09C55.552 32.722 56.464 32.45 57.4 32.278C57.58 30.658 58.192 28.838 59.368 27.51C60.508 26.222 62.204 25.486 64.052 25.674C64.4 25.71 64.776 25.798 65.112 25.91C65.128 25.914 65.144 25.922 65.16 25.922C63.408 25.206 61.512 24.902 59.624 25.034C58.476 25.114 57.376 25.346 56.336 25.714C56.332 25.714 56.332 25.718 56.332 25.722Z" fill="#4388DD"/>
<path opacity="0.3" d="M72.744 39.7979C71.584 36.9659 69.292 34.9219 67.28 33.7939C67.256 34.0819 67.224 34.3779 67.184 34.6859C67.06 35.6299 66.84 36.5539 66.524 37.4499C67.836 38.4179 69.112 39.8539 69.676 41.5419C70.22 43.1699 70.012 45.0099 68.924 46.5179C68.708 46.8099 68.464 47.0779 68.192 47.3179L68.18 47.3299C70.528 45.4859 72.184 42.8299 72.756 39.8219C72.756 39.8179 72.752 39.8099 72.752 39.8059L72.744 39.7979Z" fill="url(#paint5_linear_1902_554)"/>
<path opacity="0.3" d="M57.3961 34.2021C57.4641 34.7581 57.5681 35.3101 57.7121 35.8541C58.8481 35.5861 59.9601 35.4861 61.0241 35.5381L61.1921 35.5461H61.1961C61.8641 35.6021 62.5601 35.7221 63.2761 35.9221C63.4281 35.4101 63.5561 34.8781 63.6521 34.3261C63.7521 33.6381 63.7841 32.9981 63.7801 32.4461C62.0761 32.0261 60.4841 31.9381 59.0321 32.0701C58.4841 32.1061 57.9441 32.1741 57.4041 32.2741C57.3281 32.9741 57.3241 33.6301 57.3961 34.2021Z" fill="url(#paint6_linear_1902_554)"/>
<path d="M124.624 33.3899L122.568 39.1139H122.584L124.636 33.4219L124.624 33.3899ZM88.1161 33.3899L86.0601 39.1139H86.0681L88.1241 33.4099C88.1241 33.4059 88.1161 33.3899 88.1161 33.3899ZM88.6321 34.8179L90.1761 39.1099H87.0841L86.3041 41.2739H90.9641L92.2841 44.9459H95.2401L89.8521 31.4299L88.6321 34.8179Z" fill="#4388DD"/>
<path d="M86.0601 39.114L88.1161 33.39L88.1241 33.41L88.9921 31.002H86.7241L81.1801 44.95H83.9641L86.0681 39.11L86.0601 39.114ZM104.196 37.766C103.524 37.37 102.628 36.998 101.516 36.654C100.88 36.446 100.38 36.254 100.02 36.078C99.6601 35.902 99.4081 35.698 99.2681 35.474C99.1281 35.246 99.0561 34.982 99.0561 34.674C99.0561 34.134 99.2641 33.718 99.6801 33.426C100.096 33.134 100.68 32.986 101.424 32.986C102.036 32.986 102.672 33.078 103.34 33.262C104.008 33.446 104.596 33.698 105.112 34.014L105.496 31.758C104.972 31.442 104.332 31.186 103.58 30.994C102.844 30.806 102.088 30.71 101.332 30.71C100.316 30.71 99.4361 30.874 98.6921 31.206C97.9441 31.538 97.3681 32.006 96.9601 32.618C96.5481 33.23 96.3441 33.954 96.3441 34.782C96.3441 35.494 96.4801 36.106 96.7561 36.626C97.0321 37.146 97.4801 37.598 98.1041 37.974C98.7281 38.354 99.5481 38.698 100.564 39.002C101.296 39.226 101.864 39.43 102.272 39.626C102.676 39.822 102.96 40.038 103.116 40.278C103.276 40.518 103.352 40.802 103.352 41.13C103.352 41.706 103.116 42.154 102.648 42.478C102.176 42.802 101.524 42.966 100.692 42.966C99.9681 42.966 99.2161 42.854 98.4241 42.626C97.6321 42.398 96.9481 42.11 96.3601 41.754L96.1041 44.082C96.4441 44.314 96.8761 44.518 97.3881 44.686C97.9041 44.858 98.4561 44.994 99.0481 45.09C99.6401 45.19 100.232 45.238 100.82 45.238C102.472 45.238 103.768 44.862 104.712 44.11C105.652 43.358 106.124 42.314 106.124 40.982C106.124 40.274 105.972 39.658 105.664 39.138C105.36 38.622 104.872 38.162 104.196 37.766ZM118.84 31.002H107.04V33.278H118.84V31.002ZM114.344 34.23H111.536V44.95H114.344V34.23ZM122.568 39.114L124.624 33.39L124.636 33.422L125.508 31.002H123.228L117.688 44.954H120.476L121.796 41.282H121.8L122.584 39.118L122.568 39.114ZM125.14 34.83L126.676 39.114H123.592L122.812 41.278H127.464L128.784 44.95H131.74L126.356 31.446L125.14 34.83ZM140.828 39.298C141.492 38.926 142.06 38.402 142.48 37.766C142.908 37.122 143.124 36.374 143.124 35.518C143.124 34.586 142.916 33.786 142.5 33.114C142.084 32.442 141.492 31.922 140.72 31.554C139.948 31.186 139.032 31.006 137.968 31.006H136.992V33.118H137.6C139.46 33.118 140.388 33.914 140.388 35.502C140.388 37.09 139.428 37.886 137.504 37.886H136.988V39.998H138.42L141.356 44.954H144.496L140.828 39.298ZM136.04 31.002H133.38V44.95H136.04V31.002Z" fill="#4388DD"/>
</g>
<rect x="0.5" y="0.5" width="188" height="74" rx="3.5" stroke="#4388DD"/>
<defs>
<linearGradient id="paint0_linear_1902_554" x1="59.6366" y1="23.838" x2="54.4291" y2="25.3529" gradientUnits="userSpaceOnUse">
<stop stop-color="#231F20"/>
<stop offset="1" stop-color="white"/>
</linearGradient>
<linearGradient id="paint1_linear_1902_554" x1="63.5339" y1="29.048" x2="61.327" y2="31.2581" gradientUnits="userSpaceOnUse">
<stop stop-color="#231F20"/>
<stop offset="1" stop-color="white"/>
</linearGradient>
<linearGradient id="paint2_linear_1902_554" x1="51.6259" y1="39.0755" x2="54.6419" y2="39.8857" gradientUnits="userSpaceOnUse">
<stop stop-color="#231F20"/>
<stop offset="1" stop-color="white"/>
</linearGradient>
<linearGradient id="paint3_linear_1902_554" x1="66.2632" y1="44.3722" x2="65.4551" y2="41.3573" gradientUnits="userSpaceOnUse">
<stop stop-color="#231F20"/>
<stop offset="1" stop-color="white"/>
</linearGradient>
<linearGradient id="paint4_linear_1902_554" x1="61.6664" y1="41.6888" x2="62.9927" y2="39.8596" gradientUnits="userSpaceOnUse">
<stop stop-color="#231F20"/>
<stop offset="1" stop-color="white"/>
</linearGradient>
<linearGradient id="paint5_linear_1902_554" x1="66.0802" y1="40.1822" x2="67.7209" y2="40.5598" gradientUnits="userSpaceOnUse">
<stop stop-color="#231F20"/>
<stop offset="1" stop-color="white"/>
</linearGradient>
<linearGradient id="paint6_linear_1902_554" x1="63.507" y1="34.636" x2="61.4259" y2="34.2584" gradientUnits="userSpaceOnUse">
<stop stop-color="#231F20"/>
<stop offset="1" stop-color="white"/>
</linearGradient>
<clipPath id="clip0_1902_554">
<rect width="100" height="31.916" fill="white" transform="translate(44.5 21.542)"/>
</clipPath>
</defs>
</svg>
