<svg width="213" height="75" viewBox="0 0 213 75" fill="none" xmlns="http://www.w3.org/2000/svg">
<g clip-path="url(#clip0_1807_849)">
<rect width="213" height="75" rx="4" fill="white"/>
<path d="M85.3716 27.7057H89.7753C90.8943 27.7057 91.7125 28.0065 92.2419 28.5239C92.7593 28.9691 92.9879 29.5707 92.9879 30.1603C92.9879 30.3889 92.9879 30.6776 92.9157 30.9062C92.7713 31.2792 92.5427 31.6522 92.2419 31.953C92.0975 32.0974 91.9411 32.1816 91.7967 32.2538C92.3141 32.3982 92.7713 32.699 93.1443 33.072C93.4451 33.445 93.5895 33.8902 93.5895 34.564C93.5895 34.937 93.5173 35.3822 93.3609 35.683C93.2165 35.9838 92.9157 36.2846 92.6149 36.5012C92.2419 36.7298 91.8689 36.8742 91.4959 37.0185C91.0507 37.1629 90.5213 37.1629 90.0039 37.1629H85.4438V27.6816H85.3716V27.7057ZM89.4023 31.58C89.7753 31.58 90.1483 31.5078 90.5213 31.3514C90.8221 31.207 90.9665 30.9062 90.9665 30.6054C90.9665 30.3046 90.8221 30.0038 90.5935 29.8594C90.2927 29.6308 89.9197 29.5586 89.5467 29.6308H87.4531V31.6402H89.3903V31.58H89.4023ZM89.9197 35.3942C90.2927 35.3942 90.6657 35.322 91.0387 35.1656C91.3395 35.0212 91.4839 34.7204 91.4117 34.3474C91.4117 34.0466 91.2673 33.7458 91.0387 33.6014C90.8101 33.457 90.3649 33.3006 89.8475 33.3006H87.3809V35.3942H89.9197Z" fill="#4388DD"/>
<path d="M96.1885 27.7058H98.2821V37.2593H96.1885V27.7058Z" fill="#4388DD"/>
<path d="M101.495 27.7058H103.432L107.908 33.6015V27.7058H109.989V37.2593H108.209L103.504 31.2071V37.2593H101.495V27.7058Z" fill="#4388DD"/>
<path d="M116.342 27.6335H118.279L122.382 37.2592H120.217L119.326 35.0934H115.295L114.405 37.2592H112.239L116.342 27.6335ZM118.58 33.3007L117.317 30.1723L116.053 33.3007H118.58Z" fill="#4388DD"/>
<path d="M124.62 27.7058H126.557L131.033 33.6015V27.7058H133.127V37.2593H131.334L126.702 31.2071V37.2593H124.62V27.7058Z" fill="#4388DD"/>
<path d="M140.731 37.4035C140.058 37.4035 139.384 37.2591 138.794 37.0305C137.603 36.5132 136.701 35.6107 136.183 34.4196C135.955 33.818 135.81 33.1562 135.81 32.4824C135.81 31.219 136.328 29.9436 137.23 28.9811C137.675 28.5359 138.205 28.1629 138.794 27.9343C139.468 27.6335 140.142 27.5613 140.803 27.5613C141.176 27.5613 141.622 27.5613 141.995 27.6335C142.368 27.7057 142.668 27.7779 142.969 27.9343C143.27 28.0787 143.571 28.2351 143.787 28.3795C144.016 28.5238 144.305 28.7525 144.533 28.9811L143.27 30.5452C142.897 30.2444 142.524 29.9436 142.151 29.7271C141.778 29.5105 141.333 29.4263 140.888 29.4263C140.515 29.4263 140.142 29.4984 139.769 29.6549C139.396 29.7992 139.095 30.0279 138.878 30.3287C138.662 30.6295 138.433 30.9303 138.277 31.3033C138.132 31.6763 138.048 32.0492 138.048 32.4222C138.048 32.7952 138.12 33.2404 138.277 33.6134C138.433 33.9864 138.578 34.2872 138.878 34.588C139.396 35.1896 140.142 35.4784 140.888 35.4784C141.333 35.4784 141.862 35.4062 142.308 35.1776C142.681 34.949 143.126 34.6602 143.426 34.3594L144.762 35.695C144.533 35.9236 144.245 36.2124 144.016 36.441C143.715 36.6696 143.414 36.814 143.126 36.9583C142.825 37.1027 142.452 37.2591 142.079 37.3313C141.549 37.4035 141.104 37.4035 140.731 37.4035Z" fill="#4388DD"/>
<path d="M147.156 27.7058H154.315V29.5708H149.166V31.508H153.714V33.3729H149.166V35.3943H154.388V37.2593H147.156V27.7058Z" fill="#4388DD"/>
<path d="M88.0548 46.6562C87.5374 46.6562 87.008 46.584 86.5628 46.3554C86.1176 46.211 85.6724 45.9102 85.2152 45.5372L85.9612 44.719C86.262 45.0198 86.5628 45.1642 86.9358 45.3928C87.3088 45.5372 87.6818 45.6215 88.0548 45.6215C88.3556 45.6215 88.6564 45.5493 88.9452 45.3928C89.1738 45.2485 89.246 45.0198 89.246 44.7912C89.246 44.719 89.246 44.5626 89.1738 44.4904C89.1016 44.4182 89.0294 44.2618 88.9452 44.1896C88.8008 44.1174 88.6444 44.0452 88.5 43.961C88.2714 43.8888 87.9826 43.8166 87.754 43.7324C87.4532 43.6602 87.0802 43.588 86.7794 43.4316C86.5508 43.3594 86.262 43.203 86.1056 43.0586C85.9612 42.9142 85.8048 42.7578 85.6604 42.5412C85.516 42.2404 85.516 41.9396 85.516 41.7231C85.516 41.4223 85.5882 41.2057 85.6604 40.9049C85.7326 40.6763 85.9612 40.4597 86.1056 40.3033C86.3342 40.1589 86.5508 40.0025 86.8516 39.9303C87.1524 39.8581 87.4532 39.7859 87.7419 39.7859C88.1871 39.7859 88.6323 39.8581 89.0895 40.0145C89.4625 40.1589 89.8355 40.3875 90.2085 40.6161L89.6069 41.5065C89.3061 41.2779 89.0053 41.1335 88.7165 40.9891C88.4157 40.8447 88.1149 40.8447 87.8262 40.8447C87.5254 40.8447 87.2246 40.9169 87.008 41.0733C86.8636 41.2177 86.7072 41.4463 86.7072 41.6749C86.7072 41.8193 86.7072 41.9035 86.7794 42.0479C86.8516 42.1201 86.9238 42.2765 87.008 42.3487C87.1524 42.4209 87.3088 42.4931 87.5254 42.5773C87.754 42.6495 87.9706 42.7217 88.3436 42.8059C88.6444 42.8781 88.9452 42.9503 89.3182 43.1067C89.5468 43.1789 89.7633 43.3354 89.9919 43.4797C90.1363 43.6241 90.2927 43.8527 90.3649 43.9971C90.4371 44.2257 90.5093 44.4423 90.5093 44.7431C90.5093 45.0439 90.4371 45.3447 90.3649 45.5613C90.2206 45.7899 90.0641 46.0065 89.8476 46.2351C89.619 46.3795 89.4024 46.5359 89.1016 46.6081C88.7286 46.584 88.3556 46.6562 88.0548 46.6562Z" fill="#4388DD"/>
<path d="M91.7848 39.8701H93.0602L95.0695 42.9985L97.1631 39.8701H98.4265V46.584H97.2353V41.7351L95.1417 44.8634H95.0695L92.988 41.7351V46.584H91.7848V39.8701Z" fill="#4388DD"/>
<path d="M102.457 39.7981H103.576L106.488 46.512H105.225L104.551 44.8756H101.422L100.749 46.512H99.5575L102.457 39.7981ZM104.178 43.901L102.987 41.2179L101.868 43.901H104.178Z" fill="#4388DD"/>
<path d="M107.679 39.8701H110.663C111.036 39.8701 111.409 39.9423 111.782 40.0145C112.083 40.0867 112.384 40.3153 112.6 40.5319C112.745 40.6763 112.901 40.9049 113.045 41.2057C113.118 41.4343 113.19 41.7231 113.19 42.0239C113.19 42.2525 113.118 42.5412 113.045 42.7698C112.973 42.9985 112.817 43.1428 112.745 43.3715C112.6 43.5158 112.444 43.6723 112.227 43.8166C111.999 43.961 111.782 44.0452 111.553 44.1174L113.346 46.6562H111.926L110.29 44.3461H108.798V46.6562H107.607L107.679 39.8701ZM110.591 43.1549C110.964 43.1549 111.337 43.0827 111.565 42.8541C111.794 42.6255 111.938 42.3367 111.938 42.0359C111.938 41.7351 111.794 41.4343 111.565 41.2177C111.265 40.9891 110.892 40.9169 110.519 40.9169H108.798V43.1549H110.591Z" fill="#4388DD"/>
<path d="M116.258 40.9169H114.092V39.8701H119.543V40.9169H117.377V46.584H116.186L116.258 40.9169Z" fill="#4388DD"/>
<path d="M126.786 46.6562C126.341 46.6562 125.896 46.584 125.439 46.3554C124.62 45.9824 123.947 45.3808 123.646 44.5626C123.501 44.1174 123.345 43.6722 123.417 43.215C123.417 42.7698 123.489 42.3247 123.646 41.8674C123.947 41.0493 124.62 40.3755 125.439 40.0025C125.884 39.8581 126.329 39.7017 126.858 39.7017C127.159 39.7017 127.46 39.7017 127.676 39.7739C127.905 39.846 128.122 39.9182 128.35 40.0025C128.579 40.0747 128.723 40.2311 128.952 40.3033C129.096 40.4476 129.325 40.6041 129.469 40.7485L128.723 41.6388C128.495 41.4102 128.206 41.1936 127.905 41.0372C127.604 40.8928 127.231 40.8086 126.858 40.8086C126.557 40.8086 126.257 40.8808 125.968 40.953C125.667 41.0974 125.451 41.2538 125.222 41.4704C124.993 41.699 124.849 41.9156 124.777 42.2164C124.705 42.5172 124.632 42.818 124.632 43.1067C124.632 43.4075 124.705 43.7083 124.777 43.9971C124.849 44.2859 125.005 44.5145 125.222 44.7431C125.451 44.9717 125.667 45.1161 125.968 45.2605C126.269 45.4049 126.57 45.4891 126.858 45.4049C127.231 45.4049 127.604 45.3327 127.905 45.1763C128.206 45.0319 128.507 44.8033 128.795 44.5025L129.541 45.2485C129.397 45.3928 129.168 45.6214 129.024 45.7658C128.795 45.9102 128.651 46.0666 128.422 46.1388C128.194 46.211 127.977 46.3674 127.676 46.3674C127.376 46.6562 127.075 46.6562 126.786 46.6562Z" fill="#4388DD"/>
<path d="M130.733 39.8701H131.852V42.6255H135.064V39.8701H136.255V46.584H135.064V43.7444H131.852V46.584H130.733V39.8701Z" fill="#4388DD"/>
<path d="M140.358 39.7981H141.477L144.389 46.512H143.126L142.452 44.8756H139.323L138.65 46.512H137.458L140.358 39.7981ZM142.007 43.901L140.888 41.2179L139.769 43.901H142.007Z" fill="#4388DD"/>
<path d="M145.58 39.8701H146.783V46.584H145.58V39.8701Z" fill="#4388DD"/>
<path d="M148.564 39.8701H149.611L153.196 44.4904V39.8701H154.388V46.584H153.413L149.767 41.8073V46.584H148.564V39.8701Z" fill="#4388DD"/>
<path d="M72.2446 46.1389V49.0507L69.7059 50.5426L67.2393 49.0507V46.1389L69.7059 47.6309L72.2446 46.1389ZM58.6604 36.068L61.127 37.56V42.5533L65.3743 45.0921V48.0039L58.6604 44.0453V36.068ZM80.7513 36.068V44.0573L73.9652 48.0159V45.1041L78.2125 42.5654V37.572L80.7513 36.068ZM73.9532 32.1095L76.492 33.6015V36.5132L72.2446 39.052V44.1175L69.778 45.6095L67.3235 44.1175V39.04L62.9198 36.5012V33.5894L65.4585 32.0974L69.7059 34.6362L73.9532 32.1095ZM62.9198 38.5948L65.3863 40.0868V42.9985L62.9198 41.5065V38.5948ZM76.492 38.5948V41.5065L74.0254 42.9985V40.0868L76.492 38.5948ZM61.127 29.5707L63.6657 31.0627L61.127 32.5547V35.4664L58.6604 33.9745V31.0627L61.127 29.5707ZM78.2847 29.5707L80.8235 31.0627V33.9745L78.2847 35.4664V32.5547L75.8182 31.0627L78.2847 29.5707ZM69.7059 29.5707L72.2446 31.0627L69.7059 32.5547L67.2393 31.0627L69.7059 29.5707ZM69.7059 24.5774L76.492 28.5359L74.0254 30.0279L69.778 27.4892L65.4465 30.0279L62.9799 28.5359L69.7059 24.5774Z" fill="#4388DD"/>
</g>
<rect x="0.5" y="0.5" width="212" height="74" rx="3.5" stroke="#4388DD"/>
<defs>
<clipPath id="clip0_1807_849">
<rect width="213" height="75" rx="4" fill="white"/>
</clipPath>
</defs>
</svg>
