<svg width="189" height="75" viewBox="0 0 189 75" fill="none" xmlns="http://www.w3.org/2000/svg">
<rect x="0.5" y="0.5" width="188" height="74" rx="3.5" fill="white"/>
<g clip-path="url(#clip0_1550_683)">
<path d="M112.111 53.7944C110.737 53.7944 109.999 54.1024 109.41 54.0688C108.822 54.0352 108.723 52.7144 107.418 52.7536C106.112 52.792 105.986 53.9744 105.986 53.9744C105.066 51.328 102.806 50.976 102.218 51.7432C101.63 52.5096 101.578 52.6632 101.063 52.6632C99.7512 52.6632 98.8784 47.8752 97.0728 49.9736C95.2664 52.0712 91.724 53.4016 90.0144 53.5296C88.3056 53.6576 88.7952 53.4728 85.3832 52.9304C80.8192 52.2032 77.1768 53.5016 74.5 54.8208L94.5 20.1792L114.5 54.8208C113.784 53.9928 112.974 53.7944 112.111 53.7944Z" fill="#4388DD"/>
<path d="M112.111 53.7944C110.737 53.7944 109.999 54.1024 109.41 54.0688C108.822 54.0352 108.723 52.7144 107.418 52.7536C106.112 52.792 105.986 53.9744 105.986 53.9744C105.066 51.328 102.806 50.976 102.218 51.7432C101.63 52.5096 101.578 52.6632 101.063 52.6632C99.7512 52.6632 98.8784 47.8752 97.0728 49.9736C95.2664 52.0712 91.724 53.4016 90.0144 53.5296C88.3056 53.6576 88.7952 53.4728 85.3832 52.9304C80.8192 52.2032 77.1768 53.5016 74.5 54.8208L94.5 20.1792L114.5 54.8208C113.784 53.9928 112.974 53.7944 112.111 53.7944Z" fill="#4388DD"/>
</g>
<rect x="0.5" y="0.5" width="188" height="74" rx="3.5" stroke="#4388DD"/>
<defs>
<clipPath id="clip0_1550_683">
<rect width="40" height="40" fill="white" transform="translate(74.5 17.5)"/>
</clipPath>
</defs>
</svg>
