<svg width="213" height="75" viewBox="0 0 213 75" fill="none" xmlns="http://www.w3.org/2000/svg">
<rect x="0.5" y="0.5" width="212" height="74" rx="3.5" fill="white"/>
<path d="M80.6103 38.0078V44.5712C80.6079 44.9805 80.4994 45.3822 80.2952 45.737C80.0911 46.0917 79.7985 46.3875 79.4458 46.5953L73.7603 49.8702C73.4081 50.0801 73.0058 50.1909 72.5958 50.1909C72.1859 50.1909 71.7835 50.0801 71.4314 49.8702L65.7458 46.5953C65.3932 46.3875 65.1005 46.0917 64.8964 45.737C64.6923 45.3822 64.5838 44.9805 64.5814 44.5712V42.7291L67.4924 41.0393V44.2415L72.5867 47.1979L77.681 44.2415V38.342L72.5867 35.3856L60.6516 42.2993C60.2961 42.4995 59.8951 42.6047 59.4871 42.6047C59.0792 42.6047 58.6782 42.4995 58.3227 42.2993L52.6371 39.0107C52.2899 38.7997 52.0029 38.5029 51.8037 38.1488C51.6045 37.7947 51.4999 37.3952 51.5 36.9889V30.4254C51.5024 30.0161 51.6109 29.6145 51.815 29.2597C52.0191 28.9049 52.3118 28.6092 52.6644 28.4014L58.35 25.1265C58.7029 24.9187 59.1049 24.8091 59.5144 24.8091C59.9239 24.8091 60.3259 24.9187 60.6788 25.1265L66.3645 28.4014C66.717 28.6092 67.0098 28.9049 67.2138 29.2597C67.4179 29.6145 67.5265 30.0161 67.5288 30.4254V32.2676L64.5996 33.9459V30.762L59.5053 27.8055L54.411 30.762V36.6546L59.5053 39.6111L71.4405 32.6974C71.7959 32.4971 72.197 32.392 72.605 32.392C73.0129 32.392 73.4139 32.4971 73.7693 32.6974L79.455 35.9859C79.8055 36.1947 80.0962 36.4906 80.2986 36.8448C80.5011 37.1991 80.6085 37.5997 80.6103 38.0078Z" fill="#4388DD"/>
<path d="M90.7415 46.9569V41.8422C91.2964 42.5403 92.3039 42.9315 93.4706 42.9315C96.4498 42.9315 98.4625 40.8165 98.4625 37.5916C98.4625 34.3668 96.6136 32.2517 93.7185 32.2517C92.3835 32.2517 91.3556 32.7452 90.7392 33.5458V32.4086H87.8873V46.9501L90.7415 46.9569ZM93.1181 40.4662C91.5761 40.4662 90.5709 39.3155 90.5709 37.5916C90.5709 35.8678 91.5761 34.6965 93.1181 34.6965C94.6168 34.6965 95.6447 35.8337 95.6447 37.5916C95.6447 39.3496 94.6236 40.4662 93.1181 40.4662Z" fill="#4388DD"/>
<path d="M104.945 42.9315C108.129 42.9315 110.403 40.6709 110.403 37.5916C110.403 34.5123 108.129 32.2517 104.945 32.2517C101.761 32.2517 99.4868 34.51 99.4868 37.5916C99.4868 40.6732 101.761 42.9315 104.945 42.9315ZM104.945 40.4662C103.405 40.4662 102.357 39.295 102.357 37.5916C102.357 35.8882 103.408 34.6965 104.945 34.6965C106.482 34.6965 107.533 35.8655 107.533 37.5916C107.533 39.3177 106.487 40.4662 104.945 40.4662Z" fill="#4388DD"/>
<path d="M114.99 42.7675V27.9167H112.136V42.7675H114.99Z" fill="#4388DD"/>
<path d="M123.571 32.4153L121.415 39.0902L119.238 32.4153H116.316L120.073 42.6835L118.553 46.9568H121.283L122.749 42.729L126.509 32.4198L123.571 32.4153Z" fill="#4388DD"/>
<path d="M134.526 33.4434C133.95 32.7247 132.934 32.2517 131.672 32.2517C128.652 32.2517 126.825 34.3668 126.825 37.5916C126.825 40.8165 128.645 42.9315 131.713 42.9315C132.925 42.9315 134.012 42.4767 134.547 41.7193V43.0839C134.547 44.0482 133.91 44.7259 133.048 44.7259H128.283V46.966H133.5C135.84 46.966 137.401 45.5492 137.401 43.3909V32.4154H134.526V33.4434ZM132.165 40.4662C130.644 40.4662 129.639 39.3291 129.639 37.5916C129.639 35.8541 130.644 34.6965 132.165 34.6965C133.687 34.6965 134.71 35.8337 134.71 37.5916C134.71 39.3496 133.705 40.4662 132.165 40.4662Z" fill="#4388DD"/>
<path d="M144.598 42.9315C147.782 42.9315 150.056 40.6709 150.056 37.5916C150.056 34.5123 147.782 32.2517 144.598 32.2517C141.415 32.2517 139.14 34.51 139.14 37.5916C139.14 40.6732 141.415 42.9315 144.598 42.9315ZM144.598 40.4662C143.057 40.4662 142.01 39.295 142.01 37.5916C142.01 35.8882 143.057 34.6965 144.598 34.6965C146.14 34.6965 147.187 35.8655 147.187 37.5916C147.187 39.3177 146.138 40.4662 144.598 40.4662Z" fill="#4388DD"/>
<path d="M154.498 42.7678V37.0981C154.498 35.7631 155.38 34.7989 156.633 34.7989C157.825 34.7989 158.625 35.7085 158.625 36.9548V42.7678H161.5V36.318C161.5 33.9346 159.981 32.2517 157.634 32.2517C156.217 32.2517 155.069 32.8475 154.494 33.8437V32.4154H151.623V42.7678H154.498Z" fill="#4388DD"/>
<rect x="0.5" y="0.5" width="212" height="74" rx="3.5" stroke="#4388DD"/>
</svg>
