<svg width="213" height="75" viewBox="0 0 213 75" fill="none" xmlns="http://www.w3.org/2000/svg">
<rect x="0.5" y="0.5" width="212" height="74" rx="3.5" fill="white"/>
<g clip-path="url(#clip0_1642_1463)">
<path d="M52.5593 45.258C50.7789 45.258 49.3202 44.8391 48.1831 44.0013C47.061 43.1485 46.5 41.9366 46.5 40.3657C46.5 40.0365 46.5374 39.6326 46.6122 39.1539C46.8067 38.0767 47.0835 36.7825 47.4426 35.2714C48.4599 31.1571 51.0856 29.1 55.3196 29.1C56.4716 29.1 57.5039 29.2945 58.4166 29.6835C59.3292 30.0575 60.0473 30.626 60.571 31.389C61.0946 32.1371 61.3564 33.0348 61.3564 34.082C61.3564 34.3962 61.319 34.7927 61.2442 35.2714C61.0198 36.603 60.7505 37.8971 60.4363 39.1539C59.9126 41.2036 59.0075 42.7371 57.7209 43.7544C56.4342 44.7568 54.7137 45.258 52.5593 45.258ZM52.8734 42.0264C53.7113 42.0264 54.4219 41.7796 55.0054 41.2858C55.6038 40.7921 56.0302 40.0365 56.2846 39.0192C56.6287 37.6129 56.8905 36.386 57.0701 35.3388C57.1299 35.0246 57.1598 34.7029 57.1598 34.3738C57.1598 33.0123 56.4491 32.3316 55.0278 32.3316C54.19 32.3316 53.4719 32.5784 52.8734 33.0722C52.29 33.5659 51.871 34.3214 51.6167 35.3388C51.3474 36.3412 51.0781 37.568 50.8088 39.0192C50.749 39.3185 50.719 39.6326 50.719 39.9617C50.719 41.3382 51.4372 42.0264 52.8734 42.0264Z" fill="#919EAB"/>
<path d="M63.6336 45.0336C63.4689 45.0336 63.3418 44.9813 63.252 44.8765C63.1772 44.7568 63.1548 44.6221 63.1847 44.4725L66.2817 29.8854C66.3116 29.7209 66.3939 29.5862 66.5285 29.4815C66.6632 29.3768 66.8053 29.3244 66.9549 29.3244H72.9244C74.5851 29.3244 75.9166 29.6685 76.919 30.3567C77.9364 31.0449 78.4451 32.0398 78.4451 33.3415C78.4451 33.7155 78.4002 34.1045 78.3104 34.5084C77.9364 36.229 77.1808 37.5006 76.0438 38.3235C74.9217 39.1464 73.3807 39.5578 71.4208 39.5578H68.3912L67.3589 44.4725C67.3289 44.6371 67.2466 44.7717 67.112 44.8765C66.9773 44.9813 66.8353 45.0336 66.6856 45.0336H63.6336ZM71.5779 36.4609C72.2063 36.4609 72.7524 36.2888 73.2161 35.9447C73.6949 35.6006 74.0091 35.1069 74.1587 34.4636C74.2036 34.2092 74.2261 33.9848 74.2261 33.7903C74.2261 33.3564 74.0988 33.0273 73.8445 32.8029C73.5902 32.5635 73.1563 32.4438 72.5429 32.4438H69.8499L68.9971 36.4609H71.5779Z" fill="#919EAB"/>
<path d="M83.5015 45.0336C83.3369 45.0336 83.2097 44.9813 83.1199 44.8765C83.0302 44.7568 83.0003 44.6221 83.0302 44.4725L85.5212 32.8478H81.5266C81.362 32.8478 81.2348 32.7954 81.1451 32.6907C81.0703 32.571 81.0479 32.4363 81.0778 32.2867L81.5939 29.8854C81.6239 29.7209 81.7061 29.5862 81.8407 29.4815C81.9754 29.3768 82.1175 29.3244 82.2671 29.3244H94.3408C94.5054 29.3244 94.6325 29.3768 94.7223 29.4815C94.7822 29.5713 94.8121 29.661 94.8121 29.7508C94.8121 29.7957 94.8046 29.8406 94.7896 29.8854L94.2735 32.2867C94.2435 32.4513 94.1613 32.5859 94.0266 32.6907C93.9069 32.7954 93.7648 32.8478 93.6003 32.8478H89.628L87.137 44.4725C87.1071 44.6371 87.0248 44.7717 86.8902 44.8765C86.7555 44.9813 86.6134 45.0336 86.4638 45.0336H83.5015Z" fill="#919EAB"/>
<path d="M95.3844 45.0336C95.2198 45.0336 95.0927 44.9813 95.0029 44.8765C94.9131 44.7568 94.8832 44.6221 94.9131 44.4725L98.0325 29.8854C98.0624 29.7209 98.1448 29.5862 98.2794 29.4815C98.414 29.3768 98.5561 29.3244 98.7058 29.3244H101.735C101.9 29.3244 102.027 29.3768 102.117 29.4815C102.177 29.5713 102.207 29.661 102.207 29.7508C102.207 29.7957 102.199 29.8406 102.184 29.8854L99.0872 44.4725C99.0573 44.6371 98.9751 44.7717 98.8404 44.8765C98.7058 44.9813 98.5636 45.0336 98.414 45.0336H95.3844Z" fill="#919EAB"/>
<path d="M103.93 45.0336C103.765 45.0336 103.638 44.9813 103.548 44.8765C103.458 44.7717 103.429 44.6371 103.458 44.4725L106.555 29.8854C106.585 29.7209 106.668 29.5862 106.802 29.4815C106.937 29.3768 107.087 29.3244 107.251 29.3244H109.675C110.034 29.3244 110.266 29.489 110.37 29.8181L112.817 36.8873L118.27 29.8181C118.345 29.6984 118.45 29.5862 118.584 29.4815C118.734 29.3768 118.913 29.3244 119.123 29.3244H121.569C121.734 29.3244 121.861 29.3768 121.95 29.4815C122.01 29.5713 122.04 29.661 122.04 29.7508C122.04 29.7957 122.033 29.8406 122.018 29.8854L118.921 44.4725C118.891 44.6371 118.809 44.7717 118.674 44.8765C118.539 44.9813 118.397 45.0336 118.248 45.0336H115.532C115.368 45.0336 115.24 44.9813 115.151 44.8765C115.076 44.7568 115.053 44.6221 115.083 44.4725L116.834 36.1916L113.4 40.7473C113.251 40.9118 113.108 41.0389 112.974 41.1287C112.839 41.2185 112.682 41.2634 112.502 41.2634H111.336C111.021 41.2634 110.804 41.0913 110.685 40.7473L109.091 35.9896L107.296 44.4725C107.266 44.6371 107.184 44.7717 107.049 44.8765C106.914 44.9813 106.772 45.0336 106.623 45.0336H103.93Z" fill="#919EAB"/>
<path d="M123.739 45.0336C123.574 45.0336 123.447 44.9813 123.357 44.8765C123.268 44.7568 123.238 44.6221 123.268 44.4725L126.387 29.8854C126.417 29.7209 126.499 29.5862 126.634 29.4815C126.768 29.3768 126.911 29.3244 127.06 29.3244H130.09C130.255 29.3244 130.382 29.3768 130.471 29.4815C130.531 29.5713 130.561 29.661 130.561 29.7508C130.561 29.7957 130.554 29.8406 130.539 29.8854L127.442 44.4725C127.412 44.6371 127.33 44.7717 127.195 44.8765C127.06 44.9813 126.918 45.0336 126.768 45.0336H123.739Z" fill="#919EAB"/>
<path d="M137.827 45.258C136.51 45.258 135.381 45.0785 134.438 44.7194C133.51 44.3604 132.807 43.8816 132.329 43.2832C131.865 42.6847 131.633 42.0189 131.633 41.2858C131.633 41.1661 131.648 40.9866 131.678 40.7473C131.708 40.6125 131.768 40.5004 131.858 40.4106C131.962 40.3209 132.082 40.276 132.217 40.276H135.089C135.269 40.276 135.403 40.3059 135.493 40.3657C135.598 40.4256 135.702 40.5303 135.807 40.6799C135.912 41.0689 136.151 41.3905 136.526 41.6449C136.914 41.8993 137.446 42.0264 138.118 42.0264C138.971 42.0264 139.66 41.8917 140.183 41.6225C140.707 41.3532 141.022 40.9866 141.126 40.5228C141.141 40.4629 141.148 40.3732 141.148 40.2535C141.148 39.8795 140.917 39.5877 140.453 39.3783C139.989 39.1539 139.136 38.8921 137.894 38.5929C136.443 38.2786 135.343 37.8073 134.595 37.179C133.847 36.5357 133.474 35.6978 133.474 34.6655C133.474 34.3065 133.518 33.9399 133.608 33.5659C133.907 32.1745 134.648 31.0823 135.83 30.2894C137.026 29.4964 138.567 29.1 140.453 29.1C141.59 29.1 142.6 29.302 143.482 29.7059C144.365 30.1099 145.046 30.626 145.525 31.2544C146.018 31.8678 146.265 32.4812 146.265 33.0946C146.265 33.2741 146.258 33.4013 146.242 33.4761C146.213 33.6108 146.146 33.723 146.041 33.8127C145.951 33.9025 145.838 33.9474 145.704 33.9474H142.697C142.368 33.9474 142.143 33.8202 142.024 33.5659C142.009 33.2218 141.829 32.93 141.485 32.6906C141.141 32.4513 140.692 32.3316 140.138 32.3316C139.48 32.3316 138.934 32.4513 138.5 32.6906C138.082 32.93 137.819 33.2816 137.715 33.7454C137.7 33.8202 137.692 33.9175 137.692 34.0372C137.692 34.3962 137.902 34.6954 138.321 34.9348C138.754 35.1592 139.51 35.3911 140.587 35.6305C142.263 35.9597 143.482 36.4309 144.246 37.0443C145.023 37.6577 145.412 38.4731 145.412 39.4905C145.412 39.8346 145.367 40.2086 145.278 40.6125C144.949 42.1386 144.148 43.2981 142.876 44.091C141.62 44.869 139.937 45.258 137.827 45.258Z" fill="#919EAB"/>
<path d="M148.389 45.0336C148.225 45.0336 148.097 44.9813 148.008 44.8765C147.918 44.7717 147.888 44.6371 147.918 44.4725L151.015 29.8854C151.045 29.7209 151.127 29.5862 151.262 29.4815C151.397 29.3768 151.546 29.3244 151.711 29.3244H154.134C154.493 29.3244 154.725 29.489 154.83 29.8181L157.277 36.8873L162.729 29.8181C162.805 29.6984 162.909 29.5862 163.044 29.4815C163.193 29.3768 163.373 29.3244 163.582 29.3244H166.029C166.193 29.3244 166.321 29.3768 166.41 29.4815C166.47 29.5713 166.5 29.661 166.5 29.7508C166.5 29.7957 166.493 29.8406 166.477 29.8854L163.381 44.4725C163.35 44.6371 163.268 44.7717 163.133 44.8765C162.999 44.9813 162.857 45.0336 162.707 45.0336H159.992C159.827 45.0336 159.7 44.9813 159.61 44.8765C159.535 44.7568 159.513 44.6221 159.543 44.4725L161.293 36.1916L157.86 40.7473C157.71 40.9118 157.568 41.0389 157.433 41.1287C157.299 41.2185 157.141 41.2634 156.962 41.2634H155.795C155.481 41.2634 155.264 41.0913 155.145 40.7473L153.551 35.9896L151.756 44.4725C151.725 44.6371 151.643 44.7717 151.509 44.8765C151.374 44.9813 151.232 45.0336 151.082 45.0336H148.389Z" fill="#919EAB"/>
</g>
<rect x="0.5" y="0.5" width="212" height="74" rx="3.5" stroke="#DFE3E8"/>
<defs>
<clipPath id="clip0_1642_1463">
<rect width="120" height="16.8" fill="white" transform="translate(46.5 29.1)"/>
</clipPath>
</defs>
</svg>
