<svg id="Layer_1" data-name="Layer 1" xmlns="http://www.w3.org/2000/svg" xmlns:xlink="http://www.w3.org/1999/xlink" viewBox="0 0 480 509"><defs><style>.cls-1{fill:url(#未命名的渐变_5);}.cls-2{fill:url(#未命名的渐变_127);}.cls-3{fill:url(#未命名的渐变_40);}.cls-4{fill:#fff;}.cls-5{fill:url(#未命名的渐变_3);}.cls-6{fill:url(#未命名的渐变_182);}.cls-7,.cls-75{fill:none;}.cls-7{stroke:#fff;stroke-miterlimit:10;stroke-width:2.659px;}.cls-8{fill:url(#未命名的渐变_43);}.cls-9{fill:url(#未命名的渐变_43-2);}.cls-10{fill:url(#未命名的渐变_43-3);}.cls-11{fill:url(#未命名的渐变_43-4);}.cls-12{fill:url(#未命名的渐变_43-5);}.cls-13{fill:url(#未命名的渐变_43-6);}.cls-14{fill:url(#未命名的渐变_40-2);}.cls-15{fill:url(#未命名的渐变_181);}.cls-16{fill:url(#未命名的渐变_180);}.cls-17{fill:url(#未命名的渐变_178);}.cls-18{fill:url(#未命名的渐变_156);}.cls-19{fill:url(#未命名的渐变_143);}.cls-20{opacity:0.75;fill:url(#未命名的渐变_176);}.cls-21{fill:url(#未命名的渐变_177);}.cls-22{fill:url(#未命名的渐变_146);}.cls-23{fill:url(#未命名的渐变_143-2);}.cls-24{fill:url(#未命名的渐变_143-3);}.cls-25{fill:url(#未命名的渐变_143-4);}.cls-26{fill:url(#未命名的渐变_143-5);}.cls-27{fill:url(#未命名的渐变_143-6);}.cls-28{fill:url(#未命名的渐变_143-7);}.cls-29{fill:url(#未命名的渐变_143-8);}.cls-30{fill:url(#未命名的渐变_143-9);}.cls-31{fill:url(#未命名的渐变_84);}.cls-32{fill:url(#未命名的渐变_183);}.cls-33{fill:url(#未命名的渐变_199);}.cls-34{fill:url(#未命名的渐变_195);}.cls-35{fill:url(#未命名的渐变_195-2);}.cls-36{fill:url(#未命名的渐变_195-3);}.cls-37{fill:url(#未命名的渐变_195-4);}.cls-38{fill:url(#未命名的渐变_195-5);}.cls-39{fill:url(#未命名的渐变_84-2);}.cls-40{fill:url(#未命名的渐变_84-3);}.cls-41{fill:url(#未命名的渐变_84-4);}.cls-42{fill:url(#未命名的渐变_183-2);}.cls-43{fill:url(#未命名的渐变_183-3);}.cls-44{fill:url(#未命名的渐变_195-6);}.cls-45{fill:url(#未命名的渐变_195-7);}.cls-46{fill:url(#未命名的渐变_195-8);}.cls-47{fill:url(#未命名的渐变_195-9);}.cls-48{fill:url(#未命名的渐变_195-10);}.cls-49{fill:url(#未命名的渐变_195-11);}.cls-50{fill:url(#未命名的渐变_195-12);}.cls-51{fill:url(#未命名的渐变_195-13);}.cls-52{fill:url(#未命名的渐变_195-14);}.cls-53{fill:url(#未命名的渐变_195-15);}.cls-54{fill:url(#未命名的渐变_125);}.cls-55{fill:#171772;}.cls-56{fill:#69a0e4;}.cls-57{fill:#0061c1;}.cls-58{fill:#003f9b;}.cls-59{fill:url(#未命名的渐变_84-5);}.cls-60{fill:url(#未命名的渐变_200);}.cls-61{fill:url(#未命名的渐变_194);}.cls-62{fill:url(#未命名的渐变_194-2);}.cls-63{fill:url(#未命名的渐变_194-3);}.cls-64{fill:url(#未命名的渐变_194-4);}.cls-65{fill:url(#未命名的渐变_194-5);}.cls-66{fill:url(#未命名的渐变_84-6);}.cls-67{fill:url(#未命名的渐变_201);}.cls-68{fill:url(#未命名的渐变_195-16);}.cls-69{fill:url(#未命名的渐变_195-17);}.cls-70{fill:url(#未命名的渐变_195-18);}.cls-71{fill:url(#未命名的渐变_195-19);}.cls-72{fill:url(#未命名的渐变_195-20);}.cls-73{fill:url(#未命名的渐变_195-21);}.cls-74{fill:url(#未命名的渐变_195-22);}.cls-75{stroke:#02e9f7;stroke-linecap:round;stroke-linejoin:round;stroke-width:3.879px;}.cls-76{fill:#02e9f7;}.cls-77{fill:url(#未命名的渐变_183-4);}.cls-78{fill:url(#未命名的渐变_84-7);}.cls-79{fill:url(#未命名的渐变_197);}.cls-80{fill:url(#未命名的渐变_195-23);}.cls-81{fill:url(#未命名的渐变_195-24);}.cls-82{fill:url(#未命名的渐变_195-25);}.cls-83{fill:url(#未命名的渐变_195-26);}.cls-84{fill:url(#未命名的渐变_195-27);}</style><linearGradient id="未命名的渐变_5" x1="149.802" y1="-65.307" x2="467.457" y2="627.849" gradientUnits="userSpaceOnUse"><stop offset="0.178" stop-color="#ebefff"/><stop offset="0.425" stop-color="#e9eeff"/><stop offset="0.545" stop-color="#e1e9fd"/><stop offset="0.637" stop-color="#d4e1fa"/><stop offset="0.715" stop-color="#c2d6f7"/><stop offset="0.784" stop-color="#aac7f2"/><stop offset="0.846" stop-color="#8cb5ec"/><stop offset="0.903" stop-color="#6aa0e5"/><stop offset="0.955" stop-color="#4388dd"/></linearGradient><linearGradient id="未命名的渐变_127" x1="313.539" y1="297.514" x2="203.475" y2="71.096" gradientUnits="userSpaceOnUse"><stop offset="0.137" stop-color="#ebefff"/><stop offset="0.871" stop-color="#fcfdff"/><stop offset="0.96" stop-color="#fff"/></linearGradient><linearGradient id="未命名的渐变_40" x1="95.241" y1="-119.073" x2="483.083" y2="290.646" gradientUnits="userSpaceOnUse"><stop offset="0" stop-color="#ebefff"/><stop offset="0.19" stop-color="#cfdef9"/><stop offset="0.6" stop-color="#86b1eb"/><stop offset="0.955" stop-color="#4388dd"/></linearGradient><linearGradient id="未命名的渐变_3" x1="380.189" y1="76.356" x2="408.064" y2="111.611" gradientUnits="userSpaceOnUse"><stop offset="0" stop-color="#ebefff"/><stop offset="0.134" stop-color="#e6ecfe"/><stop offset="0.283" stop-color="#d9e4fb"/><stop offset="0.438" stop-color="#c3d6f7"/><stop offset="0.598" stop-color="#a4c3f1"/><stop offset="0.762" stop-color="#7cabe9"/><stop offset="0.927" stop-color="#4c8edf"/><stop offset="0.955" stop-color="#4388dd"/></linearGradient><linearGradient id="未命名的渐变_182" x1="426.752" y1="91.025" x2="374.72" y2="10.694" gradientUnits="userSpaceOnUse"><stop offset="0.088" stop-color="#ef8400"/><stop offset="1" stop-color="#fdebaf"/></linearGradient><linearGradient id="未命名的渐变_43" x1="266.331" y1="430.757" x2="402.224" y2="433.711" gradientUnits="userSpaceOnUse"><stop offset="0.054" stop-color="#7bace7"/><stop offset="0.165" stop-color="#5695dc"/><stop offset="0.281" stop-color="#3783d2"/><stop offset="0.403" stop-color="#1f74ca"/><stop offset="0.531" stop-color="#0e69c5"/><stop offset="0.669" stop-color="#0363c2"/><stop offset="0.836" stop-color="#0061c1"/></linearGradient><linearGradient id="未命名的渐变_43-2" x1="266.359" y1="429.463" x2="402.252" y2="432.418" xlink:href="#未命名的渐变_43"/><linearGradient id="未命名的渐变_43-3" x1="286.212" y1="398.901" x2="382.223" y2="400.378" xlink:href="#未命名的渐变_43"/><linearGradient id="未命名的渐变_43-4" x1="286.198" y1="399.816" x2="382.209" y2="401.294" xlink:href="#未命名的渐变_43"/><linearGradient id="未命名的渐变_43-5" x1="272.616" y1="369.244" x2="399.647" y2="369.982" xlink:href="#未命名的渐变_43"/><linearGradient id="未命名的渐变_43-6" x1="272.618" y1="368.898" x2="399.649" y2="369.637" xlink:href="#未命名的渐变_43"/><linearGradient id="未命名的渐变_40-2" x1="255.155" y1="308.463" x2="522.443" y2="580.413" xlink:href="#未命名的渐变_40"/><linearGradient id="未命名的渐变_181" x1="393.332" y1="420.346" x2="355.171" y2="384.66" gradientUnits="userSpaceOnUse"><stop offset="0.079" stop-color="#e50a59"/><stop offset="0.472" stop-color="#ff4581"/><stop offset="0.701" stop-color="#ff75a2"/><stop offset="0.932" stop-color="#ffa2c0"/></linearGradient><linearGradient id="未命名的渐变_180" x1="295.913" y1="402.382" x2="329.627" y2="444.765" gradientUnits="userSpaceOnUse"><stop offset="0.138" stop-color="#ebefff"/><stop offset="0.253" stop-color="#dae5fc"/><stop offset="0.481" stop-color="#afcaf3"/><stop offset="0.796" stop-color="#699fe5"/><stop offset="0.955" stop-color="#4388dd"/></linearGradient><linearGradient id="未命名的渐变_178" x1="266.281" y1="333.522" x2="341.415" y2="384.575" gradientUnits="userSpaceOnUse"><stop offset="0.285" stop-color="#ebefff"/><stop offset="0.383" stop-color="#d9e4fb"/><stop offset="0.578" stop-color="#acc8f2"/><stop offset="0.85" stop-color="#629be3"/><stop offset="0.96" stop-color="#4388dd"/></linearGradient><linearGradient id="未命名的渐变_156" x1="336.669" y1="251.471" x2="219.609" y2="147.005" gradientUnits="userSpaceOnUse"><stop offset="0.14" stop-color="#e50a59"/><stop offset="0.506" stop-color="#ff4581"/><stop offset="0.718" stop-color="#ff75a2"/><stop offset="0.932" stop-color="#ffa2c0"/></linearGradient><linearGradient id="未命名的渐变_143" x1="357.518" y1="261.901" x2="240.623" y2="168.135" gradientUnits="userSpaceOnUse"><stop offset="0.14" stop-color="#e50a59"/><stop offset="0.376" stop-color="#ff4581"/><stop offset="0.686" stop-color="#ff75a2"/><stop offset="1" stop-color="#ffa2c0"/></linearGradient><linearGradient id="未命名的渐变_176" x1="306.014" y1="242.685" x2="245.995" y2="170.511" gradientUnits="userSpaceOnUse"><stop offset="0.14" stop-color="#ffbfd2"/><stop offset="1" stop-color="#fff"/></linearGradient><linearGradient id="未命名的渐变_177" x1="209.517" y1="113.501" x2="74.881" y2="114.789" gradientUnits="userSpaceOnUse"><stop offset="0.029" stop-color="#e50a59"/><stop offset="0.487" stop-color="#ff4581"/><stop offset="0.743" stop-color="#ff75a2"/><stop offset="1" stop-color="#ffa2c0"/></linearGradient><linearGradient id="未命名的渐变_146" x1="57.764" y1="95.725" x2="191.756" y2="95.08" gradientUnits="userSpaceOnUse"><stop offset="0.008" stop-color="#ebefff"/><stop offset="0.31" stop-color="#9cbfef"/><stop offset="0.58" stop-color="#5c97e2"/><stop offset="0.706" stop-color="#4388dd"/></linearGradient><linearGradient id="未命名的渐变_143-2" x1="70.145" y1="190.729" x2="241.508" y2="107.022" xlink:href="#未命名的渐变_143"/><linearGradient id="未命名的渐变_143-3" x1="72.129" y1="194.79" x2="243.492" y2="111.083" xlink:href="#未命名的渐变_143"/><linearGradient id="未命名的渐变_143-4" x1="74.197" y1="199.023" x2="245.559" y2="115.316" xlink:href="#未命名的渐变_143"/><linearGradient id="未命名的渐变_143-5" x1="59.708" y1="169.361" x2="231.07" y2="85.654" xlink:href="#未命名的渐变_143"/><linearGradient id="未命名的渐变_143-6" x1="63.221" y1="176.552" x2="234.583" y2="92.845" xlink:href="#未命名的渐变_143"/><linearGradient id="未命名的渐变_143-7" x1="66.127" y1="182.501" x2="237.489" y2="98.794" xlink:href="#未命名的渐变_143"/><linearGradient id="未命名的渐变_143-8" x1="68.222" y1="186.791" x2="239.584" y2="103.084" xlink:href="#未命名的渐变_143"/><linearGradient id="未命名的渐变_143-9" x1="71.045" y1="192.57" x2="242.407" y2="108.863" xlink:href="#未命名的渐变_143"/><linearGradient id="未命名的渐变_84" x1="477.3" y1="368.924" x2="436.436" y2="402.004" gradientTransform="matrix(-1, 0, 0, 1, 490.932, 0)" gradientUnits="userSpaceOnUse"><stop offset="0.177" stop-color="#7bace7"/><stop offset="0.591" stop-color="#0061c1"/></linearGradient><linearGradient id="未命名的渐变_183" x1="506.798" y1="431.795" x2="439.287" y2="423.357" gradientTransform="matrix(-1, 0, 0, 1, 490.932, 0)" gradientUnits="userSpaceOnUse"><stop offset="0.14" stop-color="#e50a59"/><stop offset="0.484" stop-color="#ff4581"/><stop offset="0.741" stop-color="#ff75a2"/><stop offset="1" stop-color="#ffa2c0"/></linearGradient><linearGradient id="未命名的渐变_199" x1="454.536" y1="368.763" x2="417.587" y2="367.467" gradientTransform="matrix(-1, 0, 0, 1, 490.932, 0)" gradientUnits="userSpaceOnUse"><stop offset="0" stop-color="#ebefff"/><stop offset="0.235" stop-color="#b5cef4"/><stop offset="0.529" stop-color="#78a8e8"/><stop offset="0.745" stop-color="#5291e0"/><stop offset="0.858" stop-color="#4388dd"/></linearGradient><linearGradient id="未命名的渐变_195" x1="463.651" y1="360.281" x2="434.138" y2="377.794" gradientTransform="matrix(-0.874, -0.486, -0.486, 0.874, 614.966, 263.32)" gradientUnits="userSpaceOnUse"><stop offset="0" stop-color="#ebefff"/><stop offset="0.104" stop-color="#c5d8f7"/><stop offset="0.232" stop-color="#9dbfef"/><stop offset="0.364" stop-color="#7dabe9"/><stop offset="0.499" stop-color="#639ce4"/><stop offset="0.639" stop-color="#5191e0"/><stop offset="0.787" stop-color="#468ade"/><stop offset="0.955" stop-color="#4388dd"/></linearGradient><linearGradient id="未命名的渐变_195-2" x1="468.432" y1="368.337" x2="438.919" y2="385.85" gradientTransform="matrix(-1, 0, 0, 1, 490.932, 0)" xlink:href="#未命名的渐变_195"/><linearGradient id="未命名的渐变_195-3" x1="473.147" y1="376.283" x2="443.634" y2="393.797" gradientTransform="matrix(-1, 0, 0, 1, 490.932, 0)" xlink:href="#未命名的渐变_195"/><linearGradient id="未命名的渐变_195-4" x1="477.89" y1="384.276" x2="448.377" y2="401.79" gradientTransform="matrix(-1, 0, 0, 1, 490.932, 0)" xlink:href="#未命名的渐变_195"/><linearGradient id="未命名的渐变_195-5" x1="482.309" y1="391.722" x2="452.796" y2="409.235" gradientTransform="matrix(-1, 0, 0, 1, 490.932, 0)" xlink:href="#未命名的渐变_195"/><linearGradient id="未命名的渐变_84-2" x1="363.859" y1="384.573" x2="362.873" y2="287.889" gradientTransform="matrix(1, 0, 0, -1, -235.571, 650.028)" xlink:href="#未命名的渐变_84"/><linearGradient id="未命名的渐变_84-3" x1="333.486" y1="448.631" x2="364.842" y2="435.589" xlink:href="#未命名的渐变_84"/><linearGradient id="未命名的渐变_84-4" x1="382.145" y1="447" x2="403.632" y2="438.406" xlink:href="#未命名的渐变_84"/><linearGradient id="未命名的渐变_183-2" x1="390.141" y1="464.493" x2="344.472" y2="500.234" xlink:href="#未命名的渐变_183"/><linearGradient id="未命名的渐变_183-3" x1="433.79" y1="466.676" x2="379.186" y2="503.907" xlink:href="#未命名的渐变_183"/><linearGradient id="未命名的渐变_195-6" x1="328.295" y1="431.45" x2="354.657" y2="419.796" gradientTransform="matrix(-1, 0, 0, 1, 490.932, 0)" xlink:href="#未命名的渐变_195"/><linearGradient id="未命名的渐变_195-7" x1="331.998" y1="439.825" x2="358.359" y2="428.171" gradientTransform="matrix(-1, 0, 0, 1, 490.932, 0)" xlink:href="#未命名的渐变_195"/><linearGradient id="未命名的渐变_195-8" x1="335.765" y1="448.347" x2="362.127" y2="436.692" gradientTransform="matrix(-1, 0, 0, 1, 490.932, 0)" xlink:href="#未命名的渐变_195"/><linearGradient id="未命名的渐变_195-9" x1="339.558" y1="456.926" x2="365.92" y2="445.272" gradientTransform="matrix(-1, 0, 0, 1, 490.932, 0)" xlink:href="#未命名的渐变_195"/><linearGradient id="未命名的渐变_195-10" x1="343.581" y1="466.025" x2="369.942" y2="454.37" gradientTransform="matrix(-1, 0, 0, 1, 490.932, 0)" xlink:href="#未命名的渐变_195"/><linearGradient id="未命名的渐变_195-11" x1="372.371" y1="430.39" x2="401.773" y2="419.986" gradientTransform="matrix(-1, 0, 0, 1, 490.932, 0)" xlink:href="#未命名的渐变_195"/><linearGradient id="未命名的渐变_195-12" x1="375.453" y1="439.102" x2="404.856" y2="428.698" gradientTransform="matrix(-1, 0, 0, 1, 490.932, 0)" xlink:href="#未命名的渐变_195"/><linearGradient id="未命名的渐变_195-13" x1="378.572" y1="447.916" x2="407.974" y2="437.512" gradientTransform="matrix(-1, 0, 0, 1, 490.932, 0)" xlink:href="#未命名的渐变_195"/><linearGradient id="未命名的渐变_195-14" x1="381.697" y1="456.747" x2="411.099" y2="446.343" gradientTransform="matrix(-1, 0, 0, 1, 490.932, 0)" xlink:href="#未命名的渐变_195"/><linearGradient id="未命名的渐变_195-15" x1="384.99" y1="466.053" x2="414.392" y2="455.649" gradientTransform="matrix(-1, 0, 0, 1, 490.932, 0)" xlink:href="#未命名的渐变_195"/><linearGradient id="未命名的渐变_125" x1="372.312" y1="221.442" x2="347.996" y2="189.483" gradientTransform="matrix(-1, 0, 0, 1, 490.932, 0)" gradientUnits="userSpaceOnUse"><stop offset="0" stop-color="#e50a59"/><stop offset="0.271" stop-color="#ff4581"/><stop offset="0.405" stop-color="#ff6597"/><stop offset="0.547" stop-color="#ff80a9"/><stop offset="0.693" stop-color="#ff93b6"/><stop offset="0.842" stop-color="#ff9ebd"/><stop offset="1" stop-color="#ffa2c0"/></linearGradient><linearGradient id="未命名的渐变_84-5" x1="386.33" y1="338.171" x2="386.64" y2="282.365" xlink:href="#未命名的渐变_84"/><linearGradient id="未命名的渐变_200" x1="299.26" y1="253.892" x2="426.771" y2="338.899" gradientTransform="matrix(-1, 0, 0, 1, 490.932, 0)" gradientUnits="userSpaceOnUse"><stop offset="0" stop-color="#ebefff"/><stop offset="0.201" stop-color="#e8edfe"/><stop offset="0.35" stop-color="#dfe7fc"/><stop offset="0.481" stop-color="#cfdef9"/><stop offset="0.603" stop-color="#b8d0f5"/><stop offset="0.718" stop-color="#9bbeef"/><stop offset="0.828" stop-color="#77a8e8"/><stop offset="0.932" stop-color="#4d8edf"/><stop offset="0.955" stop-color="#4388dd"/></linearGradient><linearGradient id="未命名的渐变_194" x1="295.104" y1="179.347" x2="459.78" y2="361.859" gradientTransform="matrix(-1, 0, 0, 1, 490.932, 0)" gradientUnits="userSpaceOnUse"><stop offset="0" stop-color="#ebefff"/><stop offset="0.185" stop-color="#d0def9"/><stop offset="0.58" stop-color="#8ab4eb"/><stop offset="0.955" stop-color="#4388dd"/></linearGradient><linearGradient id="未命名的渐变_194-2" x1="287.943" y1="185.809" x2="452.619" y2="368.321" xlink:href="#未命名的渐变_194"/><linearGradient id="未命名的渐变_194-3" x1="285.372" y1="188.128" x2="450.048" y2="370.64" xlink:href="#未命名的渐变_194"/><linearGradient id="未命名的渐变_194-4" x1="282.801" y1="190.448" x2="447.477" y2="372.96" xlink:href="#未命名的渐变_194"/><linearGradient id="未命名的渐变_194-5" x1="280.23" y1="192.768" x2="444.906" y2="375.28" xlink:href="#未命名的渐变_194"/><linearGradient id="未命名的渐变_84-6" x1="386.145" y1="313.087" x2="386.767" y2="376.553" xlink:href="#未命名的渐变_84"/><linearGradient id="未命名的渐变_201" x1="302.867" y1="347.654" x2="420.591" y2="454.166" gradientTransform="matrix(-1, 0, 0, 1, 490.932, 0)" gradientUnits="userSpaceOnUse"><stop offset="0" stop-color="#ebefff"/><stop offset="0.113" stop-color="#e4ebfe"/><stop offset="0.272" stop-color="#d2e0fa"/><stop offset="0.459" stop-color="#b4cdf4"/><stop offset="0.668" stop-color="#89b3eb"/><stop offset="0.891" stop-color="#5492e0"/><stop offset="0.955" stop-color="#4388dd"/></linearGradient><linearGradient id="未命名的渐变_195-16" x1="324.924" y1="299.147" x2="462.658" y2="475.543" gradientTransform="matrix(-1, 0, 0, 1, 490.932, 0)" xlink:href="#未命名的渐变_195"/><linearGradient id="未命名的渐变_195-17" x1="343.642" y1="284.532" x2="481.376" y2="460.927" gradientTransform="matrix(-1, 0, 0, 1, 490.932, 0)" xlink:href="#未命名的渐变_195"/><linearGradient id="未命名的渐变_195-18" x1="341.202" y1="286.437" x2="478.935" y2="462.833" gradientTransform="matrix(-1, 0, 0, 1, 490.932, 0)" xlink:href="#未命名的渐变_195"/><linearGradient id="未命名的渐变_195-19" x1="338.761" y1="288.343" x2="476.495" y2="464.738" gradientTransform="matrix(-1, 0, 0, 1, 490.932, 0)" xlink:href="#未命名的渐变_195"/><linearGradient id="未命名的渐变_195-20" x1="336.321" y1="290.249" x2="474.054" y2="466.644" gradientTransform="matrix(-1, 0, 0, 1, 490.932, 0)" xlink:href="#未命名的渐变_195"/><linearGradient id="未命名的渐变_195-21" x1="333.88" y1="292.154" x2="471.613" y2="468.55" gradientTransform="matrix(-1, 0, 0, 1, 490.932, 0)" xlink:href="#未命名的渐变_195"/><linearGradient id="未命名的渐变_195-22" x1="331.439" y1="294.06" x2="469.173" y2="470.455" gradientTransform="matrix(-1, 0, 0, 1, 490.932, 0)" xlink:href="#未命名的渐变_195"/><linearGradient id="未命名的渐变_183-4" x1="323.317" y1="440.812" x2="264.244" y2="431.38" xlink:href="#未命名的渐变_183"/><linearGradient id="未命名的渐变_84-7" x1="268.294" y1="386.348" x2="301.999" y2="398.604" xlink:href="#未命名的渐变_84"/><linearGradient id="未命名的渐变_197" x1="293.312" y1="346.949" x2="341.93" y2="388.436" gradientTransform="matrix(-1, 0, 0, 1, 490.932, 0)" gradientUnits="userSpaceOnUse"><stop offset="0" stop-color="#ebefff"/><stop offset="0.195" stop-color="#cbdbf8"/><stop offset="0.621" stop-color="#7aaae8"/><stop offset="0.892" stop-color="#4388dd"/></linearGradient><linearGradient id="未命名的渐变_195-23" x1="272.353" y1="368.101" x2="303.11" y2="381.008" gradientTransform="matrix(-0.771, -0.637, -0.637, 0.771, 663.7, 271.257)" xlink:href="#未命名的渐变_195"/><linearGradient id="未命名的渐变_195-24" x1="268.564" y1="377.132" x2="299.321" y2="390.039" gradientTransform="matrix(-1, 0, 0, 1, 490.932, 0)" xlink:href="#未命名的渐变_195"/><linearGradient id="未命名的渐变_195-25" x1="264.652" y1="386.453" x2="295.409" y2="399.36" gradientTransform="matrix(-1, 0, 0, 1, 490.932, 0)" xlink:href="#未命名的渐变_195"/><linearGradient id="未命名的渐变_195-26" x1="261.086" y1="394.952" x2="291.843" y2="407.858" gradientTransform="matrix(-1, 0, 0, 1, 490.932, 0)" xlink:href="#未命名的渐变_195"/><linearGradient id="未命名的渐变_195-27" x1="257.598" y1="403.261" x2="288.356" y2="416.168" gradientTransform="matrix(-1, 0, 0, 1, 490.932, 0)" xlink:href="#未命名的渐变_195"/></defs><rect class="cls-1" x="56.656" y="38.903" width="409.682" height="279.042" rx="15.243"/><rect class="cls-2" x="70.05" y="75.376" width="380.225" height="224.67"/><path class="cls-3" d="M453.611,38.9H69.384c-7.029,0-12.728,5.991-12.728,13.383V66.362H466.339V52.286C466.339,44.894,460.64,38.9,453.611,38.9Z"/><circle class="cls-4" cx="73.711" cy="52.632" r="3.661"/><circle class="cls-4" cx="88.668" cy="52.632" r="3.661"/><circle class="cls-4" cx="103.626" cy="52.632" r="3.661"/><path class="cls-5" d="M402.6,88.4h-21v20.1a5.931,5.931,0,0,0,5.942,5.929H409.4a5.938,5.938,0,0,0,5.941-5.929V88.4Z"/><path class="cls-6" d="M398.471,8.744a33.9,33.9,0,0,0-33.911,33.9c0,13.356,5.091,19.59,9.789,25.468C380.1,75.322,381.6,78.191,381.6,88.4h33.746c0-10.208,1.5-13.077,7.25-20.289,4.7-5.878,9.775-12.112,9.775-25.468A33.891,33.891,0,0,0,398.471,8.744Z"/><line class="cls-7" x1="381.598" y1="97.083" x2="415.344" y2="97.083"/><line class="cls-7" x1="381.598" y1="105.754" x2="415.344" y2="105.754"/><path class="cls-7" d="M394.332,51.745v-11.3a2.483,2.483,0,0,0-3.3-2.362,16.007,16.007,0,0,0-10.3,10.487,2.5,2.5,0,0,0,2.412,3.174Z"/><line class="cls-7" x1="394.332" y1="88.399" x2="394.332" y2="51.745"/><path class="cls-7" d="M402.6,51.745v-11.3a2.493,2.493,0,0,1,3.314-2.362A16.02,16.02,0,0,1,416.2,48.571a2.5,2.5,0,0,1-2.412,3.174Z"/><line class="cls-7" x1="402.597" y1="88.399" x2="402.597" y2="51.745"/><path class="cls-8" d="M306.625,428.024v7.042H298.6a3.521,3.521,0,0,1,0-7.042Z"/><path class="cls-9" d="M392.589,428.024a3.524,3.524,0,0,1,3.521,3.521,3.534,3.534,0,0,1-3.521,3.521h-61v-7.042Z"/><path class="cls-10" d="M395.075,397.99a3.483,3.483,0,0,0-2.486-1.035h-8.023V404h8.023a3.524,3.524,0,0,0,3.521-3.521A3.483,3.483,0,0,0,395.075,397.99Z"/><path class="cls-11" d="M295.092,400.476A3.515,3.515,0,0,0,298.6,404H359.61v-7.042H298.6A3.516,3.516,0,0,0,295.092,400.476Z"/><path class="cls-12" d="M306.625,365.9v7.042H298.6a3.521,3.521,0,0,1,0-7.042Z"/><path class="cls-13" d="M392.589,365.9a3.516,3.516,0,0,1,2.486,6.007,3.483,3.483,0,0,1-2.486,1.035h-61V365.9Z"/><path class="cls-14" d="M416.3,360.659V440.3a15.25,15.25,0,0,1-15.247,15.247h-110.9A15.252,15.252,0,0,1,274.9,440.3V360.659a15.251,15.251,0,0,1,15.257-15.246h110.9A15.25,15.25,0,0,1,416.3,360.659Zm-20.186,8.759a3.525,3.525,0,0,0-3.521-3.521h-61v-.6a2.238,2.238,0,0,0-2.24-2.23H308.866a2.238,2.238,0,0,0-2.241,2.23v.6H298.6a3.5,3.5,0,0,0-2.486,1.035,3.524,3.524,0,0,0,2.486,6.007h8.023v.587a2.24,2.24,0,0,0,2.241,2.24h20.485a2.24,2.24,0,0,0,2.24-2.24v-.587h61a3.534,3.534,0,0,0,3.521-3.521Zm0,31.058a3.534,3.534,0,0,0-3.521-3.521h-8.023v-.586a2.241,2.241,0,0,0-2.241-2.241H361.84a2.238,2.238,0,0,0-2.23,2.241v.586H298.6a3.521,3.521,0,0,0,0,7.042H359.61v.6a2.229,2.229,0,0,0,2.23,2.229h20.485a2.231,2.231,0,0,0,2.241-2.229V404h8.023A3.524,3.524,0,0,0,396.11,400.476Zm0,31.069a3.524,3.524,0,0,0-3.521-3.521h-61v-.6a2.231,2.231,0,0,0-2.24-2.23H308.866a2.231,2.231,0,0,0-2.241,2.23v.6H298.6a3.521,3.521,0,0,0,0,7.042h8.023v.587a2.24,2.24,0,0,0,2.241,2.24h20.485a2.24,2.24,0,0,0,2.24-2.24v-.587h61a3.534,3.534,0,0,0,3.521-3.521Z"/><path class="cls-15" d="M382.325,394.128H361.84a2.238,2.238,0,0,0-2.23,2.241V404.6a2.229,2.229,0,0,0,2.23,2.229h20.485a2.231,2.231,0,0,0,2.241-2.229v-8.226A2.241,2.241,0,0,0,382.325,394.128Z"/><path class="cls-16" d="M329.351,425.2H308.866a2.231,2.231,0,0,0-2.241,2.23v8.226a2.24,2.24,0,0,0,2.241,2.24h20.485a2.24,2.24,0,0,0,2.24-2.24v-8.226A2.231,2.231,0,0,0,329.351,425.2Z"/><path class="cls-17" d="M329.351,363.07H308.866a2.238,2.238,0,0,0-2.241,2.23v8.226a2.24,2.24,0,0,0,2.241,2.24h20.485a2.24,2.24,0,0,0,2.24-2.24V365.3A2.238,2.238,0,0,0,329.351,363.07Z"/><path class="cls-18" d="M266.951,136.359a52.895,52.895,0,1,1-52.894,52.895A52.889,52.889,0,0,1,266.951,136.359Zm42.654,52.895a42.654,42.654,0,1,0-42.654,42.654A42.648,42.648,0,0,0,309.605,189.254Z"/><circle class="cls-19" cx="266.951" cy="189.254" r="42.654"/><path class="cls-20" d="M253.052,163.372v51.764c0,.4.708.6,1.122.318l36.462-25a1.355,1.355,0,0,0,0-2.4l-36.462-25C253.76,162.769,253.052,162.97,253.052,163.372Z"/><rect class="cls-21" x="98.757" y="109.556" width="91.667" height="9.133"/><rect class="cls-22" x="98.757" y="90.746" width="91.667" height="9.123"/><path class="cls-23" d="M110.255,177.248l-10.5-4.566v-2.528l10.5-4.545v2.977l-7.324,2.8,7.324,2.905Z"/><path class="cls-24" d="M117.171,179.254l3.793-15.839h2.2l-3.834,15.839Z"/><path class="cls-25" d="M130.085,177.258V174.3l7.333-2.883-7.333-2.853V165.63l10.51,4.544v2.508Z"/><path class="cls-26" d="M114.085,150.1a11.2,11.2,0,0,0,2.739,1.432l-1.26,2.416a7.78,7.78,0,0,1-1.514-.636q-.16-.081-2.276-1.5a9.112,9.112,0,0,1-3.687.728,8.093,8.093,0,0,1-6.119-2.3,10.515,10.515,0,0,1,0-12.915A7.969,7.969,0,0,1,108,135.02a7.885,7.885,0,0,1,5.975,2.306,8.958,8.958,0,0,1,2.207,6.455,11.139,11.139,0,0,1-.613,3.86A8.036,8.036,0,0,1,114.085,150.1Zm-2.751-1.93a5.121,5.121,0,0,0,.989-1.873,8.8,8.8,0,0,0,.329-2.519,6.421,6.421,0,0,0-1.294-4.386,4.678,4.678,0,0,0-6.778,0,6.407,6.407,0,0,0-1.3,4.381,6.55,6.55,0,0,0,1.3,4.443,4.191,4.191,0,0,0,3.287,1.474,4.011,4.011,0,0,0,1.4-.243,9.935,9.935,0,0,0-2.115-1.063l.959-1.953A11.614,11.614,0,0,1,111.334,148.173Z"/><path class="cls-27" d="M128.1,152.252v-1.838a4.719,4.719,0,0,1-1.762,1.549,4.932,4.932,0,0,1-2.305.566,4.505,4.505,0,0,1-2.219-.543,3.206,3.206,0,0,1-1.422-1.525,6.807,6.807,0,0,1-.439-2.716v-7.767H123.2v5.641a15.54,15.54,0,0,0,.18,3.171,1.724,1.724,0,0,0,.653.925,2,2,0,0,0,1.2.341,2.55,2.55,0,0,0,1.49-.457,2.321,2.321,0,0,0,.9-1.132,13.143,13.143,0,0,0,.242-3.311v-5.178h3.248v12.274Z"/><path class="cls-28" d="M142.767,148.346l3.235.543a5.3,5.3,0,0,1-1.97,2.71,5.79,5.79,0,0,1-3.369.93,5.49,5.49,0,0,1-4.738-2.092,7.022,7.022,0,0,1-1.213-4.229,6.774,6.774,0,0,1,1.595-4.779,5.249,5.249,0,0,1,4.033-1.728,5.448,5.448,0,0,1,4.322,1.809q1.584,1.809,1.514,5.541H138.04a3.284,3.284,0,0,0,.786,2.248,2.456,2.456,0,0,0,1.872.8,1.986,1.986,0,0,0,1.283-.417A2.577,2.577,0,0,0,142.767,148.346Zm.185-3.283a3.127,3.127,0,0,0-.728-2.143,2.344,2.344,0,0,0-3.444.04,2.994,2.994,0,0,0-.682,2.1Z"/><path class="cls-29" d="M153.115,152.252h-3.248V139.978h3.017v1.746a5.241,5.241,0,0,1,1.392-1.63,2.563,2.563,0,0,1,1.4-.393,4.129,4.129,0,0,1,2.139.613l-1.006,2.831a2.855,2.855,0,0,0-1.525-.532,1.805,1.805,0,0,0-1.156.376,2.562,2.562,0,0,0-.745,1.358,19.214,19.214,0,0,0-.272,4.114Z"/><path class="cls-30" d="M158.863,139.978h3.456l2.935,8.714,2.866-8.714h3.363L167.15,151.79l-.775,2.137a8.669,8.669,0,0,1-.815,1.642,3.543,3.543,0,0,1-.889.918,3.9,3.9,0,0,1-1.237.55,6.463,6.463,0,0,1-1.658.2,8.665,8.665,0,0,1-1.838-.2l-.289-2.543a7.2,7.2,0,0,0,1.375.15,2.039,2.039,0,0,0,1.676-.665,4.6,4.6,0,0,0,.832-1.693Z"/><path class="cls-31" d="M21.275,402.03a73.858,73.858,0,0,1,1.837-10.071,53.276,53.276,0,0,1,3.525-9.857,41.455,41.455,0,0,1,3.443-5.934,36.443,36.443,0,0,1,2.888-3.608,33.921,33.921,0,0,1,9.129-7.126A36.216,36.216,0,0,1,51.6,362c-.058.232-.107.463-.157.7a3.654,3.654,0,0,0-.083.406c-.058.3-.116.6-.157.894-.05.331-.1.662-.132.993-.017.116-.025.232-.034.347v.017c-.033.306-.049.621-.066.927-.025.389-.033.778-.033,1.167s.008.778.033,1.167c.017.322.033.645.066.968l.05.447c.033.289.066.579.116.869.05.339.108.678.182,1.009a14.555,14.555,0,0,0,.348,1.474c.049.223.116.438.182.653s.132.422.2.629a21.845,21.845,0,0,0-3.972,1.622,21.609,21.609,0,0,0-6.588,5.289,27.007,27.007,0,0,0-3.823,5.991,40.045,40.045,0,0,0-2.781,7.887,62.05,62.05,0,0,0-1.431,8.243q-.447,4.021-.522,8.574a16.789,16.789,0,0,0-3.823-.96c-.24-.042-.489-.066-.737-.091-.265-.025-.521-.042-.786-.058-.306-.017-.613-.025-.919-.025s-.612.008-.918.025l-.679.049c-.265.017-.521.05-.778.092a5.945,5.945,0,0,0-.778.124,16.128,16.128,0,0,0-2.971.794Q20.7,406.864,21.275,402.03Z"/><path class="cls-32" d="M8.877,428.993V439.7h9.931V428.993a7.916,7.916,0,1,1,15.832,0V439.7h9.931V428.993a17.85,17.85,0,0,0-11.578-16.717v.025a17.966,17.966,0,0,0-3.823-.985c-.249-.033-.489-.066-.737-.091-.265-.025-.521-.042-.786-.058q-.459-.026-.919-.025t-.918.025l-.679.049c-.265.025-.521.058-.778.092s-.521.074-.778.124a18.422,18.422,0,0,0-2.971.811v-.017A17.851,17.851,0,0,0,8.877,428.993Z"/><path class="cls-33" d="M50.968,366.287c-.025.389-.033.778-.033,1.167s.008.778.033,1.167c.017.322.033.645.066.968l.05.447c.033.289.066.579.116.869.05.339.108.678.182,1.009a14.555,14.555,0,0,0,.348,1.474c.049.223.116.438.182.653s.132.422.2.629A22.661,22.661,0,1,0,51.6,362c-.058.232-.107.463-.157.7-.033.133-.058.265-.083.406-.058.3-.116.6-.157.894-.058.331-.1.662-.132.993-.017.116-.025.232-.034.347v.017C51,365.666,50.977,365.981,50.968,366.287Z"/><rect class="cls-34" x="43.572" y="364.66" width="3.097" height="12.414" transform="translate(-174.508 68.639) rotate(-29.069)"/><polygon class="cls-35" points="40.505 382.726 42.695 380.535 42.646 380.486 34.158 371.551 31.911 373.685 40.505 382.726"/><polygon class="cls-36" points="37.041 388.961 38.502 386.228 38.419 386.187 27.414 380.755 26.043 383.533 37.041 388.961"/><polygon class="cls-37" points="34.183 396.861 35.064 393.892 23.337 390.41 23.112 390.41 23.107 391.974 22.671 393.443 34.183 396.861"/><polygon class="cls-38" points="33.469 405.253 33.743 402.167 33.652 402.159 21.275 400.482 21.271 402.061 21.065 403.566 33.469 405.253"/><rect class="cls-39" x="110.97" y="314.883" width="33.42" height="20.262" transform="translate(255.361 650.028) rotate(-180)"/><path class="cls-40" d="M126.85,456.245c1.58-2.623,3.111-5.511,4.56-8.54,1.266-2.649,2.466-5.413,3.575-8.21,1.067-2.681,2.044-5.387,2.921-8.061.935-2.838,1.746-5.635,2.417-8.309.7-2.789,1.249-5.437,1.622-7.878h12.5a92.246,92.246,0,0,1-1.92,10.038c-.762,3.087-1.68,6.29-2.74,9.542-1.034,3.17-2.193,6.381-3.459,9.543-1.225,3.053-2.549,6.066-3.948,8.971-1.522,3.161-3.136,6.207-4.816,9.029a78.184,78.184,0,0,1-5.338,7.911c-.19-.157-.381-.323-.579-.471a6.252,6.252,0,0,0-.53-.423,25.42,25.42,0,0,0-3.037-2.052c-.29-.165-.58-.331-.878-.488-.281-.149-.554-.29-.827-.414-.546-.273-1.092-.513-1.639-.728-.256-.1-.521-.2-.778-.29-.24-.091-.48-.165-.72-.24-.3-.091-.6-.182-.885-.257-.248-.066-.5-.132-.745-.182s-.505-.107-.761-.157A54.162,54.162,0,0,0,126.85,456.245Z"/><path class="cls-41" d="M82.218,456.452c1.581-2.631,3.112-5.511,4.56-8.54,1.266-2.657,2.466-5.421,3.575-8.21,1.059-2.681,2.044-5.388,2.921-8.061.927-2.838,1.747-5.636,2.417-8.317.7-2.789,1.25-5.437,1.622-7.879h12.5a92.226,92.226,0,0,1-1.928,10.047c-.753,3.079-1.672,6.29-2.74,9.542-1.018,3.162-2.184,6.373-3.459,9.534-1.217,3.054-2.541,6.075-3.948,8.98-1.514,3.169-3.128,6.206-4.816,9.028a75.522,75.522,0,0,1-5.338,7.912c-.19-.165-.381-.323-.571-.48s-.389-.314-.588-.463a24.872,24.872,0,0,0-2.979-2c-.29-.166-.579-.331-.877-.488-.273-.149-.546-.282-.82-.414-.579-.281-1.158-.538-1.721-.753-.232-.1-.472-.182-.7-.265-.216-.075-.431-.149-.638-.215-.331-.108-.645-.2-.968-.282-.248-.066-.5-.132-.745-.182s-.5-.116-.761-.157A54.1,54.1,0,0,0,82.218,456.452Z"/><path class="cls-42" d="M97.081,480.436l42.9,22.717c4.486-10.4,1.846-24.554-7.754-32.872l-.008.009c-.191-.166-.381-.323-.571-.48-.174-.149-.348-.29-.53-.423a25.42,25.42,0,0,0-3.037-2.052c-.29-.165-.58-.331-.878-.488-.273-.149-.554-.282-.827-.414-.546-.273-1.093-.513-1.639-.728-.256-.1-.521-.2-.778-.29-.24-.083-.48-.165-.72-.24-.3-.091-.6-.182-.885-.256-.248-.067-.5-.125-.745-.183s-.505-.107-.761-.157C110.331,462.692,102.2,470.77,97.081,480.436Z"/><path class="cls-43" d="M52.45,480.643l42.9,22.717c4.485-10.4,1.845-24.571-7.763-32.872-.19-.165-.381-.323-.571-.48s-.389-.314-.588-.463a24.872,24.872,0,0,0-2.979-2c-.29-.166-.579-.331-.877-.488-.273-.149-.546-.282-.82-.414-.579-.281-1.158-.538-1.721-.753-.24-.1-.472-.182-.7-.265-.216-.083-.431-.149-.638-.215-.331-.108-.645-.2-.968-.282-.248-.066-.5-.132-.745-.182s-.5-.116-.761-.157C65.7,462.9,57.572,470.976,52.45,480.643Z"/><polygon class="cls-44" points="151.947 426.745 152.484 423.694 140.307 421.546 139.726 424.589 140.033 424.648 151.947 426.745"/><polygon class="cls-45" points="149.184 436.259 150.033 433.28 138.128 429.889 137.32 432.88 137.502 432.93 149.184 436.259"/><polygon class="cls-46" points="145.645 445.759 146.867 442.913 135.596 438.072 134.279 440.877 145.645 445.759"/><polygon class="cls-47" points="141.676 454.72 142.417 453.357 143.092 451.963 143.059 451.947 132.142 446.343 130.728 449.1 141.676 454.72"/><polygon class="cls-48" points="136.95 463.801 138.499 461.119 138.341 461.028 127.784 454.999 126.247 457.69 136.95 463.801"/><polygon class="cls-49" points="107.314 426.952 107.853 423.9 95.648 421.746 95.139 424.802 95.437 424.851 107.314 426.952"/><polygon class="cls-50" points="104.552 436.466 105.401 433.486 93.497 430.096 92.688 433.087 92.87 433.136 104.552 436.466"/><polygon class="cls-51" points="101.014 445.967 102.236 443.121 90.964 438.279 89.647 441.084 101.014 445.967"/><polygon class="cls-52" points="97.181 454.991 97.858 453.324 98.451 452.17 87.511 446.551 86.095 449.306 97.181 454.991"/><polygon class="cls-53" points="92.341 464.022 93.843 461.313 93.678 461.222 83.152 455.206 81.615 457.897 92.341 464.022"/><circle class="cls-54" cx="127.68" cy="209.534" r="14.792"/><rect class="cls-55" x="81.134" y="305.236" width="46.543" height="4.825"/><rect class="cls-55" x="81.134" y="300.411" width="46.543" height="4.825"/><rect class="cls-55" x="81.134" y="295.586" width="46.543" height="4.825"/><rect class="cls-55" x="157.934" y="247.868" width="27.203" height="53.925"/><path class="cls-56" d="M143.029,234.783v80.1h31.142a10.972,10.972,0,0,0,10.965-10.965v-2.127h-27.2V247.868h27.2v-2.119a10.968,10.968,0,0,0-10.965-10.966Z"/><path class="cls-57" d="M70.226,245.749V303.92a10.967,10.967,0,0,0,10.908,10.965V290.761h46.543v24.124h15.352v-80.1H81.192A10.964,10.964,0,0,0,70.226,245.749Z"/><path class="cls-58" d="M122.984,223.553v11.23h9.393v-11.23a14.708,14.708,0,0,1-9.393,0Z"/><polygon class="cls-59" points="127.677 290.761 127.677 295.586 127.677 300.411 127.677 305.236 127.677 310.061 127.677 314.885 81.134 314.885 81.134 310.061 81.134 305.236 81.134 300.411 81.134 295.586 81.134 290.761 127.677 290.761"/><path class="cls-60" d="M143.029,234.783v80.1h31.142a10.972,10.972,0,0,0,10.965-10.965v-2.127h-27.2V247.868h27.2v-2.119a10.968,10.968,0,0,0-10.965-10.966Z"/><path class="cls-61" d="M70.226,245.749V303.92a10.967,10.967,0,0,0,10.908,10.965V290.761h46.543v24.124h15.352v-80.1H81.192A10.964,10.964,0,0,0,70.226,245.749Z"/><rect class="cls-62" x="81.134" y="293.779" width="46.543" height="2.582"/><rect class="cls-63" x="81.134" y="298.948" width="46.543" height="2.582"/><rect class="cls-64" x="81.134" y="304.117" width="46.543" height="2.582"/><rect class="cls-65" x="81.134" y="309.287" width="46.543" height="2.582"/><polygon class="cls-66" points="127.677 335.145 127.677 339.97 127.677 344.794 127.677 349.619 127.677 354.444 127.677 359.269 127.677 364.094 127.677 368.919 81.134 368.919 81.134 364.094 81.134 359.269 81.134 354.444 81.134 349.619 81.134 344.794 81.134 339.97 81.134 335.145 127.677 335.145"/><path class="cls-67" d="M143.029,335.145v80.1h21.1a21.011,21.011,0,0,0,21-21v-59.1Z"/><path class="cls-68" d="M70.226,335.145v59.1a21.007,21.007,0,0,0,21,21h51.8v-80.1H127.677v33.774H81.134V335.145Z"/><rect class="cls-69" x="81.134" y="338.163" width="46.543" height="2.582"/><rect class="cls-70" x="81.134" y="343.194" width="46.543" height="2.582"/><rect class="cls-71" x="81.134" y="348.225" width="46.543" height="2.582"/><rect class="cls-72" x="81.134" y="353.256" width="46.543" height="2.582"/><rect class="cls-73" x="81.134" y="358.288" width="46.543" height="2.582"/><rect class="cls-74" x="81.134" y="363.319" width="46.543" height="2.582"/><polyline class="cls-75" points="175.644 275.015 171.535 270.906 175.644 266.797"/><path class="cls-76" d="M178.121,284.712a7.133,7.133,0,0,0,7.016,2.065v3.372a11.476,11.476,0,0,1-1.84.149,10.029,10.029,0,0,1-7.628-3.362,1.655,1.655,0,1,1,2.452-2.224Z"/><path class="cls-77" d="M189.837,434.414l-.952,10.667,9.9.878.944-10.668A7.918,7.918,0,1,1,215.5,436.7l-.952,10.667,9.9.878.943-10.668c.05-.538.075-1.076.075-1.6a17.834,17.834,0,0,0-9.037-15.493,16.817,16.817,0,0,0-1.672-.836c-.282-.124-.571-.248-.869-.356-.273-.1-.546-.2-.828-.281a.534.534,0,0,0-.149-.05c-.223-.074-.447-.14-.67-.19a1.789,1.789,0,0,0-.29-.074c-.273-.075-.546-.141-.819-.191-.29-.058-.579-.116-.877-.149-.348-.058-.7-.1-1.06-.132-.538-.05-1.075-.075-1.6-.075a17.178,17.178,0,0,0-1.738.091c-.29.025-.579.067-.869.108s-.571.091-.852.149v-.008A17.868,17.868,0,0,0,189.837,434.414Z"/><path class="cls-78" d="M193.983,377.343a1.7,1.7,0,0,0,.083-.173c.124-.249.24-.5.348-.762q.273-.621.5-1.266c.116-.3.215-.6.306-.9.133-.422.257-.861.365-1.3.074-.307.149-.613.206-.919q.112-.534.2-1.092v-.025c.05-.29.091-.58.116-.877.017-.141.033-.274.041-.414a.1.1,0,0,0,.009-.05c.033-.314.058-.629.066-.943.025-.389.033-.778.033-1.167s-.008-.778-.033-1.167q-.025-.534-.075-1.068c-.008-.041-.008-.074-.016-.116-.033-.314-.066-.629-.116-.943a37.089,37.089,0,0,1,9.021,7.672c.695.811,1.357,1.655,1.994,2.54a43.7,43.7,0,0,1,4.213,7.267,54.815,54.815,0,0,1,3.533,10.46,72.756,72.756,0,0,1,1.639,10.4,96.126,96.126,0,0,1,.364,10.287q-.05,3.725-.348,7.688a14.313,14.313,0,0,0-1.671-.836c-.282-.132-.571-.248-.869-.356-.273-.107-.546-.2-.828-.281a.534.534,0,0,0-.149-.05c-.223-.074-.447-.14-.67-.19a1.789,1.789,0,0,0-.29-.074c-.273-.075-.546-.141-.819-.191-.29-.058-.579-.107-.877-.149-.348-.058-.7-.1-1.06-.132-.538-.05-1.075-.075-1.6-.075a15.127,15.127,0,0,0-1.738.091c-.29.025-.579.058-.869.108-.281.033-.571.083-.852.141q.2-2.93.231-5.694a85.951,85.951,0,0,0-.3-8.93h-.008a60.416,60.416,0,0,0-1.283-8.35,43.015,43.015,0,0,0-2.921-8.764,29.651,29.651,0,0,0-4.436-6.969,24.269,24.269,0,0,0-1.73-1.837C193.785,377.741,193.884,377.55,193.983,377.343Z"/><path class="cls-79" d="M173.592,344.794a22.664,22.664,0,1,0,20.391,32.549,1.7,1.7,0,0,0,.083-.173c.116-.249.232-.5.348-.762q.273-.621.5-1.266c.108-.3.207-.6.306-.9.133-.422.257-.861.365-1.3.074-.3.149-.613.207-.919q.111-.546.2-1.092v-.025c.05-.29.083-.58.116-.877.017-.141.033-.282.041-.414a.1.1,0,0,0,.009-.05c.033-.314.049-.629.066-.943.025-.389.033-.778.033-1.167s-.008-.778-.033-1.167q-.025-.534-.075-1.068c-.008-.041-.008-.074-.016-.116-.033-.314-.066-.629-.116-.943A22.667,22.667,0,0,0,173.592,344.794Z"/><rect class="cls-80" x="193.986" y="374.255" width="12.474" height="3.098" transform="translate(-193.497 213.623) rotate(-39.564)"/><polygon class="cls-81" points="200.35 388.215 200.449 388.174 211.872 383.052 210.606 380.225 199.154 385.357 200.35 388.215"/><polygon class="cls-82" points="203.195 396.999 215.178 393.599 214.333 390.617 202.08 394.123 202.787 395.557 203.195 396.999"/><polygon class="cls-83" points="204.055 405.408 204.233 405.399 216.58 404.042 216.415 402.542 216.42 400.953 216.241 400.962 203.894 402.319 204.059 403.823 204.055 405.408"/><polygon class="cls-84" points="204.486 414.338 216.775 414.338 216.784 411.24 204.486 411.24 204.486 414.338"/><path class="cls-55" d="M122.984,228.675v-5.122a14.708,14.708,0,0,0,9.393,0v5.122Z"/></svg>